<svg xmlns="http://www.w3.org/2000/svg" xmlns:xlink="http://www.w3.org/1999/xlink" width="108" height="108" viewBox="0 0 108 108">
  <defs>
    <filter id="Trazado_896985" x="0" y="0" width="108" height="108" filterUnits="userSpaceOnUse">
      <feOffset dy="3" input="SourceAlpha"/>
      <feGaussianBlur stdDeviation="3" result="blur"/>
      <feFlood flood-opacity="0.161"/>
      <feComposite operator="in" in2="blur"/>
      <feComposite in="SourceGraphic"/>
    </filter>
  </defs>
  <g id="Grupo_1110257" data-name="Grupo 1110257" transform="translate(-747.781 -3827)">
    <g id="Grupo_1098742" data-name="Grupo 1098742" transform="translate(-446.539 3444.258)">
      <g transform="matrix(1, 0, 0, 1, 1194.32, 382.74)" filter="url(#Trazado_896985)">
        <g id="Trazado_896985-2" data-name="Trazado 896985" transform="translate(9 6)" fill="#efdb59" opacity="0.859">
          <path d="M 44.99993896484375 88.5 C 39.12682723999023 88.5 33.4301872253418 87.35007476806641 28.06826400756836 85.08217620849609 C 22.88850212097168 82.89132690429688 18.23627662658691 79.75461578369141 14.2408390045166 75.75916290283203 C 10.24540138244629 71.76372528076172 7.108676433563232 67.11151123046875 4.917826652526855 61.9317512512207 C 2.649926424026489 56.56982421875 1.500001430511475 50.87317657470703 1.500001430511475 45.00006103515625 C 1.500001430511475 39.12682342529297 2.649926424026489 33.4301872253418 4.917826652526855 28.06826210021973 C 7.108676433563232 22.88850021362305 10.24540138244629 18.23628807067871 14.2408390045166 14.24083709716797 C 18.23628807067871 10.24540042877197 22.88850212097168 7.108675003051758 28.06826400756836 4.917825222015381 C 33.4301872253418 2.649924993515015 39.12682723999023 1.5 44.99993896484375 1.5 C 50.87305068969727 1.5 56.5697021484375 2.649924993515015 61.93162536621094 4.917825222015381 C 67.11138916015625 7.108675003051758 71.76360321044922 10.24540042877197 75.75904083251953 14.24083709716797 C 79.75448608398438 18.23627471923828 82.89120483398438 22.88850021362305 85.08205413818359 28.06826210021973 C 87.34995269775391 33.4301872253418 88.4998779296875 39.12682342529297 88.4998779296875 44.99993896484375 C 88.4998779296875 50.87317657470703 87.34995269775391 56.56982421875 85.08205413818359 61.9317512512207 C 82.89120483398438 67.11151123046875 79.75448608398438 71.76372528076172 75.75904083251953 75.75916290283203 C 71.76360321044922 79.75461578369141 67.11138916015625 82.89132690429688 61.93162536621094 85.08217620849609 C 56.5697021484375 87.35007476806641 50.87305068969727 88.5 44.99993896484375 88.5 Z" stroke="none"/>
          <path d="M 44.99993896484375 3 C 39.32865142822266 3 33.82860946655273 4.110054016113281 28.65258026123047 6.299331665039062 C 23.65162658691406 8.414558410644531 19.15966796875 11.44332885742188 15.30149841308594 15.30149841308594 C 11.44332122802734 19.15966796875 8.41455078125 23.65162658691406 6.299324035644531 28.65258407592773 C 4.110054016113281 33.82861328125 2.999992370605469 39.32865524291992 2.999992370605469 45.00005722045898 C 2.999992370605469 50.67134475708008 4.110054016113281 56.17138671875 6.299324035644531 61.347412109375 C 8.41455078125 66.34837341308594 11.44332122802734 70.84033203125 15.30149841308594 74.69850158691406 C 19.15966796875 78.55667114257812 23.65162658691406 81.58544158935547 28.65258026123047 83.70066833496094 C 33.82860946655273 85.88994598388672 39.32865142822266 87 44.99993896484375 87 C 50.67122650146484 87 56.17126846313477 85.88994598388672 61.34729766845703 83.70066833496094 C 66.34825134277344 81.58544158935547 70.8402099609375 78.55667114257812 74.69837951660156 74.69850158691406 C 78.55654907226562 70.84033203125 81.5853271484375 66.34837341308594 83.70055389404297 61.347412109375 C 85.88982391357422 56.17138671875 86.9998779296875 50.67134475708008 86.9998779296875 44.99994277954102 C 86.9998779296875 39.32865524291992 85.88982391357422 33.82861328125 83.70055389404297 28.65258407592773 C 81.5853271484375 23.65162658691406 78.55654907226562 19.15966796875 74.69837951660156 15.30149841308594 C 70.8402099609375 11.44332885742188 66.34825134277344 8.414558410644531 61.34729766845703 6.299331665039062 C 56.17126846313477 4.110054016113281 50.67122650146484 3 44.99993896484375 3 M 44.99993896484375 0 C 69.85272216796875 0 89.99988555908203 20.14715576171875 89.99988555908203 44.99994277954102 L 89.99988555908203 45.00005722045898 C 89.99988555908203 69.85284423828125 69.85272216796875 90 44.99993896484375 90 C 20.14715576171875 90 -7.62939453125e-06 69.85284423828125 -7.62939453125e-06 45.00005722045898 L -7.62939453125e-06 44.99994277954102 C -7.62939453125e-06 20.14715576171875 20.14715576171875 0 44.99993896484375 0 Z" stroke="none" fill="#fff"/>
        </g>
      </g>
      <g id="Rectángulo_400907" data-name="Rectángulo 400907" transform="translate(1203.32 388.742)" fill="none" stroke="#fff" stroke-width="3">
        <rect width="90" height="90" rx="45" stroke="none"/>
        <rect x="1.5" y="1.5" width="87" height="87" rx="43.5" fill="none"/>
      </g>
    </g>
    <g id="cow_17926662_copia" data-name="cow_17926662 copia" transform="translate(771.317 3847.549)">
      <path id="Trazado_1033824" data-name="Trazado 1033824" d="M130.443,164.11l-1.117.11c.14,1.814-2.124,1.571-1.8-.211-.389.042-1.169-.655-1.437-.52-.194.1-.295.411-.642.487a.907.907,0,0,1-1.1-1.214c.069-.21.287-.317.344-.445.165-.372-.634-1.2-.685-1.677l-11.376.013a.97.97,0,0,0-.736.94c-.283,2.539.78,6.875-1.005,8.824a3.771,3.771,0,0,1-6.474-2.121l0-13.234a3.239,3.239,0,0,1-3.466-2.967c-.022-.509.34-1.135.31-1.43-.043-.445-1.12-2.437-1.342-3.227a12.263,12.263,0,0,1-.436-2.58c-1.452-.813-3.911-2.527-4.2-4.292-.258-1.553,2.563-1.376,3.552-1.255a6.452,6.452,0,0,1,.167-3.8c.907-1.917,2.368.664,3.071,1.4a3.69,3.69,0,0,0,3.415,1.51c1.707-.049,2.118-.5,3.181-1.622.53-.557,1.385-2.043,2.177-1.967,1.328.128,1.241,3.519.949,4.477,1.915-.176,4.729-.223,3.016,2.457h16.141c3.56,0,6.732,3.3,6.985,6.754.466,6.349-.362,13.26,0,19.668a3.77,3.77,0,0,1-6.2,2.507,4.5,4.5,0,0,1-1.287-2.4V164.11Zm-29.822-25.132c1.263-.112-.086-1.254-.223-1.117Zm9.493-1.005c-.077-.088-.913.444-.557.837C110.094,139.4,110.145,138.351,110.114,137.972ZM108.1,149.249a20.517,20.517,0,0,0,1.111-3.192,32.106,32.106,0,0,0,.018-4.684c-.2-2.131-2.974-1.1-4.312-1.162a12.675,12.675,0,0,0-2.119-.231,1.661,1.661,0,0,0-1.384,1.3,21.725,21.725,0,0,0,.211,5.576c.222.828.661,1.576.9,2.4.42-.058.716-.192,1.162-.225a17.328,17.328,0,0,1,4.411.225Zm-8.483-8.038-2.012-.167c0,.486,1.5,1.628,2.012,1.731Zm11.393,0v1.564c.515-.1,2.014-1.244,2.012-1.731Zm4.122,2.469a12.438,12.438,0,0,0-2.14.015c-.426.113-1.293.935-1.815,1.089a14.562,14.562,0,0,1-.471,2.657c-.222.78-1.3,2.791-1.342,3.226-.025.268.313.892.314,1.324a3.235,3.235,0,0,1-3.47,3.072l.012,2.332a4.3,4.3,0,0,1-.019,8.123c.08.812-.091,1.754.016,2.547a1.96,1.96,0,0,0,3.9-.322c.171-2-.061-4.324-.009-6.376a14.792,14.792,0,0,1,.308-3.6c1.726-5.575,10.011-4.8,10.765.97,2.624.18,5.49-.2,8.086.013a3.016,3.016,0,0,1,2.952,2.41c.264,2.008-.171,4.519.006,6.584a1.959,1.959,0,0,0,3.912.217l0-7.533c-5.482-.454-5.478-8.287.006-8.605.24-3.071-.083-6.647-3.463-7.709a9.074,9.074,0,0,1-17.549-.435ZM131,143.669H117.039C119.027,150.559,128.921,150.48,131,143.669Zm-27.4,7.173a1.252,1.252,0,0,0-.085,2.273,20.374,20.374,0,0,0,3.406.043,1.237,1.237,0,0,0,.18-2.289A20.793,20.793,0,0,0,103.6,150.842Zm32.537,2.769a2.52,2.52,0,0,0,0,5.027Zm-16.867,5.25a2.964,2.964,0,0,0-1.227-2.291,3.724,3.724,0,0,0-6.033,2.291ZM106.2,163.44a2.327,2.327,0,0,0,1.126-2.066c-.012-.648-.465-1.753-1.126-1.956Zm23.625-2.793c-.958-.216-2.694.161-3.741,0,.424,1.412,2.818,2.212,4.078,1.676.627-.267.173-1.561-.335-1.676Z" transform="translate(-79.267 -112.886)" fill="#030303"/>
      <path id="Trazado_1033825" data-name="Trazado 1033825" d="M17.406,234.3c.716.655-.31,1.792-.62,2.493a24.9,24.9,0,0,0-1.579,5.177c.886-.174,1.695-.652,2.594-.922a13.279,13.279,0,0,1,4.49-.633.892.892,0,0,1,.451,1.443,27.108,27.108,0,0,1-2.177,1.62,14.749,14.749,0,0,0-1.786,1.732c.791-.155,1.549-.463,2.341-.617a9.19,9.19,0,0,1,2.355-.226.925.925,0,0,1,.442,1.461,17.829,17.829,0,0,0-4.581,3.851c.907-.066,3.57-.535,4.242-.052.618.444.319,1.1-.165,1.506-1.227,1.034-2.472,1.47-3.627,2.852-.383.459-1.124,1.88-1.561,2.014H7.718c-.539-.164-1.029-1.671-1.357-2.218A11.854,11.854,0,0,0,4.09,251.14c-.673-.576-2.635-1.421-1.681-2.469.4-.439,1.336-.273,1.894-.2.822.1,1.6.433,2.414.545a13.721,13.721,0,0,0-4.285-3.366.877.877,0,0,1,.347-1.519,11.059,11.059,0,0,1,4.495.2c.083-.074-.682-.956-.779-1.063-.362-.4-.831-.853-1.23-1.227-.548-.515-1.494-.8-1.208-1.762a1.281,1.281,0,0,1,.5-.5c.877-.259,3.518.824,4.392,1.258.252.125,1.273.879,1.449.728a13.009,13.009,0,0,1,3.857-6.029c.454-.408,2.024-1.729,2.554-1.677a1.6,1.6,0,0,1,.591.258Zm-3.259,4.212a9.9,9.9,0,0,0-1.786,2.9c-.346.862-.907,1.9.133,2.441.271.071.675-.27.792-.511l.862-4.834Zm4.411,4.242a11.354,11.354,0,0,0-5.14,2.846c-.279.268-1.486,1.564-1.409,1.847l1.354,2.118c1.151-1.327,1.845-2.91,2.964-4.3.621-.77,1.415-1.4,2.008-2.125C18.439,243.019,18.607,242.965,18.559,242.755Zm-8.041,3.239c.168.115.727-.529.742-.725,0-.383-2.314-2.362-2.532-2.177l1.789,2.9Zm.332,8.041,1.315-2.639c-.85-2.514-3-5.059-5.782-5.29a11.891,11.891,0,0,1,3.911,5.749c.2.675.256,1.285.41,1.939C10.731,253.909,10.693,254.068,10.85,254.035Zm1.9.225h1.564a24.557,24.557,0,0,1,3.242-5.3c.392-.493.9-.934,1.282-1.4.074-.089.3-.225.11-.337-2.965,1.3-4.967,4.128-6.2,7.039Zm-3.8,0a6.212,6.212,0,0,0-.442-2.069c-.18-.234-1.677-1.223-1.9-1.056A18.151,18.151,0,0,1,8,253.042c.125.2.64,1.541.958,1.22Zm10.833-2.791a7.383,7.383,0,0,0-2.448.956,7.1,7.1,0,0,0-1.013,1.835c.308-.046.861.1,1.116-.055.094-.057,1.044-1.463,1.284-1.732l1.062-1Z" transform="translate(0 -197.339)" fill="#020302"/>
      <path id="Trazado_1033826" data-name="Trazado 1033826" d="M256.283,13.882a10.2,10.2,0,0,1-1.494.684,3.758,3.758,0,0,0-1.632,4.355c.2.645.725,1.016.354,1.74-.6,1.168-1.838.057-2.721-.043a3.71,3.71,0,0,0-3.764,1.71c-.305.5-.506,1.6-1.066,1.723-1.5.343-1.381-1.151-2.039-2.036a3.852,3.852,0,0,0-3.516-1.4c-.83.085-1.948,1.048-2.629.28-.649-.731.262-1.8.343-2.679a3.818,3.818,0,0,0-1.4-3.412c-.891-.663-2.475-.57-2-2.119.144-.472,1.223-.7,1.687-.987a3.766,3.766,0,0,0,1.71-3.764c-.1-.856-1.248-2.24.027-2.763.7-.284,1.056.209,1.67.395a3.749,3.749,0,0,0,4.507-1.929c.29-.558.214-1.209.943-1.4,1.217-.325,1.238.773,1.617,1.515a3.754,3.754,0,0,0,4.392,1.814c.739-.2,1.431-.877,2.1-.147.631.694,0,1.3-.2,2.04a3.761,3.761,0,0,0,1.813,4.394c.618.325,1.625.341,1.579,1.331a1.511,1.511,0,0,1-.267.694ZM239.9,7.438V9.5a7.475,7.475,0,0,1-.28.949,5.589,5.589,0,0,1-2.066,2.627c0,.18.786.763,1,1.007a6,6,0,0,1,1.343,4.745,6,6,0,0,1,4.745,1.343c.246.216.828,1.007,1.007,1a5.612,5.612,0,0,1,2.157-1.868,8.607,8.607,0,0,1,1.308-.48h2.177a5.547,5.547,0,0,1,2.344-5.64,5.757,5.757,0,0,1-2.344-5.752A5.754,5.754,0,0,1,245.54,5.1a5.552,5.552,0,0,1-5.64,2.344Z" transform="translate(-197.881 0)" fill="#040302"/>
      <path id="Trazado_1033827" data-name="Trazado 1033827" d="M36.216,71.444v19.1l1.169-1.568a.88.88,0,0,1,1.521.277c.2.514-.061.733-.319,1.148A32.9,32.9,0,0,1,36.1,93.839a.949.949,0,0,1-1.562,0,32.5,32.5,0,0,1-2.615-3.64c-.216-.374-.363-.493-.186-.946a.88.88,0,0,1,1.521-.277l1.169,1.568V70.272c0-.244.761-.712,1.056-.62l22.794,0a.911.911,0,0,1,.812,1.264,2.359,2.359,0,0,1-.48.526h-22.4Z" transform="translate(-25.141 -57.416)" fill="#020202"/>
      <path id="Trazado_1033828" data-name="Trazado 1033828" d="M177.535,194.107a9.074,9.074,0,0,0,17.549.435c3.379,1.062,3.7,4.636,3.463,7.709-5.485.319-5.488,8.151-.006,8.605l0,7.533a1.959,1.959,0,0,1-3.913-.217c-.177-2.066.258-4.578-.006-6.584a3.019,3.019,0,0,0-2.952-2.41c-2.6-.216-5.461.167-8.086-.013-.754-5.77-9.039-6.544-10.765-.97a14.785,14.785,0,0,0-.308,3.6c-.052,2.051.18,4.377.009,6.376a1.96,1.96,0,0,1-3.9.322c-.107-.792.064-1.735-.016-2.547a4.3,4.3,0,0,0,.019-8.123l-.012-2.332a3.235,3.235,0,0,0,3.47-3.072c0-.432-.341-1.056-.314-1.324.042-.436,1.12-2.447,1.342-3.226a14.562,14.562,0,0,0,.471-2.657c.524-.152,1.39-.976,1.815-1.089a12.438,12.438,0,0,1,2.14-.015Z" transform="translate(-141.673 -163.312)" fill="#e8eef2"/>
      <path id="Trazado_1033829" data-name="Trazado 1033829" d="M142.747,178.658a17.39,17.39,0,0,0-4.411-.225c-.447.033-.742.167-1.162.225-.24-.821-.679-1.567-.9-2.4a21.793,21.793,0,0,1-.211-5.576,1.661,1.661,0,0,1,1.384-1.3,12.519,12.519,0,0,1,2.119.231c1.337.066,4.115-.97,4.312,1.162a31.512,31.512,0,0,1-.018,4.684,19.723,19.723,0,0,1-1.111,3.192Zm-4.237-4.1a.92.92,0,1,0-.92.92A.921.921,0,0,0,138.51,174.563Zm4.7.009a.858.858,0,1,0-.858.858A.858.858,0,0,0,143.206,174.572Z" transform="translate(-113.917 -142.295)" fill="#dce0e4"/>
      <path id="Trazado_1033830" data-name="Trazado 1033830" d="M255.463,194.25c-2.081,6.811-11.974,6.89-13.963,0Z" transform="translate(-203.728 -163.467)" fill="#c1c1c7"/>
      <path id="Trazado_1033831" data-name="Trazado 1033831" d="M215.01,278.318h-7.26a3.724,3.724,0,0,1,6.033-2.291A2.962,2.962,0,0,1,215.01,278.318Z" transform="translate(-175.005 -232.344)" fill="#bdbdc3"/>
      <path id="Trazado_1033832" data-name="Trazado 1033832" d="M146.882,242.062a20.8,20.8,0,0,1,3.5.027,1.237,1.237,0,0,1-.18,2.289,20.532,20.532,0,0,1-3.406-.043A1.253,1.253,0,0,1,146.882,242.062Z" transform="translate(-122.547 -204.107)" fill="#c1c1c7"/>
      <path id="Trazado_1033833" data-name="Trazado 1033833" d="M356.4,261v5.026A2.52,2.52,0,0,1,356.4,261Z" transform="translate(-299.531 -220.276)" fill="#c0c0c6"/>
      <path id="Trazado_1033834" data-name="Trazado 1033834" d="M305.993,307.857c.508.115.962,1.409.335,1.676-1.258.536-3.652-.264-4.078-1.676,1.047.161,2.785-.216,3.741,0Z" transform="translate(-255.431 -260.096)" fill="#c0c0c6"/>
      <path id="Trazado_1033835" data-name="Trazado 1033835" d="M168.75,304.021V300c.661.2,1.114,1.306,1.126,1.956A2.327,2.327,0,0,1,168.75,304.021Z" transform="translate(-141.813 -253.467)" fill="#bdbdc3"/>
      <path id="Trazado_1033836" data-name="Trazado 1033836" d="M201,176.8l2.012-.167c0,.486-1.5,1.628-2.012,1.731Z" transform="translate(-169.26 -148.471)" fill="#b4b4b9"/>
      <path id="Trazado_1033837" data-name="Trazado 1033837" d="M113,176.8v1.564c-.515-.1-2.014-1.244-2.012-1.731Z" transform="translate(-92.656 -148.471)" fill="#b4b4ba"/>
      <path id="Trazado_1033838" data-name="Trazado 1033838" d="M129.983,156.3l-.223-1.117C129.9,155.045,131.246,156.189,129.983,156.3Z" transform="translate(-108.63 -130.209)" fill="#92929b"/>
      <path id="Trazado_1033839" data-name="Trazado 1033839" d="M191.315,155.947c.031.378-.019,1.43-.557.837C190.4,156.392,191.238,155.86,191.315,155.947Z" transform="translate(-160.469 -130.86)" fill="#94949d"/>
      <path id="Trazado_1033840" data-name="Trazado 1033840" d="M75.058,292.5c.049.21-.119.265-.223.39-.593.724-1.387,1.355-2.008,2.125-1.117,1.385-1.813,2.968-2.964,4.3l-1.354-2.118c-.077-.283,1.13-1.579,1.409-1.847A11.325,11.325,0,0,1,75.058,292.5Z" transform="translate(-56.499 -247.084)" fill="#95cc00"/>
      <path id="Trazado_1033841" data-name="Trazado 1033841" d="M35.217,322.929c-.158.033-.119-.125-.146-.241-.152-.654-.214-1.264-.41-1.939A11.9,11.9,0,0,0,30.75,315c2.778.231,4.931,2.775,5.782,5.29Z" transform="translate(-24.366 -266.233)" fill="#c4ee4e"/>
      <path id="Trazado_1033842" data-name="Trazado 1033842" d="M73.5,329.529c1.232-2.909,3.233-5.734,6.2-7.039.186.112-.036.247-.11.337-.383.465-.891.906-1.282,1.4a24.592,24.592,0,0,0-3.242,5.3H73.5Z" transform="translate(-60.749 -272.608)" fill="#b3e138"/>
      <path id="Trazado_1033843" data-name="Trazado 1033843" d="M70.011,264.02l-.862,4.834c-.116.241-.52.581-.792.511-1.04-.544-.478-1.579-.133-2.441a9.946,9.946,0,0,1,1.786-2.9Z" transform="translate(-55.863 -222.846)" fill="#c1eb4d"/>
      <path id="Trazado_1033844" data-name="Trazado 1033844" d="M100.92,351l-1.062,1c-.24.27-1.188,1.676-1.284,1.732-.255.153-.809.01-1.116.055a7.119,7.119,0,0,1,1.013-1.835A7.375,7.375,0,0,1,100.92,351Z" transform="translate(-81.134 -296.872)" fill="#94ca00"/>
      <path id="Trazado_1033845" data-name="Trazado 1033845" d="M34.6,351.779c-.317.322-.833-1.022-.958-1.22a18.15,18.15,0,0,0-1.387-1.906c.225-.167,1.729.831,1.9,1.056a6.356,6.356,0,0,1,.442,2.069Z" transform="translate(-25.651 -294.859)" fill="#91c700"/>
      <path id="Trazado_1033846" data-name="Trazado 1033846" d="M48.289,297.593l-1.789-2.9c.217-.185,2.532,1.795,2.532,2.177-.015.2-.573.84-.742.725Z" transform="translate(-37.77 -248.938)" fill="#afdb36"/>
      <path id="Trazado_1033847" data-name="Trazado 1033847" d="M256.579,24.1a5.55,5.55,0,0,0,5.64-2.344,5.757,5.757,0,0,0,5.752,2.344,5.754,5.754,0,0,0,2.344,5.752,5.552,5.552,0,0,0-2.344,5.64h-2.177a8.392,8.392,0,0,0-1.308.48,5.636,5.636,0,0,0-2.157,1.868c-.18,0-.763-.786-1.007-1a6,6,0,0,0-4.745-1.343,6,6,0,0,0-1.343-4.745c-.216-.246-1.007-.828-1-1.007a5.6,5.6,0,0,0,2.066-2.627,7.4,7.4,0,0,0,.28-.949V24.1Zm10.664,5.724a5,5,0,1,0-5,5A5,5,0,0,0,267.242,29.828Z" transform="translate(-214.562 -16.667)" fill="#fac71e"/>
      <circle id="Elipse_11997" data-name="Elipse 11997" cx="0.92" cy="0.92" r="0.92" transform="translate(22.752 31.347)" fill="#070707"/>
      <circle id="Elipse_11998" data-name="Elipse 11998" cx="0.858" cy="0.858" r="0.858" transform="translate(27.573 31.419)" fill="#040404"/>
      <path id="Trazado_1033848" data-name="Trazado 1033848" d="M284.493,47.377a5,5,0,1,1-5-5A5,5,0,0,1,284.493,47.377Zm-1.79,0a3.207,3.207,0,1,0-3.207,3.207A3.207,3.207,0,0,0,282.7,47.38Z" transform="translate(-231.814 -34.216)" fill="#040301"/>
      <circle id="Elipse_11999" data-name="Elipse 11999" cx="3.207" cy="3.207" r="3.207" transform="translate(44.477 9.958)" fill="#fce885"/>
    </g>
  </g>
</svg>
