<svg xmlns="http://www.w3.org/2000/svg" xmlns:xlink="http://www.w3.org/1999/xlink" width="108" height="108" viewBox="0 0 108 108">
  <defs>
    <filter id="Trazado_896985" x="0" y="0" width="108" height="108" filterUnits="userSpaceOnUse">
      <feOffset dy="3" input="SourceAlpha"/>
      <feGaussianBlur stdDeviation="3" result="blur"/>
      <feFlood flood-opacity="0.161"/>
      <feComposite operator="in" in2="blur"/>
      <feComposite in="SourceGraphic"/>
    </filter>
  </defs>
  <g id="Grupo_1111731" data-name="Grupo 1111731" transform="translate(-1166.051 -4317.063)">
    <g id="Grupo_1109828" data-name="Grupo 1109828" transform="translate(418.27 490.063)">
      <g id="Grupo_1098742" data-name="Grupo 1098742" transform="translate(-446.539 3444.258)">
        <g transform="matrix(1, 0, 0, 1, 1194.32, 382.74)" filter="url(#Trazado_896985)">
          <g id="Trazado_896985-2" data-name="Trazado 896985" transform="translate(9 6)" fill="#efdb59" opacity="0.859">
            <path d="M 44.99993896484375 88.5 C 39.12682723999023 88.5 33.4301872253418 87.35007476806641 28.06826400756836 85.08217620849609 C 22.88850212097168 82.89132690429688 18.23627662658691 79.75461578369141 14.2408390045166 75.75916290283203 C 10.24540138244629 71.76372528076172 7.108676433563232 67.11151123046875 4.917826652526855 61.9317512512207 C 2.649926424026489 56.56982421875 1.500001430511475 50.87317657470703 1.500001430511475 45.00006103515625 C 1.500001430511475 39.12682342529297 2.649926424026489 33.4301872253418 4.917826652526855 28.06826210021973 C 7.108676433563232 22.88850021362305 10.24540138244629 18.23628807067871 14.2408390045166 14.24083709716797 C 18.23628807067871 10.24540042877197 22.88850212097168 7.108675003051758 28.06826400756836 4.917825222015381 C 33.4301872253418 2.649924993515015 39.12682723999023 1.5 44.99993896484375 1.5 C 50.87305068969727 1.5 56.5697021484375 2.649924993515015 61.93162536621094 4.917825222015381 C 67.11138916015625 7.108675003051758 71.76360321044922 10.24540042877197 75.75904083251953 14.24083709716797 C 79.75448608398438 18.23627471923828 82.89120483398438 22.88850021362305 85.08205413818359 28.06826210021973 C 87.34995269775391 33.4301872253418 88.4998779296875 39.12682342529297 88.4998779296875 44.99993896484375 C 88.4998779296875 50.87317657470703 87.34995269775391 56.56982421875 85.08205413818359 61.9317512512207 C 82.89120483398438 67.11151123046875 79.75448608398438 71.76372528076172 75.75904083251953 75.75916290283203 C 71.76360321044922 79.75461578369141 67.11138916015625 82.89132690429688 61.93162536621094 85.08217620849609 C 56.5697021484375 87.35007476806641 50.87305068969727 88.5 44.99993896484375 88.5 Z" stroke="none"/>
            <path d="M 44.99993896484375 3 C 39.32865142822266 3 33.82860946655273 4.110054016113281 28.65258026123047 6.299331665039062 C 23.65162658691406 8.414558410644531 19.15966796875 11.44332885742188 15.30149841308594 15.30149841308594 C 11.44332122802734 19.15966796875 8.41455078125 23.65162658691406 6.299324035644531 28.65258407592773 C 4.110054016113281 33.82861328125 2.999992370605469 39.32865524291992 2.999992370605469 45.00005722045898 C 2.999992370605469 50.67134475708008 4.110054016113281 56.17138671875 6.299324035644531 61.347412109375 C 8.41455078125 66.34837341308594 11.44332122802734 70.84033203125 15.30149841308594 74.69850158691406 C 19.15966796875 78.55667114257812 23.65162658691406 81.58544158935547 28.65258026123047 83.70066833496094 C 33.82860946655273 85.88994598388672 39.32865142822266 87 44.99993896484375 87 C 50.67122650146484 87 56.17126846313477 85.88994598388672 61.34729766845703 83.70066833496094 C 66.34825134277344 81.58544158935547 70.8402099609375 78.55667114257812 74.69837951660156 74.69850158691406 C 78.55654907226562 70.84033203125 81.5853271484375 66.34837341308594 83.70055389404297 61.347412109375 C 85.88982391357422 56.17138671875 86.9998779296875 50.67134475708008 86.9998779296875 44.99994277954102 C 86.9998779296875 39.32865524291992 85.88982391357422 33.82861328125 83.70055389404297 28.65258407592773 C 81.5853271484375 23.65162658691406 78.55654907226562 19.15966796875 74.69837951660156 15.30149841308594 C 70.8402099609375 11.44332885742188 66.34825134277344 8.414558410644531 61.34729766845703 6.299331665039062 C 56.17126846313477 4.110054016113281 50.67122650146484 3 44.99993896484375 3 M 44.99993896484375 0 C 69.85272216796875 0 89.99988555908203 20.14715576171875 89.99988555908203 44.99994277954102 L 89.99988555908203 45.00005722045898 C 89.99988555908203 69.85284423828125 69.85272216796875 90 44.99993896484375 90 C 20.14715576171875 90 -7.62939453125e-06 69.85284423828125 -7.62939453125e-06 45.00005722045898 L -7.62939453125e-06 44.99994277954102 C -7.62939453125e-06 20.14715576171875 20.14715576171875 0 44.99993896484375 0 Z" stroke="none" fill="#fff"/>
          </g>
        </g>
        <g id="Rectángulo_400907" data-name="Rectángulo 400907" transform="translate(1203.32 388.742)" fill="none" stroke="#fff" stroke-width="3">
          <rect width="90" height="90" rx="45" stroke="none"/>
          <rect x="1.5" y="1.5" width="87" height="87" rx="43.5" fill="none"/>
        </g>
      </g>
    </g>
    <g id="beef_9921018_copia" data-name="beef_9921018 copia" transform="translate(1190.373 4291.914)">
      <path id="Trazado_1033751" data-name="Trazado 1033751" d="M33.962,57.1c.009.256-.383.927-.636.927h-3.3V96.256h1.738V85.77c0-.11.439-.655.64-.635,1.943.127,4.112-.179,6.028-.009.422.037.979.272.979.758V96.253c.307,0,.619-.008.927,0,1.206.028,2.422-.025,3.63,0l.193-.525.006-36.964-.2-.752c-1.21,0-2.422.012-3.63,0A24.743,24.743,0,0,1,36.712,58a.887.887,0,0,1-.663-.9c.011-.578.465-.769.979-.817a49.1,49.1,0,0,1,6.957,0c.694.079,1.016.467,1.616.7,3.782.3,8.24-.422,11.939-.006a2.274,2.274,0,0,1,1.795,1.506V96.135a2.45,2.45,0,0,1-1.795,1.39c-1.94.218-4.267-.158-6.25-.006a.84.84,0,0,1-.76-.8c-.059-1.27,1.79-.913,2.665-.927,1.23-.02,2.841.142,4,.006.168-.02.3-.014.4-.179V58.893c-.1-.165-.23-.161-.4-.179-1.143-.134-2.793.011-4,.006-2.431-.011-4.867.008-7.3,0v2.9a7.94,7.94,0,0,1,8.23,7.237c.307,4.182.171,8.38-3.721,10.77A8.233,8.233,0,0,1,45.9,80.849c0,.694,0,1.392,0,2.085-.026,4.285.02,8.575,0,12.86h1.912c.3,0,.641.63.636.927-.015,1.26-2.356.687-3.179.817-.409.065-.752.4-1.281.457-4.3.465-9.407-.352-13.791,0l-1.611-.474-26.769.006A2.457,2.457,0,0,1,.02,96.142V58.371a2.384,2.384,0,0,1,1.906-1.395l26.542.011c1.231-.867,3.048-.837,4.517-.707.487.043.959.269.979.817ZM6.737,84.091a15.751,15.751,0,0,1,10.171-21.98c3.618-.924,7.555-.324,11.263-.5v-2.9H1.929l-.173.173V95.618l26.415.175c.006-.269-.008-.542,0-.811.02-.692-.014-1.393,0-2.085-4.458-.131-8.85.553-13.09-1.1a16.336,16.336,0,0,1-8.343-7.7ZM14.383,68.1c-.585-1.253,1.044-1.781,1.971-2.141,3.735-1.452,7.889-.677,11.816-.871V63.353c-4.986.13-9.6-.732-14.137,1.793a13.935,13.935,0,0,0-.8,23.743c4.733,3.059,9.58,2.164,14.936,2.269V89.421c-4.787-.182-9.466.826-13.731-1.851A12.136,12.136,0,0,1,9.882,72c.341-.726,1.939-3.792,3-2.623.666.737-.624,1.94-1.02,2.629a9.4,9.4,0,0,0-1.179,3.159A8.594,8.594,0,0,1,14.732,77.2c2.05,1.662,3.051,3.649,6.08,3.533,2.628-.1,4.8-1.6,7.358-1.735l-.015-5.2a7.108,7.108,0,0,1-6.009-6.967,12.546,12.546,0,0,0-4.779.609c-.8.281-1.752,1.009-2.553.871-.151-.026-.332-.2-.429-.205Zm31.86-4.75c-.116,0-.232-.006-.348,0v1.739a5.405,5.405,0,0,1,2.665.579c1.121,1.273,1.932,1.532,2.09,3.53.2,2.529.361,6.21-2.206,7.592a5.068,5.068,0,0,1-2.549.463v1.855A.548.548,0,0,0,46.359,79a6.06,6.06,0,0,0,6.011-5.4c.442-4.413-.338-10.43-6.126-10.238ZM28.17,66.829H23.883c.13,2.38,1.767,4.88,4.287,5.1Zm17.726,8.8a2.965,2.965,0,0,0,2.765-1.579,15.563,15.563,0,0,0,.252-4.625,2.692,2.692,0,0,0-3.017-2.6ZM21.45,82.353A5.771,5.771,0,0,1,18.9,82.3c-3.347-.717-5-4.829-8.451-5.393A10.3,10.3,0,0,0,18.79,87.4a22.457,22.457,0,0,1,1.325-2.966c.411-.718.984-1.332,1.333-2.082Zm6.72-1.622c-3.71.188-6.594,3.57-7.531,6.951H28.17Zm9.5,6.14H33.5v2.085H37.67Zm0,3.823H33.5v5.561H37.67Z" transform="translate(0 0)" fill="#020101"/>
      <path id="Trazado_1033752" data-name="Trazado 1033752" d="M37.665,109.021c-.008.269.006.542,0,.811l-26.415-.175V72.933l.173-.173H37.665v2.9c-3.709.171-7.645-.426-11.263.5a15.75,15.75,0,0,0-10.171,21.98c-.224.1-.049.371,0,.524a14.914,14.914,0,0,0,9.531,9.7c3.8,1.2,7.966.462,11.905.664Z" transform="translate(-9.495 -14.04)" fill="#557882"/>
      <path id="Trazado_1033753" data-name="Trazado 1033753" d="M200.274,62.25a.886.886,0,0,0,.663.9,24.745,24.745,0,0,0,3.624.025v38.232c-.307-.008-.619,0-.927,0V91.041c0-.487-.558-.721-.979-.758-1.915-.17-4.084.136-6.028.009-.2-.02-.64.525-.64.635v10.486H194.25V63.177h3.3c.255,0,.646-.67.636-.927Zm-3.622,4.77c-.893.182-.771,2.325-.658,3.043a.868.868,0,0,0,1.707.1,12.849,12.849,0,0,0,.017-2.4A.879.879,0,0,0,196.652,67.02Zm2.9,0c-.854.178-.741,2.133-.664,2.818.139,1.25,1.52,1.277,1.713.439a11.085,11.085,0,0,0-.083-2.879A.985.985,0,0,0,199.548,67.02Zm3.012,0a.97.97,0,0,0-.661.621,15.222,15.222,0,0,0,0,2.433.848.848,0,0,0,1.664.153,8.956,8.956,0,0,0,.08-2.243c-.073-.6-.422-1.1-1.077-.962Zm.809,14.313a.877.877,0,0,0-.5-1.467,42.458,42.458,0,0,0-6.126,0,.869.869,0,0,0,0,1.724,39.837,39.837,0,0,0,5.9.009,1.62,1.62,0,0,0,.718-.267Zm-6.72,1.795a.87.87,0,0,0,.1,1.707c1.795.281,4.257-.188,6.126,0a.877.877,0,0,0,0-1.724l-6.224.017Zm6.72,3.483a1.62,1.62,0,0,0-.718-.267,38.727,38.727,0,0,0-5.68,0c-1.176.131-1.35,1.233-.344,1.735l6.247,0a.878.878,0,0,0,.5-1.467Z" transform="translate(-164.227 -5.153)" fill="#f9c539"/>
      <path id="Trazado_1033754" data-name="Trazado 1033754" d="M304.295,109.477V91.056l-.879,2.076A7.076,7.076,0,0,1,297,96.617c0-.694,0-1.392,0-2.085a8.23,8.23,0,0,0,4.509-1.225c3.893-2.39,4.029-6.588,3.721-10.77a7.974,7.974,0,0,0-1.047-3.3l.116-6.835c1.211,0,2.859-.141,4-.006.168.02.3.014.4.179V109.3c-.1.165-.23.161-.4.179-1.163.136-2.773-.026-4-.006Z" transform="translate(-251.1 -13.684)" fill="#3f5959"/>
      <path id="Trazado_1033755" data-name="Trazado 1033755" d="M260.992,68.225c1.208.008,2.421,0,3.63,0l.2.752-.006,36.964-.193.525c-1.208-.029-2.424.023-3.63,0V68.225Zm.9,3.843c-.894.182-.754,2.209-.667,2.937a.869.869,0,0,0,1.716.2,10.587,10.587,0,0,0-.062-2.669.88.88,0,0,0-.986-.473Z" transform="translate(-220.657 -10.201)" fill="#f8b42c"/>
      <path id="Trazado_1033756" data-name="Trazado 1033756" d="M72.724,126.416c.1.008.278.179.429.205.8.137,1.753-.59,2.553-.871a12.486,12.486,0,0,1,4.779-.609,7.1,7.1,0,0,0,6.009,6.967l.015,5.2c-2.553.139-4.732,1.636-7.358,1.735-3.031.116-4.03-1.871-6.08-3.533a8.6,8.6,0,0,0-4.053-2.031,9.4,9.4,0,0,1,1.179-3.159c.4-.689,1.687-1.892,1.02-2.629.2-.306,1.186-1.3,1.506-1.274Zm7.8,5.4a3.313,3.313,0,1,0-3.313,3.313A3.313,3.313,0,0,0,80.522,131.816Z" transform="translate(-58.341 -58.313)" fill="#e03b52"/>
      <path id="Trazado_1033757" data-name="Trazado 1033757" d="M304.253,211.921c-.874.014-2.723-.343-2.665.927H299.5c0-.3-.337-.927-.636-.927h-1.912c.02-4.285-.026-8.575,0-12.86a7.073,7.073,0,0,0,6.42-3.485l.877-2.076v18.421Z" transform="translate(-251.059 -116.128)" fill="#557983"/>
      <path id="Trazado_1033758" data-name="Trazado 1033758" d="M50.972,108.539c-1.057-1.169-2.655,1.9-3,2.623a12.136,12.136,0,0,0,4.557,15.568c4.265,2.677,8.944,1.67,13.731,1.851v1.738c-5.356-.105-10.2.789-14.936-2.269a13.935,13.935,0,0,1,.8-23.743c4.542-2.526,9.149-1.664,14.137-1.793v1.738c-3.927.195-8.081-.582-11.816.871-.927.36-2.557.888-1.971,2.141-.32-.025-1.3.969-1.506,1.274Z" transform="translate(-38.095 -39.161)" fill="#e5a697"/>
      <path id="Trazado_1033759" data-name="Trazado 1033759" d="M78.472,195.937c-.349.751-.924,1.364-1.333,2.082a22.457,22.457,0,0,0-1.325,2.966,10.3,10.3,0,0,1-8.345-10.495c3.456.564,5.1,4.676,8.451,5.393a5.771,5.771,0,0,0,2.553.053Z" transform="translate(-57.022 -113.583)" fill="#e03b52"/>
      <path id="Trazado_1033760" data-name="Trazado 1033760" d="M42.889,236.992a16.342,16.342,0,0,0,8.343,7.7c4.24,1.654,8.634.972,13.09,1.1-.015.694.019,1.393,0,2.085-3.941-.2-8.1.536-11.905-.664a14.914,14.914,0,0,1-9.531-9.7c-.046-.153-.221-.42,0-.524Z" transform="translate(-36.152 -152.9)" fill="#3f5858"/>
      <path id="Trazado_1033761" data-name="Trazado 1033761" d="M141.031,215.25V222.2H133.5C134.436,218.82,137.32,215.438,141.031,215.25Z" transform="translate(-112.861 -134.519)" fill="#e13b52"/>
      <path id="Trazado_1033762" data-name="Trazado 1033762" d="M299.366,118.366a7.179,7.179,0,0,0,1.968-1.8c.076-.1.4-.3.117-.4,2.566-1.383,2.4-5.064,2.206-7.592-.158-2-.967-2.255-2.09-3.53a5.2,5.2,0,0,0-.351-.635,9.259,9.259,0,0,0-1.966-1.682c5.788-.19,6.568,5.827,6.126,10.238A6.06,6.06,0,0,1,299.366,118.366Z" transform="translate(-253.007 -39.373)" fill="#df9080"/>
      <path id="Trazado_1033763" data-name="Trazado 1033763" d="M304.3,72.731l-.116,6.835A7.9,7.9,0,0,0,297,75.627v-2.9C299.431,72.739,301.867,72.72,304.3,72.731Z" transform="translate(-251.105 -14.012)" fill="#547882"/>
      <path id="Trazado_1033764" data-name="Trazado 1033764" d="M297,134.022v-8.8a2.693,2.693,0,0,1,3.017,2.6,15.562,15.562,0,0,1-.252,4.625A2.965,2.965,0,0,1,297,134.022Z" transform="translate(-251.105 -58.388)" fill="#e13b52"/>
      <rect id="Rectángulo_404862" data-name="Rectángulo 404862" width="4.171" height="5.561" transform="translate(33.499 90.695)" fill="#99e1f6"/>
      <path id="Trazado_1033765" data-name="Trazado 1033765" d="M158.787,125.25v5.1c-2.519-.218-4.157-2.717-4.287-5.1Z" transform="translate(-130.617 -58.421)" fill="#e03b52"/>
      <rect id="Rectángulo_404863" data-name="Rectángulo 404863" width="4.171" height="2.085" transform="translate(33.499 86.872)" fill="#3e5858"/>
      <path id="Trazado_1033766" data-name="Trazado 1033766" d="M299.549,189.742c.284.108-.042.309-.117.4a7.2,7.2,0,0,1-1.968,1.8.549.549,0,0,1-.463.116V190.2a5.054,5.054,0,0,0,2.549-.463Z" transform="translate(-251.105 -112.949)" fill="#e3a595"/>
      <path id="Trazado_1033767" data-name="Trazado 1033767" d="M297.348,102.734a9.3,9.3,0,0,1,1.966,1.682,5.085,5.085,0,0,1,.351.635,5.406,5.406,0,0,0-2.665-.579v-1.739c.116,0,.232,0,.348,0Z" transform="translate(-251.105 -39.381)" fill="#e6a797"/>
      <path id="Trazado_1033768" data-name="Trazado 1033768" d="M206.171,197.317l6.224-.017a.877.877,0,0,1,0,1.724c-1.869-.188-4.331.281-6.126,0A.87.87,0,0,1,206.171,197.317Z" transform="translate(-173.747 -119.341)" fill="#030201"/>
      <path id="Trazado_1033769" data-name="Trazado 1033769" d="M212.8,177.16a1.62,1.62,0,0,1-.718.267,40.043,40.043,0,0,1-5.9-.009.867.867,0,0,1,0-1.724,42.457,42.457,0,0,1,6.126,0,.877.877,0,0,1,.5,1.467Z" transform="translate(-173.652 -100.98)" fill="#040301"/>
      <path id="Trazado_1033770" data-name="Trazado 1033770" d="M212.785,217.943a.879.879,0,0,1-.5,1.467l-6.247,0c-1.006-.5-.831-1.6.344-1.735a38.727,38.727,0,0,1,5.68,0,1.62,1.62,0,0,1,.718.267Z" transform="translate(-173.642 -136.484)" fill="#050401"/>
      <path id="Trazado_1033771" data-name="Trazado 1033771" d="M224.628,93.041a.985.985,0,0,1,.965.377,11.084,11.084,0,0,1,.083,2.879c-.193.839-1.573.811-1.713-.439C223.887,95.174,223.774,93.218,224.628,93.041Z" transform="translate(-189.307 -31.174)" fill="#070602"/>
      <path id="Trazado_1033772" data-name="Trazado 1033772" d="M244.143,93.006c.655-.136,1,.36,1.077.962a8.956,8.956,0,0,1-.08,2.243.848.848,0,0,1-1.664-.153,15.215,15.215,0,0,1,0-2.433.976.976,0,0,1,.661-.621Z" transform="translate(-205.809 -31.139)" fill="#070602"/>
      <path id="Trazado_1033773" data-name="Trazado 1033773" d="M205.771,93.023a.877.877,0,0,1,1.066.74,12.981,12.981,0,0,1-.017,2.4.868.868,0,0,1-1.707-.1C205,95.348,204.878,93.205,205.771,93.023Z" transform="translate(-173.346 -31.156)" fill="#040301"/>
      <path id="Trazado_1033774" data-name="Trazado 1033774" d="M262.788,93.029a.879.879,0,0,1,.986.473,10.583,10.583,0,0,1,.062,2.669.869.869,0,0,1-1.716-.2c-.086-.728-.227-2.754.667-2.937Z" transform="translate(-221.557 -31.162)" fill="#040301"/>
      <path id="Trazado_1033775" data-name="Trazado 1033775" d="M107.207,150.323a3.313,3.313,0,1,1-3.313-3.313A3.313,3.313,0,0,1,107.207,150.323Zm-1.741,0a1.573,1.573,0,1,0-1.573,1.573A1.573,1.573,0,0,0,105.466,150.325Z" transform="translate(-85.026 -76.82)" fill="#040102"/>
      <circle id="Elipse_11994" data-name="Elipse 11994" cx="1.573" cy="1.573" r="1.573" transform="translate(17.295 71.933)" fill="#e4a596"/>
    </g>
  </g>
</svg>
