<svg xmlns="http://www.w3.org/2000/svg" xmlns:xlink="http://www.w3.org/1999/xlink" width="108" height="108" viewBox="0 0 108 108">
  <defs>
    <filter id="Trazado_896985" x="0" y="0" width="108" height="108" filterUnits="userSpaceOnUse">
      <feOffset dy="3" input="SourceAlpha"/>
      <feGaussianBlur stdDeviation="3" result="blur"/>
      <feFlood flood-opacity="0.161"/>
      <feComposite operator="in" in2="blur"/>
      <feComposite in="SourceGraphic"/>
    </filter>
  </defs>
  <g id="Grupo_1110256" data-name="Grupo 1110256" transform="translate(-747.781 -3827)">
    <g id="Grupo_1098742" data-name="Grupo 1098742" transform="translate(-446.539 3444.258)">
      <g transform="matrix(1, 0, 0, 1, 1194.32, 382.74)" filter="url(#Trazado_896985)">
        <g id="Trazado_896985-2" data-name="Trazado 896985" transform="translate(9 6)" fill="#efdb59" opacity="0.859">
          <path d="M 44.99993896484375 88.5 C 39.12682723999023 88.5 33.4301872253418 87.35007476806641 28.06826400756836 85.08217620849609 C 22.88850212097168 82.89132690429688 18.23627662658691 79.75461578369141 14.2408390045166 75.75916290283203 C 10.24540138244629 71.76372528076172 7.108676433563232 67.11151123046875 4.917826652526855 61.9317512512207 C 2.649926424026489 56.56982421875 1.500001430511475 50.87317657470703 1.500001430511475 45.00006103515625 C 1.500001430511475 39.12682342529297 2.649926424026489 33.4301872253418 4.917826652526855 28.06826210021973 C 7.108676433563232 22.88850021362305 10.24540138244629 18.23628807067871 14.2408390045166 14.24083709716797 C 18.23628807067871 10.24540042877197 22.88850212097168 7.108675003051758 28.06826400756836 4.917825222015381 C 33.4301872253418 2.649924993515015 39.12682723999023 1.5 44.99993896484375 1.5 C 50.87305068969727 1.5 56.5697021484375 2.649924993515015 61.93162536621094 4.917825222015381 C 67.11138916015625 7.108675003051758 71.76360321044922 10.24540042877197 75.75904083251953 14.24083709716797 C 79.75448608398438 18.23627471923828 82.89120483398438 22.88850021362305 85.08205413818359 28.06826210021973 C 87.34995269775391 33.4301872253418 88.4998779296875 39.12682342529297 88.4998779296875 44.99993896484375 C 88.4998779296875 50.87317657470703 87.34995269775391 56.56982421875 85.08205413818359 61.9317512512207 C 82.89120483398438 67.11151123046875 79.75448608398438 71.76372528076172 75.75904083251953 75.75916290283203 C 71.76360321044922 79.75461578369141 67.11138916015625 82.89132690429688 61.93162536621094 85.08217620849609 C 56.5697021484375 87.35007476806641 50.87305068969727 88.5 44.99993896484375 88.5 Z" stroke="none"/>
          <path d="M 44.99993896484375 3 C 39.32865142822266 3 33.82860946655273 4.110054016113281 28.65258026123047 6.299331665039062 C 23.65162658691406 8.414558410644531 19.15966796875 11.44332885742188 15.30149841308594 15.30149841308594 C 11.44332122802734 19.15966796875 8.41455078125 23.65162658691406 6.299324035644531 28.65258407592773 C 4.110054016113281 33.82861328125 2.999992370605469 39.32865524291992 2.999992370605469 45.00005722045898 C 2.999992370605469 50.67134475708008 4.110054016113281 56.17138671875 6.299324035644531 61.347412109375 C 8.41455078125 66.34837341308594 11.44332122802734 70.84033203125 15.30149841308594 74.69850158691406 C 19.15966796875 78.55667114257812 23.65162658691406 81.58544158935547 28.65258026123047 83.70066833496094 C 33.82860946655273 85.88994598388672 39.32865142822266 87 44.99993896484375 87 C 50.67122650146484 87 56.17126846313477 85.88994598388672 61.34729766845703 83.70066833496094 C 66.34825134277344 81.58544158935547 70.8402099609375 78.55667114257812 74.69837951660156 74.69850158691406 C 78.55654907226562 70.84033203125 81.5853271484375 66.34837341308594 83.70055389404297 61.347412109375 C 85.88982391357422 56.17138671875 86.9998779296875 50.67134475708008 86.9998779296875 44.99994277954102 C 86.9998779296875 39.32865524291992 85.88982391357422 33.82861328125 83.70055389404297 28.65258407592773 C 81.5853271484375 23.65162658691406 78.55654907226562 19.15966796875 74.69837951660156 15.30149841308594 C 70.8402099609375 11.44332885742188 66.34825134277344 8.414558410644531 61.34729766845703 6.299331665039062 C 56.17126846313477 4.110054016113281 50.67122650146484 3 44.99993896484375 3 M 44.99993896484375 0 C 69.85272216796875 0 89.99988555908203 20.14715576171875 89.99988555908203 44.99994277954102 L 89.99988555908203 45.00005722045898 C 89.99988555908203 69.85284423828125 69.85272216796875 90 44.99993896484375 90 C 20.14715576171875 90 -7.62939453125e-06 69.85284423828125 -7.62939453125e-06 45.00005722045898 L -7.62939453125e-06 44.99994277954102 C -7.62939453125e-06 20.14715576171875 20.14715576171875 0 44.99993896484375 0 Z" stroke="none" fill="#fff"/>
        </g>
      </g>
      <g id="Rect치ngulo_400907" data-name="Rect치ngulo 400907" transform="translate(1203.32 388.742)" fill="none" stroke="#fff" stroke-width="3">
        <rect width="90" height="90" rx="45" stroke="none"/>
        <rect x="1.5" y="1.5" width="87" height="87" rx="43.5" fill="none"/>
      </g>
    </g>
    <g id="meat_6332543_copia" data-name="meat_6332543 copia" transform="translate(771.325 3821.161)">
      <path id="Trazado_1033794" data-name="Trazado 1033794" d="M40.685,104.1a3.721,3.721,0,0,1,3.028-2.893,52.889,52.889,0,0,1,7.981,0,3.728,3.728,0,0,1,2.9,2.252c1.646,3.1,2.861,6.635,4.487,9.768l.018,12.464c.029.11.766.067.877.787a26.128,26.128,0,0,1-.018,3.918.841.841,0,0,1-.8.629l-10.693,0a6.833,6.833,0,0,1-4.851,5.841,7.024,7.024,0,0,1-8.856-8.471H22.921a7.029,7.029,0,1,1-13.6,0H6.2c-.228,0-.559-.474-.6-.719a23.686,23.686,0,0,1-.012-3.617c.028-.314.247-.927.608-.927H40.685Zm2.083-.275c-.029.048-.224.121-.228.26l-.1,19.039h8.17a1.371,1.371,0,0,1,.6.6v2.029c1.461-.009,2.926.012,4.386,0,.583,0,1.171,0,1.754,0V113.641c-1.523-2.934-2.684-6.154-4.183-9.085-.447-.876-.68-1.48-1.794-1.605a50.709,50.709,0,0,0-7.347,0,1.371,1.371,0,0,0-1.26.877ZM7.35,125.759v.877l2.67-.018c.168-.056.358-.561.51-.75.273-.338.624-.63.877-.985H7.35v.876Zm14.031,4.385a5.26,5.26,0,1,0-5.26,5.26A5.261,5.261,0,0,0,21.381,130.144Zm.333-4.275c.235.291.3.785.706.773l12.946-.006c.3-.057.4-.516.6-.768.273-.339.624-.63.877-.987H20.837C21.09,125.238,21.441,125.529,21.715,125.869Zm25.106,4.275a5.26,5.26,0,1,0-5.26,5.26A5.261,5.261,0,0,0,46.821,130.144Zm.333-4.275a6.627,6.627,0,0,1,1.316,3.4h9.759a5.779,5.779,0,0,0,0-.877v-.877h-8.17a1.371,1.371,0,0,1-.6-.6v-2.029h-3.18C46.508,125.234,46.907,125.534,47.154,125.869Z" transform="translate(0 -55.581)" fill="#010101"/>
      <path id="Trazado_1033795" data-name="Trazado 1033795" d="M39.305,35.96V65.8H5.96V35.961H39.305Zm-1.759,1.76H7.72V64.037H37.546Z" transform="translate(-0.37)"/>
      <path id="Trazado_1033796" data-name="Trazado 1033796" d="M266,120.5a36.984,36.984,0,0,0-5.43,0c-.586.069-.773.364-.825.93a51.294,51.294,0,0,0,0,6.918c.14,1.541,1.918.68,2.967.981.412.51.51,1.576,1.266,1.695,2-.162,4.4.24,6.356.009a1.321,1.321,0,0,0,.711-.332c.009.174.107.373.114.6.1,3.412-.083,6.845,0,10.258-1.461.012-2.926-.009-4.386,0v-2.029a1.363,1.363,0,0,0-.6-.6H258l.1-19.039c0-.14.2-.212.228-.26,1.964.158,4.26-.218,6.183.012C264.965,119.688,265.907,119.981,266,120.5Zm-2.741,12.281h-3.509v1.754h3.509Z" transform="translate(-215.561 -71.375)" fill="#0059bd"/>
      <path id="Trazado_1033797" data-name="Trazado 1033797" d="M260.25,114.1a1.371,1.371,0,0,1,1.26-.877,50.709,50.709,0,0,1,7.347,0c1.114.126,1.345.73,1.794,1.605,1.5,2.931,2.659,6.151,4.183,9.085V136.03c-.583,0-1.171,0-1.754,0-.079-3.414.1-6.845,0-10.258-.007-.225-.105-.424-.114-.6-.007-.155.158-.406.117-.6l-4.519-9.2a.826.826,0,0,0-.642-.4c-.1-.518-1.038-.811-1.493-.866C264.51,113.881,262.212,114.257,260.25,114.1Z" transform="translate(-217.482 -65.852)" fill="#004b9b"/>
      <path id="Trazado_1033798" data-name="Trazado 1033798" d="M226.531,269.27a5.26,5.26,0,1,1-5.26-5.26A5.261,5.261,0,0,1,226.531,269.27Zm-.873,0a4.388,4.388,0,1,0-4.388,4.388A4.387,4.387,0,0,0,225.658,269.272Z" transform="translate(-179.71 -194.708)" fill="#666"/>
      <path id="Trazado_1033799" data-name="Trazado 1033799" d="M52.531,269.27a5.26,5.26,0,1,1-5.26-5.26A5.261,5.261,0,0,1,52.531,269.27Zm-.873,0a4.388,4.388,0,1,0-4.388,4.388A4.388,4.388,0,0,0,51.658,269.27Z" transform="translate(-31.15 -194.708)" fill="#666"/>
      <path id="Trazado_1033800" data-name="Trazado 1033800" d="M111.127,264.987c-.273-.339-.624-.63-.877-.987h16.009c-.253.357-.6.648-.877.987Z" transform="translate(-89.413 -194.699)" fill="#24376a"/>
      <path id="Trazado_1033801" data-name="Trazado 1033801" d="M285.127,264.987c-.247-.335-.646-.635-.877-.987h3.18v2.029a1.364,1.364,0,0,0,.6.6h8.17v.877l-8.582-.026c-1.5-.314-.614-2.035-1.964-2.534-.151-.056-.436-.156-.531.038Z" transform="translate(-237.973 -194.699)" fill="#24376a"/>
      <path id="Trazado_1033802" data-name="Trazado 1033802" d="M130.505,270.75c-.2.253-.3.712-.6.768l-12.946.006c-.411.012-.472-.482-.706-.773Z" transform="translate(-94.535 -200.462)" fill="#334671"/>
      <path id="Trazado_1033803" data-name="Trazado 1033803" d="M301.325,272.605a5.78,5.78,0,0,1,0,.877h-9.759a6.627,6.627,0,0,0-1.316-3.4c.1-.194.38-.094.531-.038,1.349.5.461,2.219,1.964,2.534l8.582.026Z" transform="translate(-243.096 -199.796)" fill="#334571"/>
      <path id="Trazado_1033804" data-name="Trazado 1033804" d="M18,264.877V264h4.057c-.253.358-.6.649-.877.987A18.256,18.256,0,0,0,18,264.877Z" transform="translate(-10.65 -194.699)" fill="#24376a"/>
      <path id="Trazado_1033805" data-name="Trazado 1033805" d="M21.18,270c-.152.189-.342.694-.51.75l-2.67.018v-.877A18.25,18.25,0,0,1,21.18,270Z" transform="translate(-10.65 -199.716)" fill="#334571"/>
      <path id="Trazado_1033806" data-name="Trazado 1033806" d="M47.826,48V74.317H18V48Zm-28.949.876V73.44H46.95V48.876Z" transform="translate(-10.65 -10.28)" fill="#94aed0"/>
      <path id="Trazado_1033807" data-name="Trazado 1033807" d="M275.543,125.405a.822.822,0,0,1,.642.4L280.7,135c.041.194-.124.446-.117.6a1.321,1.321,0,0,1-.711.332c-1.953.231-4.354-.173-6.356-.009-.756-.118-.854-1.184-1.266-1.695-1.048-.3-2.826.56-2.966-.981a51.294,51.294,0,0,1,0-6.918c.051-.564.238-.86.825-.93A36.783,36.783,0,0,1,275.543,125.405Zm-4.5,2.632c-.034,1.459.025,2.927,0,4.386h2.029c.455,0,.879,1.377,1.151,1.7a14.874,14.874,0,0,0,2.414.054,10.641,10.641,0,0,0,1.754-.054l-3.452-6.856-3.895-.108c0,.291.007.586,0,.877Z" transform="translate(-225.099 -76.281)" fill="#010101"/>
      <rect id="Rect치ngulo_404865" data-name="Rect치ngulo 404865" width="3.509" height="1.754" transform="translate(44.194 61.406)"/>
      <path id="Trazado_1033808" data-name="Trazado 1033808" d="M230.755,274.378a4.388,4.388,0,1,1-4.388-4.388A4.387,4.387,0,0,1,230.755,274.378Zm-1.757,0A2.627,2.627,0,1,0,226.371,277,2.627,2.627,0,0,0,229,274.376Z" transform="translate(-184.807 -199.814)" fill="#747474"/>
      <path id="Trazado_1033809" data-name="Trazado 1033809" d="M56.755,274.368a4.388,4.388,0,1,1-4.388-4.388A4.388,4.388,0,0,1,56.755,274.368Zm-1.757,0a2.627,2.627,0,1,0-2.627,2.627A2.627,2.627,0,0,0,55,274.368Z" transform="translate(-36.247 -199.805)" fill="#747474"/>
      <path id="Trazado_1033810" data-name="Trazado 1033810" d="M42,53.99H67.441V75.922H46.991a5.224,5.224,0,0,1-3.456-1.754c2.712.136,4.535-1.608,7.073-1.753,3.227-.184,5.117,2,8.145,2.488,3.962.64,6.826-1.118,7.369-5.177.175-1.317.358-3.069.439-4.386.421-6.876-9.04-8.458-14.164-7.585-4.152.708-7.278,2.737-10.287,5.557Z" transform="translate(-31.141 -15.394)" fill="#d5deed"/>
      <path id="Trazado_1033811" data-name="Trazado 1033811" d="M26.632,53.99l.11,9.322a4.736,4.736,0,0,0-1.816,2.516,30.526,30.526,0,0,0-.037,5.421,3.4,3.4,0,0,0,3.278,2.918,5.213,5.213,0,0,0,3.456,1.753H52.074v2.633H24V53.991h2.632Z" transform="translate(-15.773 -15.394)" fill="#c0cee7"/>
      <path id="Trazado_1033812" data-name="Trazado 1033812" d="M287.521,150a14.55,14.55,0,0,1-2.414-.054c-.27-.323-.694-1.7-1.151-1.7h-2.029c.025-1.459-.034-2.927,0-4.386.523.089,2.38-.167,2.689.108l2.9,6.032Z" transform="translate(-235.981 -92.108)" fill="#94aed0"/>
      <path id="Trazado_1033813" data-name="Trazado 1033813" d="M281.991,138.877c.007-.291-.006-.586,0-.877l3.895.108,3.452,6.856a10.642,10.642,0,0,1-1.754.054l-2.9-6.032C284.371,138.711,282.516,138.966,281.991,138.877Z" transform="translate(-236.043 -87.121)" fill="#bfcde6"/>
      <path id="Trazado_1033814" data-name="Trazado 1033814" d="M239.295,284.647a2.627,2.627,0,1,1-2.627-2.627A2.627,2.627,0,0,1,239.295,284.647Zm-1.737,0a.892.892,0,1,0-.892.892A.892.892,0,0,0,237.558,284.649Z" transform="translate(-195.104 -210.085)" fill="#010101"/>
      <path id="Trazado_1033815" data-name="Trazado 1033815" d="M65.295,284.647a2.627,2.627,0,1,1-2.627-2.627A2.627,2.627,0,0,1,65.295,284.647Zm-1.737,0a.892.892,0,1,0-.892.892A.892.892,0,0,0,63.558,284.649Z" transform="translate(-46.544 -210.085)" fill="#010101"/>
      <path id="Trazado_1033816" data-name="Trazado 1033816" d="M32.782,94.875A3.4,3.4,0,0,1,29.5,91.957a31.487,31.487,0,0,1,.037-5.421,4.721,4.721,0,0,1,1.816-2.516c3.009-2.822,6.135-4.85,10.287-5.557,5.125-.873,14.585.709,14.164,7.585-.08,1.317-.263,3.069-.439,4.386-.542,4.059-3.407,5.819-7.369,5.177-3.028-.49-4.918-2.673-8.145-2.488C37.316,93.267,35.494,95.011,32.782,94.875Zm-1.316-7.018c.428.9,1.1.918,2.028.876,4.234-.192,6.718-3.322,11.351-.823,1.847,1,2.766,2.831,5.195,2.566,2.282-.249,4.181-3.075,4.013-5.252-.149-1.93-1.471-3.091-3.105-3.857a15.578,15.578,0,0,0-15.569,1.575,25.911,25.911,0,0,0-3.8,3.325,1.256,1.256,0,0,0-.11,1.589Zm21.6,4.167a2.351,2.351,0,0,0,.437-1.316,5.737,5.737,0,0,1-7.228.485c-2.412-1.62-3.257-3.025-6.657-2.254-2.711.614-5.5,2.326-8.373,1.221a6.669,6.669,0,0,0,.11,1.864c.768,2.352,4.322.366,5.753-.114a9.573,9.573,0,0,1,6.667.139c1.124.431,2.121,1.186,3.284,1.541,2.094.637,4.484.769,5.788-1.237.025-.039.083-.069.11-.11A.453.453,0,0,0,53.068,92.024Z" transform="translate(-20.388 -36.101)" fill="#030202"/>
      <circle id="Elipse_11995" data-name="Elipse 11995" cx="0.892" cy="0.892" r="0.892" transform="translate(40.67 73.672)" fill="#b3b3b3"/>
      <circle id="Elipse_11996" data-name="Elipse 11996" cx="0.892" cy="0.892" r="0.892" transform="translate(15.23 73.672)" fill="#b3b3b3"/>
      <path id="Trazado_1033817" data-name="Trazado 1033817" d="M61.711,102.725c-1.693-.228-4.344.518-4.395,2.576-.079,3.136,5.911,3.686,6.892.743a2.224,2.224,0,0,0-.852-2.551c.061-.213.336-.006.442.051a6.994,6.994,0,0,1,2.3,1.813c.168,2.177-1.731,5-4.013,5.252-2.428.265-3.348-1.57-5.195-2.566-4.633-2.5-7.117.632-11.351.823-.924.042-1.6.02-2.028-.876,4.434-4.977,11.726-7.7,18.2-5.263Z" transform="translate(-32.43 -56.233)" fill="#d65a6a"/>
      <path id="Trazado_1033818" data-name="Trazado 1033818" d="M64.746,95.308a6.979,6.979,0,0,0-2.3-1.813c-.105-.057-.382-.266-.442-.051a6.8,6.8,0,0,0-1.645-.768c-6.477-2.434-13.768.287-18.2,5.263a1.258,1.258,0,0,1,.11-1.589,25.912,25.912,0,0,1,3.8-3.325,15.575,15.575,0,0,1,15.569-1.575c1.635.766,2.956,1.927,3.105,3.857Z" transform="translate(-31.079 -46.183)" fill="#c9454f"/>
      <path id="Trazado_1033819" data-name="Trazado 1033819" d="M42.052,153.221a6.718,6.718,0,0,1-.11-1.864c2.874,1.105,5.663-.608,8.373-1.221,3.4-.769,4.244.636,6.657,2.255a5.739,5.739,0,0,0,7.228-.485,2.351,2.351,0,0,1-.437,1.316c-.048.063-.133.092-.11.219-.026.041-.085.07-.11.11a10.718,10.718,0,0,1-2.187.937c-4.363.686-6.771-2.888-11.012-2.569-2.563.193-4.6,2.1-7.242,1.731A3.78,3.78,0,0,1,42.052,153.221Z" transform="translate(-31.084 -97.298)" fill="#b54154"/>
      <path id="Trazado_1033820" data-name="Trazado 1033820" d="M64.242,165.1c-1.3,2.006-3.693,1.874-5.788,1.237-1.162-.354-2.159-1.108-3.284-1.541a9.565,9.565,0,0,0-6.667-.139c-1.431.48-4.986,2.465-5.753.114a3.736,3.736,0,0,0,1.051.428c2.643.364,4.679-1.538,7.242-1.731,4.241-.319,6.649,3.255,11.012,2.569A10.767,10.767,0,0,0,64.242,165.1Z" transform="translate(-31.782 -108.852)" fill="#aa3040"/>
      <path id="Trazado_1033821" data-name="Trazado 1033821" d="M190.477,172.719c-.023-.127.061-.156.11-.219A.453.453,0,0,1,190.477,172.719Z" transform="translate(-157.906 -116.577)" fill="#aa3040"/>
      <path id="Trazado_1033822" data-name="Trazado 1033822" d="M142.33,107.767a6.8,6.8,0,0,1,1.645.768,2.224,2.224,0,0,1,.852,2.551c-.981,2.943-6.971,2.393-6.892-.743C137.987,108.284,140.637,107.537,142.33,107.767Zm-1.455,1.781c-2.221.377-.9,2.053,1.154,1.7C144.25,110.872,142.933,109.2,140.876,109.548Z" transform="translate(-113.05 -61.274)" fill="#030202"/>
      <path id="Trazado_1033823" data-name="Trazado 1033823" d="M151.31,119.9c2.059-.349,3.374,1.325,1.154,1.7C150.4,121.953,149.089,120.279,151.31,119.9Z" transform="translate(-123.484 -71.628)" fill="#f7e3c7"/>
    </g>
  </g>
</svg>
