<svg xmlns="http://www.w3.org/2000/svg" xmlns:xlink="http://www.w3.org/1999/xlink" width="95.377" height="95.377" viewBox="0 0 95.377 95.377">
  <defs>
    <filter id="Trazado_896985" x="0" y="0" width="95.377" height="95.377" filterUnits="userSpaceOnUse">
      <feOffset dy="3" input="SourceAlpha"/>
      <feGaussianBlur stdDeviation="3" result="blur"/>
      <feFlood flood-opacity="0.161"/>
      <feComposite operator="in" in2="blur"/>
      <feComposite in="SourceGraphic"/>
    </filter>
  </defs>
  <g id="Grupo_1111522" data-name="Grupo 1111522" transform="translate(-747.781 -3827)">
    <g id="Grupo_1098742" data-name="Grupo 1098742" transform="translate(756.781 3833)">
      <g transform="matrix(1, 0, 0, 1, -9, -6)" filter="url(#Trazado_896985)">
        <g id="Trazado_896985-2" data-name="Trazado 896985" transform="translate(9 6)" fill="#b0ac95" opacity="0.859">
          <path d="M 38.68842697143555 75.876953125 C 33.6673583984375 75.876953125 28.79728317260742 74.89391326904297 24.21347236633301 72.95512390136719 C 19.78528213500977 71.0821533203125 15.80803775787354 68.40052032470703 12.39223766326904 64.98471832275391 C 8.976438522338867 61.56892013549805 6.294804573059082 57.5916748046875 4.421838283538818 53.16348648071289 C 2.483049154281616 48.57967758178711 1.500004768371582 43.70959854125977 1.500004768371582 38.68853378295898 C 1.500004768371582 33.66744232177734 2.483049154281616 28.79734230041504 4.421838283538818 24.21352195739746 C 6.294804573059082 19.78531074523926 8.976438522338867 15.80806541442871 12.39223766326904 12.39225387573242 C 15.80803775787354 8.976443290710449 19.78528213500977 6.294809818267822 24.21347236633301 4.421832084655762 C 28.79728317260742 2.483043193817139 33.6673583984375 1.499998807907104 38.68842697143555 1.499998807907104 C 43.70949554443359 1.499998807907104 48.57957077026367 2.483043193817139 53.16338348388672 4.421832084655762 C 57.59158325195312 6.294798851013184 61.56881713867188 8.976431846618652 64.984619140625 12.39224338531494 C 68.40042877197266 15.80804347991943 71.08206176757812 19.78527641296387 72.95502471923828 24.21347618103027 C 74.89381408691406 28.79728698730469 75.87686157226562 33.66736602783203 75.87686157226562 38.68843078613281 C 75.87686157226562 43.70952224731445 74.89381408691406 48.57962036132812 72.95502471923828 53.16344451904297 C 71.08206176757812 57.59165573120117 68.40042877197266 61.56889724731445 64.984619140625 64.98471069335938 C 61.56881713867188 68.40052032470703 57.59158325195312 71.0821533203125 53.16338348388672 72.95512390136719 C 48.57957077026367 74.89391326904297 43.70949554443359 75.876953125 38.68842697143555 75.876953125 Z" stroke="none"/>
          <path d="M 38.68842697143555 3 C 33.86919021606445 3 29.19571304321289 3.94317626953125 24.79780197143555 5.803337097167969 C 20.54840087890625 7.600692749023438 16.73142623901367 10.17437744140625 13.45290374755859 13.45289993286133 C 10.17436218261719 16.73143768310547 7.600692749023438 20.54842758178711 5.803337097167969 24.7978401184082 C 3.94317626953125 29.19576263427734 3 33.8692626953125 3 38.68852615356445 C 3 43.50776290893555 3.94317626953125 48.18123626708984 5.803337097167969 52.57915115356445 C 7.600692749023438 56.82855224609375 10.17436218261719 60.64552688598633 13.45290374755859 63.92404937744141 C 16.73142623901367 67.20259094238281 20.54840087890625 69.77626037597656 24.79780197143555 71.57361602783203 C 29.19571304321289 73.43377685546875 33.86919021606445 74.376953125 38.68842697143555 74.376953125 C 43.50765228271484 74.376953125 48.18113708496094 73.43377685546875 52.57905197143555 71.57361602783203 C 56.82845306396484 69.77626037597656 60.64542770385742 67.20257568359375 63.9239501953125 63.92404937744141 C 67.20249176025391 60.64551544189453 69.77616119384766 56.82852935791016 71.57351684570312 52.57911682128906 C 73.43367767333984 48.18119049072266 74.37685394287109 43.50767517089844 74.37685394287109 38.68842697143555 C 74.37685394287109 33.86920166015625 73.43367767333984 29.19571304321289 71.57351684570312 24.79780197143555 C 69.77616119384766 20.54840087890625 67.20249176025391 16.73142623901367 63.9239501953125 13.45289993286133 C 60.64542770385742 10.17436218261719 56.82845306396484 7.600692749023438 52.57905197143555 5.803337097167969 C 48.18113708496094 3.94317626953125 43.50765228271484 3 38.68842697143555 3 M 38.68842697143555 0 C 60.05545043945312 0 77.37685394287109 17.32138824462891 77.37685394287109 38.68842697143555 L 77.37685394287109 38.68852615356445 C 77.37685394287109 60.05556488037109 60.05545043945312 77.376953125 38.68842697143555 77.376953125 C 17.32138824462891 77.376953125 0 60.05556488037109 0 38.68852615356445 L 0 38.68842697143555 C 0 17.32138824462891 17.32138824462891 0 38.68842697143555 0 Z" stroke="none" fill="#fff"/>
        </g>
      </g>
      <g id="Rectángulo_400907" data-name="Rectángulo 400907" transform="translate(0 0)" fill="none" stroke="#fff" stroke-width="3">
        <rect width="77.377" height="77.377" rx="38.688" stroke="none"/>
        <rect x="1.5" y="1.5" width="74.377" height="74.377" rx="37.188" fill="none"/>
      </g>
    </g>
    <g id="cow_17926662_copia" data-name="cow_17926662 copia" transform="translate(768.685 3844.695)">
      <path id="Trazado_1033849" data-name="Trazado 1033849" d="M124.633,159.273l-.933.092c.117,1.514-1.773,1.312-1.5-.177-.325.035-.976-.547-1.2-.434-.162.081-.246.343-.536.407a.757.757,0,0,1-.918-1.013c.057-.175.24-.265.287-.372.138-.311-.53-1-.572-1.4l-9.5.011a.81.81,0,0,0-.614.785c-.236,2.12.652,5.74-.839,7.367a3.148,3.148,0,0,1-5.405-1.771l0-11.049a2.7,2.7,0,0,1-2.893-2.477c-.019-.425.283-.947.259-1.194-.036-.372-.935-2.034-1.12-2.694a10.238,10.238,0,0,1-.364-2.154c-1.212-.679-3.265-2.11-3.51-3.583-.215-1.3,2.14-1.149,2.966-1.048a5.387,5.387,0,0,1,.139-3.172c.757-1.6,1.977.555,2.564,1.17a3.081,3.081,0,0,0,2.851,1.261,3.044,3.044,0,0,0,2.656-1.354c.443-.465,1.156-1.706,1.818-1.643,1.109.107,1.036,2.938.792,3.738,1.6-.147,3.948-.187,2.518,2.052h13.476a6.242,6.242,0,0,1,5.832,5.639c.389,5.3-.3,11.07,0,16.421a3.147,3.147,0,0,1-5.176,2.093,3.755,3.755,0,0,1-1.074-2v-3.5Zm-24.9-20.983c1.054-.093-.072-1.047-.187-.933Zm7.926-.839c-.065-.073-.762.371-.465.7C107.645,138.645,107.687,137.767,107.661,137.451Zm-1.684,9.415a17.131,17.131,0,0,0,.928-2.665,26.8,26.8,0,0,0,.015-3.911c-.164-1.779-2.483-.915-3.6-.97a10.582,10.582,0,0,0-1.769-.193,1.386,1.386,0,0,0-1.155,1.083,18.138,18.138,0,0,0,.177,4.655c.185.691.552,1.316.752,2,.351-.048.6-.16.97-.188a14.467,14.467,0,0,1,3.683.188Zm-7.082-6.711-1.68-.139c0,.405,1.25,1.359,1.68,1.445Zm9.512,0v1.306c.43-.086,1.681-1.038,1.68-1.445Zm3.442,2.062a10.385,10.385,0,0,0-1.787.012c-.356.094-1.079.781-1.516.909a12.158,12.158,0,0,1-.393,2.218c-.185.652-1.084,2.33-1.12,2.693-.021.224.261.745.262,1.105a2.7,2.7,0,0,1-2.9,2.565l.01,1.947a3.591,3.591,0,0,1-.016,6.782c.067.678-.076,1.465.014,2.126a1.636,1.636,0,0,0,3.259-.269c.143-1.669-.051-3.61-.007-5.323a12.35,12.35,0,0,1,.257-3.007c1.441-4.654,8.358-4.008,8.987.809,2.191.15,4.583-.17,6.75.011a2.518,2.518,0,0,1,2.464,2.012c.22,1.676-.143,3.773,0,5.5a1.636,1.636,0,0,0,3.266.182l0-6.289a3.6,3.6,0,0,1,0-7.184c.2-2.564-.07-5.549-2.891-6.436a7.576,7.576,0,0,1-14.651-.363Zm13.251-.01H113.443C115.1,147.959,123.363,147.894,125.1,142.207ZM102.225,148.2a1.046,1.046,0,0,0-.071,1.9,17.009,17.009,0,0,0,2.844.036,1.033,1.033,0,0,0,.15-1.911A17.358,17.358,0,0,0,102.225,148.2Zm27.165,2.311a2.1,2.1,0,0,0,0,4.2Zm-14.082,4.383a2.475,2.475,0,0,0-1.025-1.912,3.109,3.109,0,0,0-5.037,1.912ZM104.4,158.714a1.943,1.943,0,0,0,.94-1.725c-.01-.541-.388-1.463-.94-1.633Zm19.724-2.331c-.8-.18-2.249.134-3.123,0,.354,1.179,2.353,1.846,3.4,1.4.523-.223.144-1.3-.28-1.4Z" transform="translate(-81.558 -116.148)" fill="#030303"/>
      <path id="Trazado_1033850" data-name="Trazado 1033850" d="M14.882,234.26c.6.547-.259,1.5-.517,2.081a20.788,20.788,0,0,0-1.318,4.322c.74-.145,1.415-.545,2.166-.77a11.086,11.086,0,0,1,3.749-.528.745.745,0,0,1,.377,1.2,22.624,22.624,0,0,1-1.818,1.353,12.315,12.315,0,0,0-1.491,1.446c.66-.129,1.293-.387,1.955-.515a7.672,7.672,0,0,1,1.966-.189.772.772,0,0,1,.369,1.22A14.885,14.885,0,0,0,16.5,247.1c.757-.055,2.98-.446,3.541-.044.516.371.266.916-.138,1.257-1.025.863-2.064,1.227-3.028,2.381-.32.383-.939,1.569-1.3,1.681H6.794c-.45-.137-.859-1.4-1.133-1.851a9.9,9.9,0,0,0-1.9-2.207c-.562-.481-2.2-1.186-1.4-2.062.334-.367,1.115-.228,1.582-.168.686.087,1.333.362,2.016.455a11.456,11.456,0,0,0-3.577-2.81.732.732,0,0,1,.29-1.268,9.233,9.233,0,0,1,3.753.163c.07-.062-.569-.8-.65-.888-.3-.337-.694-.712-1.027-1.025-.458-.43-1.247-.666-1.008-1.471a1.069,1.069,0,0,1,.419-.419c.732-.216,2.937.688,3.667,1.051.21.1,1.063.734,1.21.608a10.861,10.861,0,0,1,3.22-5.033c.379-.341,1.69-1.444,2.132-1.4a1.338,1.338,0,0,1,.494.215Zm-2.721,3.516a8.262,8.262,0,0,0-1.491,2.425c-.288.72-.757,1.584.111,2.038.226.06.563-.225.661-.426l.72-4.036Zm3.683,3.541a9.479,9.479,0,0,0-4.291,2.376c-.233.224-1.241,1.306-1.176,1.542L11.508,247c.961-1.108,1.541-2.43,2.474-3.586.519-.643,1.181-1.17,1.676-1.774C15.744,241.538,15.884,241.493,15.845,241.318Zm-6.713,2.7c.141.1.607-.441.619-.606,0-.32-1.932-1.972-2.114-1.818l1.493,2.423Zm.277,6.713,1.1-2.2c-.71-2.1-2.508-4.224-4.827-4.417a9.928,9.928,0,0,1,3.265,4.8c.163.563.214,1.073.342,1.619C9.309,250.63,9.277,250.763,9.409,250.735Zm1.587.188H12.3a20.5,20.5,0,0,1,2.707-4.427c.327-.412.751-.78,1.071-1.168.062-.075.247-.188.092-.281A10.733,10.733,0,0,0,11,250.924Zm-3.171,0a5.187,5.187,0,0,0-.369-1.727c-.15-.2-1.4-1.021-1.588-.882a15.153,15.153,0,0,1,1.158,1.592c.1.165.535,1.287.8,1.018Zm9.045-2.33a6.164,6.164,0,0,0-2.044.8,5.923,5.923,0,0,0-.846,1.532c.257-.039.719.082.931-.046.078-.047.872-1.221,1.072-1.446l.887-.837Z" transform="translate(0 -203.042)" fill="#020302"/>
      <path id="Trazado_1033851" data-name="Trazado 1033851" d="M252.707,11.949a8.519,8.519,0,0,1-1.247.571,3.137,3.137,0,0,0-1.363,3.636c.164.538.606.848.3,1.452-.5.975-1.534.047-2.272-.036A3.1,3.1,0,0,0,244.979,19c-.255.419-.423,1.332-.89,1.439-1.25.286-1.153-.961-1.7-1.7a3.216,3.216,0,0,0-2.936-1.165c-.693.071-1.626.875-2.195.234-.542-.611.219-1.506.286-2.237a3.188,3.188,0,0,0-1.17-2.849c-.744-.553-2.067-.476-1.671-1.769.121-.394,1.021-.588,1.409-.824a3.144,3.144,0,0,0,1.427-3.142c-.08-.715-1.042-1.87.022-2.307.581-.237.882.174,1.394.33a3.13,3.13,0,0,0,3.763-1.61c.242-.466.179-1.01.787-1.173,1.016-.271,1.033.645,1.35,1.265A3.134,3.134,0,0,0,248.521,5c.617-.17,1.195-.732,1.749-.123.527.579,0,1.087-.17,1.7a3.14,3.14,0,0,0,1.513,3.668c.516.271,1.357.285,1.318,1.112a1.262,1.262,0,0,1-.223.579Zm-13.68-5.38V8.295a6.241,6.241,0,0,1-.234.792,4.667,4.667,0,0,1-1.725,2.193c0,.15.657.637.838.841a5.011,5.011,0,0,1,1.122,3.962A5.013,5.013,0,0,1,242.99,17.2c.205.18.691.841.841.838a4.685,4.685,0,0,1,1.8-1.559,7.185,7.185,0,0,1,1.092-.4h1.818a4.631,4.631,0,0,1,1.957-4.709,4.806,4.806,0,0,1-1.957-4.8,4.8,4.8,0,0,1-4.8-1.957,4.635,4.635,0,0,1-4.709,1.957Z" transform="translate(-203.599)" fill="#040302"/>
      <path id="Trazado_1033852" data-name="Trazado 1033852" d="M35.464,71.146V87.093l.976-1.309a.735.735,0,0,1,1.27.231c.169.429-.051.612-.266.959a27.47,27.47,0,0,1-2.074,2.87.792.792,0,0,1-1.3,0A27.135,27.135,0,0,1,31.882,86.8c-.18-.312-.3-.412-.155-.79A.735.735,0,0,1,33,85.783l.976,1.309V70.167c0-.2.635-.594.882-.517l19.03,0a.761.761,0,0,1,.678,1.056,1.969,1.969,0,0,1-.4.439h-18.7Z" transform="translate(-25.868 -59.075)" fill="#020202"/>
      <path id="Trazado_1033853" data-name="Trazado 1033853" d="M176.057,194.1a7.576,7.576,0,0,0,14.651.363c2.821.887,3.091,3.871,2.891,6.436a3.6,3.6,0,0,0,0,7.184l0,6.289a1.636,1.636,0,0,1-3.266-.182c-.148-1.725.215-3.822,0-5.5a2.52,2.52,0,0,0-2.464-2.012c-2.169-.18-4.56.139-6.75-.011-.629-4.817-7.546-5.464-8.987-.809a12.345,12.345,0,0,0-.257,3.007c-.044,1.712.15,3.654.007,5.323a1.636,1.636,0,0,1-3.259.269c-.09-.662.053-1.449-.014-2.126a3.591,3.591,0,0,0,.016-6.782l-.01-1.947a2.7,2.7,0,0,0,2.9-2.565c0-.361-.285-.882-.262-1.105.035-.364.935-2.043,1.12-2.693a12.158,12.158,0,0,0,.393-2.218c.438-.127,1.16-.814,1.516-.909a10.382,10.382,0,0,1,1.787-.012Z" transform="translate(-145.767 -168.031)" fill="#e8eef2"/>
      <path id="Trazado_1033854" data-name="Trazado 1033854" d="M141.628,177.125a14.516,14.516,0,0,0-3.683-.188c-.373.027-.619.139-.97.188-.2-.685-.567-1.308-.752-2a18.194,18.194,0,0,1-.177-4.655,1.386,1.386,0,0,1,1.155-1.083,10.453,10.453,0,0,1,1.769.193c1.117.055,3.436-.809,3.6.97a26.308,26.308,0,0,1-.015,3.911,16.466,16.466,0,0,1-.928,2.665Zm-3.538-3.419a.768.768,0,1,0-.768.768A.769.769,0,0,0,138.091,173.706Zm3.92.007a.716.716,0,1,0-.716.716A.716.716,0,0,0,142.011,173.713Z" transform="translate(-117.209 -146.407)" fill="#dce0e4"/>
      <path id="Trazado_1033855" data-name="Trazado 1033855" d="M253.157,194.25c-1.737,5.686-10,5.752-11.657,0Z" transform="translate(-209.615 -168.191)" fill="#c1c1c7"/>
      <path id="Trazado_1033856" data-name="Trazado 1033856" d="M213.812,277.8H207.75a3.109,3.109,0,0,1,5.037-1.912A2.473,2.473,0,0,1,213.812,277.8Z" transform="translate(-180.062 -239.057)" fill="#bdbdc3"/>
      <path id="Trazado_1033857" data-name="Trazado 1033857" d="M146.755,242.052a17.364,17.364,0,0,1,2.923.022,1.033,1.033,0,0,1-.15,1.911,17.144,17.144,0,0,1-2.844-.036A1.046,1.046,0,0,1,146.755,242.052Z" transform="translate(-126.088 -210.005)" fill="#c1c1c7"/>
      <path id="Trazado_1033858" data-name="Trazado 1033858" d="M356.017,261v4.2A2.1,2.1,0,0,1,356.017,261Z" transform="translate(-308.186 -226.641)" fill="#c0c0c6"/>
      <path id="Trazado_1033859" data-name="Trazado 1033859" d="M305.375,307.846c.424.1.8,1.176.28,1.4-1.051.448-3.049-.22-3.4-1.4.874.134,2.325-.18,3.123,0Z" transform="translate(-262.812 -267.612)" fill="#c0c0c6"/>
      <path id="Trazado_1033860" data-name="Trazado 1033860" d="M168.75,303.357V300c.552.169.93,1.09.94,1.633A1.943,1.943,0,0,1,168.75,303.357Z" transform="translate(-145.911 -260.791)" fill="#bdbdc3"/>
      <path id="Trazado_1033861" data-name="Trazado 1033861" d="M201,176.769l1.68-.139c0,.405-1.25,1.359-1.68,1.445Z" transform="translate(-174.151 -152.761)" fill="#b4b4b9"/>
      <path id="Trazado_1033862" data-name="Trazado 1033862" d="M112.67,176.769v1.306c-.43-.086-1.681-1.038-1.68-1.445Z" transform="translate(-95.333 -152.761)" fill="#b4b4ba"/>
      <path id="Trazado_1033863" data-name="Trazado 1033863" d="M129.947,156.114l-.187-.933C129.874,155.066,131,156.021,129.947,156.114Z" transform="translate(-111.769 -133.972)" fill="#92929b"/>
      <path id="Trazado_1033864" data-name="Trazado 1033864" d="M191.208,155.945c.026.316-.016,1.194-.465.7C190.446,156.317,191.144,155.873,191.208,155.945Z" transform="translate(-165.106 -134.642)" fill="#94949d"/>
      <path id="Trazado_1033865" data-name="Trazado 1033865" d="M73.976,292.5c.041.175-.1.221-.187.326-.495.6-1.158,1.132-1.676,1.774-.933,1.156-1.513,2.478-2.474,3.586l-1.13-1.768c-.065-.236.944-1.318,1.176-1.542A9.455,9.455,0,0,1,73.976,292.5Z" transform="translate(-58.132 -254.224)" fill="#95cc00"/>
      <path id="Trazado_1033866" data-name="Trazado 1033866" d="M34.479,321.62c-.132.027-.1-.1-.122-.2-.127-.546-.179-1.056-.342-1.619A9.937,9.937,0,0,0,30.75,315c2.319.193,4.117,2.316,4.827,4.417Z" transform="translate(-25.07 -273.926)" fill="#c4ee4e"/>
      <path id="Trazado_1033867" data-name="Trazado 1033867" d="M73.5,328.366a10.737,10.737,0,0,1,5.175-5.876c.155.093-.03.206-.092.281-.32.388-.744.756-1.071,1.168a20.532,20.532,0,0,0-2.707,4.427H73.5Z" transform="translate(-62.505 -280.485)" fill="#b3e138"/>
      <path id="Trazado_1033868" data-name="Trazado 1033868" d="M69.639,264.02l-.72,4.036c-.1.2-.434.485-.661.426-.868-.454-.4-1.318-.111-2.038a8.3,8.3,0,0,1,1.491-2.425Z" transform="translate(-57.477 -229.285)" fill="#c1eb4d"/>
      <path id="Trazado_1033869" data-name="Trazado 1033869" d="M100.348,351l-.887.837c-.2.225-.992,1.4-1.072,1.446-.213.128-.675.009-.931.046A5.945,5.945,0,0,1,98.3,351.8a6.159,6.159,0,0,1,2.044-.8Z" transform="translate(-83.478 -305.45)" fill="#94ca00"/>
      <path id="Trazado_1033870" data-name="Trazado 1033870" d="M34.217,351.26c-.265.269-.7-.853-.8-1.018a15.156,15.156,0,0,0-1.158-1.592c.188-.139,1.444.694,1.588.882a5.306,5.306,0,0,1,.369,1.727Z" transform="translate(-26.392 -303.379)" fill="#91c700"/>
      <path id="Trazado_1033871" data-name="Trazado 1033871" d="M47.993,297.112,46.5,294.689c.182-.154,2.114,1.5,2.114,1.818-.012.164-.479.7-.619.606Z" transform="translate(-38.862 -256.132)" fill="#afdb36"/>
      <path id="Trazado_1033872" data-name="Trazado 1033872" d="M256.191,23.717A4.633,4.633,0,0,0,260.9,21.76a4.806,4.806,0,0,0,4.8,1.957,4.8,4.8,0,0,0,1.957,4.8,4.635,4.635,0,0,0-1.957,4.709h-1.818a7.006,7.006,0,0,0-1.092.4,4.705,4.705,0,0,0-1.8,1.559c-.15,0-.637-.657-.841-.838a5.011,5.011,0,0,0-3.962-1.122,5.013,5.013,0,0,0-1.122-3.962c-.18-.205-.841-.691-.838-.841a4.671,4.671,0,0,0,1.725-2.193,6.182,6.182,0,0,0,.234-.792V23.715Zm8.9,4.778a4.172,4.172,0,1,0-4.172,4.172A4.171,4.171,0,0,0,265.094,28.5Z" transform="translate(-220.762 -17.148)" fill="#fac71e"/>
      <circle id="Elipse_12000" data-name="Elipse 12000" cx="0.768" cy="0.768" r="0.768" transform="translate(19.345 26.531)" fill="#070707"/>
      <circle id="Elipse_12001" data-name="Elipse 12001" cx="0.716" cy="0.716" r="0.716" transform="translate(23.37 26.59)" fill="#040404"/>
      <path id="Trazado_1033873" data-name="Trazado 1033873" d="M282.843,46.552a4.172,4.172,0,1,1-4.172-4.172A4.171,4.171,0,0,1,282.843,46.552Zm-1.495,0a2.677,2.677,0,1,0-2.677,2.677A2.677,2.677,0,0,0,281.349,46.554Z" transform="translate(-238.512 -35.204)" fill="#040301"/>
      <circle id="Elipse_12002" data-name="Elipse 12002" cx="2.677" cy="2.677" r="2.677" transform="translate(37.483 8.673)" fill="#fce885"/>
    </g>
  </g>
</svg>
