<svg xmlns="http://www.w3.org/2000/svg" xmlns:xlink="http://www.w3.org/1999/xlink" width="86.423" height="86.423" viewBox="0 0 86.423 86.423">
  <defs>
    <filter id="Trazado_874925" x="0" y="0" width="86.423" height="86.423" filterUnits="userSpaceOnUse">
      <feOffset dy="3" input="SourceAlpha"/>
      <feGaussianBlur stdDeviation="3" result="blur"/>
      <feFlood flood-opacity="0.161"/>
      <feComposite operator="in" in2="blur"/>
      <feComposite in="SourceGraphic"/>
    </filter>
  </defs>
  <g id="Grupo_1111691" data-name="Grupo 1111691" transform="translate(-1127.525 -1027.934)">
    <g id="Grupo_1109835" data-name="Grupo 1109835" transform="translate(1136.525 1033.934)">
      <g id="Grupo_1107913" data-name="Grupo 1107913" transform="translate(0 0)">
        <g transform="matrix(1, 0, 0, 1, -9, -6)" filter="url(#Trazado_874925)">
          <g id="Trazado_874925-2" data-name="Trazado 874925" transform="translate(9 6)" fill="#eeb4af">
            <path d="M 34.21131896972656 66.92303466796875 C 29.79465866088867 66.92303466796875 25.51090812683105 66.05836486816406 21.47905921936035 64.35303497314453 C 17.58399963378906 62.70556640625 14.08555889129639 60.34674835205078 11.08091926574707 57.34211730957031 C 8.076289176940918 54.33747863769531 5.717468738555908 50.83903884887695 4.069998741149902 46.94397735595703 C 2.36466908454895 42.91212844848633 1.499998927116394 38.62837600708008 1.499998927116394 34.21171569824219 C 1.499998927116394 29.79465675354004 2.36466908454895 25.51090812683105 4.069998741149902 21.47905731201172 C 5.717468738555908 17.58399772644043 8.076289176940918 14.08555698394775 11.08091926574707 11.08091735839844 C 14.08555889129639 8.076287269592285 17.58399963378906 5.717467308044434 21.47905921936035 4.069997310638428 C 25.51090812683105 2.364667415618896 29.79465866088867 1.49999737739563 34.21131896972656 1.49999737739563 C 38.62797927856445 1.49999737739563 42.91172790527344 2.364667415618896 46.94358062744141 4.069997310638428 C 50.83863830566406 5.717467308044434 54.33707809448242 8.076287269592285 57.34172058105469 11.08091735839844 C 60.34634780883789 14.08555698394775 62.70516967773438 17.58399772644043 64.35263824462891 21.47905731201172 C 66.05796813964844 25.51090812683105 66.92263793945312 29.79465675354004 66.92263793945312 34.21131896972656 C 66.92263793945312 38.62837600708008 66.05796813964844 42.91212844848633 64.35263824462891 46.94397735595703 C 62.70516967773438 50.83903884887695 60.34634780883789 54.33747863769531 57.34172058105469 57.34211730957031 C 54.33707809448242 60.34674835205078 50.83863830566406 62.70556640625 46.94358062744141 64.35303497314453 C 42.91172790527344 66.05836486816406 38.62797927856445 66.92303466796875 34.21131896972656 66.92303466796875 Z" stroke="none"/>
            <path d="M 34.21131896972656 3 C 29.99649429321289 3 25.90934371948242 3.824813842773438 22.06338882446289 5.451503753662109 C 18.34711837768555 7.023353576660156 15.00894165039062 9.274223327636719 12.1415901184082 12.14158630371094 C 9.274223327636719 15.00894165039062 7.023353576660156 18.34711837768555 5.451507568359375 22.06338882446289 C 3.824813842773438 25.90933990478516 3 29.99649429321289 3 34.21171569824219 C 3 38.42654037475586 3.824813842773438 42.51369476318359 5.451507568359375 46.35964584350586 C 7.023353576660156 50.07592010498047 9.274223327636719 53.41409301757812 12.1415901184082 56.28144836425781 C 15.00894165039062 59.14881134033203 18.34711837768555 61.39968109130859 22.06338882446289 62.97152709960938 C 25.90934371948242 64.59822082519531 29.99649429321289 65.42303466796875 34.21131896972656 65.42303466796875 C 38.42613983154297 65.42303466796875 42.51329803466797 64.59822082519531 46.35924911499023 62.97152709960938 C 50.07551956176758 61.39968109130859 53.4136962890625 59.14881134033203 56.28104782104492 56.28144836425781 C 59.14841461181641 53.41409301757812 61.39928436279297 50.07592010498047 62.97113037109375 46.35964584350586 C 64.59782409667969 42.51369476318359 65.42263793945312 38.42654037475586 65.42263793945312 34.21131896972656 C 65.42263793945312 29.99649429321289 64.59782409667969 25.90933990478516 62.97113037109375 22.06338882446289 C 61.39928436279297 18.34711837768555 59.14841461181641 15.00894165039062 56.28104782104492 12.14158630371094 C 53.4136962890625 9.274223327636719 50.07551956176758 7.023353576660156 46.35924911499023 5.451503753662109 C 42.51329803466797 3.824813842773438 38.42613983154297 3 34.21131896972656 3 M 34.21131896972656 0 C 53.10570526123047 0 68.42263793945312 15.31692886352539 68.42263793945312 34.21131896972656 L 68.42263793945312 34.21171569824219 C 68.42263793945312 53.10610580444336 53.10570526123047 68.42303466796875 34.21131896972656 68.42303466796875 C 15.31692886352539 68.42303466796875 0 53.10610580444336 0 34.21171569824219 L 0 34.21131896972656 C 0 15.31692886352539 15.31692886352539 0 34.21131896972656 0 Z" stroke="none" fill="#fff"/>
          </g>
        </g>
        <g id="Trazado_874923" data-name="Trazado 874923" transform="translate(0 0)" fill="none">
          <path d="M34.211,0A34.211,34.211,0,0,1,68.423,34.211h0A34.211,34.211,0,0,1,0,34.212H0A34.211,34.211,0,0,1,34.211,0Z" stroke="none"/>
          <path d="M 34.21131896972656 3 C 29.99649429321289 3 25.90934371948242 3.824813842773438 22.06338882446289 5.451503753662109 C 18.34711837768555 7.023353576660156 15.00894165039062 9.274223327636719 12.1415901184082 12.14158630371094 C 9.274223327636719 15.00894165039062 7.023353576660156 18.34711837768555 5.451507568359375 22.06338882446289 C 3.824813842773438 25.90933990478516 3 29.99649429321289 3 34.21171569824219 C 3 38.42654037475586 3.824813842773438 42.51369476318359 5.451507568359375 46.35964584350586 C 7.023353576660156 50.07592010498047 9.274223327636719 53.41409301757812 12.1415901184082 56.28144836425781 C 15.00894165039062 59.14881134033203 18.34711837768555 61.39968109130859 22.06338882446289 62.97152709960938 C 25.90934371948242 64.59822082519531 29.99649429321289 65.42303466796875 34.21131896972656 65.42303466796875 C 38.42613983154297 65.42303466796875 42.51329803466797 64.59822082519531 46.35924911499023 62.97152709960938 C 50.07551956176758 61.39968109130859 53.4136962890625 59.14881134033203 56.28104782104492 56.28144836425781 C 59.14841461181641 53.41409301757812 61.39928436279297 50.07592010498047 62.97113037109375 46.35964584350586 C 64.59782409667969 42.51369476318359 65.42263793945312 38.42654037475586 65.42263793945312 34.21131896972656 C 65.42263793945312 29.99649429321289 64.59782409667969 25.90933990478516 62.97113037109375 22.06338882446289 C 61.39928436279297 18.34711837768555 59.14841461181641 15.00894165039062 56.28104782104492 12.14158630371094 C 53.4136962890625 9.274223327636719 50.07551956176758 7.023353576660156 46.35924911499023 5.451503753662109 C 42.51329803466797 3.824813842773438 38.42613983154297 3 34.21131896972656 3 M 34.21131896972656 0 C 53.10570526123047 0 68.42263793945312 15.31692886352539 68.42263793945312 34.21131896972656 L 68.42263793945312 34.21171569824219 C 68.42263793945312 53.10610580444336 53.10570526123047 68.42303466796875 34.21131896972656 68.42303466796875 C 15.31692886352539 68.42303466796875 0 53.10610580444336 0 34.21171569824219 L 0 34.21131896972656 C 0 15.31692886352539 15.31692886352539 0 34.21131896972656 0 Z" stroke="none" fill="#fff"/>
        </g>
      </g>
    </g>
    <g id="_26-Lumberjack" data-name="26-Lumberjack" transform="translate(1147.307 1045.272)">
      <path id="Trazado_898080" data-name="Trazado 898080" d="M36.266,20.388v4.163a3.47,3.47,0,0,1-3.47,3.47H24.47A3.47,3.47,0,0,1,21,24.551V19a2.039,2.039,0,0,1,2.082,2.082v2.776a7.494,7.494,0,0,1,5.551-2.776,7.494,7.494,0,0,1,5.551,2.776V21.082A2.039,2.039,0,0,1,36.266,19Z" transform="translate(-5.203 -5.815)" fill="#966857"/>
      <path id="Trazado_898081" data-name="Trazado 898081" d="M32.8,28.47H24.47A3.47,3.47,0,0,1,21,25v1.388a3.47,3.47,0,0,0,3.47,3.47H32.8a3.47,3.47,0,0,0,3.47-3.47V25a3.47,3.47,0,0,1-3.47,3.47Z" transform="translate(-5.203 -7.652)" fill="#7e584d"/>
      <g id="Grupo_1109867" data-name="Grupo 1109867" transform="translate(13.715 11.103)">
        <path id="Trazado_898082" data-name="Trazado 898082" d="M20.082,18.082V19.47h-.694A1.392,1.392,0,0,1,18,18.082V16h2.082Z" transform="translate(-18 -16)" fill="#faa68e"/>
        <path id="Trazado_898083" data-name="Trazado 898083" d="M45.082,18.082a1.392,1.392,0,0,1-1.388,1.388H43V16h2.082Z" transform="translate(-25.652 -16)" fill="#faa68e"/>
        <path id="Trazado_898084" data-name="Trazado 898084" d="M33.551,32v1.388a2.776,2.776,0,0,1-5.551,0V32Z" transform="translate(-21.061 -20.897)" fill="#faa68e"/>
      </g>
      <path id="Trazado_898085" data-name="Trazado 898085" d="M36.266,14.776v2.082a2.039,2.039,0,0,0-2.082,2.082v2.776a7.494,7.494,0,0,0-5.551-2.776,7.494,7.494,0,0,0-5.551,2.776V18.939A2.039,2.039,0,0,0,21,16.857V13.8A24.575,24.575,0,0,1,28.633,12a24.575,24.575,0,0,1,7.633,1.8Z" transform="translate(-5.203 -3.673)" fill="#ffcdbe"/>
      <path id="Trazado_898086" data-name="Trazado 898086" d="M28.633,12A24.575,24.575,0,0,0,21,13.8v1.388a24.575,24.575,0,0,1,7.633-1.8,24.575,24.575,0,0,1,7.633,1.8V13.8A24.575,24.575,0,0,0,28.633,12Z" transform="translate(-5.203 -3.673)" fill="#ffbeaa"/>
      <path id="Trazado_898087" data-name="Trazado 898087" d="M42.776,42v4.163H40V42h2.776Z" transform="translate(-11.019 -12.856)" fill="#cfcfcf"/>
      <path id="Trazado_898088" data-name="Trazado 898088" d="M34.325,46.633A5.147,5.147,0,0,1,33,43.163,5.2,5.2,0,0,1,35.082,39l2,1.5.777.583v4.163l-2.776,2.082A4.274,4.274,0,0,1,34.325,46.633Z" transform="translate(-8.877 -11.937)" fill="#f0f0f0"/>
      <path id="Trazado_898089" data-name="Trazado 898089" d="M42.776,49.388v4.857H40V48h2.776Z" transform="translate(-11.019 -14.692)" fill="#b2876d"/>
      <path id="Trazado_898090" data-name="Trazado 898090" d="M24.163,46v2.776H20V46h4.163Z" transform="translate(-4.897 -14.08)" fill="#9c9c9c"/>
      <path id="Trazado_898091" data-name="Trazado 898091" d="M23.776,34.1v8.258H21V34.336C22.02,34.218,22.985,34.142,23.776,34.1Z" transform="translate(-5.203 -10.438)" fill="#b2876d"/>
      <path id="Trazado_898092" data-name="Trazado 898092" d="M38.963,38.888V34.1c.791.042,1.756.118,2.776.236v5.246H39.657L38.88,39Z" transform="translate(-10.676 -10.438)" fill="#b2876d"/>
      <path id="Trazado_898093" data-name="Trazado 898093" d="M12.551,54.388v5.551H7c0-2.533.125-4.864.312-6.939h5.239Z" transform="translate(-0.918 -16.223)" fill="#ffcdbe"/>
      <path id="Trazado_898094" data-name="Trazado 898094" d="M50.878,59.939h-11.8a2.082,2.082,0,1,1,0-4.163h6.245V53h5.239C50.753,55.075,50.878,57.406,50.878,59.939Z" transform="translate(-10.101 -16.223)" fill="#ffcdbe"/>
      <path id="Trazado_898095" data-name="Trazado 898095" d="M41.163,60.388H39.082A2.073,2.073,0,0,1,37.128,59a2.043,2.043,0,0,0-.128.694,2.082,2.082,0,0,0,2.082,2.082h11.8c0-.472-.008-.93-.017-1.388Z" transform="translate(-10.101 -18.059)" fill="#ffbeaa"/>
      <path id="Trazado_898096" data-name="Trazado 898096" d="M47.47,53.47v1.388H44V50A3.4,3.4,0,0,0,47.47,53.47Z" transform="translate(-12.243 -15.304)" fill="#966857"/>
      <path id="Trazado_898097" data-name="Trazado 898097" d="M32.348,48v6.245a2.082,2.082,0,1,0,0,4.163H15V52.857a3.4,3.4,0,0,0,3.47-3.47H28.816a4.274,4.274,0,0,0,.756.694Z" transform="translate(-3.367 -14.692)" fill="#966857"/>
      <path id="Trazado_898098" data-name="Trazado 898098" d="M7.193,47h4.746v4.163H6.388A1.392,1.392,0,0,1,5,49.776V48.388A1.392,1.392,0,0,1,6.388,47Z" transform="translate(-0.306 -14.386)" fill="#d9d9d9"/>
      <path id="Trazado_898099" data-name="Trazado 898099" d="M6.388,50.388A1.392,1.392,0,0,1,5,49v1.388a1.392,1.392,0,0,0,1.388,1.388h5.551V50.388Z" transform="translate(-0.306 -14.998)" fill="#c1c1c1"/>
      <path id="Trazado_898100" data-name="Trazado 898100" d="M55.939,48.388v1.388a1.392,1.392,0,0,1-1.388,1.388H49V47h5.551A1.392,1.392,0,0,1,55.939,48.388Z" transform="translate(-13.774 -14.386)" fill="#d9d9d9"/>
      <path id="Trazado_898101" data-name="Trazado 898101" d="M54.551,50.388H49v1.388h5.551a1.392,1.392,0,0,0,1.388-1.388V49A1.392,1.392,0,0,1,54.551,50.388Z" transform="translate(-13.774 -14.998)" fill="#c1c1c1"/>
      <path id="Trazado_898102" data-name="Trazado 898102" d="M8.16,44.245A48.492,48.492,0,0,1,9.437,38l3.47,3.47v2.776Z" transform="translate(-1.273 -11.631)" fill="#c5305b"/>
      <path id="Trazado_898103" data-name="Trazado 898103" d="M17.633,34.44v8.022h-.694v2.776a3.4,3.4,0,0,1-3.47,3.47V40.38L10,36.91C11.443,35.467,14.774,34.773,17.633,34.44Z" transform="translate(-1.837 -10.542)" fill="#f56b70"/>
      <path id="Trazado_898104" data-name="Trazado 898104" d="M32.633,37.47a5.2,5.2,0,0,0-2.082,4.163,5.147,5.147,0,0,0,1.325,3.47H25.694V42.327H25V34.069C26.249,34,27.082,34,27.082,34a2.776,2.776,0,1,0,5.551,0s.833,0,2.082.069v4.788l-.083.111Z" transform="translate(-6.428 -10.407)" fill="#f56b70"/>
      <path id="Trazado_898105" data-name="Trazado 898105" d="M50.633,36.91l-3.47,3.47v8.327a3.4,3.4,0,0,1-3.47-3.47V39.686H43V34.44C45.859,34.773,49.19,35.467,50.633,36.91Z" transform="translate(-11.937 -10.542)" fill="#f56b70"/>
      <path id="Trazado_898106" data-name="Trazado 898106" d="M53.746,44.245H49V41.47L52.47,38A48.493,48.493,0,0,1,53.746,44.245Z" transform="translate(-13.774 -11.631)" fill="#c5305b"/>
      <path id="Trazado_898107" data-name="Trazado 898107" d="M34.572,1a17.852,17.852,0,0,1,1.381,6.655,24.74,24.74,0,0,0-7.626-1.8C24.857,5.857,20,7.939,20,7.939A18.572,18.572,0,0,1,21.388,1Z" transform="translate(-4.897 -0.306)" fill="#f19563"/>
      <path id="Trazado_898108" data-name="Trazado 898108" d="M28.327,6c-3.234,0-7.668,1.8-8.258,2.053C20,8.9,20,9.47,20,9.47s4.857-2.082,8.327-2.082a24.74,24.74,0,0,1,7.626,1.8c-.008-.294-.031-.8-.089-1.421A24.482,24.482,0,0,0,28.327,6Z" transform="translate(-4.897 -1.837)" fill="#d25242"/>
      <path id="Trazado_898109" data-name="Trazado 898109" d="M37.042,11.47a2.422,2.422,0,0,1-.694,1.388s-.257-.111-.694-.278a24.575,24.575,0,0,0-7.633-1.8,24.575,24.575,0,0,0-7.633,1.8c-.437.167-.694.278-.694.278A2.422,2.422,0,0,1,19,11.47a2.422,2.422,0,0,1,.694-1.388S24.551,8,28.021,8a24.74,24.74,0,0,1,7.626,1.8c.444.173.7.285.7.285a2.422,2.422,0,0,1,.694,1.388Z" transform="translate(-4.591 -2.449)" fill="#fdca80"/>
      <path id="Trazado_898110" data-name="Trazado 898110" d="M36.348,12.082s-.257-.111-.694-.278A24.575,24.575,0,0,0,28.021,10a24.575,24.575,0,0,0-7.633,1.8c-.437.167-.694.278-.694.278a3.192,3.192,0,0,1-.5-.694,1.549,1.549,0,0,0-.2.694,2.422,2.422,0,0,0,.694,1.388s.257-.111.694-.278a24.575,24.575,0,0,1,7.633-1.8,24.575,24.575,0,0,1,7.633,1.8c.437.167.694.278.694.278a2.422,2.422,0,0,0,.694-1.388,1.549,1.549,0,0,0-.2-.694,3.192,3.192,0,0,1-.5.694Z" transform="translate(-4.591 -3.061)" fill="#f19563"/>
      <path id="Trazado_898111" data-name="Trazado 898111" d="M26.123,60.605H6.694A.694.694,0,0,1,6,59.912c0-2.329.106-4.685.315-7l1.382.125c-.185,2.045-.287,4.122-.309,6.183H26.123Z" transform="translate(-0.612 -16.195)"/>
      <path id="Trazado_898112" data-name="Trazado 898112" d="M8.544,42.2,7.171,42a48.92,48.92,0,0,1,1.3-6.344.694.694,0,0,1,.174-.291c2.524-2.524,9.957-2.91,12.287-2.969V31h1.388v2.082a.694.694,0,0,1-.694.694c-2.573,0-9.62.447-11.876,2.455A51.467,51.467,0,0,0,8.544,42.2Z" transform="translate(-0.971 -9.489)"/>
      <path id="Trazado_898113" data-name="Trazado 898113" d="M50.572,55.825h-11.8a2.776,2.776,0,0,1,0-5.551h5.551V41.253a.694.694,0,0,1,.2-.49L48,37.293l.981.981L45.715,41.54v9.428a.694.694,0,0,1-.694.694H38.776a1.388,1.388,0,0,0,0,2.776h11.1c-.019-2.061-.122-4.138-.307-6.183l1.382-.125c.208,2.316.315,4.672.315,7a.694.694,0,0,1-.7.694Z" transform="translate(-9.795 -11.415)"/>
      <path id="Trazado_898114" data-name="Trazado 898114" d="M48.775,42.2a51.466,51.466,0,0,0-1.205-5.973c-2.256-2.008-9.3-2.455-11.876-2.455A.694.694,0,0,1,35,33.082V31h1.388v1.4c2.33.059,9.763.444,12.287,2.969a.694.694,0,0,1,.174.291A48.922,48.922,0,0,1,50.147,42Z" transform="translate(-9.489 -9.489)"/>
      <path id="Trazado_898115" data-name="Trazado 898115" d="M13.947,55.131H12.559V41.54L9.293,38.274l.981-.981,3.47,3.47a.694.694,0,0,1,.2.491Z" transform="translate(-1.62 -11.415)"/>
      <path id="Trazado_898116" data-name="Trazado 898116" d="M32.49,27.184H24.163A4.168,4.168,0,0,1,20,23.021V14h1.388v9.021A2.776,2.776,0,0,0,24.163,25.8H32.49a2.776,2.776,0,0,0,2.776-2.776V14h1.388v9.021A4.168,4.168,0,0,1,32.49,27.184Z" transform="translate(-4.897 -4.285)"/>
      <path id="Trazado_898117" data-name="Trazado 898117" d="M36.042,13.245a.686.686,0,0,1-.273-.056c-.047-.02-4.769-2.026-8.054-2.026s-8.006,2.005-8.054,2.026a.694.694,0,0,1-.763-.147,3.053,3.053,0,0,1-.9-1.878,3.053,3.053,0,0,1,.9-1.878.694.694,0,0,1,.217-.147c.2-.087,5.029-2.138,8.6-2.138s8.4,2.051,8.6,2.138a.694.694,0,0,1,.217.147,3.053,3.053,0,0,1,.9,1.878,3.053,3.053,0,0,1-.9,1.878A.694.694,0,0,1,36.042,13.245Zm-8.327-3.47a25.683,25.683,0,0,1,8.11,1.937,1.161,1.161,0,0,0,.217-.549,1.586,1.586,0,0,0-.408-.806c-.8-.328-4.946-1.97-7.919-1.97s-7.124,1.643-7.92,1.97a1.588,1.588,0,0,0-.407.806,1.164,1.164,0,0,0,.217.549A25.693,25.693,0,0,1,27.715,9.776Z" transform="translate(-4.285 -2.143)"/>
      <path id="Trazado_898118" data-name="Trazado 898118" d="M34.96,7.633a18.829,18.829,0,0,0-1.136-6.245h-12.3a18.83,18.83,0,0,0-1.136,6.245H19A19.067,19.067,0,0,1,20.461.384.694.694,0,0,1,21.082,0H34.266a.694.694,0,0,1,.625.384,19.108,19.108,0,0,1,1.457,7.249Z" transform="translate(-4.591)"/>
      <path id="Trazado_898119" data-name="Trazado 898119" d="M19.776,19.857h-.694A2.082,2.082,0,0,1,17,17.776V15.694A.694.694,0,0,1,17.694,15h2.082v1.388H18.388v1.388a.694.694,0,0,0,.694.694h.694Z" transform="translate(-3.979 -4.591)"/>
      <path id="Trazado_898120" data-name="Trazado 898120" d="M43.694,19.857H43V18.47h.694a.694.694,0,0,0,.694-.694V16.388H43V15h2.082a.694.694,0,0,1,.694.694v2.082A2.082,2.082,0,0,1,43.694,19.857Z" transform="translate(-11.937 -4.591)"/>
      <path id="Trazado_898121" data-name="Trazado 898121" d="M28.163,17.082H26.776a.694.694,0,0,0-1.388,0H24a2.082,2.082,0,0,1,4.163,0Z" transform="translate(-6.122 -4.591)"/>
      <path id="Trazado_898122" data-name="Trazado 898122" d="M38.163,17.082H36.776a.694.694,0,0,0-1.388,0H34a2.082,2.082,0,0,1,4.163,0Z" transform="translate(-9.183 -4.591)"/>
      <path id="Trazado_898123" data-name="Trazado 898123" d="M34.182,24.245a.694.694,0,0,1-.555-.278,6.853,6.853,0,0,0-5-2.5,6.852,6.852,0,0,0-5,2.5.694.694,0,0,1-1.249-.416V20.775a1.308,1.308,0,0,0-1.393-1.388L21,18a2.7,2.7,0,0,1,2.776,2.776v1.11a7.441,7.441,0,0,1,9.715,0v-1.11A2.7,2.7,0,0,1,36.264,18l0,1.388a1.308,1.308,0,0,0-1.393,1.388v2.776A.694.694,0,0,1,34.182,24.245Z" transform="translate(-5.201 -5.509)"/>
      <path id="Trazado_898124" data-name="Trazado 898124" d="M30.776,27.776A2.776,2.776,0,0,1,28,25h1.388a1.388,1.388,0,1,0,2.776,0h1.388A2.776,2.776,0,0,1,30.776,27.776Z" transform="translate(-7.346 -7.652)"/>
      <path id="Trazado_898125" data-name="Trazado 898125" d="M11.633,51.551H6.082A2.082,2.082,0,0,1,4,49.47V48.082A2.082,2.082,0,0,1,6.082,46h5.551a.694.694,0,0,1,.694.694v4.163A.694.694,0,0,1,11.633,51.551ZM6.082,47.388a.694.694,0,0,0-.694.694V49.47a.694.694,0,0,0,.694.694h4.857V47.388Z" transform="translate(0 -14.08)"/>
      <path id="Trazado_898126" data-name="Trazado 898126" d="M54.245,51.551H48.694A.694.694,0,0,1,48,50.857V46.694A.694.694,0,0,1,48.694,46h5.551a2.082,2.082,0,0,1,2.082,2.082V49.47A2.082,2.082,0,0,1,54.245,51.551Zm-4.857-1.388h4.857a.694.694,0,0,0,.694-.694V48.082a.694.694,0,0,0-.694-.694H49.388Z" transform="translate(-13.468 -14.08)"/>
      <path id="Trazado_898127" data-name="Trazado 898127" d="M23.857,49.163H19.694A.694.694,0,0,1,19,48.47V45.694A.694.694,0,0,1,19.694,45h4.163a.694.694,0,0,1,.694.694V48.47A.694.694,0,0,1,23.857,49.163Zm-3.47-1.388h2.776V46.388H20.388Z" transform="translate(-4.591 -13.774)"/>
      <path id="Trazado_898128" data-name="Trazado 898128" d="M20,34h1.388v8.327H20Z" transform="translate(-4.897 -10.407)"/>
      <path id="Trazado_898129" data-name="Trazado 898129" d="M24,34h1.388v8.327H24Z" transform="translate(-6.122 -10.407)"/>
      <path id="Trazado_898130" data-name="Trazado 898130" d="M38,34h1.388v4.857H38Z" transform="translate(-10.407 -10.407)"/>
      <path id="Trazado_898131" data-name="Trazado 898131" d="M42,34h1.388v5.551H42Z" transform="translate(-11.631 -10.407)"/>
      <path id="Trazado_898132" data-name="Trazado 898132" d="M30.469,37.468A3.345,3.345,0,0,1,27,34h.694l.694,0a2.082,2.082,0,1,0,4.163,0l1.388,0a3.345,3.345,0,0,1-3.47,3.47Z" transform="translate(-7.039 -10.405)"/>
      <path id="Trazado_898133" data-name="Trazado 898133" d="M15,54.163V52.776A2.692,2.692,0,0,0,17.776,50h1.388A4.014,4.014,0,0,1,15,54.163Z" transform="translate(-3.367 -15.304)"/>
      <path id="Trazado_898134" data-name="Trazado 898134" d="M47.162,54.163A4.014,4.014,0,0,1,43,50h1.388a2.672,2.672,0,0,0,2.776,2.776Z" transform="translate(-11.936 -15.304)"/>
      <path id="Trazado_898135" data-name="Trazado 898135" d="M42.47,46.551H39.694A.694.694,0,0,1,39,45.857V41.694A.694.694,0,0,1,39.694,41H42.47a.694.694,0,0,1,.694.694v4.163A.694.694,0,0,1,42.47,46.551Zm-2.082-1.388h1.388V42.388H40.388Z" transform="translate(-10.713 -12.55)"/>
      <path id="Trazado_898136" data-name="Trazado 898136" d="M34.776,47.715a.694.694,0,0,1-.385-.117,5.9,5.9,0,0,1,0-9.481.694.694,0,0,1,.8.022l2.776,2.082a.694.694,0,0,1,.278.555v4.163a.694.694,0,0,1-.278.555l-2.776,2.082a.694.694,0,0,1-.416.139Zm.019-8.139a4.529,4.529,0,0,0,0,6.563l2.062-1.547v-3.47Z" transform="translate(-8.571 -11.631)"/>
      <path id="Trazado_898137" data-name="Trazado 898137" d="M39,48h1.388v6.245H39Z" transform="translate(-10.713 -14.692)"/>
      <path id="Trazado_898138" data-name="Trazado 898138" d="M43,48h1.388v6.245H43Z" transform="translate(-11.937 -14.692)"/>
      <path id="Trazado_898139" data-name="Trazado 898139" d="M26,49h6.245v1.388H26Z" transform="translate(-6.734 -14.998)"/>
    </g>
  </g>
</svg>
