<svg xmlns="http://www.w3.org/2000/svg" xmlns:xlink="http://www.w3.org/1999/xlink" width="108" height="108" viewBox="0 0 108 108">
  <defs>
    <filter id="Trazado_896985" x="0" y="0" width="108" height="108" filterUnits="userSpaceOnUse">
      <feOffset dy="3" input="SourceAlpha"/>
      <feGaussianBlur stdDeviation="3" result="blur"/>
      <feFlood flood-opacity="0.161"/>
      <feComposite operator="in" in2="blur"/>
      <feComposite in="SourceGraphic"/>
    </filter>
  </defs>
  <g id="Grupo_1110259" data-name="Grupo 1110259" transform="translate(-747.781 -3827)">
    <g id="Grupo_1098742" data-name="Grupo 1098742" transform="translate(-446.539 3444.258)">
      <g transform="matrix(1, 0, 0, 1, 1194.32, 382.74)" filter="url(#Trazado_896985)">
        <g id="Trazado_896985-2" data-name="Trazado 896985" transform="translate(9 6)" fill="#efdb59" opacity="0.859">
          <path d="M 44.99993896484375 88.5 C 39.12682723999023 88.5 33.4301872253418 87.35007476806641 28.06826400756836 85.08217620849609 C 22.88850212097168 82.89132690429688 18.23627662658691 79.75461578369141 14.2408390045166 75.75916290283203 C 10.24540138244629 71.76372528076172 7.108676433563232 67.11151123046875 4.917826652526855 61.9317512512207 C 2.649926424026489 56.56982421875 1.500001430511475 50.87317657470703 1.500001430511475 45.00006103515625 C 1.500001430511475 39.12682342529297 2.649926424026489 33.4301872253418 4.917826652526855 28.06826210021973 C 7.108676433563232 22.88850021362305 10.24540138244629 18.23628807067871 14.2408390045166 14.24083709716797 C 18.23628807067871 10.24540042877197 22.88850212097168 7.108675003051758 28.06826400756836 4.917825222015381 C 33.4301872253418 2.649924993515015 39.12682723999023 1.5 44.99993896484375 1.5 C 50.87305068969727 1.5 56.5697021484375 2.649924993515015 61.93162536621094 4.917825222015381 C 67.11138916015625 7.108675003051758 71.76360321044922 10.24540042877197 75.75904083251953 14.24083709716797 C 79.75448608398438 18.23627471923828 82.89120483398438 22.88850021362305 85.08205413818359 28.06826210021973 C 87.34995269775391 33.4301872253418 88.4998779296875 39.12682342529297 88.4998779296875 44.99993896484375 C 88.4998779296875 50.87317657470703 87.34995269775391 56.56982421875 85.08205413818359 61.9317512512207 C 82.89120483398438 67.11151123046875 79.75448608398438 71.76372528076172 75.75904083251953 75.75916290283203 C 71.76360321044922 79.75461578369141 67.11138916015625 82.89132690429688 61.93162536621094 85.08217620849609 C 56.5697021484375 87.35007476806641 50.87305068969727 88.5 44.99993896484375 88.5 Z" stroke="none"/>
          <path d="M 44.99993896484375 3 C 39.32865142822266 3 33.82860946655273 4.110054016113281 28.65258026123047 6.299331665039062 C 23.65162658691406 8.414558410644531 19.15966796875 11.44332885742188 15.30149841308594 15.30149841308594 C 11.44332122802734 19.15966796875 8.41455078125 23.65162658691406 6.299324035644531 28.65258407592773 C 4.110054016113281 33.82861328125 2.999992370605469 39.32865524291992 2.999992370605469 45.00005722045898 C 2.999992370605469 50.67134475708008 4.110054016113281 56.17138671875 6.299324035644531 61.347412109375 C 8.41455078125 66.34837341308594 11.44332122802734 70.84033203125 15.30149841308594 74.69850158691406 C 19.15966796875 78.55667114257812 23.65162658691406 81.58544158935547 28.65258026123047 83.70066833496094 C 33.82860946655273 85.88994598388672 39.32865142822266 87 44.99993896484375 87 C 50.67122650146484 87 56.17126846313477 85.88994598388672 61.34729766845703 83.70066833496094 C 66.34825134277344 81.58544158935547 70.8402099609375 78.55667114257812 74.69837951660156 74.69850158691406 C 78.55654907226562 70.84033203125 81.5853271484375 66.34837341308594 83.70055389404297 61.347412109375 C 85.88982391357422 56.17138671875 86.9998779296875 50.67134475708008 86.9998779296875 44.99994277954102 C 86.9998779296875 39.32865524291992 85.88982391357422 33.82861328125 83.70055389404297 28.65258407592773 C 81.5853271484375 23.65162658691406 78.55654907226562 19.15966796875 74.69837951660156 15.30149841308594 C 70.8402099609375 11.44332885742188 66.34825134277344 8.414558410644531 61.34729766845703 6.299331665039062 C 56.17126846313477 4.110054016113281 50.67122650146484 3 44.99993896484375 3 M 44.99993896484375 0 C 69.85272216796875 0 89.99988555908203 20.14715576171875 89.99988555908203 44.99994277954102 L 89.99988555908203 45.00005722045898 C 89.99988555908203 69.85284423828125 69.85272216796875 90 44.99993896484375 90 C 20.14715576171875 90 -7.62939453125e-06 69.85284423828125 -7.62939453125e-06 45.00005722045898 L -7.62939453125e-06 44.99994277954102 C -7.62939453125e-06 20.14715576171875 20.14715576171875 0 44.99993896484375 0 Z" stroke="none" fill="#fff"/>
        </g>
      </g>
      <g id="Rect치ngulo_400907" data-name="Rect치ngulo 400907" transform="translate(1203.32 388.742)" fill="none" stroke="#fff" stroke-width="3">
        <rect width="90" height="90" rx="45" stroke="none"/>
        <rect x="1.5" y="1.5" width="87" height="87" rx="43.5" fill="none"/>
      </g>
    </g>
    <g id="milker_17466046_copia" data-name="milker_17466046 copia" transform="translate(756.041 3808.015)">
      <path id="Trazado_1033776" data-name="Trazado 1033776" d="M35.117,89.624a3.844,3.844,0,0,1-.492,2.419,3.024,3.024,0,0,1-5.012.175,7.787,7.787,0,0,1-.565-1.17v-6.38c-.378.076-1.712-.192-1.842.2-.19,1.928.195,4.167-.017,6.055A3.087,3.087,0,0,1,22.1,92.664c-1.685-1.634-.7-5.706-1.006-7.915-.52-.41-1-.476-1.464-1.014a2.979,2.979,0,0,1,.311-4.269c.254-.226.738-.347.8-.684l0-10.537a6.906,6.906,0,0,1,3.223-5.2,7.137,7.137,0,0,1-3.094-5.639c-1.19-.007-2.6.2-3.4-.874-1.353-1.814.319-3.9,2.391-3.6,2.171-8.548,14.3-8.589,16.386,0a2.273,2.273,0,0,1,2.447,3.4c-.776,1.216-2.166,1.085-3.436,1.087a7.835,7.835,0,0,1-2.739,5.313c2.941,1,4.277,4.148,6.523,6.063.15.03.2-.1.3-.173a44.761,44.761,0,0,0,4.153-4.15c.238-.33.307-.715.549-1.062.266-.38,1.5-1.92,1.568-2.163s-.644-.971-.849-1.277c-.659-.986-2.338-3.63-2.338-4.737a2.905,2.905,0,0,1,2.139-2.579c8.807-.484,17.716-.068,26.561-.213,2.139.084,4,1.5,3.179,3.806a23.127,23.127,0,0,1-2.98,4.912c1.009,1.631,2.8,2.974,1.864,5.125a4.274,4.274,0,0,1-2.468,1.992c-2.609.444-3.308-1.8-4.7-3.426l-4.322,1.219c-.061,1.512.119,2.956-1.417,3.785.127.2.185.117.344.109.778-.038,1.531-.431,2.32-.43a2.5,2.5,0,0,1,2.42,2.928L62.01,91.3l-.563.428-14.306-.063-.426-.441L43.421,72.4c-1.1.765-2.085,2.447-3.309,2.947-2.605,1.069-3.988-1.882-5.736-3.2v3.841h4.4a3.586,3.586,0,0,1,3,2.82c.477,3.306-.245,7.654-.023,11.064-.694,3.707-6.2,3.552-6.511-.254-.134-1.626.15-3.329-.063-4.958-.155,1.642,0,3.311-.063,4.958ZM28.3,48.239a6.47,6.47,0,0,0-6.567,4.708c.99.007,1.984-.007,2.974,0,3.22.023,6.445-.017,9.665,0A6.4,6.4,0,0,0,28.3,48.239ZM64.731,54.31c-6.422-.023-12.848.021-19.272,0-2.121.117-.8,2.115-.2,3.185a22.386,22.386,0,0,0,2.055,2.777c1.039,1.388-.413,1.561-.671,2.838a2.34,2.34,0,0,1,1.984,1.736c.9-.553,1.066-2.1,2.291-1.987.585.056,2.2.876,3.008,1.085s1.854.251,2.511.463c.519.167.575.6.613,1.061.1,1.191-.507,2.949,1.171,3.1,3,.274.917-3.042,1.983-3.977a20.268,20.268,0,0,1,2.918-.676c.8-.215,2.79-1.165,3.4-1.052.534.1,1.941,2.481,2.424,3.032.664.757,1.163.962,2.04.312A1.348,1.348,0,0,0,71.6,64.6c-.283-.814-1.865-2.2-2.192-3.01-.411-1.016.553-1.492,1.072-2.209a17.76,17.76,0,0,0,2.249-3.957c.139-.595-.466-1.052-1-1.115-2-.235-4.9.01-7,0Zm-45.976.372v.991H37.316v-.991ZM28.3,62.488a5.3,5.3,0,0,0,5.08-5.08c-2.683.01-5.371-.012-8.054,0-.907,0-1.819,0-2.726,0A5.37,5.37,0,0,0,28.3,62.488Zm-.372,1.735c-1.617-.017-2.148-.423-3.583.692a5.631,5.631,0,0,0-1.869,3.336V78.844c1.155,0,2.315,0,3.469,0,2.741.008,6.364-.284,8.984,0a2.99,2.99,0,0,1,2.405,3.521c-.058.4-.316.715-.363,1.123a41.859,41.859,0,0,0,.056,6.27c.362,1.52,2.83,1.538,3.043-.568.321-3.174-.167-6.98-.083-10.2A1.661,1.661,0,0,0,39,77.879c-1.38-.312-3.772.149-5.3-.026a1.135,1.135,0,0,1-1.183-1.171c-.2-2.2.117-4.776.061-7.013a.936.936,0,0,1,1.305-.549l4.8,4.618a1.174,1.174,0,0,0,1.153-.281c1.946-2.353,5.046-4.523,6.878-6.876.917-1.178-.132-2.26-1.17-1.665l-6.2,6.07c-.681.249-1.14-.385-1.556-.813-1.786-1.835-3.659-5.062-6.1-5.921-1.459-.514-2.291-.012-3.752-.028Zm29.614,6.194c-.258-.329-.692-.358-1.052-.62-1.376-.995-1.15-2.209-1.232-3.724l-4.11-1.231-.355.124a15.434,15.434,0,0,1-2.168,2.79c-.459.349-.811.324-1.185.55s-.791.909-1.171,1.181c0,.188,1.675.468,1.958.519A35.492,35.492,0,0,0,57.544,70.417ZM56.8,81.322a10.97,10.97,0,0,0,5.267-.37l1.556-8.736a.759.759,0,0,0-.7-.925c-.476-.033-2.283.494-2.989.595-.836.119-1.679.2-2.519.268A35.681,35.681,0,0,1,45.9,71.286c1.736,4.651,5.772,9.278,10.9,10.037ZM48,88.385c.053.279.089,1.56.33,1.616l12.173-.018,1.251-7.05-3.16.38c-.937-.109-1.862-.183-2.785-.382-4.485-.962-7.75-4.218-10.159-7.93q1.083,6.706,2.353,13.382ZM27.311,82.933c2.453.01,4.91,0,7.365-.007a1.194,1.194,0,0,0,0-2.339c-2.455-.007-4.912-.017-7.365-.007a49.114,49.114,0,0,0-5.754.007,1.209,1.209,0,0,0,0,2.339A48.757,48.757,0,0,0,27.311,82.933Zm-1.859,1.735H22.974v6.258c0,.392.907.829,1.3.814s1.18-.626,1.18-.938V84.669Zm5.328,0V90.8c0,.382.882.932,1.3.93.5,0,1.3-.6,1.3-1.054V84.853l-.185-.185H30.782Z" transform="translate(0 0)" fill="#040404"/>
      <path id="Trazado_1033777" data-name="Trazado 1033777" d="M126.819,282.448H126.7c.058-1.647-.094-3.314.063-4.958.213,1.629-.073,3.332.063,4.958Z" transform="translate(-91.578 -192.824)" fill="#c4c4c4"/>
      <path id="Trazado_1033778" data-name="Trazado 1033778" d="M71.233,167.339l.015-10.7a6.963,6.963,0,0,1,.539-1.816,22.346,22.346,0,0,1,1.427-2.1c1.46.015,2.293-.486,3.752.028,2.438.859,4.312,4.086,6.1,5.921.416.428.876,1.062,1.556.813l6.2-6.07c1.038-.595,2.087.487,1.17,1.665-1.831,2.354-4.93,4.523-6.878,6.876a1.174,1.174,0,0,1-1.153.281l-4.8-4.618a.935.935,0,0,0-1.305.549c.056,2.237-.264,4.811-.061,7.013a1.135,1.135,0,0,0,1.183,1.171c1.53.173,3.922-.286,5.3.026a1.661,1.661,0,0,1,.995,1.112c-.083,3.218.4,7.025.083,10.2-.213,2.106-2.681,2.088-3.043.568a41.858,41.858,0,0,1-.056-6.27c.05-.408.306-.719.363-1.123a2.988,2.988,0,0,0-2.405-3.521c-2.62-.283-6.242.008-8.984,0Z" transform="translate(-45.285 -88.495)" fill="#a1baa8"/>
      <path id="Trazado_1033779" data-name="Trazado 1033779" d="M202.758,93.707a17.241,17.241,0,0,1-7.682,11.152c-.038-.461-.094-.894-.613-1.061-.658-.211-1.74-.261-2.511-.463s-2.424-1.029-3.008-1.085c-1.226-.117-1.394,1.432-2.291,1.987a2.343,2.343,0,0,0-1.984-1.736c.258-1.277,1.71-1.451.671-2.838a22.556,22.556,0,0,1-2.055-2.777c-.6-1.071-1.918-3.068.2-3.185,6.423.026,12.85-.018,19.272,0Z" transform="translate(-138.027 -39.396)" fill="#f9d1ce"/>
      <path id="Trazado_1033780" data-name="Trazado 1033780" d="M267.034,93.22c2.108.008,5.009-.238,7,0,.53.063,1.137.52,1,1.115a17.722,17.722,0,0,1-2.249,3.957c-.52.717-1.485,1.193-1.072,2.209.327.806,1.91,2.2,2.192,3.01a1.348,1.348,0,0,1-.615,1.606c-.877.649-1.376.444-2.04-.312-.482-.55-1.892-2.934-2.424-3.032-.613-.112-2.605.838-3.4,1.052a20.271,20.271,0,0,0-2.918.676c-1.066.935,1.016,4.251-1.983,3.977-1.679-.154-1.074-1.911-1.171-3.1A17.241,17.241,0,0,0,267.034,93.22Z" transform="translate(-202.303 -38.909)" fill="#f7b3b0"/>
      <path id="Trazado_1033781" data-name="Trazado 1033781" d="M203.523,197.367a14.2,14.2,0,0,1-.62,9.169c-5.131-.758-9.166-5.384-10.9-10.037A35.681,35.681,0,0,0,203.523,197.367Z" transform="translate(-146.103 -125.214)" fill="#8ca2b1"/>
      <path id="Trazado_1033782" data-name="Trazado 1033782" d="M212.548,267c.924.2,1.849.273,2.785.382l3.16-.38-1.251,7.049-12.173.018c-.241-.056-.278-1.337-.33-1.616A11.865,11.865,0,0,0,212.546,267Z" transform="translate(-156.738 -184.067)" fill="#628094"/>
      <path id="Trazado_1033783" data-name="Trazado 1033783" d="M200.669,226.93a11.865,11.865,0,0,1-7.806,5.452Q191.6,225.708,190.51,219C192.92,222.712,196.183,225.969,200.669,226.93Z" transform="translate(-144.859 -143.997)" fill="#8ba1b1"/>
      <path id="Trazado_1033784" data-name="Trazado 1033784" d="M258,206.554a14.2,14.2,0,0,0,.62-9.169c.841-.066,1.684-.149,2.519-.268.7-.1,2.493-.628,2.989-.595a.749.749,0,0,1,.7.925l-1.556,8.736a10.969,10.969,0,0,1-5.267.37Z" transform="translate(-201.199 -125.232)" fill="#628095"/>
      <path id="Trazado_1033785" data-name="Trazado 1033785" d="M55.71,153.317a22.347,22.347,0,0,0-1.427,2.1,6.945,6.945,0,0,0-.539,1.816l-.015,10.7c-1.155,0-2.315,0-3.469,0V157.345a5.649,5.649,0,0,1,1.869-3.336c1.436-1.115,1.966-.709,3.583-.692Z" transform="translate(-27.78 -89.094)" fill="#7da186"/>
      <path id="Trazado_1033786" data-name="Trazado 1033786" d="M67.343,57a6.4,6.4,0,0,1,6.071,4.708c-3.22-.015-6.445.023-9.665,0A7.217,7.217,0,0,1,67.343,57Z" transform="translate(-39.041 -8.761)" fill="#fddb85"/>
      <path id="Trazado_1033787" data-name="Trazado 1033787" d="M67.5,112.482c2.683-.012,5.371.01,8.054,0a5.3,5.3,0,0,1-5.08,5.08A6.307,6.307,0,0,1,67.5,112.482Z" transform="translate(-42.171 -55.074)" fill="#f7b3b1"/>
      <path id="Trazado_1033788" data-name="Trazado 1033788" d="M79.5,255.083v-2.354c2.453-.01,4.91,0,7.365.007a1.194,1.194,0,0,1,0,2.339c-2.455.007-4.912.017-7.365.007Z" transform="translate(-52.189 -172.15)" fill="#c1dff5"/>
      <rect id="Rect치ngulo_404864" data-name="Rect치ngulo 404864" width="18.561" height="0.991" transform="translate(18.755 54.682)" fill="#e9be52"/>
      <path id="Trazado_1033789" data-name="Trazado 1033789" d="M100.492,277.5h2.415l.185.185v5.824c0,.453-.8,1.054-1.3,1.054-.418,0-1.3-.549-1.3-.93V277.5Z" transform="translate(-69.711 -192.832)" fill="#bddaf0"/>
      <path id="Trazado_1033790" data-name="Trazado 1033790" d="M55.728,277.492v6.133c0,.311-.8.924-1.18.938s-1.3-.423-1.3-.814V277.49h2.478Z" transform="translate(-30.276 -192.824)" fill="#bfddf3"/>
      <path id="Trazado_1033791" data-name="Trazado 1033791" d="M45.86,252.267v2.354a49.117,49.117,0,0,1-5.754-.007,1.209,1.209,0,0,1,0-2.339,48.754,48.754,0,0,1,5.754-.007Z" transform="translate(-18.549 -171.689)" fill="#adcde8"/>
      <path id="Trazado_1033792" data-name="Trazado 1033792" d="M53.726,112.5a6.307,6.307,0,0,0,2.974,5.08A5.37,5.37,0,0,1,51,112.5C51.907,112.492,52.819,112.5,53.726,112.5Z" transform="translate(-28.398 -55.087)" fill="#f296a0"/>
      <path id="Trazado_1033793" data-name="Trazado 1033793" d="M52.317,56.985a7.217,7.217,0,0,0-3.593,4.708c-.99-.007-1.984,0-2.974,0A6.471,6.471,0,0,1,52.317,56.985Z" transform="translate(-24.015 -8.747)" fill="#fbcd59"/>
    </g>
  </g>
</svg>
