<svg xmlns="http://www.w3.org/2000/svg" xmlns:xlink="http://www.w3.org/1999/xlink" width="108" height="108" viewBox="0 0 108 108">
  <defs>
    <filter id="Trazado_896985" x="0" y="0" width="108" height="108" filterUnits="userSpaceOnUse">
      <feOffset dy="3" input="SourceAlpha"/>
      <feGaussianBlur stdDeviation="3" result="blur"/>
      <feFlood flood-opacity="0.161"/>
      <feComposite operator="in" in2="blur"/>
      <feComposite in="SourceGraphic"/>
    </filter>
  </defs>
  <g id="Grupo_1111730" data-name="Grupo 1111730" transform="translate(-747.051 -4317.063)">
    <g id="Grupo_1109827" data-name="Grupo 1109827" transform="translate(-0.73 490.063)">
      <g id="Grupo_1098742" data-name="Grupo 1098742" transform="translate(-446.539 3444.258)">
        <g transform="matrix(1, 0, 0, 1, 1194.32, 382.74)" filter="url(#Trazado_896985)">
          <g id="Trazado_896985-2" data-name="Trazado 896985" transform="translate(9 6)" fill="#efdb59" opacity="0.859">
            <path d="M 44.99993896484375 88.5 C 39.12682723999023 88.5 33.4301872253418 87.35007476806641 28.06826400756836 85.08217620849609 C 22.88850212097168 82.89132690429688 18.23627662658691 79.75461578369141 14.2408390045166 75.75916290283203 C 10.24540138244629 71.76372528076172 7.108676433563232 67.11151123046875 4.917826652526855 61.9317512512207 C 2.649926424026489 56.56982421875 1.500001430511475 50.87317657470703 1.500001430511475 45.00006103515625 C 1.500001430511475 39.12682342529297 2.649926424026489 33.4301872253418 4.917826652526855 28.06826210021973 C 7.108676433563232 22.88850021362305 10.24540138244629 18.23628807067871 14.2408390045166 14.24083709716797 C 18.23628807067871 10.24540042877197 22.88850212097168 7.108675003051758 28.06826400756836 4.917825222015381 C 33.4301872253418 2.649924993515015 39.12682723999023 1.5 44.99993896484375 1.5 C 50.87305068969727 1.5 56.5697021484375 2.649924993515015 61.93162536621094 4.917825222015381 C 67.11138916015625 7.108675003051758 71.76360321044922 10.24540042877197 75.75904083251953 14.24083709716797 C 79.75448608398438 18.23627471923828 82.89120483398438 22.88850021362305 85.08205413818359 28.06826210021973 C 87.34995269775391 33.4301872253418 88.4998779296875 39.12682342529297 88.4998779296875 44.99993896484375 C 88.4998779296875 50.87317657470703 87.34995269775391 56.56982421875 85.08205413818359 61.9317512512207 C 82.89120483398438 67.11151123046875 79.75448608398438 71.76372528076172 75.75904083251953 75.75916290283203 C 71.76360321044922 79.75461578369141 67.11138916015625 82.89132690429688 61.93162536621094 85.08217620849609 C 56.5697021484375 87.35007476806641 50.87305068969727 88.5 44.99993896484375 88.5 Z" stroke="none"/>
            <path d="M 44.99993896484375 3 C 39.32865142822266 3 33.82860946655273 4.110054016113281 28.65258026123047 6.299331665039062 C 23.65162658691406 8.414558410644531 19.15966796875 11.44332885742188 15.30149841308594 15.30149841308594 C 11.44332122802734 19.15966796875 8.41455078125 23.65162658691406 6.299324035644531 28.65258407592773 C 4.110054016113281 33.82861328125 2.999992370605469 39.32865524291992 2.999992370605469 45.00005722045898 C 2.999992370605469 50.67134475708008 4.110054016113281 56.17138671875 6.299324035644531 61.347412109375 C 8.41455078125 66.34837341308594 11.44332122802734 70.84033203125 15.30149841308594 74.69850158691406 C 19.15966796875 78.55667114257812 23.65162658691406 81.58544158935547 28.65258026123047 83.70066833496094 C 33.82860946655273 85.88994598388672 39.32865142822266 87 44.99993896484375 87 C 50.67122650146484 87 56.17126846313477 85.88994598388672 61.34729766845703 83.70066833496094 C 66.34825134277344 81.58544158935547 70.8402099609375 78.55667114257812 74.69837951660156 74.69850158691406 C 78.55654907226562 70.84033203125 81.5853271484375 66.34837341308594 83.70055389404297 61.347412109375 C 85.88982391357422 56.17138671875 86.9998779296875 50.67134475708008 86.9998779296875 44.99994277954102 C 86.9998779296875 39.32865524291992 85.88982391357422 33.82861328125 83.70055389404297 28.65258407592773 C 81.5853271484375 23.65162658691406 78.55654907226562 19.15966796875 74.69837951660156 15.30149841308594 C 70.8402099609375 11.44332885742188 66.34825134277344 8.414558410644531 61.34729766845703 6.299331665039062 C 56.17126846313477 4.110054016113281 50.67122650146484 3 44.99993896484375 3 M 44.99993896484375 0 C 69.85272216796875 0 89.99988555908203 20.14715576171875 89.99988555908203 44.99994277954102 L 89.99988555908203 45.00005722045898 C 89.99988555908203 69.85284423828125 69.85272216796875 90 44.99993896484375 90 C 20.14715576171875 90 -7.62939453125e-06 69.85284423828125 -7.62939453125e-06 45.00005722045898 L -7.62939453125e-06 44.99994277954102 C -7.62939453125e-06 20.14715576171875 20.14715576171875 0 44.99993896484375 0 Z" stroke="none" fill="#fff"/>
          </g>
        </g>
        <g id="Rectángulo_400907" data-name="Rectángulo 400907" transform="translate(1203.32 388.742)" fill="none" stroke="#fff" stroke-width="3">
          <rect width="90" height="90" rx="45" stroke="none"/>
          <rect x="1.5" y="1.5" width="87" height="87" rx="43.5" fill="none"/>
        </g>
      </g>
    </g>
    <g id="cow_2395796_copia" data-name="cow_2395796 copia" transform="translate(768.487 4334.92)">
      <path id="Trazado_1033730" data-name="Trazado 1033730" d="M30.094,18.6a4.83,4.83,0,0,1,4.869-3.929,4.89,4.89,0,0,1,0-6.7A24.928,24.928,0,0,1,37.647,5.9c1.52-.62,1.284,1.4,1.44,2.265.069.379.611,2.318.921,2.392a9.941,9.941,0,0,1,1.756-.32,58.956,58.956,0,0,1,6.87,0,11.169,11.169,0,0,1,1.645.319c.283-.065.853-2.016.921-2.392.158-.871-.125-2.519,1.182-2.348A20.843,20.843,0,0,1,55.1,7.748a4.885,4.885,0,0,1,.22,6.916,4.706,4.706,0,0,1,4.856,4.164,17.789,17.789,0,0,1-.035,3.256c-.311,1-2.963.485-3.742.189a7.7,7.7,0,0,0-.856-.416l-.809,9.871a5.72,5.72,0,0,1-3.38,3.425,13.447,13.447,0,0,1-1.105,5.037c-.142.344-.593.975-.657,1.225a14.813,14.813,0,0,0-.028,2.075,62.894,62.894,0,0,1-.809,6.938c-.117.661-.8,3.06-.742,3.46.047.348.581.5.831.727,1.558,1.4,1.8,3.11,1.613,5.148-.04.429-.127.707-.553.885L38.53,60.613a.873.873,0,0,1-.3-.251,8.65,8.65,0,0,1-.12-3.1,5.84,5.84,0,0,1,1.5-2.708,56.441,56.441,0,0,1-1.328-9.459l-4.8,1.124c-.184.109-.407.809-.581,1.079a5.763,5.763,0,0,1-2.812,2.224v2.324H28.32V50.074H26.549v1.771H24.779V49.52a5.819,5.819,0,0,1-2.9-2.358l-.642-1.514a64.081,64.081,0,0,1-.782,8.332c2.274,1.172,2.837,3.472,2.554,5.89-.069.592-.367.781-.938.832-3.342.3-7.133-.242-10.523,0a.854.854,0,0,1-.938-.832,6.28,6.28,0,0,1,1-4.648c.243-.329.736-.513.667-.992-.577-3.343-2.035-6.889-2.539-10.2-.544-3.574-.27-7.549-.791-11.161A14.464,14.464,0,0,1,9.4,28.166c-.214-.047-.264.109-.376.232a8.143,8.143,0,0,0-1.933,4.485c-.36,4.111.245,8.671-.021,12.829a.4.4,0,0,0,.115.328c.236.264,1.688.766,2.216,1.214a3.611,3.611,0,0,1,1.216,2.325,29.392,29.392,0,0,1-.049,4.376.909.909,0,0,1-1.25.463,33.749,33.749,0,0,1-2.846-2.132,3.97,3.97,0,0,1-1.136-2.073c.215-5.644-.385-11.636-.034-17.24a9.7,9.7,0,0,1,4.872-7.743c.487-.266,1.123-.419,1.542-.671,1.771-1.067,3.084-2.5,5.489-2.479l12.891-1.108c.072-.747-.1-1.656,0-2.378ZM37.4,8.471c-.183-.187-1.169.747-1.325.944a2.939,2.939,0,0,0,.053,3.813l2.145-1.957A10.193,10.193,0,0,1,37.4,8.471Zm15.493,0a10.143,10.143,0,0,1-.873,2.8,14.751,14.751,0,0,1,2.145,1.957,2.941,2.941,0,0,0,.053-3.813c-.156-.2-1.142-1.13-1.325-.944Zm-7.3,3.541h-4.04c-2.843,0-5.72,3.687-5.262,6.479l.668,8.682,2.138-1.236a9.731,9.731,0,0,1,4.009-.649c.667.04,1.5.357,2.1.345.543-.012,1.282-.3,1.883-.339a8.979,8.979,0,0,1,6.194,1.881l.277-2.877a7.993,7.993,0,0,1-7.968-12.283Zm2.252,8.815a6.3,6.3,0,0,0,5.723,1.651,2.69,2.69,0,0,0,.212-.894c.316-3.174.662-6.492-2.333-8.509-.67-.451-3.023-1.453-3.7-.959a10.171,10.171,0,0,0-.869,1.234,6.237,6.237,0,0,0,.971,7.478Zm-15.974-1.9c-.08.592.058,1.326,0,1.936a3.339,3.339,0,0,0,2.713-1.332c.056-.124-.077-1.779-.062-2.159.032-.823.521-1.207-.747-.747a3.014,3.014,0,0,0-1.9,2.3Zm26.559,1.936V18.929a3.065,3.065,0,0,0-1.9-2.3c-1.267-.46-.778-.078-.747.747.015.379-.12,2.035-.062,2.159a3.339,3.339,0,0,0,2.713,1.332Zm-20.362,22.3V40.451l1.771-.111a56.862,56.862,0,0,0,1.509,13.4,5.671,5.671,0,0,1,2.252-.007l.558-6.911.106-5.594h1.771v1.66a4.962,4.962,0,0,0,1.214-1.166A11.251,11.251,0,0,0,49.569,35.8a22.5,22.5,0,0,1-2.383.115c-.667-.041-1.5-.357-2.1-.345-.543.012-1.282.3-1.883.339-3.065.223-7.231-1.335-7.771-4.73-.432-2.719-.314-5.923-.583-8.713-.013-.143-.053-.7-.273-.608a6.379,6.379,0,0,1-.612.384,9.188,9.188,0,0,1-3.152.39c-1.248.106-2.539.323-3.819.332a5.513,5.513,0,0,1-2,6.8,5.367,5.367,0,0,1-8.069-5.8c-4.123.469-6.647,4.416-6.2,8.41a5.3,5.3,0,0,1,.781,10.517l.007.925,2.423,9.917,1.213-.117a44.75,44.75,0,0,1,4.329-13.6l1.651.658L19.914,43.44a28.78,28.78,0,0,0,18.149-.276Zm-19.128-19.4A3.571,3.571,0,0,0,20.279,28.3,3.535,3.535,0,0,0,25,23.242l-6.072.516Zm22.758,3.336c-2.359.241-5.834,2.219-4.03,4.961,1.216,1.85,4.164,2.274,6.2,1.962.4-.062.888-.31,1.236-.322.508-.018,1.537.4,2.212.447,2.137.134,5.962-1.018,5.81-3.7-.145-2.544-3.96-3.547-6.019-3.366-.611.055-1.415.418-1.9.434-.508.016-1.537-.4-2.212-.447a8.065,8.065,0,0,0-1.294.031ZM11.281,41.116a3.522,3.522,0,0,0-.443-6.97ZM46.24,53.611a46.051,46.051,0,0,0,1.447-9.728c-.313.429-1.689,1.2-1.766,1.607-.018,2.722-.339,5.424-.556,8.131l.875-.012ZM19.47,45.1l-.341.066a42.886,42.886,0,0,0-2.2,8.676l1.759-.232A52.736,52.736,0,0,0,19.47,45.1Zm11.841,1.329a32.391,32.391,0,0,1-7.968-.332C24.893,48.908,29.515,49.07,31.311,46.429ZM8.847,51.74V49.582c0-.676-1.2-1.4-1.771-1.605v2.048C7.076,50.552,8.708,51.9,8.847,51.74ZM17.7,58.933c.5-4.682-5.81-4.682-5.312,0h1.771V57.162h1.771v1.771Zm3.541,0a2.887,2.887,0,0,0-2.656-3.54,5.605,5.605,0,0,1,.885,1.936v1.605h1.771Zm23.9,0c.5-4.682-5.81-4.682-5.312,0H41.6V57.162h1.771v1.771Zm3.541,0a2.887,2.887,0,0,0-2.656-3.54,5.605,5.605,0,0,1,.885,1.936v1.605h1.771Z" transform="translate(0 0)" fill="#030202"/>
      <path id="Trazado_1033731" data-name="Trazado 1033731" d="M69.776,136a28.789,28.789,0,0,1-18.149.276l1.217-2.764-1.651-.658a44.723,44.723,0,0,0-4.329,13.6l-1.213.117-2.423-9.917-.007-.925a5.3,5.3,0,0,0-.781-10.517c-.45-3.994,2.075-7.941,6.2-8.41a5.368,5.368,0,0,0,8.069,5.8,5.511,5.511,0,0,0,2-6.8c1.279-.009,2.547-.223,3.819-.332a9.191,9.191,0,0,0,3.152-.39,6.194,6.194,0,0,0,.612-.384c.22-.089.26.465.273.608.269,2.79.151,5.993.583,8.713.54,3.4,4.707,4.953,7.771,4.73.6-.044,1.34-.328,1.883-.339.6-.012,1.43.3,2.1.345a22.5,22.5,0,0,0,2.383-.115,11.256,11.256,0,0,1-2.327,5.917,4.962,4.962,0,0,1-1.214,1.166v-1.66H75.97l-.106,5.594-.558,6.911a5.671,5.671,0,0,0-2.252.007,56.775,56.775,0,0,1-1.509-13.4l-1.771.111V136Zm-6.3-9.029a4.432,4.432,0,1,0-4.226,5.332,4.431,4.431,0,1,0,4.226-5.332Z" transform="translate(-31.715 -92.834)" fill="#e1e2e3"/>
      <path id="Trazado_1033732" data-name="Trazado 1033732" d="M224.988,47.991a7.993,7.993,0,0,0,7.968,12.283l-.277,2.877a8.986,8.986,0,0,0-6.194-1.881c-.6.044-1.34.328-1.883.339-.6.012-1.43-.3-2.1-.345a9.707,9.707,0,0,0-4.009.649l-2.138,1.236-.668-8.682c-.46-2.79,2.418-6.479,5.262-6.479h4.04Zm-4.877,7.525a1.321,1.321,0,1,0-1.321,1.321A1.321,1.321,0,0,0,220.112,55.516Z" transform="translate(-179.402 -35.979)" fill="#e1e2e3"/>
      <path id="Trazado_1033733" data-name="Trazado 1033733" d="M226.421,149.964a8.064,8.064,0,0,1,1.294-.031c.674.043,1.7.465,2.212.447s1.288-.381,1.9-.434c2.058-.183,5.874.82,6.019,3.366.152,2.682-3.672,3.836-5.811,3.7-.674-.043-1.7-.465-2.212-.447-.348.012-.834.26-1.236.322-2.03.313-4.978-.112-6.2-1.962-1.8-2.741,1.67-4.722,4.03-4.961Zm-.1,3.066A1.321,1.321,0,1,0,225,154.351,1.321,1.321,0,0,0,226.325,153.03Zm9.738,0a1.321,1.321,0,1,0-1.321,1.321A1.321,1.321,0,0,0,236.063,153.03Z" transform="translate(-184.73 -122.87)" fill="#c36a5f"/>
      <path id="Trazado_1033734" data-name="Trazado 1033734" d="M283.9,56.639a6.237,6.237,0,0,1-.971-7.478,10.006,10.006,0,0,1,.869-1.234c.682-.494,3.035.508,3.7.959,3,2.017,2.648,5.335,2.333,8.509a2.691,2.691,0,0,1-.212.894,6.3,6.3,0,0,1-5.723-1.651Zm4.381-1.29a1.321,1.321,0,1,0-1.321,1.321A1.321,1.321,0,0,0,288.283,55.349Z" transform="translate(-236.064 -35.812)" fill="#515559"/>
      <path id="Trazado_1033735" data-name="Trazado 1033735" d="M96.414,124.626l6.072-.516a3.534,3.534,0,1,1-6.072.516Z" transform="translate(-77.481 -100.868)" fill="#515559"/>
      <path id="Trazado_1033736" data-name="Trazado 1033736" d="M43.943,204.98l-.443-6.97A3.522,3.522,0,0,1,43.943,204.98Z" transform="translate(-32.662 -163.864)" fill="#515458"/>
      <path id="Trazado_1033737" data-name="Trazado 1033737" d="M59.149,345.714H57.379v-1.771H55.608v1.771H53.838C53.339,341.032,59.648,341.032,59.149,345.714Z" transform="translate(-41.45 -286.781)" fill="#515559"/>
      <path id="Trazado_1033738" data-name="Trazado 1033738" d="M245.149,345.714h-1.771v-1.771h-1.771v1.771h-1.771C239.339,341.032,245.648,341.032,245.149,345.714Z" transform="translate(-200.006 -286.781)" fill="#515559"/>
      <path id="Trazado_1033739" data-name="Trazado 1033739" d="M278.375,273.736l-.875.012c.218-2.708.539-5.409.556-8.131.077-.407,1.455-1.179,1.766-1.607a46.149,46.149,0,0,1-1.447,9.728Z" transform="translate(-232.135 -220.126)" fill="#a4abb7"/>
      <path id="Trazado_1033740" data-name="Trazado 1033740" d="M87.3,272.25a52.753,52.753,0,0,1-.785,8.511l-1.759.232a42.887,42.887,0,0,1,2.2-8.676Z" transform="translate(-67.834 -227.15)" fill="#a3abb7"/>
      <path id="Trazado_1033741" data-name="Trazado 1033741" d="M136.218,279.342c-1.8,2.641-6.418,2.479-7.968-.332A32.392,32.392,0,0,0,136.218,279.342Z" transform="translate(-104.907 -232.913)" fill="#c1685e"/>
      <path id="Trazado_1033742" data-name="Trazado 1033742" d="M185.852,80.448a3.017,3.017,0,0,1,1.9-2.3c1.267-.46.778-.078.747.747-.015.379.12,2.035.062,2.159a3.339,3.339,0,0,1-2.713,1.332c.058-.611-.08-1.344,0-1.936Z" transform="translate(-153.988 -61.519)" fill="#c2695e"/>
      <path id="Trazado_1033743" data-name="Trazado 1033743" d="M349.992,82.377a3.339,3.339,0,0,1-2.713-1.332c-.056-.124.077-1.779.062-2.159-.032-.823-.521-1.207.747-.747a3.062,3.062,0,0,1,1.9,2.3v1.936Z" transform="translate(-291.569 -61.512)" fill="#c2695e"/>
      <path id="Trazado_1033744" data-name="Trazado 1033744" d="M211.944,23.859a10.144,10.144,0,0,0,.873,2.8l-2.145,1.957a2.941,2.941,0,0,1-.053-3.813C210.775,24.606,211.761,23.673,211.944,23.859Z" transform="translate(-174.546 -15.388)" fill="#e9b996"/>
      <path id="Trazado_1033745" data-name="Trazado 1033745" d="M323.453,23.857c.183-.187,1.169.747,1.325.944a2.939,2.939,0,0,1-.053,3.813,14.752,14.752,0,0,0-2.145-1.957A10.193,10.193,0,0,0,323.453,23.857Z" transform="translate(-270.564 -15.386)" fill="#e9b996"/>
      <path id="Trazado_1033746" data-name="Trazado 1033746" d="M98.656,345.541H96.885v-1.605A5.618,5.618,0,0,0,96,342a2.887,2.887,0,0,1,2.656,3.54Z" transform="translate(-77.415 -286.609)" fill="#505458"/>
      <path id="Trazado_1033747" data-name="Trazado 1033747" d="M284.656,345.541h-1.771v-1.605A5.618,5.618,0,0,0,282,342a2.887,2.887,0,0,1,2.656,3.54Z" transform="translate(-235.971 -286.609)" fill="#505458"/>
      <path id="Trazado_1033748" data-name="Trazado 1033748" d="M19.771,295.513c-.139.162-1.771-1.189-1.771-1.715V291.75c.572.2,1.771.93,1.771,1.605Z" transform="translate(-10.924 -243.773)" fill="#505458"/>
      <path id="Trazado_1033749" data-name="Trazado 1033749" d="M134.715,177.549a4.431,4.431,0,1,1-4.226,5.332,4.432,4.432,0,1,1,4.226-5.332Zm-4.685-1.731c-3.22.431-2.861,5.251.3,5.291.586.007,1.592-.441,1.8.512.19.866-.046,1.2.632,2.024,2.548,3.113,6.783-1.582,3.59-3.811-1.07-.748-1.484-.325-2.48-.387s-.75-.915-.882-1.563a2.736,2.736,0,0,0-2.964-2.069Z" transform="translate(-102.952 -143.415)" fill="#020303"/>
      <circle id="Elipse_11990" data-name="Elipse 11990" cx="1.321" cy="1.321" r="1.321" transform="translate(38.069 18.216)" fill="#040404"/>
      <circle id="Elipse_11991" data-name="Elipse 11991" cx="1.321" cy="1.321" r="1.321" transform="translate(38.954 28.84)" fill="#030202"/>
      <circle id="Elipse_11992" data-name="Elipse 11992" cx="1.321" cy="1.321" r="1.321" transform="translate(48.692 28.84)" fill="#030202"/>
      <circle id="Elipse_11993" data-name="Elipse 11993" cx="1.321" cy="1.321" r="1.321" transform="translate(49.577 18.216)" fill="#010101"/>
      <path id="Trazado_1033750" data-name="Trazado 1033750" d="M140.579,186.077a2.736,2.736,0,0,1,2.964,2.069c.133.646-.1,1.5.882,1.563s1.411-.36,2.48.387c3.191,2.229-1.042,6.924-3.59,3.811-.676-.826-.44-1.16-.632-2.024-.21-.955-1.216-.5-1.8-.512-3.165-.041-3.523-4.862-.3-5.291Z" transform="translate(-113.5 -153.674)" fill="#515559"/>
    </g>
  </g>
</svg>
