<svg xmlns="http://www.w3.org/2000/svg" width="73.817" height="63.787" viewBox="0 0 73.817 63.787">
  <g id="Grupo_1109883" data-name="Grupo 1109883" transform="translate(-1032.854 -3111.858)">
    <g id="cow_5880287" transform="translate(1032.854 3111.858)">
      <path id="Trazado_898141" data-name="Trazado 898141" d="M79.055,60.52a16.084,16.084,0,0,0-7.117-7.592h0A12.6,12.6,0,0,0,68.67,41.234a2.058,2.058,0,0,0-3.489,1.093,12.436,12.436,0,0,1-4.443,7.44,13.657,13.657,0,0,0-9.353-3.623h-15.4a13.657,13.657,0,0,0-9.353,3.623,12.436,12.436,0,0,1-4.443-7.44A2.058,2.058,0,0,0,18.7,41.234a12.6,12.6,0,0,0-3.267,11.694A16.086,16.086,0,0,0,8.315,60.52a3.522,3.522,0,0,0,1.429,4.466,16.473,16.473,0,0,0,13.9,1.349c.053-.027-.022-.068.335.549,2.688,4.672,5.673,9.047,5.605,15.263a10.156,10.156,0,0,0-3.213,7.508c0,16.39,34.622,16.392,34.622,0a10.15,10.15,0,0,0-3.213-7.506,18.847,18.847,0,0,1,1.29-7.039C60.4,71.6,62.735,68.167,63.7,66.32l.028.014a16.473,16.473,0,0,0,13.9-1.349,3.522,3.522,0,0,0,1.429-4.466Z" transform="translate(-6.776 -39.388)" fill="#ffebd2"/>
      <path id="Trazado_898142" data-name="Trazado 898142" d="M120.849,76.543c0,.208-.143.551-.353,2.035a1.225,1.225,0,0,1-1.187,1.045,13.849,13.849,0,0,0-11.546,20.735,61.521,61.521,0,0,1,4.182,7.883,1.232,1.232,0,0,1-.639,1.568,14.807,14.807,0,0,0-4.089,2.737c.068-6.216-2.917-10.591-5.605-15.263a13.843,13.843,0,0,1,12-20.739h7.234Z" transform="translate(-84.406 -69.787)" fill="#fff3e4"/>
      <path id="Trazado_898143" data-name="Trazado 898143" d="M16.2,122.949a.77.77,0,0,1-.223.922,15.774,15.774,0,0,0-4.59,5.915,3.462,3.462,0,0,0-.2,2.267.768.768,0,0,1-1.133.84q-.155-.088-.31-.18a3.522,3.522,0,0,1-1.429-4.466,16.086,16.086,0,0,1,7.118-7.592A13.366,13.366,0,0,0,16.2,122.949Z" transform="translate(-6.776 -107.117)" fill="#fff3e4"/>
      <path id="Trazado_898144" data-name="Trazado 898144" d="M254.086,96.721c-.971,1.866-3.294,5.277-4.623,8.789-11.572-4.949-18.658-15.989-15.855-28.9v-.065h8.166A13.842,13.842,0,0,1,254.086,96.721Z" transform="translate(-197.165 -69.789)" fill="#6e6f80"/>
      <path id="Trazado_898145" data-name="Trazado 898145" d="M247.337,79.611c-2.2.009-5.566.044-11.175.017a1.229,1.229,0,0,1-1.212-1.412c.211-1.355.3-1.478.3-1.671h8.166a13.973,13.973,0,0,1,4.281.66A1.231,1.231,0,0,1,247.337,79.611Z" transform="translate(-198.806 -69.789)" fill="#838599"/>
      <path id="Trazado_898146" data-name="Trazado 898146" d="M158.848,284.323v0c-8.588-8.306-31.41-5.8-31.41,7.508,0,16.39,34.622,16.392,34.622,0A10.15,10.15,0,0,0,158.848,284.323Z" transform="translate(-107.84 -241.564)" fill="#ffbfcb"/>
      <path id="Trazado_898147" data-name="Trazado 898147" d="M135.264,286.8a10.344,10.344,0,0,0-2.488,11.341,1.23,1.23,0,0,1-1.98,1.352,10.178,10.178,0,0,1-3.358-7.646c0-9.08,10.536-12.982,19.662-12.191a1.23,1.23,0,0,1,.011,2.452C142.5,282.486,138.1,284.05,135.264,286.8Z" transform="translate(-107.84 -241.577)" fill="#ffd9e0"/>
      <path id="Trazado_898148" data-name="Trazado 898148" d="M260.008,334.1c0-6.064,7.757-6.062,7.757,0S260.008,340.164,260.008,334.1Z" transform="translate(-220.024 -283.892)" fill="#ffa4b8"/>
      <path id="Trazado_898149" data-name="Trazado 898149" d="M169.568,334.1c0-6.062,7.757-6.064,7.757,0S169.568,340.165,169.568,334.1Z" transform="translate(-143.492 -283.892)" fill="#ffa4b8"/>
      <path id="Trazado_898150" data-name="Trazado 898150" d="M358.83,41.234a12.5,12.5,0,0,1-3.463,20.042l-.014,0A13.962,13.962,0,0,0,350.9,49.767a12.435,12.435,0,0,0,4.443-7.44,2.058,2.058,0,0,1,3.489-1.093Z" transform="translate(-296.936 -39.388)" fill="#cbe3fa"/>
      <path id="Trazado_898151" data-name="Trazado 898151" d="M358.839,41.244a.909.909,0,0,1-.186,1.413,2.521,2.521,0,0,0-1.209,1.744,15.143,15.143,0,0,1-3.481,7.235.915.915,0,0,1-1.419-.06,14,14,0,0,0-1.646-1.81,12.436,12.436,0,0,0,4.443-7.44A2.057,2.057,0,0,1,358.839,41.244Z" transform="translate(-296.935 -39.387)" fill="#eef7ff"/>
      <path id="Trazado_898152" data-name="Trazado 898152" d="M61.246,42.327a12.436,12.436,0,0,0,4.443,7.44,13.962,13.962,0,0,0-4.455,11.507l-.014,0a12.5,12.5,0,0,1-3.463-20.042A2.058,2.058,0,0,1,61.246,42.327Z" transform="translate(-45.833 -39.388)" fill="#cbe3fa"/>
      <path id="Trazado_898153" data-name="Trazado 898153" d="M61.23,61.275a11.91,11.91,0,0,1-6.744-8.347,12.6,12.6,0,0,1,3.267-11.694,2.058,2.058,0,0,1,3.489,1.093q.071.392.167.774a1.238,1.238,0,0,1-.2,1.036,12.625,12.625,0,0,0-.234,14.579C61.35,59.26,61.061,59.486,61.23,61.275Z" transform="translate(-45.829 -39.388)" fill="#eef7ff"/>
      <g id="Grupo_1109882" data-name="Grupo 1109882" transform="translate(0 0)">
        <path id="Trazado_898154" data-name="Trazado 898154" d="M30.733,70.046a1.23,1.23,0,1,0,.555,2.4c9.114-2.108,21.7,1.159,21.7,10.436,0,14.739-32.161,14.753-32.161,0a8.918,8.918,0,0,1,2.837-6.623,1.231,1.231,0,0,0,.375-.871c.071-6.465-2.917-10.933-5.77-15.891a12.573,12.573,0,0,1,2.188-15.383,1.216,1.216,0,0,0,.474-.438A12.5,12.5,0,0,1,29.209,40.6h15.4A12.637,12.637,0,0,1,57.192,54.385a1.24,1.24,0,0,0,1.764,1.229A13.731,13.731,0,0,0,62.773,33.6a3.288,3.288,0,0,0-5.579,1.733,11.037,11.037,0,0,1-.691,2.321,1.23,1.23,0,0,0,2.266.958,13.492,13.492,0,0,0,.846-2.839.827.827,0,0,1,1.4-.452,11.312,11.312,0,0,1-1.335,17.024,15.087,15.087,0,0,0-15.07-14.2h-15.4a14.95,14.95,0,0,0-9.342,3.22,11.044,11.044,0,0,1-3.242-6.027A3.289,3.289,0,0,0,11.045,33.6,13.771,13.771,0,0,0,7.285,45.52,17.435,17.435,0,0,0,.417,53.239a4.748,4.748,0,0,0,1.921,6.028,17.278,17.278,0,0,0,8.055,2.441,1.23,1.23,0,0,0,.124-2.457,14.845,14.845,0,0,1-6.919-2.1,2.289,2.289,0,0,1-.937-2.9,14.725,14.725,0,0,1,5.272-6.23,13.5,13.5,0,0,0,.875,1.935,1.23,1.23,0,0,0,2.154-1.189A11.444,11.444,0,0,1,12.8,35.32a.827.827,0,0,1,1.4.452,13.671,13.671,0,0,0,3.869,7.268,15,15,0,0,0-1.935,17.682c2.665,4.631,5.347,8.585,5.441,14.145a11.405,11.405,0,0,0-3.211,8.013c0,18.028,37.082,18.028,37.082,0,0-11.032-13.921-15.332-24.717-12.834Z" transform="translate(0 -32.613)"/>
        <path id="Trazado_898155" data-name="Trazado 898155" d="M166.676,324.014c1.318,0,2.648,1.025,2.648,3.317a1.23,1.23,0,1,0,2.46,0c0-3.793-2.57-5.777-5.108-5.777s-5.109,1.984-5.109,5.777c0,4.374,3.516,6.552,6.637,5.535a1.23,1.23,0,0,0-.762-2.34c-1.583.516-3.415-.557-3.415-3.2C164.027,325.039,165.358,324.014,166.676,324.014Z" transform="translate(-136.721 -277.119)"/>
        <path id="Trazado_898156" data-name="Trazado 898156" d="M257.118,331.256c-1.318,0-2.648-1.026-2.648-3.317a1.23,1.23,0,0,0-2.46,0,5.939,5.939,0,0,0,1.555,4.262c2.947,3.071,8.662,1.391,8.662-4.262,0-2.825-1.534-5.035-3.909-5.629a1.23,1.23,0,0,0-.6,2.387c1.281.321,2.046,1.533,2.046,3.242C259.765,330.23,258.436,331.256,257.118,331.256Z" transform="translate(-213.255 -277.728)"/>
        <path id="Trazado_898157" data-name="Trazado 898157" d="M178.238,166.545a1.23,1.23,0,0,0-1.23,1.23v2.461a1.23,1.23,0,0,0,2.461,0v-2.461A1.23,1.23,0,0,0,178.238,166.545Z" transform="translate(-149.787 -145.949)"/>
        <path id="Trazado_898158" data-name="Trazado 898158" d="M287.008,167.775v2.461a1.23,1.23,0,1,0,2.46,0v-2.461a1.23,1.23,0,0,0-2.46,0Z" transform="translate(-242.871 -145.949)"/>
        <path id="Trazado_898159" data-name="Trazado 898159" d="M264.187,125.017a17.351,17.351,0,0,0-1.887-3.211,1.23,1.23,0,0,0-1.975,1.468,14.9,14.9,0,0,1,1.619,2.755,2.289,2.289,0,0,1-.937,2.9,15.183,15.183,0,0,1-12.824,1.259,1.23,1.23,0,0,0-1.568.567c-.813,1.568-2.777,4.49-4.185,7.707-8.468-4.034-13.864-11.389-14.516-19.893a1.23,1.23,0,1,0-2.453.188c.752,9.819,7.167,18.227,17.16,22.494a1.229,1.229,0,0,0,1.692-.908A56.186,56.186,0,0,1,248.3,132.8a17.508,17.508,0,0,0,13.968-1.754A4.748,4.748,0,0,0,264.187,125.017Z" transform="translate(-190.786 -104.391)"/>
      </g>
    </g>
  </g>
</svg>
