<svg xmlns="http://www.w3.org/2000/svg" xmlns:xlink="http://www.w3.org/1999/xlink" width="108.914" height="108.914" viewBox="0 0 108.914 108.914">
  <defs>
    <filter id="Trazado_874925" x="0" y="0" width="108.914" height="108.914" filterUnits="userSpaceOnUse">
      <feOffset dy="3" input="SourceAlpha"/>
      <feGaussianBlur stdDeviation="3" result="blur"/>
      <feFlood flood-opacity="0.161"/>
      <feComposite operator="in" in2="blur"/>
      <feComposite in="SourceGraphic"/>
    </filter>
  </defs>
  <g id="Grupo_1111708" data-name="Grupo 1111708" transform="translate(-798.427 -2511.157)">
    <g id="Grupo_1109818" data-name="Grupo 1109818" transform="translate(807.427 2517.157)">
      <g transform="matrix(1, 0, 0, 1, -9, -6)" filter="url(#Trazado_874925)">
        <g id="Trazado_874925-2" data-name="Trazado 874925" transform="translate(9 6)" fill="#efdb59" opacity="0.859">
          <path d="M 45.45676803588867 89.41407012939453 C 39.52198028564453 89.41407012939453 33.76551818847656 88.25206756591797 28.34726715087891 85.96034240722656 C 23.11311721801758 83.74648284912109 18.41204261779785 80.57682800292969 14.37464332580566 76.5394287109375 C 10.33724308013916 72.50202941894531 7.167593002319336 67.80095672607422 4.953730583190918 62.56679534912109 C 2.662005424499512 57.14855575561523 1.500005483627319 51.39208221435547 1.500005483627319 45.45729446411133 C 1.500005483627319 39.52198028564453 2.662005424499512 33.76551818847656 4.953730583190918 28.34726905822754 C 7.167593002319336 23.11310577392578 10.33724308013916 18.41203117370605 14.37464332580566 14.37464332580566 C 18.41204261779785 10.33724403381348 23.11311721801758 7.167593955993652 28.34726715087891 4.953731060028076 C 33.76551818847656 2.662006139755249 39.52198028564453 1.500006198883057 45.45676803588867 1.500006198883057 C 51.39155578613281 1.500006198883057 57.14802932739258 2.662006139755249 62.56626892089844 4.953731060028076 C 67.80043029785156 7.167593955993652 72.50150299072266 10.33724403381348 76.53890228271484 14.37464332580566 C 80.57630920410156 18.41203117370605 83.74595642089844 23.11310577392578 85.95981597900391 28.34726905822754 C 88.25154113769531 33.76551818847656 89.41354370117188 39.52198028564453 89.41354370117188 45.45676803588867 C 89.41354370117188 51.39208221435547 88.25154113769531 57.14855575561523 85.95981597900391 62.56679534912109 C 83.74595642089844 67.80095672607422 80.57630920410156 72.50202941894531 76.53890228271484 76.5394287109375 C 72.50150299072266 80.57682800292969 67.80043029785156 83.74648284912109 62.56626892089844 85.96034240722656 C 57.14802932739258 88.25206756591797 51.39155578613281 89.41407012939453 45.45676803588867 89.41407012939453 Z" stroke="none"/>
          <path d="M 45.45676803588867 3 C 39.72381210327148 3 34.1639404296875 4.12213134765625 28.93159484863281 6.335227966308594 C 23.87622833251953 8.473472595214844 19.33542633056641 11.53517150878906 15.43529510498047 15.435302734375 C 11.53517150878906 19.33543395996094 8.473464965820312 23.87622833251953 6.335227966308594 28.93160247802734 C 4.122123718261719 34.16394424438477 3 39.72381591796875 3 45.4572868347168 C 3 51.19024658203125 4.122123718261719 56.75011825561523 6.335227966308594 61.98246002197266 C 8.473464965820312 67.03782653808594 11.53517150878906 71.57862854003906 15.43529510498047 75.478759765625 C 19.33542633056641 79.37889099121094 23.87622833251953 82.44058990478516 28.93159484863281 84.57883453369141 C 34.1639404296875 86.79193115234375 39.72381210327148 87.9140625 45.45676803588867 87.9140625 C 51.18972396850586 87.9140625 56.74959564208984 86.79193115234375 61.98194122314453 84.57883453369141 C 67.03730773925781 82.44058990478516 71.57810974121094 79.37889099121094 75.47824096679688 75.478759765625 C 79.37837219238281 71.57862854003906 82.44007110595703 67.03782653808594 84.57830810546875 61.98246002197266 C 86.79141235351562 56.75011825561523 87.91353607177734 51.19024658203125 87.91353607177734 45.4567756652832 C 87.91353607177734 39.72381591796875 86.79141235351562 34.16394424438477 84.57830810546875 28.93160247802734 C 82.44007110595703 23.87622833251953 79.37837219238281 19.33543395996094 75.47824096679688 15.435302734375 C 71.57810974121094 11.53517150878906 67.03730773925781 8.473472595214844 61.98194122314453 6.335227966308594 C 56.74959564208984 4.12213134765625 51.18972396850586 3 45.45676803588867 3 M 45.45676803588867 0 C 70.56185150146484 0 90.91353607177734 20.35169219970703 90.91353607177734 45.4567756652832 L 90.91353607177734 45.4572868347168 C 90.91353607177734 70.5623779296875 70.56185150146484 90.9140625 45.45676803588867 90.9140625 C 20.3516845703125 90.9140625 0 70.5623779296875 0 45.4572868347168 L 0 45.4567756652832 C 0 20.35169219970703 20.3516845703125 0 45.45676803588867 0 Z" stroke="none" fill="#fff"/>
        </g>
      </g>
      <g id="Trazado_874923" data-name="Trazado 874923" transform="translate(0 0)" fill="none">
        <path d="M45.457,0A45.457,45.457,0,0,1,90.914,45.457h0A45.457,45.457,0,0,1,0,45.457H0A45.457,45.457,0,0,1,45.457,0Z" stroke="none"/>
        <path d="M 45.45676803588867 3 C 39.72381210327148 3 34.1639404296875 4.12213134765625 28.93159484863281 6.335227966308594 C 23.87622833251953 8.473472595214844 19.33542633056641 11.53517150878906 15.43529510498047 15.435302734375 C 11.53517150878906 19.33543395996094 8.473464965820312 23.87622833251953 6.335227966308594 28.93160247802734 C 4.122123718261719 34.16394424438477 3 39.72381591796875 3 45.4572868347168 C 3 51.19024658203125 4.122123718261719 56.75011825561523 6.335227966308594 61.98246002197266 C 8.473464965820312 67.03782653808594 11.53517150878906 71.57862854003906 15.43529510498047 75.478759765625 C 19.33542633056641 79.37889099121094 23.87622833251953 82.44058990478516 28.93159484863281 84.57883453369141 C 34.1639404296875 86.79193115234375 39.72381210327148 87.9140625 45.45676803588867 87.9140625 C 51.18972396850586 87.9140625 56.74959564208984 86.79193115234375 61.98194122314453 84.57883453369141 C 67.03730773925781 82.44058990478516 71.57810974121094 79.37889099121094 75.47824096679688 75.478759765625 C 79.37837219238281 71.57862854003906 82.44007110595703 67.03782653808594 84.57830810546875 61.98246002197266 C 86.79141235351562 56.75011825561523 87.91353607177734 51.19024658203125 87.91353607177734 45.4567756652832 C 87.91353607177734 39.72381591796875 86.79141235351562 34.16394424438477 84.57830810546875 28.93160247802734 C 82.44007110595703 23.87622833251953 79.37837219238281 19.33543395996094 75.47824096679688 15.435302734375 C 71.57810974121094 11.53517150878906 67.03730773925781 8.473472595214844 61.98194122314453 6.335227966308594 C 56.74959564208984 4.12213134765625 51.18972396850586 3 45.45676803588867 3 M 45.45676803588867 0 C 70.56185150146484 0 90.91353607177734 20.35169219970703 90.91353607177734 45.4567756652832 L 90.91353607177734 45.4572868347168 C 90.91353607177734 70.5623779296875 70.56185150146484 90.9140625 45.45676803588867 90.9140625 C 20.3516845703125 90.9140625 0 70.5623779296875 0 45.4572868347168 L 0 45.4567756652832 C 0 20.35169219970703 20.3516845703125 0 45.45676803588867 0 Z" stroke="none" fill="#fff"/>
      </g>
    </g>
    <g id="botas_copia" data-name="botas copia" transform="translate(782.563 2510.801)">
      <path id="Trazado_1033874" data-name="Trazado 1033874" d="M88.091,76.6c-.208,1.33-.119,2.774-1.812,2.965-5.7-.366-12.119.675-17.684-.433-1.851-.369-3.653-.989-5.519-1.305-.137-.007.225,1.352-.864,1.5-3.577-.311-7.8.394-11.3-.007-1.583-.18-1.661-1.9-1.8-3.165-.581-5.352,1.51-8.672,1.742-13.642.248-5.312-1.128-10.557-1.727-15.78a79.335,79.335,0,0,1-.263-15.742,12.784,12.784,0,0,1,.49-3.109,1.7,1.7,0,0,1,1.433-.925c1.911-.213,4.186.165,6.136-.007.086-1.388.293-2.768,1.929-2.971l22.091,0c2.334.207,1.974,2.54,1.924,4.292A110.058,110.058,0,0,1,81.856,39.53c-.9,6.676-4.675,19.32,1.324,24.272,2.563,2.114,5.011,1.946,8.027,2.52,3.822.726,5.034,3.734,4.816,7.354-.079,1.307-.247,2.736-1.8,2.912-.874.1-5.9-.185-6.13.013Zm-8.2-50.638c-6.915-.164-13.856.126-20.776,0l-.194,1h14.7c.43,0,1.515,1.153,1.309,1.732,1.608-.013,3.226.036,4.834,0,.3,0,.61,0,.915.007a1.421,1.421,0,0,0,.2-.442v-2.3c-.329,0-.663.008-.993,0Zm-7.941,2.978c-6.939-.162-13.9.119-20.844,0l-.177,2.731c7-.142,14.026.182,21.023,0,.286-.008.577.017.862-.007l.131-2.723c-.329,0-.663.008-.993,0Zm20.97,42.188c.288-.008.581.007.869,0a3.273,3.273,0,0,0-3.6-2.854h-.248l-.124-.124a17.8,17.8,0,0,1-6.7-1.861c-.036-.017-.073-.1-.124-.124-.079-.038-.167-.084-.248-.124A20.99,20.99,0,0,1,80.818,64.3c-5.45-6.242-1.775-18.339-.822-25.766a74.954,74.954,0,0,0,.639-7.862c-.329,0-.663.008-.993,0-1.568-.036-3.145.026-4.713,0a133.673,133.673,0,0,1-1.386,14.309c-1.2,7.883-5.051,21.114,5.827,23.746,2.616.634,5.422.212,7.412,2.391,2.043-.038,4.1.061,6.14,0ZM71.823,33.653c-7.018-.2-14.072.149-21.094,0a72.18,72.18,0,0,0,.126,10.36c.529,6.3,2.339,12.625,1.99,18.991-.162,2.953-1.239,5.729-1.742,8.618,3.291.113,6.588.147,9.864.5,2.015.217,4.048.553,6.042.907,1.62.286,3.564.941,5.129,1.075,3.749.323,8.868.093,12.716,0,.329-.008.663.007.993,0-.354-3.071-3.206-2.746-5.488-3.135-14.183-2.415-10.213-16.72-8.679-26.849a82.791,82.791,0,0,0,1.014-10.464c-.288-.007-.581.008-.869,0ZM93.165,73.111c-1.815-.053-3.643.038-5.46,0l.247,1.489c1.692-.036,3.4.048,5.087,0,.288-.008.579.01.867,0l.126-1.489c-.288-.007-.581.008-.869,0Zm-7.941,2.978c-4.26-.124-8.9.308-13.09,0-1.856-.137-4.1-.864-6-1.2A90.835,90.835,0,0,0,52.905,73.6a3.706,3.706,0,0,0-1.934.212,17.948,17.948,0,0,0,.275,3.309.269.269,0,0,0,.29.207h9.493c-.156-2.042,1.281-1.694,2.733-1.431,2.485.448,5.079,1.5,7.629,1.678,4.146.3,9.5.121,13.71,0,.288-.008.579.01.867,0l.126-1.489c-.288-.007-.581.008-.869,0Z"/>
      <path id="Trazado_1033875" data-name="Trazado 1033875" d="M81.937,82.183c-.261,3-.485,6-.887,8.979-1.165,8.638-5.986,23.541,5.041,27.5,2.985,1.072,7.24.912,8.874,3.969-3.848.091-8.969.321-12.716,0-1.565-.134-3.509-.789-5.129-1.075-2-.354-4.027-.69-6.042-.907-3.276-.352-6.573-.385-9.864-.5.5-2.889,1.58-5.665,1.742-8.618.351-6.366-1.459-12.693-1.99-18.991a72.182,72.182,0,0,1-.126-10.36c7.021.151,14.076-.2,21.094,0Z" transform="translate(-10.113 -48.53)" fill="#cd1212"/>
      <path id="Trazado_1033876" data-name="Trazado 1033876" d="M197.158,64.445a83.3,83.3,0,0,1-.763,8.482c-.979,7.26-5.266,22.171,2.912,26.53.341.182.731.242.951.351.081.04.169.086.248.124l.124.124a17.8,17.8,0,0,0,6.7,1.861l.124.124h.248c1.094.642,2.594,1.449,2.73,2.854-2.042.058-4.1-.04-6.14,0-1.99-2.179-4.794-1.759-7.412-2.391-10.878-2.632-7.025-15.863-5.827-23.746a133.677,133.677,0,0,0,1.386-14.309c1.568.025,3.147-.038,4.713,0Z" transform="translate(-117.517 -33.77)" fill="#cd1212"/>
      <path id="Trazado_1033877" data-name="Trazado 1033877" d="M97.128,326.347,97,327.836c-4.214.119-9.564.294-13.71,0-2.549-.182-5.144-1.229-7.629-1.678-1.453-.261-2.889-.611-2.733,1.433H63.439a.269.269,0,0,1-.29-.207,18.094,18.094,0,0,1-.275-3.309,3.7,3.7,0,0,1,1.934-.212,90.606,90.606,0,0,1,13.232,1.286c1.9.337,4.141,1.062,6,1.2,4.189.309,8.83-.122,13.09,0Z" transform="translate(-11.904 -250.258)" fill="#ece8da"/>
      <path id="Trazado_1033878" data-name="Trazado 1033878" d="M83.7,53.739v2.73c-7,.184-14.023-.139-21.023,0l.177-2.731c6.94.119,13.905-.162,20.844,0Z" transform="translate(-11.755 -24.801)" fill="#edeadc"/>
      <path id="Trazado_1033879" data-name="Trazado 1033879" d="M174.177,82.491c.288.008.581-.007.869,0a82.788,82.788,0,0,1-1.014,10.464c-1.534,10.13-5.5,24.434,8.679,26.849,2.281.389,5.134.065,5.488,3.135-.329.007-.663-.007-.993,0-1.635-3.057-5.89-2.9-8.874-3.969-11.027-3.962-6.206-18.867-5.041-27.5.4-2.981.625-5.982.887-8.979Z" transform="translate(-102.354 -48.838)" fill="#980504"/>
      <path id="Trazado_1033880" data-name="Trazado 1033880" d="M222.328,64.491c.329.008.663-.007.993,0a74.963,74.963,0,0,1-.639,7.862c-.953,7.427-4.626,19.524.822,25.766a20.992,20.992,0,0,0,1.924,1.735c-.22-.109-.61-.17-.951-.351-8.178-4.358-3.893-19.271-2.912-26.53A83.217,83.217,0,0,0,222.328,64.491Z" transform="translate(-142.687 -33.816)" fill="#980504"/>
      <path id="Trazado_1033881" data-name="Trazado 1033881" d="M131.961,35.739l-.124,2.73c-1.608.03-3.226-.018-4.834,0,.207-.577-.879-1.732-1.309-1.732h-14.7l.194-1c6.919.131,13.859-.159,20.776,0Z" transform="translate(-52.073 -9.779)" fill="#edeadc"/>
      <path id="Trazado_1033882" data-name="Trazado 1033882" d="M290.468,320.914l-.124,1.489c-1.691.048-3.395-.036-5.087,0l-.247-1.489c1.815.038,3.645-.053,5.46,0Z" transform="translate(-197.303 -247.803)" fill="#ece8da"/>
      <path id="Trazado_1033883" data-name="Trazado 1033883" d="M300,291.721a3.272,3.272,0,0,1,3.6,2.854c-.288.008-.581-.008-.869,0C302.594,293.17,301.094,292.363,300,291.721Z" transform="translate(-209.813 -223.449)" fill="#970504"/>
      <path id="Trazado_1033884" data-name="Trazado 1033884" d="M237.124,35.994c.329.008.663,0,.993,0v2.3a1.385,1.385,0,0,1-.2.442c-.3,0-.612-.013-.915-.007l.124-2.73Z" transform="translate(-157.235 -10.034)" fill="#cdc6b2"/>
      <path id="Trazado_1033885" data-name="Trazado 1033885" d="M189.75,53.991c.329.008.663-.007.993,0l-.131,2.723c-.286.023-.576,0-.862.007Z" transform="translate(-117.803 -25.053)" fill="#cec4b1"/>
      <path id="Trazado_1033886" data-name="Trazado 1033886" d="M317.374,320.991c.288.008.581-.007.869,0l-.126,1.489c-.288.012-.579-.007-.867,0Z" transform="translate(-224.209 -247.88)" fill="#cdc6b2"/>
      <path id="Trazado_1033887" data-name="Trazado 1033887" d="M269.374,338.991c.288.008.581-.007.869,0l-.126,1.489c-.288.012-.579-.007-.867,0Z" transform="translate(-184.15 -262.902)" fill="#cdc6b2"/>
      <path id="Trazado_1033888" data-name="Trazado 1033888" d="M256.624,279.124,256.5,279C256.551,279.025,256.588,279.108,256.624,279.124Z" transform="translate(-173.509 -212.838)" fill="#980504"/>
      <path id="Trazado_1033889" data-name="Trazado 1033889" d="M297.874,291.124,297.75,291Z" transform="translate(-207.935 -222.852)" fill="#970504"/>
    </g>
  </g>
</svg>
