<svg xmlns="http://www.w3.org/2000/svg" xmlns:xlink="http://www.w3.org/1999/xlink" width="86.423" height="86.423" viewBox="0 0 86.423 86.423">
  <defs>
    <filter id="Trazado_874925" x="0" y="0" width="86.423" height="86.423" filterUnits="userSpaceOnUse">
      <feOffset dy="3" input="SourceAlpha"/>
      <feGaussianBlur stdDeviation="3" result="blur"/>
      <feFlood flood-opacity="0.161"/>
      <feComposite operator="in" in2="blur"/>
      <feComposite in="SourceGraphic"/>
    </filter>
  </defs>
  <g id="Grupo_1111692" data-name="Grupo 1111692" transform="translate(-1127.525 -1027.934)">
    <g id="Grupo_1109835" data-name="Grupo 1109835" transform="translate(1136.525 1033.934)">
      <g id="Grupo_1107913" data-name="Grupo 1107913" transform="translate(0 0)">
        <g transform="matrix(1, 0, 0, 1, -9, -6)" filter="url(#Trazado_874925)">
          <g id="Trazado_874925-2" data-name="Trazado 874925" transform="translate(9 6)" fill="#eeb4af">
            <path d="M 34.21131896972656 66.92303466796875 C 29.79465866088867 66.92303466796875 25.51090812683105 66.05836486816406 21.47905921936035 64.35303497314453 C 17.58399963378906 62.70556640625 14.08555889129639 60.34674835205078 11.08091926574707 57.34211730957031 C 8.076289176940918 54.33747863769531 5.717468738555908 50.83903884887695 4.069998741149902 46.94397735595703 C 2.36466908454895 42.91212844848633 1.499998927116394 38.62837600708008 1.499998927116394 34.21171569824219 C 1.499998927116394 29.79465675354004 2.36466908454895 25.51090812683105 4.069998741149902 21.47905731201172 C 5.717468738555908 17.58399772644043 8.076289176940918 14.08555698394775 11.08091926574707 11.08091735839844 C 14.08555889129639 8.076287269592285 17.58399963378906 5.717467308044434 21.47905921936035 4.069997310638428 C 25.51090812683105 2.364667415618896 29.79465866088867 1.49999737739563 34.21131896972656 1.49999737739563 C 38.62797927856445 1.49999737739563 42.91172790527344 2.364667415618896 46.94358062744141 4.069997310638428 C 50.83863830566406 5.717467308044434 54.33707809448242 8.076287269592285 57.34172058105469 11.08091735839844 C 60.34634780883789 14.08555698394775 62.70516967773438 17.58399772644043 64.35263824462891 21.47905731201172 C 66.05796813964844 25.51090812683105 66.92263793945312 29.79465675354004 66.92263793945312 34.21131896972656 C 66.92263793945312 38.62837600708008 66.05796813964844 42.91212844848633 64.35263824462891 46.94397735595703 C 62.70516967773438 50.83903884887695 60.34634780883789 54.33747863769531 57.34172058105469 57.34211730957031 C 54.33707809448242 60.34674835205078 50.83863830566406 62.70556640625 46.94358062744141 64.35303497314453 C 42.91172790527344 66.05836486816406 38.62797927856445 66.92303466796875 34.21131896972656 66.92303466796875 Z" stroke="none"/>
            <path d="M 34.21131896972656 3 C 29.99649429321289 3 25.90934371948242 3.824813842773438 22.06338882446289 5.451503753662109 C 18.34711837768555 7.023353576660156 15.00894165039062 9.274223327636719 12.1415901184082 12.14158630371094 C 9.274223327636719 15.00894165039062 7.023353576660156 18.34711837768555 5.451507568359375 22.06338882446289 C 3.824813842773438 25.90933990478516 3 29.99649429321289 3 34.21171569824219 C 3 38.42654037475586 3.824813842773438 42.51369476318359 5.451507568359375 46.35964584350586 C 7.023353576660156 50.07592010498047 9.274223327636719 53.41409301757812 12.1415901184082 56.28144836425781 C 15.00894165039062 59.14881134033203 18.34711837768555 61.39968109130859 22.06338882446289 62.97152709960938 C 25.90934371948242 64.59822082519531 29.99649429321289 65.42303466796875 34.21131896972656 65.42303466796875 C 38.42613983154297 65.42303466796875 42.51329803466797 64.59822082519531 46.35924911499023 62.97152709960938 C 50.07551956176758 61.39968109130859 53.4136962890625 59.14881134033203 56.28104782104492 56.28144836425781 C 59.14841461181641 53.41409301757812 61.39928436279297 50.07592010498047 62.97113037109375 46.35964584350586 C 64.59782409667969 42.51369476318359 65.42263793945312 38.42654037475586 65.42263793945312 34.21131896972656 C 65.42263793945312 29.99649429321289 64.59782409667969 25.90933990478516 62.97113037109375 22.06338882446289 C 61.39928436279297 18.34711837768555 59.14841461181641 15.00894165039062 56.28104782104492 12.14158630371094 C 53.4136962890625 9.274223327636719 50.07551956176758 7.023353576660156 46.35924911499023 5.451503753662109 C 42.51329803466797 3.824813842773438 38.42613983154297 3 34.21131896972656 3 M 34.21131896972656 0 C 53.10570526123047 0 68.42263793945312 15.31692886352539 68.42263793945312 34.21131896972656 L 68.42263793945312 34.21171569824219 C 68.42263793945312 53.10610580444336 53.10570526123047 68.42303466796875 34.21131896972656 68.42303466796875 C 15.31692886352539 68.42303466796875 0 53.10610580444336 0 34.21171569824219 L 0 34.21131896972656 C 0 15.31692886352539 15.31692886352539 0 34.21131896972656 0 Z" stroke="none" fill="#fff"/>
          </g>
        </g>
        <g id="Trazado_874923" data-name="Trazado 874923" transform="translate(0 0)" fill="none">
          <path d="M34.211,0A34.211,34.211,0,0,1,68.423,34.211h0A34.211,34.211,0,0,1,0,34.212H0A34.211,34.211,0,0,1,34.211,0Z" stroke="none"/>
          <path d="M 34.21131896972656 3 C 29.99649429321289 3 25.90934371948242 3.824813842773438 22.06338882446289 5.451503753662109 C 18.34711837768555 7.023353576660156 15.00894165039062 9.274223327636719 12.1415901184082 12.14158630371094 C 9.274223327636719 15.00894165039062 7.023353576660156 18.34711837768555 5.451507568359375 22.06338882446289 C 3.824813842773438 25.90933990478516 3 29.99649429321289 3 34.21171569824219 C 3 38.42654037475586 3.824813842773438 42.51369476318359 5.451507568359375 46.35964584350586 C 7.023353576660156 50.07592010498047 9.274223327636719 53.41409301757812 12.1415901184082 56.28144836425781 C 15.00894165039062 59.14881134033203 18.34711837768555 61.39968109130859 22.06338882446289 62.97152709960938 C 25.90934371948242 64.59822082519531 29.99649429321289 65.42303466796875 34.21131896972656 65.42303466796875 C 38.42613983154297 65.42303466796875 42.51329803466797 64.59822082519531 46.35924911499023 62.97152709960938 C 50.07551956176758 61.39968109130859 53.4136962890625 59.14881134033203 56.28104782104492 56.28144836425781 C 59.14841461181641 53.41409301757812 61.39928436279297 50.07592010498047 62.97113037109375 46.35964584350586 C 64.59782409667969 42.51369476318359 65.42263793945312 38.42654037475586 65.42263793945312 34.21131896972656 C 65.42263793945312 29.99649429321289 64.59782409667969 25.90933990478516 62.97113037109375 22.06338882446289 C 61.39928436279297 18.34711837768555 59.14841461181641 15.00894165039062 56.28104782104492 12.14158630371094 C 53.4136962890625 9.274223327636719 50.07551956176758 7.023353576660156 46.35924911499023 5.451503753662109 C 42.51329803466797 3.824813842773438 38.42613983154297 3 34.21131896972656 3 M 34.21131896972656 0 C 53.10570526123047 0 68.42263793945312 15.31692886352539 68.42263793945312 34.21131896972656 L 68.42263793945312 34.21171569824219 C 68.42263793945312 53.10610580444336 53.10570526123047 68.42303466796875 34.21131896972656 68.42303466796875 C 15.31692886352539 68.42303466796875 0 53.10610580444336 0 34.21171569824219 L 0 34.21131896972656 C 0 15.31692886352539 15.31692886352539 0 34.21131896972656 0 Z" stroke="none" fill="#fff"/>
        </g>
      </g>
    </g>
    <g id="legislation_6174541_copia" data-name="legislation_6174541 copia" transform="translate(1134.814 1045.948)">
      <path id="Trazado_1033694" data-name="Trazado 1033694" d="M76.436,198.394H49.124a3.448,3.448,0,0,1-.469-.44,24,24,0,0,1-3.6-9.154.709.709,0,0,1,.512-.809.678.678,0,0,1,.712.371,23.7,23.7,0,0,1,.613,2.6,20.168,20.168,0,0,0,2.143,5.1,3.719,3.719,0,0,0,.65,1.04H74.961a25.309,25.309,0,0,1-3.209-9.624c-1.183.949-2.247,2.064-3.427,3.032a26.046,26.046,0,0,1-2.643,2,6.377,6.377,0,0,1-2.555.957l-12.01-.049a.676.676,0,0,1,.129-1.253l11.087,0,1.094-2.173H50.2c-.4,0-.687-1.173.092-1.295l13.953-.007c.187-.036.31-.215.436-.345.378-.39.957-1.116,1.3-1.561.067-.088.166-.11.129-.261H51.5a.672.672,0,0,1,.171-1.3l15.677-.016c.825-.88,1.682-1.727,2.533-2.583.267-.268.539-.674.822-.955.645-.64,1.4-1.346,2.081-1.994,1.148-1.1,2.356-2.208,3.554-3.253.571-.5,2.469-2.223,3.1-2.277a2.692,2.692,0,0,1,2.171,1.778c.081.392-.109.886-.054,1.088.039.149.423.415.546.588a2.037,2.037,0,0,1,.288,1.578c-.11.649-1.755,2.43-2.276,3.013a25.966,25.966,0,0,1-1.908,2.081c-.645.538-1.361.108-1.133-.7.8-.957,1.71-1.822,2.52-2.769a11.869,11.869,0,0,0,1.512-1.958.686.686,0,0,0-.471-.817c-2.4,2.88-5.039,5.538-7.658,8.212a21.6,21.6,0,0,0,1.281,6.313,20.868,20.868,0,0,0,1.343,3.079c.219.4,1.192,1.721,1.244,1.969.083.4-.136.59-.418.8Zm-9.277-9.8c.157.168.45.649.689.568a105.823,105.823,0,0,0,12.477-12.858c.061-.253-.2-.326-.334-.455-.258-.257-.238-.5-.689-.212a24.332,24.332,0,0,0-2.26,1.9c-1.128.988-2.254,2.039-3.339,3.077-2.438,2.331-4.755,4.793-7.023,7.288-.146.317.305.506.48.691Zm-3.208,3.121c-.039.094-.183.232-.131.345a17.417,17.417,0,0,0,2.865-1.9c.131-.2-.356-.491-.48-.609-.109-.1-.2-.3-.348-.4-.1-.077-.143-.013-.22.042a16.423,16.423,0,0,0-1.553,2.18,2.6,2.6,0,0,0-.134.34Z" transform="translate(-26.116 -154.001)" fill="#020202"/>
      <path id="Trazado_1033695" data-name="Trazado 1033695" d="M32.372,0a1.136,1.136,0,0,1,.434.694c0,.175-.3.607-.476.607h-9.84c2.48,3.709,1.747,8.954.825,13.094-1.3,5.85-3.746,11.487-3.428,17.642a.653.653,0,0,1-.6.479c-.479,0-.644-.3-.694-.738a23.691,23.691,0,0,1,.273-4.843c.666-4.985,2.642-9.69,3.542-14.622H17.85a6.279,6.279,0,0,1-.68-.361c-1.862-1.3-1.847-5.8-1.386-7.775C16.215,2.323,17.223.49,19.193,0ZM22.227,3.728c-.36-1.95-2.5-3.429-4.077-1.606-1.422,1.647-1.563,5.12-1.067,7.14.546,2.224,1.92,2.483,2.343.034a10.805,10.805,0,0,0,0-3.332c-.089-.56-.58-1.6-.238-2.021a1.284,1.284,0,0,1,.305-.214h2.731Zm.434,1.3H20.58a11.375,11.375,0,0,1-.26,5.983h2.21a.277.277,0,0,0,.129-.217,17.444,17.444,0,0,0,.178-1.9,27.1,27.1,0,0,0-.177-3.862Z" transform="translate(0 0)" fill="#030303"/>
      <path id="Trazado_1033696" data-name="Trazado 1033696" d="M189.243,0c2.827.518,3.761,3.976,3.905,6.455.333,5.705-1.808,11.18-3.168,16.608a.717.717,0,0,1-.824.434c-.054-.179-.475-.161-.428-.812,1.084-4.527,2.874-9.01,3.114-13.712.119-2.312-.02-7.455-3.12-7.673-3.861-.271-8.032.2-11.926,0a.634.634,0,0,1-.56-.612c-.021-.414.154-.454.434-.694h12.572Z" transform="translate(-142.131)" fill="#020303"/>
      <path id="Trazado_1033697" data-name="Trazado 1033697" d="M269.428,33.447c.119.388-.464,1.657-.347,2.168-.679.649-1.436,1.354-2.081,1.994a36.026,36.026,0,0,1,.822-4.77c1.294-5.586,5.384-15.608,1.85-20.749-.2-.3-.454-.558-.677-.839,3.1.217,3.239,5.361,3.12,7.673-.242,4.7-2.031,9.185-3.114,13.712C268.953,33.287,269.373,33.269,269.428,33.447Z" transform="translate(-222.403 -9.949)" fill="#d0ecfa"/>
      <path id="Trazado_1033698" data-name="Trazado 1033698" d="M62.862,6a.632.632,0,0,0,.56.612c3.895.194,8.065-.275,11.926,0,.223.281.473.542.677.839,3.534,5.14-.555,15.162-1.85,20.749a35.829,35.829,0,0,0-.822,4.77c-.283.281-.555.687-.822.955-.851.855-1.708,1.7-2.533,2.583l-15.677.016a.672.672,0,0,0-.171,1.3H68.76c.037.15-.061.173-.129.261-.343.445-.923,1.171-1.3,1.561-.126.129-.249.309-.436.345L52.942,40c-.779.123-.5,1.295-.092,1.295H66.072l-1.094,2.173-11.087,0a.676.676,0,0,0-.129,1.253l12.01.049a6.378,6.378,0,0,0,2.555-.957,12.12,12.12,0,0,0,3.817-1.429,8.619,8.619,0,0,1,1.645-.825,25.714,25.714,0,0,0,1.56,4.994c.068.568-.26.712-.757.793l-22.911.023a20.168,20.168,0,0,1-2.143-5.1,23.7,23.7,0,0,0-.613-2.6.679.679,0,0,0-.712-.371l-.173-1.474a.654.654,0,0,0,.6-.479c-.318-6.155,2.126-11.792,3.428-17.642.921-4.14,1.654-9.385-.825-13.094h9.84c.175,0,.477-.432.476-.607h1.3ZM59.716,8.793a.656.656,0,0,0,.154,1.283H70.885a.652.652,0,1,0,0-1.3Zm-1.388,3.468a.667.667,0,0,0,.24,1.284H74.786a.657.657,0,0,0,.089-1.306Zm-1.906,3.468a.656.656,0,0,0,.154,1.283H74.527a.652.652,0,1,0,0-1.3ZM55.813,19.2a.649.649,0,0,0,.154,1.284H67.849a.653.653,0,0,0,0-1.3Zm.782,3.468a.656.656,0,0,0,.153,1.284H72.965a.652.652,0,0,0,0-1.3l-16.37.021Zm-2.688,3.468a.652.652,0,0,0,.153,1.284H72.011a.652.652,0,0,0,0-1.3l-18.105.021ZM53.04,29.6c-.63.145-.548,1.308.154,1.283H71.145a.652.652,0,1,0,0-1.3Zm-.816,4.551a1.013,1.013,0,0,0,.3.175l13.766.025a.652.652,0,1,0,0-1.3l-13.619,0c-.539,0-.749.732-.447,1.106Z" transform="translate(-28.756 -5.306)" fill="#f4fbfe"/>
      <path id="Trazado_1033699" data-name="Trazado 1033699" d="M96.147,294.529a26.307,26.307,0,0,0,2.643-2c1.178-.969,2.243-2.083,3.427-3.032a25.289,25.289,0,0,0,3.209,9.624H80.15a3.694,3.694,0,0,1-.65-1.04l22.911-.023c.5-.081.825-.225.757-.793a25.873,25.873,0,0,1-1.56-4.994,8.754,8.754,0,0,0-1.645.825,12.11,12.11,0,0,1-3.817,1.429Z" transform="translate(-56.579 -256.032)" fill="#d1edfb"/>
      <path id="Trazado_1033700" data-name="Trazado 1033700" d="M236.25,201.746,249.082,189c.129.129.4.2.334.455a105.905,105.905,0,0,1-12.477,12.858C236.7,202.394,236.407,201.913,236.25,201.746Z" transform="translate(-195.208 -167.15)" fill="#e08424"/>
      <path id="Trazado_1033701" data-name="Trazado 1033701" d="M245.194,186.373l-12.832,12.746c-.175-.185-.625-.376-.48-.691,2.268-2.494,4.585-4.957,7.023-7.288,1.086-1.037,2.21-2.088,3.339-3.077a24.309,24.309,0,0,1,2.26-1.9c.451-.291.431-.045.689.212Z" transform="translate(-191.319 -164.523)" fill="#e6a560"/>
      <path id="Trazado_1033702" data-name="Trazado 1033702" d="M210.754,304.211c-.63.71-1.323,1.365-1.994,2.037-.04.04-.223.3-.26.131a2.478,2.478,0,0,1,.134-.34,16.45,16.45,0,0,1,1.553-2.18c.076-.054.121-.119.22-.042.146.092.239.293.348.4Z" transform="translate(-170.666 -268.662)" fill="#f6e8a9"/>
      <path id="Trazado_1033703" data-name="Trazado 1033703" d="M207.415,309.668c.037.173.22-.09.26-.131.672-.672,1.364-1.327,1.994-2.037.125.118.61.412.48.609a17.465,17.465,0,0,1-2.865,1.9c-.052-.112.091-.252.131-.345Z" transform="translate(-169.58 -271.951)" fill="#f6d97c"/>
      <path id="Trazado_1033704" data-name="Trazado 1033704" d="M32.175,13.618H29.444a1.284,1.284,0,0,0-.305.214c-.342.425.15,1.461.238,2.021a10.841,10.841,0,0,1,0,3.332c-.423,2.45-1.8,2.191-2.343-.034-.5-2.021-.355-5.492,1.067-7.14,1.573-1.823,3.718-.345,4.077,1.606Z" transform="translate(-9.948 -9.89)" fill="#b0e2f8"/>
      <path id="Trazado_1033705" data-name="Trazado 1033705" d="M59.341,43.5a27.087,27.087,0,0,1,.177,3.862,17.416,17.416,0,0,1-.178,1.9.272.272,0,0,1-.129.217H57a11.375,11.375,0,0,0,.26-5.983Z" transform="translate(-36.68 -38.471)" fill="#d0ecfa"/>
      <path id="Trazado_1033706" data-name="Trazado 1033706" d="M116.975,90l18.105-.021a.652.652,0,1,1,0,1.3H117.127A.657.657,0,0,1,116.973,90Z" transform="translate(-89.309 -79.578)" fill="#000101"/>
      <path id="Trazado_1033707" data-name="Trazado 1033707" d="M94.987,180l18.105-.021a.652.652,0,0,1,0,1.3H95.14A.651.651,0,0,1,94.987,180Z" transform="translate(-69.836 -159.173)"/>
      <path id="Trazado_1033708" data-name="Trazado 1033708" d="M88.022,210l18.105-.021a.652.652,0,1,1,0,1.3H88.174c-.7.024-.784-1.14-.154-1.284Z" transform="translate(-63.738 -185.705)"/>
      <path id="Trazado_1033709" data-name="Trazado 1033709" d="M133.9,59.992l16.547-.022a.657.657,0,0,1-.089,1.306H134.137A.667.667,0,0,1,133.9,59.992Z" transform="translate(-104.324 -53.037)" fill="#040404"/>
      <path id="Trazado_1033710" data-name="Trazado 1033710" d="M118.431,150l16.37-.021a.652.652,0,0,1,0,1.3H118.583A.655.655,0,0,1,118.431,150Z" transform="translate(-90.592 -132.641)" fill="#010101"/>
      <path id="Trazado_1033711" data-name="Trazado 1033711" d="M83.171,241.066c-.3-.373-.091-1.109.447-1.106l13.619,0a.652.652,0,1,1,0,1.3l-13.766-.025a1.038,1.038,0,0,1-.3-.175Z" transform="translate(-59.703 -212.219)"/>
      <path id="Trazado_1033712" data-name="Trazado 1033712" d="M111.318,120.01l12.036-.02a.653.653,0,0,1,0,1.3H111.471A.649.649,0,0,1,111.318,120.01Z" transform="translate(-84.26 -106.118)" fill="#010101"/>
      <path id="Trazado_1033713" data-name="Trazado 1033713" d="M145.483,30l11.169-.021a.652.652,0,1,1,0,1.3H145.637A.657.657,0,0,1,145.483,30Z" transform="translate(-114.523 -26.514)" fill="#010101"/>
    </g>
  </g>
</svg>
