<svg xmlns="http://www.w3.org/2000/svg" xmlns:xlink="http://www.w3.org/1999/xlink" width="108.914" height="108.914" viewBox="0 0 108.914 108.914">
  <defs>
    <filter id="Trazado_874925" x="0" y="0" width="108.914" height="108.914" filterUnits="userSpaceOnUse">
      <feOffset dy="3" input="SourceAlpha"/>
      <feGaussianBlur stdDeviation="3" result="blur"/>
      <feFlood flood-opacity="0.161"/>
      <feComposite operator="in" in2="blur"/>
      <feComposite in="SourceGraphic"/>
    </filter>
  </defs>
  <g id="Grupo_1110024" data-name="Grupo 1110024" transform="translate(-798.427 -2511.157)">
    <g id="Grupo_1109818" data-name="Grupo 1109818" transform="translate(807.427 2517.157)">
      <g transform="matrix(1, 0, 0, 1, -9, -6)" filter="url(#Trazado_874925)">
        <g id="Trazado_874925-2" data-name="Trazado 874925" transform="translate(9 6)" fill="#efdb59" opacity="0.859">
          <path d="M 45.45676803588867 89.41407012939453 C 39.52198028564453 89.41407012939453 33.76551818847656 88.25206756591797 28.34726715087891 85.96034240722656 C 23.11311721801758 83.74648284912109 18.41204261779785 80.57682800292969 14.37464332580566 76.5394287109375 C 10.33724308013916 72.50202941894531 7.167593002319336 67.80095672607422 4.953730583190918 62.56679534912109 C 2.662005424499512 57.14855575561523 1.500005483627319 51.39208221435547 1.500005483627319 45.45729446411133 C 1.500005483627319 39.52198028564453 2.662005424499512 33.76551818847656 4.953730583190918 28.34726905822754 C 7.167593002319336 23.11310577392578 10.33724308013916 18.41203117370605 14.37464332580566 14.37464332580566 C 18.41204261779785 10.33724403381348 23.11311721801758 7.167593955993652 28.34726715087891 4.953731060028076 C 33.76551818847656 2.662006139755249 39.52198028564453 1.500006198883057 45.45676803588867 1.500006198883057 C 51.39155578613281 1.500006198883057 57.14802932739258 2.662006139755249 62.56626892089844 4.953731060028076 C 67.80043029785156 7.167593955993652 72.50150299072266 10.33724403381348 76.53890228271484 14.37464332580566 C 80.57630920410156 18.41203117370605 83.74595642089844 23.11310577392578 85.95981597900391 28.34726905822754 C 88.25154113769531 33.76551818847656 89.41354370117188 39.52198028564453 89.41354370117188 45.45676803588867 C 89.41354370117188 51.39208221435547 88.25154113769531 57.14855575561523 85.95981597900391 62.56679534912109 C 83.74595642089844 67.80095672607422 80.57630920410156 72.50202941894531 76.53890228271484 76.5394287109375 C 72.50150299072266 80.57682800292969 67.80043029785156 83.74648284912109 62.56626892089844 85.96034240722656 C 57.14802932739258 88.25206756591797 51.39155578613281 89.41407012939453 45.45676803588867 89.41407012939453 Z" stroke="none"/>
          <path d="M 45.45676803588867 3 C 39.72381210327148 3 34.1639404296875 4.12213134765625 28.93159484863281 6.335227966308594 C 23.87622833251953 8.473472595214844 19.33542633056641 11.53517150878906 15.43529510498047 15.435302734375 C 11.53517150878906 19.33543395996094 8.473464965820312 23.87622833251953 6.335227966308594 28.93160247802734 C 4.122123718261719 34.16394424438477 3 39.72381591796875 3 45.4572868347168 C 3 51.19024658203125 4.122123718261719 56.75011825561523 6.335227966308594 61.98246002197266 C 8.473464965820312 67.03782653808594 11.53517150878906 71.57862854003906 15.43529510498047 75.478759765625 C 19.33542633056641 79.37889099121094 23.87622833251953 82.44058990478516 28.93159484863281 84.57883453369141 C 34.1639404296875 86.79193115234375 39.72381210327148 87.9140625 45.45676803588867 87.9140625 C 51.18972396850586 87.9140625 56.74959564208984 86.79193115234375 61.98194122314453 84.57883453369141 C 67.03730773925781 82.44058990478516 71.57810974121094 79.37889099121094 75.47824096679688 75.478759765625 C 79.37837219238281 71.57862854003906 82.44007110595703 67.03782653808594 84.57830810546875 61.98246002197266 C 86.79141235351562 56.75011825561523 87.91353607177734 51.19024658203125 87.91353607177734 45.4567756652832 C 87.91353607177734 39.72381591796875 86.79141235351562 34.16394424438477 84.57830810546875 28.93160247802734 C 82.44007110595703 23.87622833251953 79.37837219238281 19.33543395996094 75.47824096679688 15.435302734375 C 71.57810974121094 11.53517150878906 67.03730773925781 8.473472595214844 61.98194122314453 6.335227966308594 C 56.74959564208984 4.12213134765625 51.18972396850586 3 45.45676803588867 3 M 45.45676803588867 0 C 70.56185150146484 0 90.91353607177734 20.35169219970703 90.91353607177734 45.4567756652832 L 90.91353607177734 45.4572868347168 C 90.91353607177734 70.5623779296875 70.56185150146484 90.9140625 45.45676803588867 90.9140625 C 20.3516845703125 90.9140625 0 70.5623779296875 0 45.4572868347168 L 0 45.4567756652832 C 0 20.35169219970703 20.3516845703125 0 45.45676803588867 0 Z" stroke="none" fill="#fff"/>
        </g>
      </g>
      <g id="Trazado_874923" data-name="Trazado 874923" transform="translate(0 0)" fill="none">
        <path d="M45.457,0A45.457,45.457,0,0,1,90.914,45.457h0A45.457,45.457,0,0,1,0,45.457H0A45.457,45.457,0,0,1,45.457,0Z" stroke="none"/>
        <path d="M 45.45676803588867 3 C 39.72381210327148 3 34.1639404296875 4.12213134765625 28.93159484863281 6.335227966308594 C 23.87622833251953 8.473472595214844 19.33542633056641 11.53517150878906 15.43529510498047 15.435302734375 C 11.53517150878906 19.33543395996094 8.473464965820312 23.87622833251953 6.335227966308594 28.93160247802734 C 4.122123718261719 34.16394424438477 3 39.72381591796875 3 45.4572868347168 C 3 51.19024658203125 4.122123718261719 56.75011825561523 6.335227966308594 61.98246002197266 C 8.473464965820312 67.03782653808594 11.53517150878906 71.57862854003906 15.43529510498047 75.478759765625 C 19.33542633056641 79.37889099121094 23.87622833251953 82.44058990478516 28.93159484863281 84.57883453369141 C 34.1639404296875 86.79193115234375 39.72381210327148 87.9140625 45.45676803588867 87.9140625 C 51.18972396850586 87.9140625 56.74959564208984 86.79193115234375 61.98194122314453 84.57883453369141 C 67.03730773925781 82.44058990478516 71.57810974121094 79.37889099121094 75.47824096679688 75.478759765625 C 79.37837219238281 71.57862854003906 82.44007110595703 67.03782653808594 84.57830810546875 61.98246002197266 C 86.79141235351562 56.75011825561523 87.91353607177734 51.19024658203125 87.91353607177734 45.4567756652832 C 87.91353607177734 39.72381591796875 86.79141235351562 34.16394424438477 84.57830810546875 28.93160247802734 C 82.44007110595703 23.87622833251953 79.37837219238281 19.33543395996094 75.47824096679688 15.435302734375 C 71.57810974121094 11.53517150878906 67.03730773925781 8.473472595214844 61.98194122314453 6.335227966308594 C 56.74959564208984 4.12213134765625 51.18972396850586 3 45.45676803588867 3 M 45.45676803588867 0 C 70.56185150146484 0 90.91353607177734 20.35169219970703 90.91353607177734 45.4567756652832 L 90.91353607177734 45.4572868347168 C 90.91353607177734 70.5623779296875 70.56185150146484 90.9140625 45.45676803588867 90.9140625 C 20.3516845703125 90.9140625 0 70.5623779296875 0 45.4572868347168 L 0 45.4567756652832 C 0 20.35169219970703 20.3516845703125 0 45.45676803588867 0 Z" stroke="none" fill="#fff"/>
      </g>
    </g>
    <g id="nutrition_815112" transform="translate(826.762 2533.886)">
      <path id="Trazado_1033612" data-name="Trazado 1033612" d="M10.875,58.113c-.236-.294-.594-.389-.569-.847l.052-6.3c.272-.871,1.866-.494,2.609-.562,2.846-.264,2.666-3.6.455-3.851-1.613-.182-3.485.667-3.116-1.925H3.341a6.089,6.089,0,0,1-1.119-.353,3.08,3.08,0,0,1-1.643-2.55L.565,23.506.9,22.6l5.38-5.381c.245-1.684-.128-3.608.058-5.267.071-.633.356-1.224,1.071-1.195,2.777.2,5.885-.25,8.621,0,.789.072.995.453,1.07,1.2.166,1.644-.139,3.516.026,5.186.139.468,2.977,2.816,3.49,3.534a3.334,3.334,0,0,1,.339.681V35.911H40.613a3.071,3.071,0,0,1,.36.262c.367.417.2.973.3,1.463A5.943,5.943,0,0,0,45.09,42.31c.732.258,1.976.2,2.459.487a.971.971,0,0,1,.434.7,34.737,34.737,0,0,1,.055,5.618c-.189,2.151-2.087.765-2.725,1.609a1,1,0,0,0,.237,1.436c.8.445,1.969-.278,2.368.8a19.259,19.259,0,0,1,.106,4.065,1.23,1.23,0,0,1-.783,1.087H10.875ZM8.382,12.688v1.925h6.684V12.688Zm6.684,3.851H8.382a2.619,2.619,0,0,1-.226,1.529L2.628,23.641V42.06c.159.251.383.535.707.539h14.74c.37.048.572-.21.783-.461l.057-20.328-3.625-3.737-.224-1.532ZM18.352,44.52H12.236l1.925.227c4.875,1.5,3.11,8.276-1.925,7.591V56.19H45.994V54.264a2.889,2.889,0,0,1,0-5.777l-.016-3.95a7.954,7.954,0,0,1-6.668-6.7H20.958v4.021a6.089,6.089,0,0,1-.353,1.119,2.735,2.735,0,0,1-2.252,1.544Z" fill="#040404"/>
      <path id="Trazado_1033613" data-name="Trazado 1033613" d="M44.836,9.775l.986-.031c11.3.437,16.034,14.917,6.844,21.8-4.766,3.567-8.84,1.978-14.2,2.11-3.69.091-6.534.956-9.951-1.046a9.688,9.688,0,0,1,1.2-17.217c1.705-.714,2.836-.55,4.54-.785,1.85-.254,2.872-1.84,4.339-2.8a12.894,12.894,0,0,1,6.243-2.027Zm.552,1.935c-4.024.018-5.149,1.538-8.015,3.629-2.314,1.688-3.835.892-6.216,1.6a7.753,7.753,0,0,0-2.839,13.137c3.223,2.823,6.349,1.636,10.134,1.522,4.851-.145,8.743,1.6,13.08-1.647,7.717-5.777,3.565-18.287-6.145-18.243Z" fill="#040403"/>
      <path id="Trazado_1033614" data-name="Trazado 1033614" d="M33.984.114a10.1,10.1,0,0,1-1.5,5.02c-.218.35-1.222,1.481-1.2,1.7.01.114,1.122,1.521,1.314,1.852a10.182,10.182,0,0,1,1.382,5.02H32.059a8.14,8.14,0,0,0-2.338-5.532c-.814.358-1.525.888-2.342,1.247A13.655,13.655,0,0,1,15.033,8.7c-.265-.16-1.463-.885-1.423-1.146l.44-.7-.461-.68c0-.236,1.422-1.172,1.715-1.349a13.19,13.19,0,0,1,14.418.6A7.105,7.105,0,0,0,31.947.115h2.039ZM21.614,4.9a10.245,10.245,0,0,0-5.752,1.949,11.158,11.158,0,0,0,12.23-.114A11.117,11.117,0,0,0,21.614,4.9Z" fill="#040404"/>
      <path id="Trazado_1033615" data-name="Trazado 1033615" d="M18.352,44.52A2.733,2.733,0,0,0,20.6,42.976a6.055,6.055,0,0,0,.353-1.119V37.836H39.309a7.956,7.956,0,0,0,6.668,6.7l.016,3.95a2.889,2.889,0,0,0,0,5.777v1.925H12.234V52.336c5.035.687,6.8-6.092,1.925-7.591.118-.187.43-.114.621-.115a23.469,23.469,0,0,0,3.57-.111Zm12.223.061a3.862,3.862,0,1,0-3.862,3.862A3.862,3.862,0,0,0,30.575,44.581Zm6.77,6.772a2.9,2.9,0,1,0-2.9,2.9A2.9,2.9,0,0,0,37.345,51.353Z" fill="#fde290"/>
      <path id="Trazado_1033616" data-name="Trazado 1033616" d="M15.066,16.539l.224,1.532,3.625,3.737-.057,20.328c-.211.251-.414.509-.783.463H3.336a.944.944,0,0,1-.707-.541V23.64l5.528-5.573a2.621,2.621,0,0,0,.226-1.529h6.684ZM13.4,29.76c.445.518,3.131.63,3.533-.2l.035-7.507a15.3,15.3,0,0,0-2.127-2.291c-.865-.643-1.579-.183-1.7.8.17,2.679-.227,5.63,0,8.274a2.058,2.058,0,0,0,.264.926Zm-1.166,5.13V28.943c0-.4-.611-.8-.98-.816-.7-.04-2.185,2.026-2.83,2.45-.929-.428-2.454-3.235-3.634-2.225a3.022,3.022,0,0,0-.372.816v5.721H6.457V31.6c1.7,1.888,2.222,1.643,3.852-.114v3.4h1.925Z" fill="#e8e8e8"/>
      <rect id="Rect치ngulo_404854" data-name="Rect치ngulo 404854" width="6.684" height="1.925" transform="translate(8.382 12.688)" fill="#62bdfe"/>
      <path id="Trazado_1033617" data-name="Trazado 1033617" d="M18.352,44.52a23.292,23.292,0,0,1-3.57.111c-.192,0-.5-.072-.621.115l-1.925-.226Z" fill="#676150"/>
      <path id="Trazado_1033618" data-name="Trazado 1033618" d="M45.388,11.711c9.71-.044,13.862,12.465,6.145,18.243-4.337,3.246-8.228,1.5-13.08,1.647-3.787.114-6.911,1.3-10.134-1.522a7.753,7.753,0,0,1,2.839-13.137c2.381-.708,3.9.087,6.216-1.6,2.866-2.091,3.992-3.611,8.015-3.629Zm7.036,10.153a6.894,6.894,0,1,0-6.894,6.894A6.894,6.894,0,0,0,52.424,21.863Zm-15.09,2.9a4.34,4.34,0,1,0-4.34,4.34A4.34,4.34,0,0,0,37.334,24.765Z" fill="#f2cec5"/>
      <path id="Trazado_1033619" data-name="Trazado 1033619" d="M21.614,4.9a11.117,11.117,0,0,1,6.478,1.836,11.158,11.158,0,0,1-12.23.114A10.255,10.255,0,0,1,21.614,4.9Zm-.657.986H18.918V7.816h2.039Z" fill="#e6e6e6"/>
      <path id="Trazado_1033620" data-name="Trazado 1033620" d="M30.575,44.581a3.862,3.862,0,1,1-3.862-3.862A3.862,3.862,0,0,1,30.575,44.581Zm-1.927,0a1.928,1.928,0,1,0-1.928,1.928A1.928,1.928,0,0,0,28.648,44.584Z" fill="#040301"/>
      <path id="Trazado_1033621" data-name="Trazado 1033621" d="M37.345,51.353a2.9,2.9,0,1,1-2.9-2.9A2.9,2.9,0,0,1,37.345,51.353Zm-1.949,0a.956.956,0,1,0-.956.956A.957.957,0,0,0,35.4,51.35Z" fill="#040302"/>
      <path id="Trazado_1033622" data-name="Trazado 1033622" d="M13.4,29.76a2.058,2.058,0,0,1-.264-.926c-.223-2.645.176-5.6,0-8.274.122-.979.836-1.439,1.7-.8a15.514,15.514,0,0,1,2.127,2.291l-.035,7.507c-.4.826-3.087.715-3.533.2Z" fill="#030303"/>
      <path id="Trazado_1033623" data-name="Trazado 1033623" d="M12.234,34.891H10.309v-3.4c-1.629,1.756-2.157,2-3.852.114v3.284H4.418V29.17a3.022,3.022,0,0,1,.372-.816c1.179-1.01,2.7,1.8,3.634,2.225.646-.424,2.13-2.49,2.83-2.45.369.02.98.419.98.816v5.948Z" fill="#040405"/>
      <path id="Trazado_1033624" data-name="Trazado 1033624" d="M52.424,21.863A6.894,6.894,0,1,1,45.53,14.97,6.894,6.894,0,0,1,52.424,21.863Zm-1.954,0a4.944,4.944,0,1,0-4.944,4.944A4.944,4.944,0,0,0,50.47,21.863Z" fill="#030303"/>
      <path id="Trazado_1033625" data-name="Trazado 1033625" d="M37.334,24.765a4.34,4.34,0,1,1-4.34-4.34A4.34,4.34,0,0,1,37.334,24.765Zm-1.924,0a2.418,2.418,0,1,0-2.418,2.418,2.418,2.418,0,0,0,2.418-2.418Z" fill="#030302"/>
      <rect id="Rect치ngulo_404855" data-name="Rect치ngulo 404855" width="2.039" height="1.925" transform="translate(18.918 5.891)" fill="#090909"/>
      <circle id="Elipse_11983" data-name="Elipse 11983" cx="1.928" cy="1.928" r="1.928" transform="translate(24.792 42.656)" fill="#e89520"/>
      <circle id="Elipse_11984" data-name="Elipse 11984" cx="0.956" cy="0.956" r="0.956" transform="translate(33.483 50.394)" fill="#e59320"/>
      <circle id="Elipse_11985" data-name="Elipse 11985" cx="4.944" cy="4.944" r="4.944" transform="translate(40.582 16.919)" fill="#d29485"/>
      <circle id="Elipse_11986" data-name="Elipse 11986" cx="2.418" cy="2.418" r="2.418" transform="translate(30.575 22.346)" fill="#d09384"/>
    </g>
  </g>
</svg>
