<svg xmlns="http://www.w3.org/2000/svg" xmlns:xlink="http://www.w3.org/1999/xlink" width="108.914" height="108.914" viewBox="0 0 108.914 108.914">
  <defs>
    <filter id="Trazado_874925" x="0" y="0" width="108.914" height="108.914" filterUnits="userSpaceOnUse">
      <feOffset dy="3" input="SourceAlpha"/>
      <feGaussianBlur stdDeviation="3" result="blur"/>
      <feFlood flood-opacity="0.161"/>
      <feComposite operator="in" in2="blur"/>
      <feComposite in="SourceGraphic"/>
    </filter>
  </defs>
  <g id="Grupo_1111709" data-name="Grupo 1111709" transform="translate(-798.427 -2511.157)">
    <g id="Grupo_1109818" data-name="Grupo 1109818" transform="translate(807.427 2517.157)">
      <g transform="matrix(1, 0, 0, 1, -9, -6)" filter="url(#Trazado_874925)">
        <g id="Trazado_874925-2" data-name="Trazado 874925" transform="translate(9 6)" fill="#efdb59" opacity="0.859">
          <path d="M 45.45676803588867 89.41407012939453 C 39.52198028564453 89.41407012939453 33.76551818847656 88.25206756591797 28.34726715087891 85.96034240722656 C 23.11311721801758 83.74648284912109 18.41204261779785 80.57682800292969 14.37464332580566 76.5394287109375 C 10.33724308013916 72.50202941894531 7.167593002319336 67.80095672607422 4.953730583190918 62.56679534912109 C 2.662005424499512 57.14855575561523 1.500005483627319 51.39208221435547 1.500005483627319 45.45729446411133 C 1.500005483627319 39.52198028564453 2.662005424499512 33.76551818847656 4.953730583190918 28.34726905822754 C 7.167593002319336 23.11310577392578 10.33724308013916 18.41203117370605 14.37464332580566 14.37464332580566 C 18.41204261779785 10.33724403381348 23.11311721801758 7.167593955993652 28.34726715087891 4.953731060028076 C 33.76551818847656 2.662006139755249 39.52198028564453 1.500006198883057 45.45676803588867 1.500006198883057 C 51.39155578613281 1.500006198883057 57.14802932739258 2.662006139755249 62.56626892089844 4.953731060028076 C 67.80043029785156 7.167593955993652 72.50150299072266 10.33724403381348 76.53890228271484 14.37464332580566 C 80.57630920410156 18.41203117370605 83.74595642089844 23.11310577392578 85.95981597900391 28.34726905822754 C 88.25154113769531 33.76551818847656 89.41354370117188 39.52198028564453 89.41354370117188 45.45676803588867 C 89.41354370117188 51.39208221435547 88.25154113769531 57.14855575561523 85.95981597900391 62.56679534912109 C 83.74595642089844 67.80095672607422 80.57630920410156 72.50202941894531 76.53890228271484 76.5394287109375 C 72.50150299072266 80.57682800292969 67.80043029785156 83.74648284912109 62.56626892089844 85.96034240722656 C 57.14802932739258 88.25206756591797 51.39155578613281 89.41407012939453 45.45676803588867 89.41407012939453 Z" stroke="none"/>
          <path d="M 45.45676803588867 3 C 39.72381210327148 3 34.1639404296875 4.12213134765625 28.93159484863281 6.335227966308594 C 23.87622833251953 8.473472595214844 19.33542633056641 11.53517150878906 15.43529510498047 15.435302734375 C 11.53517150878906 19.33543395996094 8.473464965820312 23.87622833251953 6.335227966308594 28.93160247802734 C 4.122123718261719 34.16394424438477 3 39.72381591796875 3 45.4572868347168 C 3 51.19024658203125 4.122123718261719 56.75011825561523 6.335227966308594 61.98246002197266 C 8.473464965820312 67.03782653808594 11.53517150878906 71.57862854003906 15.43529510498047 75.478759765625 C 19.33542633056641 79.37889099121094 23.87622833251953 82.44058990478516 28.93159484863281 84.57883453369141 C 34.1639404296875 86.79193115234375 39.72381210327148 87.9140625 45.45676803588867 87.9140625 C 51.18972396850586 87.9140625 56.74959564208984 86.79193115234375 61.98194122314453 84.57883453369141 C 67.03730773925781 82.44058990478516 71.57810974121094 79.37889099121094 75.47824096679688 75.478759765625 C 79.37837219238281 71.57862854003906 82.44007110595703 67.03782653808594 84.57830810546875 61.98246002197266 C 86.79141235351562 56.75011825561523 87.91353607177734 51.19024658203125 87.91353607177734 45.4567756652832 C 87.91353607177734 39.72381591796875 86.79141235351562 34.16394424438477 84.57830810546875 28.93160247802734 C 82.44007110595703 23.87622833251953 79.37837219238281 19.33543395996094 75.47824096679688 15.435302734375 C 71.57810974121094 11.53517150878906 67.03730773925781 8.473472595214844 61.98194122314453 6.335227966308594 C 56.74959564208984 4.12213134765625 51.18972396850586 3 45.45676803588867 3 M 45.45676803588867 0 C 70.56185150146484 0 90.91353607177734 20.35169219970703 90.91353607177734 45.4567756652832 L 90.91353607177734 45.4572868347168 C 90.91353607177734 70.5623779296875 70.56185150146484 90.9140625 45.45676803588867 90.9140625 C 20.3516845703125 90.9140625 0 70.5623779296875 0 45.4572868347168 L 0 45.4567756652832 C 0 20.35169219970703 20.3516845703125 0 45.45676803588867 0 Z" stroke="none" fill="#fff"/>
        </g>
      </g>
      <g id="Trazado_874923" data-name="Trazado 874923" transform="translate(0 0)" fill="none">
        <path d="M45.457,0A45.457,45.457,0,0,1,90.914,45.457h0A45.457,45.457,0,0,1,0,45.457H0A45.457,45.457,0,0,1,45.457,0Z" stroke="none"/>
        <path d="M 45.45676803588867 3 C 39.72381210327148 3 34.1639404296875 4.12213134765625 28.93159484863281 6.335227966308594 C 23.87622833251953 8.473472595214844 19.33542633056641 11.53517150878906 15.43529510498047 15.435302734375 C 11.53517150878906 19.33543395996094 8.473464965820312 23.87622833251953 6.335227966308594 28.93160247802734 C 4.122123718261719 34.16394424438477 3 39.72381591796875 3 45.4572868347168 C 3 51.19024658203125 4.122123718261719 56.75011825561523 6.335227966308594 61.98246002197266 C 8.473464965820312 67.03782653808594 11.53517150878906 71.57862854003906 15.43529510498047 75.478759765625 C 19.33542633056641 79.37889099121094 23.87622833251953 82.44058990478516 28.93159484863281 84.57883453369141 C 34.1639404296875 86.79193115234375 39.72381210327148 87.9140625 45.45676803588867 87.9140625 C 51.18972396850586 87.9140625 56.74959564208984 86.79193115234375 61.98194122314453 84.57883453369141 C 67.03730773925781 82.44058990478516 71.57810974121094 79.37889099121094 75.47824096679688 75.478759765625 C 79.37837219238281 71.57862854003906 82.44007110595703 67.03782653808594 84.57830810546875 61.98246002197266 C 86.79141235351562 56.75011825561523 87.91353607177734 51.19024658203125 87.91353607177734 45.4567756652832 C 87.91353607177734 39.72381591796875 86.79141235351562 34.16394424438477 84.57830810546875 28.93160247802734 C 82.44007110595703 23.87622833251953 79.37837219238281 19.33543395996094 75.47824096679688 15.435302734375 C 71.57810974121094 11.53517150878906 67.03730773925781 8.473472595214844 61.98194122314453 6.335227966308594 C 56.74959564208984 4.12213134765625 51.18972396850586 3 45.45676803588867 3 M 45.45676803588867 0 C 70.56185150146484 0 90.91353607177734 20.35169219970703 90.91353607177734 45.4567756652832 L 90.91353607177734 45.4572868347168 C 90.91353607177734 70.5623779296875 70.56185150146484 90.9140625 45.45676803588867 90.9140625 C 20.3516845703125 90.9140625 0 70.5623779296875 0 45.4572868347168 L 0 45.4567756652832 C 0 20.35169219970703 20.3516845703125 0 45.45676803588867 0 Z" stroke="none" fill="#fff"/>
      </g>
    </g>
    <g id="monos_copia" data-name="monos copia" transform="translate(734.202 2514.848)">
      <path id="Trazado_1033890" data-name="Trazado 1033890" d="M125.822,27.742l-.281.069c0,.149.212.026.281.069.819.515,6.331,4.125,6.5,4.489L137.3,52.195c.132.64-.283.9-.781,1.157a36.712,36.712,0,0,1-5.228,1.773,1.308,1.308,0,0,1-1.067-.068,12.451,12.451,0,0,1-1.46-3.37c-.4-1.8.068-3.776-.21-5.6-.088,1.856-.132,3.757-.069,5.6.016.487-.021.98,0,1.469l3.337,25.6a1.154,1.154,0,0,1-.864.827c-2.5.3-5.278,1.28-7.743,1.5a1.465,1.465,0,0,1-1.186-.18c-.839-.687-2.42-12.835-3.278-14.649L115.6,80.879a.91.91,0,0,1-.376.184c-.843.187-4.948-.756-6.088-.994s-3.59-.246-3.335-1.842l3.219-24.372V50.845l-1.511,3.738c-.39.683-.694.68-1.434.539a40.133,40.133,0,0,1-5.316-1.825c-.411-.208-.768-.454-.708-.975l4.988-19.955a2.455,2.455,0,0,1,.578-.543,47.664,47.664,0,0,1,5.32-3.5.99.99,0,0,1,.607-.161c.007.232-.007.468,0,.7h.137l-.139-.7c0-.094,0-.187,0-.279l.281-.069-.281-.069c-.038-2.579-.354-6.7.581-9.012A7.06,7.06,0,0,1,124.59,17.7c1.83,2.942.8,6.74,1.233,10.041Zm-12.323.279v.7c-.01.042.009.094,0,.14a.323.323,0,0,0-.14.279c-.031-.031-.144.021-.14.069.01.153.206,0,.14-.069,0,.1.389.631,0,.839a4.475,4.475,0,0,0-.64-.283c-.552-.047-4.784,3.167-5.653,3.583l-.392.588-4.388,17.875,3.79,1.2,2.8-7.7c0,.019.139.035.146.34.035,1.54-.068,3.094-.005,4.633.007.17-.106.52.139.487.023-1.887.019-3.791.012-5.687a1.053,1.053,0,0,0-.151-.474c0-2.215-.054-5.274.14-7.422.009-.092-.017-.2,0-.279a.958.958,0,0,1,1.54-.489,1.8,1.8,0,0,1,.425,1.254c.173,2.052-.016,4.548-.005,6.657l-.281.071.281.489c.01,2.768-.007,5.555,0,8.331l-3.21,24.492,6.221,1.211,3.694-18.016-.132-23.781c-.817-2.276-3.141-4.771-3.913-6.941a1.366,1.366,0,0,1,0-1.261c.184-.083.487-.317.7-.42a9.615,9.615,0,0,0,9.312-.558l-.066-6.659a5.123,5.123,0,0,0-10.226.007c-.189,2.061,0,4.664,0,6.79Zm12.322.839v-.7h-.137v.7Zm-1.748.14v.14Q124.207,29.072,124.072,29Zm.14.281v.14Q124.347,29.353,124.212,29.283Zm4.411,16.245c.734,2.524,1.889,4.91,2.669,7.416l3.783-1.2L130.581,33.45l-5.6-3.691c-.519-.165-1.119.324-1.547.605l-3.771,6.695c0,7.845.236,15.671.128,23.526l3.653,18.264,6.136-1.2-3.068-24.064.014-16.522a.983.983,0,0,1,1.953-.078l-.1,8.183c.017.2.229.3.245.359Zm-7.984-14.283a17.325,17.325,0,0,1-3.92,0l1.823,3.36.4-.231,1.7-3.129ZM109.367,44.266v.14Q109.5,44.337,109.367,44.266Z" fill="#020202"/>
      <path id="Trazado_1033891" data-name="Trazado 1033891" d="M264.169,202.6h-.279c-.062-1.847-.019-3.746.069-5.6C264.237,198.828,263.765,200.807,264.169,202.6Z" transform="translate(-135.406 -150.914)" fill="#555656"/>
      <path id="Trazado_1033892" data-name="Trazado 1033892" d="M166.33,91.232l.281.069-.281.069v-.14Z" transform="translate(-54.791 -63.489)" fill="#030303"/>
      <path id="Trazado_1033893" data-name="Trazado 1033893" d="M247.341,91.24v.14c-.069-.043-.283.08-.281-.069l.281-.069Z" transform="translate(-121.519 -63.498)" fill="#525252"/>
      <path id="Trazado_1033894" data-name="Trazado 1033894" d="M124.044,102.81c.123.057.217.2.42.14.772,2.168,3.1,4.666,3.913,6.941l.132,23.781-3.694,18.016-6.221-1.211,3.21-24.492c-.005-2.775.012-5.564,0-8.331v-.56c-.01-2.109.177-4.6.005-6.657a1.81,1.81,0,0,0-.425-1.254.958.958,0,0,0-1.54.489l-.14.2.14.075c-.194,2.147-.144,5.209-.14,7.422.036.222-.147.526-.14.7l-2.8,7.7-3.79-1.2,4.388-17.875.392-.588c.869-.416,5.1-3.63,5.653-3.583a4.589,4.589,0,0,1,.64.283Zm-.741,9.833c-1.1.245-.909,2.775-.787,3.668a2.558,2.558,0,0,0,4.673,1.056c.477-.732.446-2.8.363-3.712-.033-.35-.04-.68-.371-.89a14.887,14.887,0,0,0-3.876-.125Z" transform="translate(-10.686 -72.827)" fill="#7793a2"/>
      <path id="Trazado_1033895" data-name="Trazado 1033895" d="M222.006,109.938a.983.983,0,0,0-1.953.078l-.014,16.522,3.068,24.064-6.136,1.2-3.653-18.264c.106-7.854-.13-15.681-.128-23.526l3.771-6.695c.43-.281,1.03-.77,1.547-.605l5.6,3.691L228.6,124.7l-3.783,1.2c-.781-2.506-1.936-4.893-2.669-7.416-.184-2.595.243-5.514.01-8.069a1.2,1.2,0,0,0-.151-.473Zm-7.321,2.831a.834.834,0,0,0-.446.255c-.31.361-.279,2.834-.215,3.427a2.537,2.537,0,0,0,5.009.106c.13-.779.241-3.261-.473-3.661A14.622,14.622,0,0,0,214.685,112.768Z" transform="translate(-93.524 -72.953)" fill="#7794a2"/>
      <path id="Trazado_1033896" data-name="Trazado 1033896" d="M178.216,37.972c-.222-.1-.482-.449-.839-.42h-.141c0-2.125-.187-4.73,0-6.79a5.123,5.123,0,0,1,10.226-.007l.066,6.659a9.606,9.606,0,0,1-9.312.558Zm3.894-10.608c-5.8.456-5.264,11.1.8,10.469C188.428,37.257,187.942,26.906,182.109,27.364Z" transform="translate(-63.737 -9.531)" fill="#76919f"/>
      <path id="Trazado_1033897" data-name="Trazado 1033897" d="M200.112,111.43l-1.7,3.129-.4.231-1.823-3.36a17.426,17.426,0,0,0,3.92,0Z" transform="translate(-79.472 -80.186)" fill="#e8c3ad"/>
      <path id="Trazado_1033898" data-name="Trazado 1033898" d="M263.665,153.072c-.016-.056-.225-.16-.245-.359l.1-8.183a1.231,1.231,0,0,1,.151.474C263.909,147.558,263.481,150.477,263.665,153.072Z" transform="translate(-135.042 -107.545)" fill="#555656"/>
      <path id="Trazado_1033899" data-name="Trazado 1033899" d="M151.12,188.13a1.077,1.077,0,0,1,.151.474c.007,1.9.01,3.8-.012,5.687-.245.033-.132-.317-.139-.487-.062-1.538.04-3.093.005-4.633-.007-.305-.146-.321-.146-.34C150.972,188.656,151.154,188.352,151.12,188.13Z" transform="translate(-42.103 -143.583)" fill="#454748"/>
      <path id="Trazado_1033900" data-name="Trazado 1033900" d="M178.595,93.254c-.213.1-.515.336-.7.42-.059.026-.2-.017-.279,0,.009-.047-.01-.1,0-.14.05-.187.257-.4.14-.7.357-.028.617.323.839.42Z" transform="translate(-64.116 -64.813)" fill="#090909"/>
      <path id="Trazado_1033901" data-name="Trazado 1033901" d="M177.249,97.688a1.366,1.366,0,0,0,0,1.261c-.2.057-.3-.083-.42-.14.389-.208,0-.735,0-.839a.316.316,0,0,1,.14-.279c.085-.017.222.026.279,0Z" transform="translate(-63.469 -68.825)" fill="#2d2e2e"/>
      <path id="Trazado_1033902" data-name="Trazado 1033902" d="M162.561,186.51v.56l-.281-.489.281-.071Z" transform="translate(-51.444 -142.244)" fill="#040404"/>
      <path id="Trazado_1033903" data-name="Trazado 1033903" d="M177.63,93.551v-.7h.14C177.887,93.154,177.68,93.362,177.63,93.551Z" transform="translate(-64.132 -64.828)" fill="#2d2e2e"/>
      <path id="Trazado_1033904" data-name="Trazado 1033904" d="M166.324,93.66l.139.7h-.137c-.009-.232.005-.467,0-.7Z" transform="translate(-54.786 -65.498)" fill="#030303"/>
      <rect id="Rectángulo_404866" data-name="Rectángulo 404866" width="0.137" height="0.699" transform="translate(125.683 28.162)" fill="#525252"/>
      <path id="Trazado_1033905" data-name="Trazado 1033905" d="M151.931,144l-.141-.075.141-.2C151.913,143.8,151.939,143.909,151.931,144Z" transform="translate(-42.773 -106.875)" fill="#454748"/>
      <path id="Trazado_1033906" data-name="Trazado 1033906" d="M238.59,98.5q.135.07,0,.14Z" transform="translate(-114.518 -69.498)" fill="#030303"/>
      <path id="Trazado_1033907" data-name="Trazado 1033907" d="M176.15,99.265c.066.066-.13.224-.141.069C176.006,99.286,176.119,99.234,176.15,99.265Z" transform="translate(-62.792 -70.123)" fill="#030303"/>
      <path id="Trazado_1033908" data-name="Trazado 1033908" d="M239.4,100.12q.135.07,0,.14Z" transform="translate(-115.188 -70.837)" fill="#030303"/>
      <path id="Trazado_1033909" data-name="Trazado 1033909" d="M153.81,186.51q.135.07,0,.14Z" transform="translate(-44.443 -142.244)" fill="#454748"/>
      <path id="Trazado_1033910" data-name="Trazado 1033910" d="M168.35,160.525a14.887,14.887,0,0,1,3.876.125c.347.22.338.539.371.89.083.905.114,2.978-.362,3.712a2.558,2.558,0,0,1-4.673-1.056c-.121-.893-.309-3.424.787-3.668Zm2.283,2.069h-1.122c-.016.874-.232,2.258,1.06,1.689Z" transform="translate(-55.733 -120.709)" fill="#010101"/>
      <path id="Trazado_1033911" data-name="Trazado 1033911" d="M218.46,160.513a14.62,14.62,0,0,1,3.875.127c.715.4.6,2.883.474,3.661a2.537,2.537,0,0,1-5.009-.106c-.064-.591-.1-3.067.215-3.427A.839.839,0,0,1,218.46,160.513Zm2.421,2.069h-1.122c.1.643-.373,1.991.628,1.826C221.074,164.3,220.852,163.078,220.882,162.582Z" transform="translate(-97.299 -120.697)" fill="#010101"/>
      <path id="Trazado_1033912" data-name="Trazado 1033912" d="M186.36,34.039c5.833-.46,6.319,9.892.8,10.469C181.1,45.141,180.557,34.5,186.36,34.039Zm.135,1.951c-2.288.264-2.857,3.856-1.648,5.505,1.813,2.475,4.355.219,4.326-2.225-.017-1.367-1.061-3.467-2.678-3.28Z" transform="translate(-67.988 -16.206)" fill="#030202"/>
      <path id="Trazado_1033913" data-name="Trazado 1033913" d="M180.253,172.78l-.062,1.689c-1.292.569-1.075-.815-1.06-1.689Z" transform="translate(-65.353 -130.895)" fill="#2a2725"/>
      <path id="Trazado_1033914" data-name="Trazado 1033914" d="M230.293,172.78c-.029.5.193,1.714-.494,1.826-1,.165-.529-1.183-.628-1.826Z" transform="translate(-106.711 -130.895)" fill="#2b2826"/>
      <path id="Trazado_1033915" data-name="Trazado 1033915" d="M195.708,45.305c1.617-.186,2.661,1.915,2.678,3.28.031,2.444-2.513,4.7-4.326,2.225C192.852,49.161,193.421,45.567,195.708,45.305Z" transform="translate(-77.201 -25.52)" fill="#ebc4ae"/>
    </g>
  </g>
</svg>
