<svg xmlns="http://www.w3.org/2000/svg" xmlns:xlink="http://www.w3.org/1999/xlink" width="86.423" height="86.423" viewBox="0 0 86.423 86.423">
  <defs>
    <filter id="Trazado_874925" x="0" y="0" width="86.423" height="86.423" filterUnits="userSpaceOnUse">
      <feOffset dy="3" input="SourceAlpha"/>
      <feGaussianBlur stdDeviation="3" result="blur"/>
      <feFlood flood-opacity="0.161"/>
      <feComposite operator="in" in2="blur"/>
      <feComposite in="SourceGraphic"/>
    </filter>
  </defs>
  <g id="Grupo_1111693" data-name="Grupo 1111693" transform="translate(-1127.525 -1027.934)">
    <g id="Grupo_1109835" data-name="Grupo 1109835" transform="translate(1136.525 1033.934)">
      <g id="Grupo_1107913" data-name="Grupo 1107913" transform="translate(0 0)">
        <g transform="matrix(1, 0, 0, 1, -9, -6)" filter="url(#Trazado_874925)">
          <g id="Trazado_874925-2" data-name="Trazado 874925" transform="translate(9 6)" fill="#eeb4af">
            <path d="M 34.21131896972656 66.92303466796875 C 29.79465866088867 66.92303466796875 25.51090812683105 66.05836486816406 21.47905921936035 64.35303497314453 C 17.58399963378906 62.70556640625 14.08555889129639 60.34674835205078 11.08091926574707 57.34211730957031 C 8.076289176940918 54.33747863769531 5.717468738555908 50.83903884887695 4.069998741149902 46.94397735595703 C 2.36466908454895 42.91212844848633 1.499998927116394 38.62837600708008 1.499998927116394 34.21171569824219 C 1.499998927116394 29.79465675354004 2.36466908454895 25.51090812683105 4.069998741149902 21.47905731201172 C 5.717468738555908 17.58399772644043 8.076289176940918 14.08555698394775 11.08091926574707 11.08091735839844 C 14.08555889129639 8.076287269592285 17.58399963378906 5.717467308044434 21.47905921936035 4.069997310638428 C 25.51090812683105 2.364667415618896 29.79465866088867 1.49999737739563 34.21131896972656 1.49999737739563 C 38.62797927856445 1.49999737739563 42.91172790527344 2.364667415618896 46.94358062744141 4.069997310638428 C 50.83863830566406 5.717467308044434 54.33707809448242 8.076287269592285 57.34172058105469 11.08091735839844 C 60.34634780883789 14.08555698394775 62.70516967773438 17.58399772644043 64.35263824462891 21.47905731201172 C 66.05796813964844 25.51090812683105 66.92263793945312 29.79465675354004 66.92263793945312 34.21131896972656 C 66.92263793945312 38.62837600708008 66.05796813964844 42.91212844848633 64.35263824462891 46.94397735595703 C 62.70516967773438 50.83903884887695 60.34634780883789 54.33747863769531 57.34172058105469 57.34211730957031 C 54.33707809448242 60.34674835205078 50.83863830566406 62.70556640625 46.94358062744141 64.35303497314453 C 42.91172790527344 66.05836486816406 38.62797927856445 66.92303466796875 34.21131896972656 66.92303466796875 Z" stroke="none"/>
            <path d="M 34.21131896972656 3 C 29.99649429321289 3 25.90934371948242 3.824813842773438 22.06338882446289 5.451503753662109 C 18.34711837768555 7.023353576660156 15.00894165039062 9.274223327636719 12.1415901184082 12.14158630371094 C 9.274223327636719 15.00894165039062 7.023353576660156 18.34711837768555 5.451507568359375 22.06338882446289 C 3.824813842773438 25.90933990478516 3 29.99649429321289 3 34.21171569824219 C 3 38.42654037475586 3.824813842773438 42.51369476318359 5.451507568359375 46.35964584350586 C 7.023353576660156 50.07592010498047 9.274223327636719 53.41409301757812 12.1415901184082 56.28144836425781 C 15.00894165039062 59.14881134033203 18.34711837768555 61.39968109130859 22.06338882446289 62.97152709960938 C 25.90934371948242 64.59822082519531 29.99649429321289 65.42303466796875 34.21131896972656 65.42303466796875 C 38.42613983154297 65.42303466796875 42.51329803466797 64.59822082519531 46.35924911499023 62.97152709960938 C 50.07551956176758 61.39968109130859 53.4136962890625 59.14881134033203 56.28104782104492 56.28144836425781 C 59.14841461181641 53.41409301757812 61.39928436279297 50.07592010498047 62.97113037109375 46.35964584350586 C 64.59782409667969 42.51369476318359 65.42263793945312 38.42654037475586 65.42263793945312 34.21131896972656 C 65.42263793945312 29.99649429321289 64.59782409667969 25.90933990478516 62.97113037109375 22.06338882446289 C 61.39928436279297 18.34711837768555 59.14841461181641 15.00894165039062 56.28104782104492 12.14158630371094 C 53.4136962890625 9.274223327636719 50.07551956176758 7.023353576660156 46.35924911499023 5.451503753662109 C 42.51329803466797 3.824813842773438 38.42613983154297 3 34.21131896972656 3 M 34.21131896972656 0 C 53.10570526123047 0 68.42263793945312 15.31692886352539 68.42263793945312 34.21131896972656 L 68.42263793945312 34.21171569824219 C 68.42263793945312 53.10610580444336 53.10570526123047 68.42303466796875 34.21131896972656 68.42303466796875 C 15.31692886352539 68.42303466796875 0 53.10610580444336 0 34.21171569824219 L 0 34.21131896972656 C 0 15.31692886352539 15.31692886352539 0 34.21131896972656 0 Z" stroke="none" fill="#fff"/>
          </g>
        </g>
        <g id="Trazado_874923" data-name="Trazado 874923" transform="translate(0 0)" fill="none">
          <path d="M34.211,0A34.211,34.211,0,0,1,68.423,34.211h0A34.211,34.211,0,0,1,0,34.212H0A34.211,34.211,0,0,1,34.211,0Z" stroke="none"/>
          <path d="M 34.21131896972656 3 C 29.99649429321289 3 25.90934371948242 3.824813842773438 22.06338882446289 5.451503753662109 C 18.34711837768555 7.023353576660156 15.00894165039062 9.274223327636719 12.1415901184082 12.14158630371094 C 9.274223327636719 15.00894165039062 7.023353576660156 18.34711837768555 5.451507568359375 22.06338882446289 C 3.824813842773438 25.90933990478516 3 29.99649429321289 3 34.21171569824219 C 3 38.42654037475586 3.824813842773438 42.51369476318359 5.451507568359375 46.35964584350586 C 7.023353576660156 50.07592010498047 9.274223327636719 53.41409301757812 12.1415901184082 56.28144836425781 C 15.00894165039062 59.14881134033203 18.34711837768555 61.39968109130859 22.06338882446289 62.97152709960938 C 25.90934371948242 64.59822082519531 29.99649429321289 65.42303466796875 34.21131896972656 65.42303466796875 C 38.42613983154297 65.42303466796875 42.51329803466797 64.59822082519531 46.35924911499023 62.97152709960938 C 50.07551956176758 61.39968109130859 53.4136962890625 59.14881134033203 56.28104782104492 56.28144836425781 C 59.14841461181641 53.41409301757812 61.39928436279297 50.07592010498047 62.97113037109375 46.35964584350586 C 64.59782409667969 42.51369476318359 65.42263793945312 38.42654037475586 65.42263793945312 34.21131896972656 C 65.42263793945312 29.99649429321289 64.59782409667969 25.90933990478516 62.97113037109375 22.06338882446289 C 61.39928436279297 18.34711837768555 59.14841461181641 15.00894165039062 56.28104782104492 12.14158630371094 C 53.4136962890625 9.274223327636719 50.07551956176758 7.023353576660156 46.35924911499023 5.451503753662109 C 42.51329803466797 3.824813842773438 38.42613983154297 3 34.21131896972656 3 M 34.21131896972656 0 C 53.10570526123047 0 68.42263793945312 15.31692886352539 68.42263793945312 34.21131896972656 L 68.42263793945312 34.21171569824219 C 68.42263793945312 53.10610580444336 53.10570526123047 68.42303466796875 34.21131896972656 68.42303466796875 C 15.31692886352539 68.42303466796875 0 53.10610580444336 0 34.21171569824219 L 0 34.21131896972656 C 0 15.31692886352539 15.31692886352539 0 34.21131896972656 0 Z" stroke="none" fill="#fff"/>
        </g>
      </g>
    </g>
    <g id="Grupo_1111645" data-name="Grupo 1111645" transform="translate(113.119 15.056)">
      <g id="Grupo_1111670" data-name="Grupo 1111670" transform="translate(1038.058 1035.878)">
        <g id="Grupo_1111665" data-name="Grupo 1111665" transform="translate(0 0)">
          <path id="Trazado_900718" data-name="Trazado 900718" d="M1200.614,1183.154a17.417,17.417,0,1,1-2.615-9.18A17.381,17.381,0,0,1,1200.614,1183.154Z" transform="translate(-1164.107 -1165.377)" fill="#8ce0ff"/>
          <path id="Trazado_900719" data-name="Trazado 900719" d="M1457.418,1439.791a17.418,17.418,0,0,1-29.809,12.242,17.706,17.706,0,0,1-1.625-1.9,17.419,17.419,0,0,0,25.15-23.193q-.372-.6-.795-1.169a17.518,17.518,0,0,1,4.464,4.838A17.323,17.323,0,0,1,1457.418,1439.791Z" transform="translate(-1420.91 -1422.015)" fill="#63ceff"/>
          <path id="Trazado_900720" data-name="Trazado 900720" d="M1180.382,1245.978c-.292,1.224-1.16.837-1.758,1.178a1.543,1.543,0,0,0-.622,1.266,3.026,3.026,0,0,1-.387,1.76.812.812,0,0,1-1.016.25c-.85-.476.113-2.119-.988-2.668a1.218,1.218,0,0,0-1.262.137,2.148,2.148,0,0,0-.6,2.214,3.751,3.751,0,0,1,.2,1.368c-.142.875-1.076,1.342-1.882,1.7s-1.714.943-1.7,1.829c.009.839.861,1.41,1.663,1.665,0,0,5.188.3,4.523,4.249s-1.827,3.768-1.827,3.768l-3.923,7.052a17.422,17.422,0,0,1,6.527-28.648c.193.051.21.146.407.2a4.258,4.258,0,0,1,2.354,1.238A1.693,1.693,0,0,1,1180.382,1245.978Z" transform="translate(-1164.105 -1241.734)" fill="#ace35f"/>
          <g id="Grupo_1111645-2" data-name="Grupo 1111645" transform="translate(15.012 8.597)">
            <path id="Trazado_900721" data-name="Trazado 900721" d="M2207.419,1804.862a17.382,17.382,0,0,1-6.769,13.783l-2.885-10.087c-.742-.523-1.452-1.4-2.338-1.359-.932.044-1.51,1.109-1.483,2.041a16.1,16.1,0,0,0,.633,2.719,2.4,2.4,0,0,1-.735,2.526,1.551,1.551,0,0,1-2.192-.753c-.268-.755.095-1.645-.246-2.369-.414-.877-1.572-1.019-2.529-1.187a4.377,4.377,0,0,1-2.15-.895,2.118,2.118,0,0,1-.738-2.105,2.431,2.431,0,0,1,1.933-1.5l3.768-6.594a7.364,7.364,0,0,1,2.582-2.152l10.532-1.244A17.324,17.324,0,0,1,2207.419,1804.862Z" transform="translate(-2185.924 -1795.682)" fill="#ace35f"/>
          </g>
          <g id="Grupo_1111646" data-name="Grupo 1111646" transform="translate(28.149 8.597)">
            <path id="Trazado_900722" data-name="Trazado 900722" d="M3198.725,1804.861a17.382,17.382,0,0,1-6.769,13.783l-1.59-5.562a17.439,17.439,0,0,0,3.871-17.179l1.873-.221A17.324,17.324,0,0,1,3198.725,1804.861Z" transform="translate(-3190.367 -1795.681)" fill="#8fcf36"/>
          </g>
          <path id="Trazado_900731" data-name="Trazado 900731" d="M1228.047,1165.769a3.4,3.4,0,0,1,2.818,5.311l-2.268,3.349a.664.664,0,0,1-1.1,0l-2.268-3.349A3.4,3.4,0,0,1,1228.047,1165.769Z" transform="translate(-1222.198 -1165.41)" fill="#f0776c"/>
          <path id="Trazado_900732" data-name="Trazado 900732" d="M1343.782,1287.174a1.875,1.875,0,1,1,1.875-1.875A1.875,1.875,0,0,1,1343.782,1287.174Z" transform="translate(-1337.933 -1281.526)" fill="#fff"/>
          <path id="Trazado_900733" data-name="Trazado 900733" d="M2168.908,1963.115a3.4,3.4,0,0,1,2.818,5.311l-2.268,3.35a.664.664,0,0,1-1.1,0l-2.268-3.35A3.4,3.4,0,0,1,2168.908,1963.115Z" transform="translate(-2150.754 -1952.328)" fill="#f0776c"/>
          <path id="Trazado_900734" data-name="Trazado 900734" d="M2284.642,2084.52a1.875,1.875,0,1,1,1.875-1.875A1.875,1.875,0,0,1,2284.642,2084.52Z" transform="translate(-2266.488 -2068.444)" fill="#fff"/>
          <g id="Grupo_1111651" data-name="Grupo 1111651" transform="translate(2.807 1.041)">
            <path id="Trazado_900735" data-name="Trazado 900735" d="M1253.136,1220.458a.438.438,0,0,1-.12-.017.443.443,0,0,1-.307-.546,3.352,3.352,0,0,1,1.426-1.93.443.443,0,1,1,.475.747,2.47,2.47,0,0,0-1.048,1.422A.443.443,0,0,1,1253.136,1220.458Z" transform="translate(-1252.693 -1217.896)" fill="#fff"/>
          </g>
          <g id="Grupo_1111652" data-name="Grupo 1111652" transform="translate(15.142 11.452)">
            <path id="Trazado_900736" data-name="Trazado 900736" d="M2196.265,2016.554a.443.443,0,0,1-.427-.563,3.352,3.352,0,0,1,1.426-1.93.443.443,0,1,1,.475.747,2.47,2.47,0,0,0-1.049,1.422A.442.442,0,0,1,2196.265,2016.554Z" transform="translate(-2195.821 -2013.993)" fill="#fff"/>
          </g>
          <g id="Grupo_1111653" data-name="Grupo 1111653" transform="translate(2.105 0.027)">
            <path id="Trazado_900737" data-name="Trazado 900737" d="M1202.724,1149.991h0a1,1,0,0,1-.825-.438l-2.268-3.35a3.735,3.735,0,0,1,3.093-5.829h0a3.735,3.735,0,0,1,3.093,5.829l-2.268,3.35A1,1,0,0,1,1202.724,1149.991Zm0-8.953a3.071,3.071,0,0,0-2.543,4.793l2.268,3.35a.341.341,0,0,0,.55,0l2.268-3.35a3.071,3.071,0,0,0-2.543-4.793Z" transform="translate(-1198.98 -1140.374)"/>
          </g>
          <g id="Grupo_1111654" data-name="Grupo 1111654" transform="translate(14.41 10.455)">
            <path id="Trazado_900738" data-name="Trazado 900738" d="M2143.584,1947.339h0a1,1,0,0,1-.825-.438l-2.268-3.349a3.735,3.735,0,1,1,6.186,0l-2.268,3.349A1,1,0,0,1,2143.584,1947.339Zm0-8.952a3.071,3.071,0,0,0-2.543,4.792l2.268,3.35a.341.341,0,0,0,.55,0l2.268-3.35a3.071,3.071,0,0,0-2.543-4.792Z" transform="translate(-2139.84 -1937.722)"/>
          </g>
          <g id="Grupo_1111655" data-name="Grupo 1111655" transform="translate(3.642 1.565)">
            <path id="Trazado_900739" data-name="Trazado 900739" d="M1318.719,1262.445a2.207,2.207,0,1,1,2.207-2.207A2.21,2.21,0,0,1,1318.719,1262.445Zm0-3.75a1.543,1.543,0,1,0,1.543,1.543A1.545,1.545,0,0,0,1318.719,1258.694Z" transform="translate(-1316.512 -1258.03)"/>
          </g>
          <g id="Grupo_1111656" data-name="Grupo 1111656" transform="translate(15.947 11.993)">
            <path id="Trazado_900740" data-name="Trazado 900740" d="M2259.581,2059.79a2.207,2.207,0,1,1,2.207-2.208A2.21,2.21,0,0,1,2259.581,2059.79Zm0-3.75a1.543,1.543,0,1,0,1.543,1.543A1.545,1.545,0,0,0,2259.581,2056.039Z" transform="translate(-2257.373 -2055.375)"/>
          </g>
          <g id="Grupo_1111657" data-name="Grupo 1111657" transform="translate(2.407 9.514)">
            <path id="Trazado_900741" data-name="Trazado 900741" d="M1222.579,1870.643a.443.443,0,0,1-.43-.549,17.992,17.992,0,0,1,1.53-4.036.443.443,0,0,1,.785.411,17.088,17.088,0,0,0-1.454,3.838A.443.443,0,0,1,1222.579,1870.643Z" transform="translate(-1222.136 -1865.821)" fill="#fff"/>
          </g>
          <g id="Grupo_1111658" data-name="Grupo 1111658" transform="translate(1.348 7.721)">
            <path id="Trazado_900742" data-name="Trazado 900742" d="M1144.33,1748.689a.332.332,0,0,1-.286-.162l-.82-1.374a17.806,17.806,0,0,1,.926-18.295.332.332,0,0,1,.552.37,17.142,17.142,0,0,0-.9,17.6l.812,1.36a.332.332,0,0,1-.285.5Z" transform="translate(-1141.131 -1728.711)"/>
          </g>
          <g id="Grupo_1111659" data-name="Grupo 1111659" transform="translate(17.042 11.743)">
            <path id="Trazado_900743" data-name="Trazado 900743" d="M2343.417,2060.043q-.774,0-1.564-.065l-.447-.06a.332.332,0,1,1,.089-.658l.43.058a16.837,16.837,0,0,0,6.147-.594,17.219,17.219,0,0,0,12.261-16.423v-.043a15.83,15.83,0,0,0-.836-5.062l-.165-.5a.332.332,0,1,1,.631-.207l.164.5a16.479,16.479,0,0,1,.87,5.271v.043a17.631,17.631,0,0,1-3.607,10.74,17.927,17.927,0,0,1-9.13,6.32A17.041,17.041,0,0,1,2343.417,2060.043Z" transform="translate(-2341.117 -2036.258)"/>
          </g>
          <g id="Grupo_1111660" data-name="Grupo 1111660" transform="translate(8.901)">
            <path id="Trazado_900744" data-name="Trazado 900744" d="M1718.938,1142.063a.332.332,0,0,1-.188-.606,17.889,17.889,0,0,1,14.211-2.641c.171.041.356.092.564.158l1.083.336a.332.332,0,1,1-.2.635l-1.085-.336c-.195-.061-.364-.109-.519-.146a17.223,17.223,0,0,0-13.682,2.542A.331.331,0,0,1,1718.938,1142.063Z" transform="translate(-1718.605 -1138.337)"/>
          </g>
          <g id="Grupo_1111661" data-name="Grupo 1111661" transform="translate(5.93 1.033)">
            <path id="Trazado_900745" data-name="Trazado 900745" d="M1496.208,1239.566a.578.578,0,0,1-.085-.006l.1-.656a.077.077,0,0,0-.029,0c.009,0,.911-.132,1.477-3.493a2.744,2.744,0,0,0-.5-2.256c-1.144-1.437-3.693-1.6-3.718-1.605a.343.343,0,0,1-.082-.015c-.908-.291-1.882-.963-1.893-1.979-.009-.842.63-1.56,1.9-2.135.794-.359,1.579-.767,1.69-1.455a2.332,2.332,0,0,0-.116-.914c-.028-.111-.057-.222-.081-.332a2.44,2.44,0,0,1,.718-2.548,1.548,1.548,0,0,1,1.61-.17,1.718,1.718,0,0,1,.773,1.762c0,.488.013.792.23.914a.489.489,0,0,0,.591-.166,1.993,1.993,0,0,0,.3-1.209c.006-.125.011-.25.021-.374a1.815,1.815,0,0,1,.79-1.528,2.1,2.1,0,0,1,.72-.215c.454-.076.728-.121.878-.751a1.352,1.352,0,0,0-.229-1.157,3.965,3.965,0,0,0-2.177-1.12.918.918,0,0,1-.31-.149.245.245,0,0,0-.105-.052.332.332,0,0,1,.152-.647.9.9,0,0,1,.333.153.266.266,0,0,0,.1.052,4.5,4.5,0,0,1,2.527,1.353,2.012,2.012,0,0,1,.352,1.721,1.469,1.469,0,0,1-1.415,1.252,1.562,1.562,0,0,0-.5.137,1.3,1.3,0,0,0-.457,1.005c-.009.115-.015.232-.02.348a2.59,2.59,0,0,1-.439,1.59,1.146,1.146,0,0,1-1.438.335c-.567-.318-.569-.942-.57-1.492,0-.6-.022-.978-.405-1.168a.878.878,0,0,0-.913.1,1.906,1.906,0,0,0-.47,1.878c.022.1.049.2.075.308a2.854,2.854,0,0,1,.128,1.185c-.177,1.1-1.364,1.634-2.073,1.954-1.008.455-1.516.967-1.51,1.522.007.65.717,1.116,1.394,1.341.38.029,2.9.276,4.153,1.85a3.38,3.38,0,0,1,.634,2.782C1497.7,1239.235,1496.585,1239.566,1496.208,1239.566Z" transform="translate(-1491.483 -1217.298)"/>
          </g>
          <g id="Grupo_1111662" data-name="Grupo 1111662" transform="translate(14.682 18.256)">
            <path id="Trazado_900746" data-name="Trazado 900746" d="M2168.143,2543.9a1.965,1.965,0,0,1-.638-.109,1.787,1.787,0,0,1-1.132-1.071,3.285,3.285,0,0,1-.117-1.252,2.376,2.376,0,0,0-.117-1.086c-.313-.664-1.217-.818-2.091-.968l-.194-.034a4.591,4.591,0,0,1-2.31-.971,2.45,2.45,0,0,1-.84-2.449,2.7,2.7,0,0,1,2.17-1.732.332.332,0,0,1,.165.644c-.964.247-1.519.664-1.7,1.274a1.8,1.8,0,0,0,.637,1.763,3.977,3.977,0,0,0,1.989.818l.191.033c.944.161,2.119.362,2.58,1.339a2.9,2.9,0,0,1,.18,1.394,2.752,2.752,0,0,0,.079,1,1.218,1.218,0,0,0,1.7.583,2.1,2.1,0,0,0,.588-2.179c-.066-.327-.164-.646-.267-.985a6.76,6.76,0,0,1-.372-1.792,2.207,2.207,0,0,1,1.8-2.382,3.043,3.043,0,0,1,1.986.973c.194.163.376.317.56.446a.332.332,0,1,1-.383.543c-.206-.146-.409-.315-.6-.48a2.51,2.51,0,0,0-1.527-.818c-.714.034-1.188.924-1.167,1.7a6.164,6.164,0,0,0,.344,1.616c.1.338.21.688.283,1.046a2.7,2.7,0,0,1-.882,2.871A1.687,1.687,0,0,1,2168.143,2543.9Z" transform="translate(-2160.629 -2534.222)"/>
          </g>
          <g id="Grupo_1111663" data-name="Grupo 1111663" transform="translate(20.446 9.509)">
            <path id="Trazado_900747" data-name="Trazado 900747" d="M2601.739,1868.194a.332.332,0,0,1-.263-.535,7.605,7.605,0,0,1,2.739-2.264.332.332,0,1,1,.21.63,7.081,7.081,0,0,0-2.422,2.039A.332.332,0,0,1,2601.739,1868.194Z" transform="translate(-2601.407 -1865.378)"/>
          </g>
          <g id="Grupo_1111664" data-name="Grupo 1111664" transform="translate(28.756 28.954)">
            <path id="Trazado_900748" data-name="Trazado 900748" d="M3237.78,3355.116a.333.333,0,0,1-.319-.241l-.65-2.274a.332.332,0,1,1,.639-.183l.65,2.274a.332.332,0,0,1-.228.411A.341.341,0,0,1,3237.78,3355.116Z" transform="translate(-3236.798 -3352.177)"/>
          </g>
        </g>
        <g id="Grupo_1111669" data-name="Grupo 1111669" transform="translate(25.591 20.049)">
          <path id="Trazado_900749" data-name="Trazado 900749" d="M3023.844,2696.723a3.4,3.4,0,0,1,2.818,5.311l-2.268,3.35a.664.664,0,0,1-1.1,0l-.952-1.406-1.316-1.943A3.4,3.4,0,0,1,3023.844,2696.723Z" transform="translate(-3020.099 -2696.391)" fill="#f0776c"/>
          <g id="Grupo_1111666" data-name="Grupo 1111666" transform="translate(0.719 0.992)">
            <path id="Trazado_900750" data-name="Trazado 900750" d="M3050.208,2749.742a.443.443,0,0,1-.426-.562,3.351,3.351,0,0,1,1.426-1.93.443.443,0,0,1,.475.748,2.47,2.47,0,0,0-1.049,1.422A.443.443,0,0,1,3050.208,2749.742Z" transform="translate(-3049.765 -2747.181)" fill="#fff"/>
          </g>
          <g id="Grupo_1111667" data-name="Grupo 1111667">
            <path id="Trazado_900751" data-name="Trazado 900751" d="M2998.521,2680.947h0a1,1,0,0,1-.825-.438l-2.268-3.35a3.735,3.735,0,1,1,6.186,0l-2.268,3.35A1,1,0,0,1,2998.521,2680.947Zm0-8.953a3.071,3.071,0,0,0-2.543,4.793l2.268,3.35a.341.341,0,0,0,.55,0l2.268-3.35a3.071,3.071,0,0,0-2.543-4.793Z" transform="translate(-2994.776 -2671.33)"/>
          </g>
          <path id="Trazado_900752" data-name="Trazado 900752" d="M3139.577,2818.128a1.875,1.875,0,1,1,1.875-1.875A1.875,1.875,0,0,1,3139.577,2818.128Z" transform="translate(-3135.833 -2812.507)" fill="#fff"/>
          <g id="Grupo_1111668" data-name="Grupo 1111668" transform="translate(1.537 1.539)">
            <path id="Trazado_900753" data-name="Trazado 900753" d="M3114.515,2793.4a2.207,2.207,0,1,1,2.207-2.207A2.21,2.21,0,0,1,3114.515,2793.4Zm0-3.75a1.543,1.543,0,1,0,1.543,1.543A1.545,1.545,0,0,0,3114.515,2789.647Z" transform="translate(-3112.308 -2788.983)"/>
          </g>
        </g>
      </g>
    </g>
  </g>
</svg>
