<svg xmlns="http://www.w3.org/2000/svg" xmlns:xlink="http://www.w3.org/1999/xlink" width="108.914" height="108.914" viewBox="0 0 108.914 108.914">
  <defs>
    <filter id="Trazado_874925" x="0" y="0" width="108.914" height="108.914" filterUnits="userSpaceOnUse">
      <feOffset dy="3" input="SourceAlpha"/>
      <feGaussianBlur stdDeviation="3" result="blur"/>
      <feFlood flood-opacity="0.161"/>
      <feComposite operator="in" in2="blur"/>
      <feComposite in="SourceGraphic"/>
    </filter>
  </defs>
  <g id="Grupo_1110025" data-name="Grupo 1110025" transform="translate(-1112.708 -2511.157)">
    <g id="Grupo_1109819" data-name="Grupo 1109819" transform="translate(1121.708 2517.157)">
      <g transform="matrix(1, 0, 0, 1, -9, -6)" filter="url(#Trazado_874925)">
        <g id="Trazado_874925-2" data-name="Trazado 874925" transform="translate(9 6)" fill="#efdb59" opacity="0.859">
          <path d="M 45.45676803588867 89.41407012939453 C 39.52198028564453 89.41407012939453 33.76551818847656 88.25206756591797 28.34726715087891 85.96034240722656 C 23.11311721801758 83.74648284912109 18.41204261779785 80.57682800292969 14.37464332580566 76.5394287109375 C 10.33724308013916 72.50202941894531 7.167593002319336 67.80095672607422 4.953730583190918 62.56679534912109 C 2.662005424499512 57.14855575561523 1.500005483627319 51.39208221435547 1.500005483627319 45.45729446411133 C 1.500005483627319 39.52198028564453 2.662005424499512 33.76551818847656 4.953730583190918 28.34726905822754 C 7.167593002319336 23.11310577392578 10.33724308013916 18.41203117370605 14.37464332580566 14.37464332580566 C 18.41204261779785 10.33724403381348 23.11311721801758 7.167593955993652 28.34726715087891 4.953731060028076 C 33.76551818847656 2.662006139755249 39.52198028564453 1.500006198883057 45.45676803588867 1.500006198883057 C 51.39155578613281 1.500006198883057 57.14802932739258 2.662006139755249 62.56626892089844 4.953731060028076 C 67.80043029785156 7.167593955993652 72.50150299072266 10.33724403381348 76.53890228271484 14.37464332580566 C 80.57630920410156 18.41203117370605 83.74595642089844 23.11310577392578 85.95981597900391 28.34726905822754 C 88.25154113769531 33.76551818847656 89.41354370117188 39.52198028564453 89.41354370117188 45.45676803588867 C 89.41354370117188 51.39208221435547 88.25154113769531 57.14855575561523 85.95981597900391 62.56679534912109 C 83.74595642089844 67.80095672607422 80.57630920410156 72.50202941894531 76.53890228271484 76.5394287109375 C 72.50150299072266 80.57682800292969 67.80043029785156 83.74648284912109 62.56626892089844 85.96034240722656 C 57.14802932739258 88.25206756591797 51.39155578613281 89.41407012939453 45.45676803588867 89.41407012939453 Z" stroke="none"/>
          <path d="M 45.45676803588867 3 C 39.72381210327148 3 34.1639404296875 4.12213134765625 28.93159484863281 6.335227966308594 C 23.87622833251953 8.473472595214844 19.33542633056641 11.53517150878906 15.43529510498047 15.435302734375 C 11.53517150878906 19.33543395996094 8.473464965820312 23.87622833251953 6.335227966308594 28.93160247802734 C 4.122123718261719 34.16394424438477 3 39.72381591796875 3 45.4572868347168 C 3 51.19024658203125 4.122123718261719 56.75011825561523 6.335227966308594 61.98246002197266 C 8.473464965820312 67.03782653808594 11.53517150878906 71.57862854003906 15.43529510498047 75.478759765625 C 19.33542633056641 79.37889099121094 23.87622833251953 82.44058990478516 28.93159484863281 84.57883453369141 C 34.1639404296875 86.79193115234375 39.72381210327148 87.9140625 45.45676803588867 87.9140625 C 51.18972396850586 87.9140625 56.74959564208984 86.79193115234375 61.98194122314453 84.57883453369141 C 67.03730773925781 82.44058990478516 71.57810974121094 79.37889099121094 75.47824096679688 75.478759765625 C 79.37837219238281 71.57862854003906 82.44007110595703 67.03782653808594 84.57830810546875 61.98246002197266 C 86.79141235351562 56.75011825561523 87.91353607177734 51.19024658203125 87.91353607177734 45.4567756652832 C 87.91353607177734 39.72381591796875 86.79141235351562 34.16394424438477 84.57830810546875 28.93160247802734 C 82.44007110595703 23.87622833251953 79.37837219238281 19.33543395996094 75.47824096679688 15.435302734375 C 71.57810974121094 11.53517150878906 67.03730773925781 8.473472595214844 61.98194122314453 6.335227966308594 C 56.74959564208984 4.12213134765625 51.18972396850586 3 45.45676803588867 3 M 45.45676803588867 0 C 70.56185150146484 0 90.91353607177734 20.35169219970703 90.91353607177734 45.4567756652832 L 90.91353607177734 45.4572868347168 C 90.91353607177734 70.5623779296875 70.56185150146484 90.9140625 45.45676803588867 90.9140625 C 20.3516845703125 90.9140625 0 70.5623779296875 0 45.4572868347168 L 0 45.4567756652832 C 0 20.35169219970703 20.3516845703125 0 45.45676803588867 0 Z" stroke="none" fill="#fff"/>
        </g>
      </g>
      <g id="Trazado_874923" data-name="Trazado 874923" transform="translate(0 0)" fill="none">
        <path d="M45.457,0A45.457,45.457,0,0,1,90.914,45.457h0A45.457,45.457,0,0,1,0,45.457H0A45.457,45.457,0,0,1,45.457,0Z" stroke="none"/>
        <path d="M 45.45676803588867 3 C 39.72381210327148 3 34.1639404296875 4.12213134765625 28.93159484863281 6.335227966308594 C 23.87622833251953 8.473472595214844 19.33542633056641 11.53517150878906 15.43529510498047 15.435302734375 C 11.53517150878906 19.33543395996094 8.473464965820312 23.87622833251953 6.335227966308594 28.93160247802734 C 4.122123718261719 34.16394424438477 3 39.72381591796875 3 45.4572868347168 C 3 51.19024658203125 4.122123718261719 56.75011825561523 6.335227966308594 61.98246002197266 C 8.473464965820312 67.03782653808594 11.53517150878906 71.57862854003906 15.43529510498047 75.478759765625 C 19.33542633056641 79.37889099121094 23.87622833251953 82.44058990478516 28.93159484863281 84.57883453369141 C 34.1639404296875 86.79193115234375 39.72381210327148 87.9140625 45.45676803588867 87.9140625 C 51.18972396850586 87.9140625 56.74959564208984 86.79193115234375 61.98194122314453 84.57883453369141 C 67.03730773925781 82.44058990478516 71.57810974121094 79.37889099121094 75.47824096679688 75.478759765625 C 79.37837219238281 71.57862854003906 82.44007110595703 67.03782653808594 84.57830810546875 61.98246002197266 C 86.79141235351562 56.75011825561523 87.91353607177734 51.19024658203125 87.91353607177734 45.4567756652832 C 87.91353607177734 39.72381591796875 86.79141235351562 34.16394424438477 84.57830810546875 28.93160247802734 C 82.44007110595703 23.87622833251953 79.37837219238281 19.33543395996094 75.47824096679688 15.435302734375 C 71.57810974121094 11.53517150878906 67.03730773925781 8.473472595214844 61.98194122314453 6.335227966308594 C 56.74959564208984 4.12213134765625 51.18972396850586 3 45.45676803588867 3 M 45.45676803588867 0 C 70.56185150146484 0 90.91353607177734 20.35169219970703 90.91353607177734 45.4567756652832 L 90.91353607177734 45.4572868347168 C 90.91353607177734 70.5623779296875 70.56185150146484 90.9140625 45.45676803588867 90.9140625 C 20.3516845703125 90.9140625 0 70.5623779296875 0 45.4572868347168 L 0 45.4567756652832 C 0 20.35169219970703 20.3516845703125 0 45.45676803588867 0 Z" stroke="none" fill="#fff"/>
      </g>
    </g>
    <g id="regulatory_17772632" transform="translate(1135.058 2529.802)">
      <g id="regulatory_17772632-2" data-name="regulatory_17772632" transform="translate(-12.798 -7.294)">
        <circle id="Elipse_11988" data-name="Elipse 11988" cx="5.491" cy="5.491" r="5.491" transform="translate(51.149 25.575) rotate(-80)" fill="#98ca66"/>
        <path id="Trazado_1033646" data-name="Trazado 1033646" d="M73.353,57.676l-9.438-5.409c-.211-.211-.065-.569-.146-.828-.211-.7-.65-.845-1.186-1.251,2.29.146,3.915-2.518,2.274-4.289-.471-.5-1.868-1.007-2.144-1.316-.065-.081-.13-.146-.114-.244V30.6c.861-.634,1.819-.926,1.706-2.209-.032-.39-.422-.812-.357-1.072a9.282,9.282,0,0,1,1.365-1.673c.666,0,1.007.374,1.771-.195a4.71,4.71,0,0,0,.991-2.794c-.081-1.527-1.592-1.381-1.706-1.722l-.26-2.031c1.624-.861,1.446-1.9.6-3.281-.439-.715-.877-1.4-1.852-1.3-.341.032-.65.292-.893.341-.585.1-1.218-.926-1.836-1.1.081-1.04.211-1.933-.877-2.469-1.462-.715-3.541-.942-3.785,1.153l-2,.26c-.439-.049-.715-1.283-1.949-1.218a5.522,5.522,0,0,0-2.534,1.494c-.65,1.137.227,1.8.13,2.193L49.9,16.626a3.7,3.7,0,0,0-1.267-.114c-1.478.179-1.348,2.29-1.722,2.42H29.737a3.024,3.024,0,0,0-2.729,2.648l-.081,8.447a14.062,14.062,0,0,1-5.6,3.655,32.009,32.009,0,0,0-3.119.91,1.041,1.041,0,0,0-.244.617c-.114.991.032,2.258,0,3.3-.1,3.346-.634,8.139,1.641,10.9,1.884,2.29,4.89,3.525,7.359,5.068l.032,9.584a3.01,3.01,0,0,0,2.729,2.632H59.935a3.1,3.1,0,0,0,2.615-2.258V56.815a.547.547,0,0,1,.357.065C65.442,57.887,68.4,60.4,71,61.591a3.253,3.253,0,0,0,.78.309c2.193.357,3.688-3.135,1.559-4.24h0ZM60.292,23.92a3.965,3.965,0,0,1-2.81,1.17,3.9,3.9,0,0,1-2.81-1.17,3.963,3.963,0,1,1,6.758-2.81c0,2.193-.439,2.079-1.17,2.81Z" transform="translate(0 0)" fill="#fff"/>
        <g id="Grupo_1111729" data-name="Grupo 1111729" transform="translate(17.835 10.58)">
          <path id="Trazado_1033647" data-name="Trazado 1033647" d="M73.353,57.676l-9.438-5.409c-.211-.211-.065-.569-.146-.828-.211-.7-.65-.845-1.186-1.251,2.29.146,3.915-2.518,2.274-4.289-.471-.5-1.868-1.007-2.144-1.316-.065-.081-.13-.146-.114-.244V30.6c.861-.634,1.819-.926,1.706-2.209-.032-.39-.422-.812-.357-1.072a9.282,9.282,0,0,1,1.365-1.673c.666,0,1.007.374,1.771-.195a4.71,4.71,0,0,0,.991-2.794c-.081-1.527-1.592-1.381-1.706-1.722l-.26-2.031c1.624-.861,1.446-1.9.6-3.281-.439-.715-.877-1.4-1.852-1.3-.341.032-.65.292-.893.341-.585.1-1.218-.926-1.836-1.1.081-1.04.211-1.933-.877-2.469-1.462-.715-3.541-.942-3.785,1.153l-2,.26c-.439-.049-.715-1.283-1.949-1.218a5.522,5.522,0,0,0-2.534,1.494c-.65,1.137.227,1.8.13,2.193L49.9,16.626a3.7,3.7,0,0,0-1.267-.114c-1.478.179-1.348,2.29-1.722,2.42H29.737a3.024,3.024,0,0,0-2.729,2.648l-.081,8.447a14.062,14.062,0,0,1-5.6,3.655,32.009,32.009,0,0,0-3.119.91,1.041,1.041,0,0,0-.244.617c-.114.991.032,2.258,0,3.3-.1,3.346-.634,8.139,1.641,10.9,1.884,2.29,4.89,3.525,7.359,5.068l.032,9.584a3.01,3.01,0,0,0,2.729,2.632H59.935a3.1,3.1,0,0,0,2.615-2.258V56.815a.547.547,0,0,1,.357.065C65.442,57.887,68.4,60.4,71,61.591a3.253,3.253,0,0,0,.78.309c2.193.357,3.688-3.135,1.559-4.24h0ZM48.938,18.2c1.852.471,1.982-.292,2.875-1.462.552-.731,1.348-1.186,1.04-2.274-.1-.357-.341-.552-.39-.893l1.2-.471a1.575,1.575,0,0,0,.91.991c1.007.325,2.485-.26,3.574-.26a2.024,2.024,0,0,0,1.04-1.462,2.389,2.389,0,0,1,.991.13c.422.211.081.569.081.893a1.756,1.756,0,0,0,.617,1.332c1.43.78,2.226,2.567,4.077,1.413.227.195.731.942.552,1.186a1.533,1.533,0,0,0-1.072,1.787c.049.8.309,1.917.439,2.729.325.763.893.682,1.494,1.056l-.422,1.137a1.682,1.682,0,0,0-2.112.569c-.325.374-1.153,1.381-1.4,1.771-.731,1.1.179,2.047.032,2.29l-1.088.455a1.735,1.735,0,0,0-1.624-1.153c-1.4.52-3.72-.179-3.85,1.933l-1.332-.244a1.744,1.744,0,0,0-.357-2.128c-1.17-.552-1.787-1.982-3.216-1.754-.325.049-.682.422-.926.309l-.552-1.04c.634-.406,1.251-.926,1.17-1.754-.487-1.527.195-3.541-1.949-3.85l.244-1.2h0ZM23.694,50.561c-3.2-2.177-3.947-3.947-4.126-7.814-.114-2.307.211-4.581.146-6.871a17.245,17.245,0,0,0,8.22-4.289,16.6,16.6,0,0,0,8.22,4.272c-.179,2.989.341,6.352-.146,9.276-.715,4.3-4.646,5.881-8.074,7.765a33.421,33.421,0,0,1-4.224-2.355ZM57.466,64.986H45.412c-.049-1.153-.146-2.648,1.283-2.908,2.989.244,6.6-.357,9.487,0a.206.206,0,0,1,.1.016.462.462,0,0,1,.195.065,2.015,2.015,0,0,1,.325.162,1.749,1.749,0,0,1,.39.292.788.788,0,0,1,.276.52v1.884h0Zm3.379-.812c-.244.747-.975.877-1.673.812V62.728a3.38,3.38,0,0,0-2.534-2.339c-3.233.162-6.888-.325-10.088-.032-1.235.114-2.859,1.462-2.859,2.745v1.884H29.866a1.275,1.275,0,0,1-1.072-.877l-.065-9.714c3.038-1.689,7.391-3.541,8.561-7.083.78-2.372.8-9.146.552-11.761-.146-1.576-1.8-1.332-3.119-1.754a13.631,13.631,0,0,1-5.962-3.915L28.7,22.019a1.362,1.362,0,0,1,1.153-1.4l17.528.032,1.283.666.227,1.917c-.666.666-1.235.763-1.2,1.836a4.894,4.894,0,0,0,1.381,2.518,2.989,2.989,0,0,0,.893.341c.455.016,1.121-.5,1.316-.455.1.016,1.478,1.072,1.543,1.137.276.325-.292,1.153.309,2a1.761,1.761,0,0,0,1.121.7c.893.292,2.031.65,2.794-.13.276-.292.374-1.007.52-1.121a15,15,0,0,1,1.9-.309c.471,0,.5.39.78.682.13.13.617.439.617.487V43.413L55.4,40.392a2.463,2.463,0,0,0-2.372,4.256v.26l-3.168,5.556c-.455,0-.763-.244-1.267-.244-2.209.049-3.346,3.3-1.4,4.565,2.957,1.4,5.881,3.752,8.8,5.085a2.214,2.214,0,0,0,2.112.13,2.758,2.758,0,0,0,1.494-2.892c-.065-.5-.374-.715-.487-1.153a2.954,2.954,0,0,0,1.706.357l-.032,7.83h0Zm-12.313-12.2a.828.828,0,0,1,.422.114.993.993,0,0,1,.195.081c.211.1.455.227.747.374a2.628,2.628,0,0,1,.292.162h0a3.018,3.018,0,0,1,.309.179c.276.146.552.309.861.487.179.1.357.211.552.325.991.585,2.079,1.235,3.054,1.819.114.065.244.146.357.211h0a3.886,3.886,0,0,1,.341.211,1.43,1.43,0,0,1,.162.1c.114.065.211.13.325.195h0c.1.065.211.114.309.179.1.049.195.114.276.162.13.081.26.146.374.211.244.13.422.227.569.309a.965.965,0,0,1,.13.065.887.887,0,0,1-.081,1.088c-.016.016-.032.049-.065.065a.64.64,0,0,1-.715.195h0L48.06,53.387h0a.97.97,0,0,1,.455-1.381h0Zm8.642,2.843h0l-5.929-3.4,3.33-5.832,5.929,3.4Zm3.428-.39c-.244.357-.471.049-.747-.13l-.1-.049c-.032,0-.065-.032-.1-.032h0l-.1-.227,1.446-2.648.845.422.1.227A22.073,22.073,0,0,1,60.6,54.427h0Zm1.949-6.173-8.723-5.166c-.13-.39,0-.991.422-1.1a.886.886,0,0,1,.5,0,1.273,1.273,0,0,1,.227.081l8.48,4.922a.749.749,0,0,1,.081,1.153.777.777,0,0,1-.991.13h0Zm9.7,12.086h0l-9.422-5.426.585-1.023,9.422,5.426Z" transform="translate(-17.835 -10.58)"/>
          <path id="Trazado_1033648" data-name="Trazado 1033648" d="M111.5,92.27l5.458,3.021V82.8c0-.032-.487-.357-.617-.487-.276-.292-.309-.666-.78-.682a16.021,16.021,0,0,0-1.9.309c-.162.1-.244.828-.52,1.121-.747.78-1.9.422-2.794.13a1.761,1.761,0,0,1-1.121-.7c-.6-.861-.032-1.673-.309-2-.065-.065-1.446-1.121-1.543-1.137-.195-.032-.845.487-1.316.455a2.317,2.317,0,0,1-.893-.341,5.013,5.013,0,0,1-1.381-2.518c-.032-1.088.536-1.186,1.2-1.836l-.227-1.917-1.283-.666L85.951,72.5A1.336,1.336,0,0,0,84.8,73.9l.065,7.862a13.773,13.773,0,0,0,5.962,3.915c1.316.422,2.973.179,3.119,1.754.244,2.615.227,9.389-.552,11.761-1.17,3.558-5.523,5.409-8.561,7.083l.065,9.714a1.3,1.3,0,0,0,1.072.877H99.792v-1.884c0-1.283,1.624-2.632,2.859-2.745,3.2-.292,6.839.195,10.088.033a3.406,3.406,0,0,1,2.534,2.339v2.258c.715.065,1.446-.065,1.673-.812l.032-7.83a3.088,3.088,0,0,1-1.706-.357c.13.439.422.65.487,1.153a2.758,2.758,0,0,1-1.494,2.892,2.131,2.131,0,0,1-2.112-.13c-2.924-1.332-5.848-3.688-8.8-5.085-1.949-1.283-.828-4.516,1.4-4.565.5,0,.8.227,1.267.244l3.168-5.556v-.26a2.462,2.462,0,0,1,2.372-4.256h0ZM89.72,83.709A1.691,1.691,0,0,1,88.1,82.052a33.446,33.446,0,0,1,.065-5.994,1.569,1.569,0,0,1,1.1-1.218l12.167-.032c1.04.032,1.43.861,1.511,1.771a37.707,37.707,0,0,1,0,5.247c-.081.958-.487,1.771-1.527,1.884-3.752-.26-7.992.357-11.7,0Zm8.171,30.215H88.5a.866.866,0,0,1,.032-1.689l9.227-.032A.865.865,0,0,1,97.891,113.923Zm1.9-3.476a1.035,1.035,0,0,1-.682.309,33.124,33.124,0,0,1-5.393.016,36.317,36.317,0,0,0-4.971-.016,1.1,1.1,0,0,1-.666-.292.779.779,0,0,1-.032-1.072c0-.016.032-.032.049-.065a.016.016,0,0,1,.016-.016c0-.016.032-.032.049-.049a1.726,1.726,0,0,1,.179-.146c.065-.049.049-.032,0,0,.016,0,.049-.032.065-.032l10.819-.032a.839.839,0,0,1,.552,1.4h0Zm1.9-3.135a.693.693,0,0,1-.309.162,2.83,2.83,0,0,1-.357.081.959.959,0,0,0-.227.032c-3.785.341-8.106-.276-11.956,0-1.365-.162-1.446-1.673,0-1.836a2,2,0,0,0,.325-.032c.325-.032.65-.049.975-.065.893-.049,1.819-.033,2.762,0,.747.016,1.478.049,2.242.081.6.032,1.2.049,1.8.081.487.016.958.032,1.446.032.471,0,.942,0,1.413-.016h.065c.162,0,.325,0,.487-.016.195,0,.374-.016.569-.032a.924.924,0,0,1,.764,1.543h0Zm2.128-11.534a.9.9,0,0,1-.13.1,1.071,1.071,0,0,1-.455.146,27.667,27.667,0,0,1-3.85,0,23.114,23.114,0,0,0-2.6,0,.481.481,0,0,1-.162-.032.578.578,0,0,1-.146-.065.292.292,0,0,1-.114-.081.9.9,0,0,1,.309-1.494h6.66a.763.763,0,0,1,.487.227.848.848,0,0,1-.016,1.2h.016Zm1.657-3.2a1.656,1.656,0,0,1-.763.276,22.246,22.246,0,0,1-3.46.032c-1.186-.049-2.388-.114-3.509-.081h0a4.878,4.878,0,0,0-.7.049.982.982,0,0,1-.39-.081,1.429,1.429,0,0,1-.162-.1.127.127,0,0,1-.065-.065.9.9,0,0,1-.1-1.251.291.291,0,0,1,.114-.081.326.326,0,0,1,.13-.065.879.879,0,0,1,.244-.065c2.469-.325,5.621.26,8.171,0,.682-.016.877,1.04.5,1.446Zm.763-3.054a.815.815,0,0,1-.195.032l-.52.049c-.162,0-.325.016-.487.032h-.016c-.552.032-1.137.032-1.722.016h0c-.569,0-1.137-.032-1.706-.065a2.4,2.4,0,0,1-.341-.016c-.227,0-.455-.016-.682-.032-.341,0-.682-.032-1.04-.032h-.666c-.715,0-1.413,0-2.079.065-.682.016-.877-1.04-.5-1.446a.507.507,0,0,1,.195-.114.939.939,0,0,1,.227-.081.3.3,0,0,0,.114-.032.231.231,0,0,0,.1-.032c.049,0,.1-.016.13-.016,2.762-.309,6.075.244,8.9,0a.985.985,0,0,1,.39.1,1.429,1.429,0,0,1,.162.1.814.814,0,0,1-.227,1.478h-.032Z" transform="translate(-73.92 -62.441)" fill="#fcfdfd"/>
          <path id="Trazado_1033649" data-name="Trazado 1033649" d="M223.78,30.947c-.13-.828-.39-1.933-.439-2.729a1.556,1.556,0,0,1,1.072-1.787c.179-.244-.325-1.007-.552-1.186-1.836,1.153-2.648-.617-4.077-1.413a1.813,1.813,0,0,1-.617-1.332c0-.325.341-.682-.081-.893a2.422,2.422,0,0,0-.991-.13,2.068,2.068,0,0,1-1.04,1.462c-1.072,0-2.55.585-3.574.26a1.619,1.619,0,0,1-.91-.991l-1.2.471c.032.341.292.536.39.893.309,1.1-.487,1.559-1.04,2.274-.893,1.17-1.023,1.933-2.875,1.462l-.244,1.2c2.144.309,1.462,2.323,1.949,3.85a1.925,1.925,0,0,1-1.17,1.754l.552,1.04c.227.114.6-.26.926-.309,1.43-.227,2.047,1.2,3.216,1.754a1.748,1.748,0,0,1,.357,2.128l1.332.244c.13-2.112,2.453-1.413,3.85-1.933a1.719,1.719,0,0,1,1.624,1.153l1.088-.455c.146-.244-.763-1.186-.032-2.29.244-.39,1.072-1.4,1.4-1.771a1.706,1.706,0,0,1,2.112-.569l.422-1.137c-.617-.374-1.17-.309-1.495-1.056h0Zm-7.359,4.938a5.669,5.669,0,1,1,5.669-5.669,5.664,5.664,0,0,1-5.669,5.669Z" transform="translate(-176.774 -19.686)" fill="#386969"/>
          <rect id="Rectángulo_404859" data-name="Rectángulo 404859" width="6.725" height="6.839" transform="translate(33.397 40.822) rotate(-60.3)" fill="#356867"/>
          <path id="Trazado_1033650" data-name="Trazado 1033650" d="M44.891,144.272A16.667,16.667,0,0,1,36.671,140a17.313,17.313,0,0,1-8.22,4.289c.081,2.29-.244,4.581-.146,6.871.179,3.85.942,5.637,4.126,7.814a33.422,33.422,0,0,0,4.224,2.355c3.428-1.884,7.359-3.444,8.074-7.765.487-2.924-.032-6.3.146-9.276h0Zm-.617,7.846a6.373,6.373,0,0,1-3.2,5.572c-.634.439-3.866,2.42-4.418,2.42s-3.476-1.754-4.077-2.144a7.417,7.417,0,0,1-3.021-3.184c-.715-1.771-.715-7.213-.52-9.243.114-1.267,1.365-1.056,2.388-1.4a12.117,12.117,0,0,0,3.525-1.966c.39-.325,1.056-1.218,1.494-1.316.8-.162,1.478.975,2.047,1.446a10.822,10.822,0,0,0,3.493,1.868c.634.211,1.982.227,2.144.91a36.118,36.118,0,0,1,.146,7.034Z" transform="translate(-26.589 -118.976)" fill="#386969"/>
          <path id="Trazado_1033651" data-name="Trazado 1033651" d="M199.537,329.906H187.484c-.049-1.153-.146-2.648,1.283-2.908,2.989.244,6.6-.357,9.487,0,.471.049,1.283.569,1.283,1.04v1.884h0Z" transform="translate(-159.906 -275.5)" fill="#98cb66"/>
          <path id="Trazado_1033652" data-name="Trazado 1033652" d="M239.49,203.726a1.13,1.13,0,0,1,.731.065l8.48,4.922a.792.792,0,0,1-.926,1.283l-8.723-5.166c-.13-.39,0-.991.422-1.1h0Z" transform="translate(-203.075 -172.322)" fill="#96c966"/>
          <path id="Trazado_1033653" data-name="Trazado 1033653" d="M203.689,265.379c.585-.162,8.106,4.678,9.292,5.166.455.5-.162,1.624-.861,1.348l-8.886-5.117a.97.97,0,0,1,.455-1.381h0Z" transform="translate(-172.993 -223.985)" fill="#96c966"/>
          <rect id="Rectángulo_404860" data-name="Rectángulo 404860" width="1.17" height="10.868" transform="translate(45 44.363) rotate(-60)" fill="#97c966"/>
          <path id="Trazado_1033654" data-name="Trazado 1033654" d="M275.962,261.416l.845.422.1.227a22.072,22.072,0,0,1-1.348,2.437c-.309.422-.552-.13-.958-.227l-.1-.227,1.446-2.648h0Z" transform="translate(-232.806 -220.655)" fill="#95c866"/>
          <path id="Trazado_1033655" data-name="Trazado 1033655" d="M119.423,88.471c-.1-.91-.487-1.738-1.511-1.771l-12.167.032a1.546,1.546,0,0,0-1.1,1.218,33.447,33.447,0,0,0-.065,5.994A1.679,1.679,0,0,0,106.2,95.6c3.7.341,7.944-.276,11.7,0,1.04-.114,1.446-.91,1.527-1.884a37.709,37.709,0,0,0,0-5.247ZM117.717,93.9H106.265V88.406h11.452Z" transform="translate(-90.399 -74.335)"/>
          <path id="Trazado_1033656" data-name="Trazado 1033656" d="M117.2,278.146a1.764,1.764,0,0,1-.877.292c-3.785.341-8.106-.276-11.956,0-1.365-.162-1.446-1.673,0-1.836,3.736-.422,8.236.309,12.07,0a.924.924,0,0,1,.763,1.543Z" transform="translate(-89.426 -233.276)"/>
          <path id="Trazado_1033657" data-name="Trazado 1033657" d="M104.048,297.432l10.819-.032a.856.856,0,0,1-.13,1.706c-3.2.374-7.083-.292-10.364,0a.874.874,0,0,1-.341-1.689Z" transform="translate(-89.564 -250.807)"/>
          <path id="Trazado_1033658" data-name="Trazado 1033658" d="M104.3,316.933l9.243-.033a.857.857,0,0,1,.13,1.706h-9.389a.867.867,0,0,1,.016-1.689h0Z" transform="translate(-89.689 -267.14)"/>
          <path id="Trazado_1033659" data-name="Trazado 1033659" d="M154.519,166.779a1.656,1.656,0,0,1,.763-.276c2.762-.309,6.075.244,8.9,0,1.072.081,1.316,1.576.13,1.706-2.859.341-6.335-.26-9.276,0-.682.016-.877-1.04-.5-1.446h0Z" transform="translate(-132.172 -141.093)"/>
          <path id="Trazado_1033660" data-name="Trazado 1033660" d="M163.74,188.124a1.656,1.656,0,0,1-.764.276c-2.388.26-5.247-.211-7.684,0-1.04,0-1.332-1.576-.244-1.722,2.469-.325,5.621.26,8.171,0,.682-.016.877,1.04.5,1.446h0Z" transform="translate(-132.183 -157.987)"/>
          <path id="Trazado_1033661" data-name="Trazado 1033661" d="M154.915,206.9h6.66a.85.85,0,0,1-.114,1.689c-2,.227-4.419-.162-6.449,0a.866.866,0,0,1-.1-1.673h0Z" transform="translate(-132.145 -175.009)"/>
          <path id="Trazado_1033662" data-name="Trazado 1033662" d="M232.669,40.6a5.669,5.669,0,1,0,5.669,5.669,5.664,5.664,0,0,0-5.669-5.669Zm2.81,8.463a3.965,3.965,0,0,1-2.81,1.17,3.9,3.9,0,0,1-2.81-1.17,3.963,3.963,0,1,1,6.758-2.81c0,2.193-.439,2.079-1.17,2.81Z" transform="translate(-193.022 -35.723)"/>
          <path id="Trazado_1033663" data-name="Trazado 1033663" d="M47.457,149.442c-.162-.682-1.494-.7-2.144-.91a10.518,10.518,0,0,1-3.493-1.868c-.569-.471-1.251-1.608-2.047-1.446-.439.1-1.1.991-1.494,1.316a12.118,12.118,0,0,1-3.525,1.966c-1.007.341-2.274.114-2.388,1.4-.179,2.031-.195,7.456.52,9.243a7.329,7.329,0,0,0,3.021,3.184,22.016,22.016,0,0,0,4.077,2.144,25.642,25.642,0,0,0,4.419-2.42,6.34,6.34,0,0,0,3.2-5.572,36.09,36.09,0,0,0-.146-7.034Zm-3.33,10.624a23.053,23.053,0,0,1-4.142,2.55c-2.729-1.381-5.6-2.713-5.913-6.14a39.742,39.742,0,0,1,0-5.734c.081-.585.763-.471,1.283-.666a17.571,17.571,0,0,0,4.63-2.68,14.276,14.276,0,0,0,5.9,3.07C45.686,153.633,46.742,157.678,44.127,160.066Z" transform="translate(-29.919 -123.334)"/>
          <rect id="Rectángulo_404861" data-name="Rectángulo 404861" width="11.452" height="5.474" transform="translate(15.865 14.071)" fill="#98ca66"/>
          <path id="Trazado_1033664" data-name="Trazado 1033664" d="M54.772,161.77a14.088,14.088,0,0,1-5.9-3.07,17.136,17.136,0,0,1-4.63,2.68c-.52.195-1.218.081-1.283.666a39.742,39.742,0,0,0,0,5.734c.309,3.444,3.168,4.776,5.913,6.14a23.053,23.053,0,0,0,4.142-2.55C55.633,168.967,54.577,164.938,54.772,161.77Zm-2.648,2.144a40.722,40.722,0,0,1-2.615,4.581,2.627,2.627,0,0,0-.162.292l-.049.1c-.032.049-.049.1-.081.146a.354.354,0,0,1-.049.081c-.016.016-.016.033-.032.049a.635.635,0,0,1-.13.162.735.735,0,0,1-.406.26.146.146,0,0,0-.081.016h-.211a1.1,1.1,0,0,1-.341-.1.234.234,0,0,1-.049-.033c-.341-.26-2.047-2-2.209-2.209-.292-.39-.455-.634-.114-1.1a.438.438,0,0,1,.114-.13s.032-.016.032-.032c.032-.032.081-.065.114-.1.032-.016.049-.032.081-.049h0a.477.477,0,0,1,.162-.049c.893-.162,1.982,1.641,2.242,1.446a1.446,1.446,0,0,1,.227-.569,37.017,37.017,0,0,1,2.209-3.752,1.417,1.417,0,0,1,.179-.146c.065-.032.13-.081.179-.1a.724.724,0,0,1,.812.1.707.707,0,0,1,.1.114c.032.049.049.081.081.13a1.2,1.2,0,0,1,0,.893h0Z" transform="translate(-38.793 -134.639)" fill="#98ca66"/>
          <path id="Trazado_1033665" data-name="Trazado 1033665" d="M61.358,187.214a1.445,1.445,0,0,1,.227-.569,37.01,37.01,0,0,1,2.209-3.752c.8-.764,1.722-.114,1.365,1.007a40.722,40.722,0,0,1-2.615,4.581c-.374.6-.65,1.381-1.559.991-.146-.065-2.079-2.014-2.258-2.242-.292-.39-.455-.634-.114-1.1.926-1.3,2.42,1.316,2.729,1.088h0Z" transform="translate(-51.828 -154.625)"/>
        </g>
      </g>
    </g>
  </g>
</svg>
