<svg xmlns="http://www.w3.org/2000/svg" xmlns:xlink="http://www.w3.org/1999/xlink" width="108.914" height="108.914" viewBox="0 0 108.914 108.914">
  <defs>
    <filter id="Trazado_874925" x="0" y="0" width="108.914" height="108.914" filterUnits="userSpaceOnUse">
      <feOffset dy="3" input="SourceAlpha"/>
      <feGaussianBlur stdDeviation="3" result="blur"/>
      <feFlood flood-opacity="0.161"/>
      <feComposite operator="in" in2="blur"/>
      <feComposite in="SourceGraphic"/>
    </filter>
  </defs>
  <g id="Grupo_1111710" data-name="Grupo 1111710" transform="translate(-798.427 -2511.157)">
    <g id="Grupo_1109818" data-name="Grupo 1109818" transform="translate(807.427 2517.157)">
      <g transform="matrix(1, 0, 0, 1, -9, -6)" filter="url(#Trazado_874925)">
        <g id="Trazado_874925-2" data-name="Trazado 874925" transform="translate(9 6)" fill="#efdb59" opacity="0.859">
          <path d="M 45.45676803588867 89.41407012939453 C 39.52198028564453 89.41407012939453 33.76551818847656 88.25206756591797 28.34726715087891 85.96034240722656 C 23.11311721801758 83.74648284912109 18.41204261779785 80.57682800292969 14.37464332580566 76.5394287109375 C 10.33724308013916 72.50202941894531 7.167593002319336 67.80095672607422 4.953730583190918 62.56679534912109 C 2.662005424499512 57.14855575561523 1.500005483627319 51.39208221435547 1.500005483627319 45.45729446411133 C 1.500005483627319 39.52198028564453 2.662005424499512 33.76551818847656 4.953730583190918 28.34726905822754 C 7.167593002319336 23.11310577392578 10.33724308013916 18.41203117370605 14.37464332580566 14.37464332580566 C 18.41204261779785 10.33724403381348 23.11311721801758 7.167593955993652 28.34726715087891 4.953731060028076 C 33.76551818847656 2.662006139755249 39.52198028564453 1.500006198883057 45.45676803588867 1.500006198883057 C 51.39155578613281 1.500006198883057 57.14802932739258 2.662006139755249 62.56626892089844 4.953731060028076 C 67.80043029785156 7.167593955993652 72.50150299072266 10.33724403381348 76.53890228271484 14.37464332580566 C 80.57630920410156 18.41203117370605 83.74595642089844 23.11310577392578 85.95981597900391 28.34726905822754 C 88.25154113769531 33.76551818847656 89.41354370117188 39.52198028564453 89.41354370117188 45.45676803588867 C 89.41354370117188 51.39208221435547 88.25154113769531 57.14855575561523 85.95981597900391 62.56679534912109 C 83.74595642089844 67.80095672607422 80.57630920410156 72.50202941894531 76.53890228271484 76.5394287109375 C 72.50150299072266 80.57682800292969 67.80043029785156 83.74648284912109 62.56626892089844 85.96034240722656 C 57.14802932739258 88.25206756591797 51.39155578613281 89.41407012939453 45.45676803588867 89.41407012939453 Z" stroke="none"/>
          <path d="M 45.45676803588867 3 C 39.72381210327148 3 34.1639404296875 4.12213134765625 28.93159484863281 6.335227966308594 C 23.87622833251953 8.473472595214844 19.33542633056641 11.53517150878906 15.43529510498047 15.435302734375 C 11.53517150878906 19.33543395996094 8.473464965820312 23.87622833251953 6.335227966308594 28.93160247802734 C 4.122123718261719 34.16394424438477 3 39.72381591796875 3 45.4572868347168 C 3 51.19024658203125 4.122123718261719 56.75011825561523 6.335227966308594 61.98246002197266 C 8.473464965820312 67.03782653808594 11.53517150878906 71.57862854003906 15.43529510498047 75.478759765625 C 19.33542633056641 79.37889099121094 23.87622833251953 82.44058990478516 28.93159484863281 84.57883453369141 C 34.1639404296875 86.79193115234375 39.72381210327148 87.9140625 45.45676803588867 87.9140625 C 51.18972396850586 87.9140625 56.74959564208984 86.79193115234375 61.98194122314453 84.57883453369141 C 67.03730773925781 82.44058990478516 71.57810974121094 79.37889099121094 75.47824096679688 75.478759765625 C 79.37837219238281 71.57862854003906 82.44007110595703 67.03782653808594 84.57830810546875 61.98246002197266 C 86.79141235351562 56.75011825561523 87.91353607177734 51.19024658203125 87.91353607177734 45.4567756652832 C 87.91353607177734 39.72381591796875 86.79141235351562 34.16394424438477 84.57830810546875 28.93160247802734 C 82.44007110595703 23.87622833251953 79.37837219238281 19.33543395996094 75.47824096679688 15.435302734375 C 71.57810974121094 11.53517150878906 67.03730773925781 8.473472595214844 61.98194122314453 6.335227966308594 C 56.74959564208984 4.12213134765625 51.18972396850586 3 45.45676803588867 3 M 45.45676803588867 0 C 70.56185150146484 0 90.91353607177734 20.35169219970703 90.91353607177734 45.4567756652832 L 90.91353607177734 45.4572868347168 C 90.91353607177734 70.5623779296875 70.56185150146484 90.9140625 45.45676803588867 90.9140625 C 20.3516845703125 90.9140625 0 70.5623779296875 0 45.4572868347168 L 0 45.4567756652832 C 0 20.35169219970703 20.3516845703125 0 45.45676803588867 0 Z" stroke="none" fill="#fff"/>
        </g>
      </g>
      <g id="Trazado_874923" data-name="Trazado 874923" transform="translate(0 0)" fill="none">
        <path d="M45.457,0A45.457,45.457,0,0,1,90.914,45.457h0A45.457,45.457,0,0,1,0,45.457H0A45.457,45.457,0,0,1,45.457,0Z" stroke="none"/>
        <path d="M 45.45676803588867 3 C 39.72381210327148 3 34.1639404296875 4.12213134765625 28.93159484863281 6.335227966308594 C 23.87622833251953 8.473472595214844 19.33542633056641 11.53517150878906 15.43529510498047 15.435302734375 C 11.53517150878906 19.33543395996094 8.473464965820312 23.87622833251953 6.335227966308594 28.93160247802734 C 4.122123718261719 34.16394424438477 3 39.72381591796875 3 45.4572868347168 C 3 51.19024658203125 4.122123718261719 56.75011825561523 6.335227966308594 61.98246002197266 C 8.473464965820312 67.03782653808594 11.53517150878906 71.57862854003906 15.43529510498047 75.478759765625 C 19.33542633056641 79.37889099121094 23.87622833251953 82.44058990478516 28.93159484863281 84.57883453369141 C 34.1639404296875 86.79193115234375 39.72381210327148 87.9140625 45.45676803588867 87.9140625 C 51.18972396850586 87.9140625 56.74959564208984 86.79193115234375 61.98194122314453 84.57883453369141 C 67.03730773925781 82.44058990478516 71.57810974121094 79.37889099121094 75.47824096679688 75.478759765625 C 79.37837219238281 71.57862854003906 82.44007110595703 67.03782653808594 84.57830810546875 61.98246002197266 C 86.79141235351562 56.75011825561523 87.91353607177734 51.19024658203125 87.91353607177734 45.4567756652832 C 87.91353607177734 39.72381591796875 86.79141235351562 34.16394424438477 84.57830810546875 28.93160247802734 C 82.44007110595703 23.87622833251953 79.37837219238281 19.33543395996094 75.47824096679688 15.435302734375 C 71.57810974121094 11.53517150878906 67.03730773925781 8.473472595214844 61.98194122314453 6.335227966308594 C 56.74959564208984 4.12213134765625 51.18972396850586 3 45.45676803588867 3 M 45.45676803588867 0 C 70.56185150146484 0 90.91353607177734 20.35169219970703 90.91353607177734 45.4567756652832 L 90.91353607177734 45.4572868347168 C 90.91353607177734 70.5623779296875 70.56185150146484 90.9140625 45.45676803588867 90.9140625 C 20.3516845703125 90.9140625 0 70.5623779296875 0 45.4572868347168 L 0 45.4567756652832 C 0 20.35169219970703 20.3516845703125 0 45.45676803588867 0 Z" stroke="none" fill="#fff"/>
      </g>
    </g>
    <g id="guantes-de-goma_copia" data-name="guantes-de-goma copia" transform="translate(823.224 2535.395)">
      <path id="Trazado_1033916" data-name="Trazado 1033916" d="M17.734-.034a3.232,3.232,0,0,1,2.556,3.62,3.134,3.134,0,0,1,4.259,3.407A3.093,3.093,0,0,1,28.78,9.417c-.187,5.081.345,10.471.027,15.518-.179,2.84-1.276,5.611-1.7,8.414l1.648,16.133.941.514.819-.461L32.2,33.443c.034-.819-1.164-3.346.011-3.663,1.468-.4,1.42,2.7,1.708,3.572l-1.6,16.021H47.443c-.05-.477-.06-.968-.1-1.447a.63.63,0,0,0-.111-.257c-.4-4.345-.765-8.709-1.279-13.048a4.689,4.689,0,0,1,1.119-3.033c2.118-2.561,5.192-4.857,7.4-7.4a1.853,1.853,0,0,0-1.856-2.919c-1.384.182-1.989,2.524-3.689,2.179a1.961,1.961,0,0,1-1.379-1.231,20.489,20.489,0,0,0,0-2.13c.045-3.991-.034-7.988,0-11.98A1.278,1.278,0,0,0,45,7.907l-.033,11.042a.867.867,0,0,1-1.658,0L43.193,2.457A1.279,1.279,0,0,0,40.735,3l-.047,16.032a.869.869,0,0,1-1.633-.081L39.033,6.3a1.279,1.279,0,0,0-2.556.106l-.023,12.649c-.217.974-1.681.6-1.681.023V9.494c0-.329-.547-.8-.852-.906a1.272,1.272,0,0,0-1.7,1.018c.214,4.959-.308,10.19-.011,15.118.044.718.545,2.354.116,2.845a4.041,4.041,0,0,1-.43.291c-1.205.251-1.333-2.141-1.383-2.929-.322-5.121.177-10.646.074-15.791a3.1,3.1,0,0,1,4.184-2.152A3.139,3.139,0,0,1,39.034,3.58,3.282,3.282,0,0,1,41.483-.04h1.065A3.322,3.322,0,0,1,44.7,1.591a8.022,8.022,0,0,1,.3.87V5.284a3.1,3.1,0,0,1,4.032,1.664,5.951,5.951,0,0,1,.227.625v14.11c.507-.342.859-.9,1.333-1.275a3.583,3.583,0,0,1,5.053,5.053c-1.989,2.514-5.3,4.786-7.293,7.295a2.962,2.962,0,0,0-.68,1.748l1.494,14.9c2.5,1.1,2.389,4.413-.334,5.071h-18.1l-1.1-.622-1.242.622h-18.1a2.66,2.66,0,0,1-.121-5.071c.281-4.654,1.086-9.29,1.4-13.937a3.187,3.187,0,0,0-.584-2.716c-1.989-2.51-5.3-4.78-7.293-7.295a3.582,3.582,0,0,1,5.053-5.053c.474.375.826.933,1.333,1.275V7.579a5.836,5.836,0,0,1,.227-.625A3.1,3.1,0,0,1,14.326,5.29V2.362c0-.045.281-.726.338-.833A3.334,3.334,0,0,1,16.775-.034h.958ZM6.341,21.262a1.835,1.835,0,0,0-1.582,2.805c2.2,2.612,5.358,4.92,7.492,7.522a4.8,4.8,0,0,1,1.12,3.031l-1.5,14.753H27c-.05-.477-.06-.968-.1-1.447a.63.63,0,0,0-.111-.257c-.432-4.735-.85-9.486-1.394-14.215.785-3.832,1.644-7.071,1.714-11.022.014-.779-.006-1.563,0-2.343.028-3.423-.021-6.852,0-10.276a1.278,1.278,0,0,0-2.546-.2l-.033,9.444a.869.869,0,0,1-1.633.081L22.846,6.406A1.278,1.278,0,0,0,20.3,6.2l-.033,12.745a.871.871,0,0,1-1.6.156L18.586,3a1.279,1.279,0,0,0-2.458-.54L15.95,19.1a.871.871,0,0,1-1.6-.156L14.316,7.907a1.278,1.278,0,0,0-2.546.2c-.31,4.414.412,9.393,0,13.741a1.711,1.711,0,0,1-2.825,1.22c-.947-.681-1.21-1.809-2.61-1.81Zm5.644,31.519c5.3.135,10.619-.1,15.919,0a.855.855,0,0,0,.109-1.707c-5.337.106-10.694-.133-16.028,0-.706.018-1.881-.224-1.924.8C10.012,53.007,11.239,52.762,11.984,52.782Zm20.445,0c5.3.135,10.619-.1,15.919,0a.855.855,0,0,0,.109-1.707c-5.337.106-10.694-.133-16.028,0-.706.018-1.881-.224-1.924.8C30.457,53.007,31.684,52.762,32.429,52.782Z" transform="translate(0)" fill="#020201"/>
      <path id="Trazado_1033917" data-name="Trazado 1033917" d="M48.514,30.437a.9.9,0,0,0-1.7.166,6.392,6.392,0,0,0,.156,2.387.922.922,0,0,0,1.542-.21c-.07,3.95-.929,7.188-1.714,11.022.544,4.729.963,9.481,1.394,14.215a14.04,14.04,0,0,1-5.749-.694,10.357,10.357,0,0,1-6.5-10.22c.088-1.724.859-4.674.231-6.2A6.6,6.6,0,0,0,35.1,39.431c-2.145-2.431-4.836-4.613-7.032-7.024l-.318-.8c1.4,0,1.663,1.127,2.61,1.81a1.711,1.711,0,0,0,2.825-1.22c.407-4.347-.314-9.327,0-13.741a1.278,1.278,0,0,1,2.546-.2L35.759,29.3a.871.871,0,0,0,1.6.156l.179-16.646a1.279,1.279,0,0,1,2.458.54l.08,16.106a.871.871,0,0,0,1.6-.156l.033-12.745a1.278,1.278,0,0,1,2.546.2L44.3,29.485a.869.869,0,0,0,1.633-.081l.033-9.444a1.278,1.278,0,0,1,2.546.2c-.021,3.425.027,6.852,0,10.276Z" transform="translate(-21.409 -10.345)" fill="#f7c35f"/>
      <path id="Trazado_1033918" data-name="Trazado 1033918" d="M235.6,30.419a.921.921,0,0,0-1.542-.21A6.392,6.392,0,0,0,233.9,32.6a.859.859,0,0,0,1.7-.047,1.961,1.961,0,0,0,1.379,1.231c1.7.344,2.3-2,3.689-2.179a1.853,1.853,0,0,1,1.856,2.919c-2.211,2.541-5.284,4.837-7.4,7.4A4.686,4.686,0,0,0,234,44.951c.514,4.339.885,8.7,1.279,13.048-4.264.407-8.469-1.123-10.735-4.866-2.747-4.538-.806-7.454-.869-12.007-.034-2.47-1.719-5.895-1.712-8.52l0-13.688c.305.109.852.575.852.906v9.584c0,.575,1.464.951,1.681-.023l.023-12.649a1.279,1.279,0,0,1,2.556-.106l.023,12.649a.869.869,0,0,0,1.633.081l.047-16.032a1.279,1.279,0,0,1,2.458-.54l.121,16.491a.867.867,0,0,0,1.658,0l.033-11.042a1.278,1.278,0,0,1,2.546.2c-.036,3.992.045,7.989,0,11.98Z" transform="translate(-188.046 -10.328)" fill="#f7c35f"/>
      <path id="Trazado_1033919" data-name="Trazado 1033919" d="M209.782,60.251l0,13.688c-.007,2.625,1.677,6.05,1.712,8.52.063,4.552-1.878,7.468.869,12.007,2.266,3.741,6.471,5.272,10.735,4.866a.641.641,0,0,1,.111.257c.043.478.053.968.1,1.447H208.186l1.6-16.021c-.288-.873-.24-3.968-1.708-3.572l-.319-1.917a3.772,3.772,0,0,0,.43-.291c.429-.491-.072-2.127-.116-2.845-.3-4.928.226-10.159.011-15.118a1.272,1.272,0,0,1,1.7-1.018Z" transform="translate(-175.862 -51.66)" fill="#e8ab47"/>
      <path id="Trazado_1033920" data-name="Trazado 1033920" d="M16.725,150l.318.8c2.2,2.411,4.885,4.594,7.032,7.024a6.6,6.6,0,0,1,1.082,1.474c.628,1.523-.145,4.474-.231,6.2a10.357,10.357,0,0,0,6.5,10.22,14.04,14.04,0,0,0,5.749.694.641.641,0,0,1,.111.257c.043.478.053.968.1,1.447H22.263l1.5-14.753a4.814,4.814,0,0,0-1.12-3.031c-2.135-2.6-5.292-4.908-7.492-7.522A1.835,1.835,0,0,1,16.727,150Z" transform="translate(-10.385 -128.738)" fill="#e8ab47"/>
      <path id="Trazado_1033921" data-name="Trazado 1033921" d="M66.171,361.443a1.76,1.76,0,0,1,0-1.7c5.334-.136,10.691.1,16.028,0a.855.855,0,0,1-.109,1.707C76.788,361.342,71.468,361.578,66.171,361.443Z" transform="translate(-54.187 -308.661)" fill="#f7c35f"/>
      <path id="Trazado_1033922" data-name="Trazado 1033922" d="M210.171,361.443a1.76,1.76,0,0,1,0-1.7c5.334-.136,10.691.1,16.028,0a.855.855,0,0,1-.109,1.707C220.788,361.342,215.468,361.578,210.171,361.443Z" transform="translate(-177.742 -308.661)" fill="#f7c35f"/>
      <path id="Trazado_1033923" data-name="Trazado 1033923" d="M163.5,138.506c-.006.779.014,1.563,0,2.343a.922.922,0,0,1-1.542.21,6.4,6.4,0,0,1-.156-2.387A.9.9,0,0,1,163.5,138.506Z" transform="translate(-136.392 -118.415)" fill="#fefdfb"/>
      <path id="Trazado_1033924" data-name="Trazado 1033924" d="M307.5,138.454a20.472,20.472,0,0,1,0,2.13.859.859,0,0,1-1.7.047,6.393,6.393,0,0,1,.156-2.387A.922.922,0,0,1,307.5,138.454Z" transform="translate(-259.947 -118.363)" fill="#fefdfb"/>
      <path id="Trazado_1033925" data-name="Trazado 1033925" d="M55.865,359.924a1.76,1.76,0,0,0,0,1.7c-.745-.018-1.972.226-1.924-.9C53.986,359.7,55.16,359.942,55.865,359.924Z" transform="translate(-43.881 -308.846)" fill="#e5a845"/>
      <path id="Trazado_1033926" data-name="Trazado 1033926" d="M199.865,359.924a1.76,1.76,0,0,0,0,1.7c-.745-.018-1.972.226-1.924-.9C197.986,359.7,199.16,359.942,199.865,359.924Z" transform="translate(-167.436 -308.846)" fill="#e5a845"/>
    </g>
  </g>
</svg>
