<svg xmlns="http://www.w3.org/2000/svg" xmlns:xlink="http://www.w3.org/1999/xlink" width="108.914" height="108.914" viewBox="0 0 108.914 108.914">
  <defs>
    <filter id="Trazado_874925" x="0" y="0" width="108.914" height="108.914" filterUnits="userSpaceOnUse">
      <feOffset dy="3" input="SourceAlpha"/>
      <feGaussianBlur stdDeviation="3" result="blur"/>
      <feFlood flood-opacity="0.161"/>
      <feComposite operator="in" in2="blur"/>
      <feComposite in="SourceGraphic"/>
    </filter>
  </defs>
  <g id="Grupo_1110031" data-name="Grupo 1110031" transform="translate(-1112.708 -2511.157)">
    <g id="Grupo_1109819" data-name="Grupo 1109819" transform="translate(1121.708 2517.157)">
      <g transform="matrix(1, 0, 0, 1, -9, -6)" filter="url(#Trazado_874925)">
        <g id="Trazado_874925-2" data-name="Trazado 874925" transform="translate(9 6)" fill="#efdb59" opacity="0.859">
          <path d="M 45.45676803588867 89.41407012939453 C 39.52198028564453 89.41407012939453 33.76551818847656 88.25206756591797 28.34726715087891 85.96034240722656 C 23.11311721801758 83.74648284912109 18.41204261779785 80.57682800292969 14.37464332580566 76.5394287109375 C 10.33724308013916 72.50202941894531 7.167593002319336 67.80095672607422 4.953730583190918 62.56679534912109 C 2.662005424499512 57.14855575561523 1.500005483627319 51.39208221435547 1.500005483627319 45.45729446411133 C 1.500005483627319 39.52198028564453 2.662005424499512 33.76551818847656 4.953730583190918 28.34726905822754 C 7.167593002319336 23.11310577392578 10.33724308013916 18.41203117370605 14.37464332580566 14.37464332580566 C 18.41204261779785 10.33724403381348 23.11311721801758 7.167593955993652 28.34726715087891 4.953731060028076 C 33.76551818847656 2.662006139755249 39.52198028564453 1.500006198883057 45.45676803588867 1.500006198883057 C 51.39155578613281 1.500006198883057 57.14802932739258 2.662006139755249 62.56626892089844 4.953731060028076 C 67.80043029785156 7.167593955993652 72.50150299072266 10.33724403381348 76.53890228271484 14.37464332580566 C 80.57630920410156 18.41203117370605 83.74595642089844 23.11310577392578 85.95981597900391 28.34726905822754 C 88.25154113769531 33.76551818847656 89.41354370117188 39.52198028564453 89.41354370117188 45.45676803588867 C 89.41354370117188 51.39208221435547 88.25154113769531 57.14855575561523 85.95981597900391 62.56679534912109 C 83.74595642089844 67.80095672607422 80.57630920410156 72.50202941894531 76.53890228271484 76.5394287109375 C 72.50150299072266 80.57682800292969 67.80043029785156 83.74648284912109 62.56626892089844 85.96034240722656 C 57.14802932739258 88.25206756591797 51.39155578613281 89.41407012939453 45.45676803588867 89.41407012939453 Z" stroke="none"/>
          <path d="M 45.45676803588867 3 C 39.72381210327148 3 34.1639404296875 4.12213134765625 28.93159484863281 6.335227966308594 C 23.87622833251953 8.473472595214844 19.33542633056641 11.53517150878906 15.43529510498047 15.435302734375 C 11.53517150878906 19.33543395996094 8.473464965820312 23.87622833251953 6.335227966308594 28.93160247802734 C 4.122123718261719 34.16394424438477 3 39.72381591796875 3 45.4572868347168 C 3 51.19024658203125 4.122123718261719 56.75011825561523 6.335227966308594 61.98246002197266 C 8.473464965820312 67.03782653808594 11.53517150878906 71.57862854003906 15.43529510498047 75.478759765625 C 19.33542633056641 79.37889099121094 23.87622833251953 82.44058990478516 28.93159484863281 84.57883453369141 C 34.1639404296875 86.79193115234375 39.72381210327148 87.9140625 45.45676803588867 87.9140625 C 51.18972396850586 87.9140625 56.74959564208984 86.79193115234375 61.98194122314453 84.57883453369141 C 67.03730773925781 82.44058990478516 71.57810974121094 79.37889099121094 75.47824096679688 75.478759765625 C 79.37837219238281 71.57862854003906 82.44007110595703 67.03782653808594 84.57830810546875 61.98246002197266 C 86.79141235351562 56.75011825561523 87.91353607177734 51.19024658203125 87.91353607177734 45.4567756652832 C 87.91353607177734 39.72381591796875 86.79141235351562 34.16394424438477 84.57830810546875 28.93160247802734 C 82.44007110595703 23.87622833251953 79.37837219238281 19.33543395996094 75.47824096679688 15.435302734375 C 71.57810974121094 11.53517150878906 67.03730773925781 8.473472595214844 61.98194122314453 6.335227966308594 C 56.74959564208984 4.12213134765625 51.18972396850586 3 45.45676803588867 3 M 45.45676803588867 0 C 70.56185150146484 0 90.91353607177734 20.35169219970703 90.91353607177734 45.4567756652832 L 90.91353607177734 45.4572868347168 C 90.91353607177734 70.5623779296875 70.56185150146484 90.9140625 45.45676803588867 90.9140625 C 20.3516845703125 90.9140625 0 70.5623779296875 0 45.4572868347168 L 0 45.4567756652832 C 0 20.35169219970703 20.3516845703125 0 45.45676803588867 0 Z" stroke="none" fill="#fff"/>
        </g>
      </g>
      <g id="Trazado_874923" data-name="Trazado 874923" transform="translate(0 0)" fill="none">
        <path d="M45.457,0A45.457,45.457,0,0,1,90.914,45.457h0A45.457,45.457,0,0,1,0,45.457H0A45.457,45.457,0,0,1,45.457,0Z" stroke="none"/>
        <path d="M 45.45676803588867 3 C 39.72381210327148 3 34.1639404296875 4.12213134765625 28.93159484863281 6.335227966308594 C 23.87622833251953 8.473472595214844 19.33542633056641 11.53517150878906 15.43529510498047 15.435302734375 C 11.53517150878906 19.33543395996094 8.473464965820312 23.87622833251953 6.335227966308594 28.93160247802734 C 4.122123718261719 34.16394424438477 3 39.72381591796875 3 45.4572868347168 C 3 51.19024658203125 4.122123718261719 56.75011825561523 6.335227966308594 61.98246002197266 C 8.473464965820312 67.03782653808594 11.53517150878906 71.57862854003906 15.43529510498047 75.478759765625 C 19.33542633056641 79.37889099121094 23.87622833251953 82.44058990478516 28.93159484863281 84.57883453369141 C 34.1639404296875 86.79193115234375 39.72381210327148 87.9140625 45.45676803588867 87.9140625 C 51.18972396850586 87.9140625 56.74959564208984 86.79193115234375 61.98194122314453 84.57883453369141 C 67.03730773925781 82.44058990478516 71.57810974121094 79.37889099121094 75.47824096679688 75.478759765625 C 79.37837219238281 71.57862854003906 82.44007110595703 67.03782653808594 84.57830810546875 61.98246002197266 C 86.79141235351562 56.75011825561523 87.91353607177734 51.19024658203125 87.91353607177734 45.4567756652832 C 87.91353607177734 39.72381591796875 86.79141235351562 34.16394424438477 84.57830810546875 28.93160247802734 C 82.44007110595703 23.87622833251953 79.37837219238281 19.33543395996094 75.47824096679688 15.435302734375 C 71.57810974121094 11.53517150878906 67.03730773925781 8.473472595214844 61.98194122314453 6.335227966308594 C 56.74959564208984 4.12213134765625 51.18972396850586 3 45.45676803588867 3 M 45.45676803588867 0 C 70.56185150146484 0 90.91353607177734 20.35169219970703 90.91353607177734 45.4567756652832 L 90.91353607177734 45.4572868347168 C 90.91353607177734 70.5623779296875 70.56185150146484 90.9140625 45.45676803588867 90.9140625 C 20.3516845703125 90.9140625 0 70.5623779296875 0 45.4572868347168 L 0 45.4567756652832 C 0 20.35169219970703 20.3516845703125 0 45.45676803588867 0 Z" stroke="none" fill="#fff"/>
      </g>
    </g>
    <g id="legislation_6174541_copia" data-name="legislation_6174541 copia" transform="translate(1128.07 2538.965)">
      <path id="Trazado_1033694" data-name="Trazado 1033694" d="M81.317,202.168H49.757a3.984,3.984,0,0,1-.542-.509c-1.612-1.988-4.018-8.049-4.157-10.578a.819.819,0,0,1,.592-.935.783.783,0,0,1,.823.429,27.389,27.389,0,0,1,.708,3,23.305,23.305,0,0,0,2.477,5.89,4.3,4.3,0,0,0,.751,1.2H79.613A29.246,29.246,0,0,1,75.9,189.545c-1.367,1.1-2.6,2.385-3.96,3.5a30.1,30.1,0,0,1-3.054,2.307,7.369,7.369,0,0,1-2.952,1.106l-13.879-.056a.781.781,0,0,1,.15-1.448l12.811,0,1.264-2.512H51c-.468,0-.794-1.356.107-1.5l16.123-.008c.216-.041.358-.248.5-.4.437-.45,1.106-1.289,1.5-1.8.077-.1.192-.127.15-.3H52.507a.777.777,0,0,1,.2-1.506l18.116-.019c.954-1.017,1.944-2,2.927-2.984.309-.31.623-.779.95-1.1.745-.74,1.62-1.555,2.4-2.3,1.327-1.268,2.723-2.552,4.107-3.759.66-.576,2.853-2.569,3.582-2.632A3.111,3.111,0,0,1,87.3,176.19c.094.453-.126,1.023-.063,1.257.045.172.489.48.631.68a2.354,2.354,0,0,1,.333,1.824c-.127.749-2.028,2.808-2.63,3.481a30.01,30.01,0,0,1-2.2,2.4c-.745.621-1.572.124-1.309-.81.923-1.106,1.976-2.105,2.912-3.2a13.715,13.715,0,0,0,1.747-2.263.792.792,0,0,0-.544-.944c-2.771,3.328-5.823,6.4-8.849,9.489a24.965,24.965,0,0,0,1.48,7.3,24.113,24.113,0,0,0,1.552,3.558c.252.46,1.377,1.989,1.437,2.275.1.457-.158.681-.484.928ZM70.6,190.846c.182.194.52.749.8.656a122.283,122.283,0,0,0,14.418-14.858c.071-.293-.236-.377-.386-.526-.3-.3-.275-.581-.8-.244a28.116,28.116,0,0,0-2.612,2.2c-1.3,1.142-2.605,2.357-3.858,3.556-2.817,2.693-5.495,5.539-8.116,8.422-.168.366.353.585.554.8Zm-3.707,3.607c-.045.108-.211.269-.151.4a20.126,20.126,0,0,0,3.31-2.2c.151-.227-.411-.568-.554-.7-.126-.119-.234-.35-.4-.457-.114-.09-.166-.015-.254.048a18.977,18.977,0,0,0-1.794,2.52,3,3,0,0,0-.155.393Z" transform="translate(-25.585 -150.869)" fill="#020202"/>
      <path id="Trazado_1033695" data-name="Trazado 1033695" d="M34.992,0a1.313,1.313,0,0,1,.5.8c0,.2-.349.7-.55.7H23.572c2.866,4.286,2.019,10.347.954,15.13-1.5,6.76-4.328,13.274-3.961,20.386a.755.755,0,0,1-.7.553c-.553,0-.744-.347-.8-.852a27.376,27.376,0,0,1,.315-5.6c.769-5.76,3.053-11.2,4.093-16.9H18.212a7.256,7.256,0,0,1-.786-.417c-2.152-1.507-2.135-6.7-1.6-8.984.5-2.143,1.662-4.26,3.938-4.827ZM23.27,4.308c-.415-2.254-2.892-3.962-4.712-1.856-1.643,1.9-1.806,5.917-1.233,8.251.631,2.57,2.219,2.87,2.708.039a12.486,12.486,0,0,0,0-3.85c-.1-.647-.671-1.844-.275-2.335a1.484,1.484,0,0,1,.353-.247h3.155Zm.5,1.5h-2.4a13.144,13.144,0,0,1-.3,6.913H23.62a.32.32,0,0,0,.15-.251,20.157,20.157,0,0,0,.206-2.2,31.31,31.31,0,0,0-.2-4.463Z" transform="translate(0 0)" fill="#030303"/>
      <path id="Trazado_1033696" data-name="Trazado 1033696" d="M191.266,0c3.266.6,4.346,4.594,4.513,7.46.385,6.593-2.089,12.92-3.66,19.192a.829.829,0,0,1-.952.5c-.063-.207-.549-.186-.494-.938,1.253-5.231,3.321-10.412,3.6-15.845.138-2.672-.023-8.615-3.606-8.866-4.462-.313-9.282.23-13.781.005A.733.733,0,0,1,176.237.8c-.024-.478.178-.525.5-.8h14.528Z" transform="translate(-139.241)" fill="#020303"/>
      <path id="Trazado_1033697" data-name="Trazado 1033697" d="M269.805,36.9c.138.449-.536,1.914-.4,2.5-.784.749-1.659,1.564-2.4,2.3a41.625,41.625,0,0,1,.95-5.512c1.495-6.455,6.221-18.036,2.137-23.977-.236-.345-.525-.645-.783-.97,3.584.251,3.743,6.195,3.606,8.866-.279,5.433-2.347,10.614-3.6,15.845C269.256,36.715,269.743,36.694,269.805,36.9Z" transform="translate(-217.88 -9.747)" fill="#d0ecfa"/>
      <path id="Trazado_1033698" data-name="Trazado 1033698" d="M65.168,6a.73.73,0,0,0,.647.707c4.5.224,9.319-.318,13.781-.005.258.325.546.627.783.97,4.084,5.939-.641,17.52-2.137,23.977a41.4,41.4,0,0,0-.95,5.512c-.327.325-.641.794-.95,1.1-.983.989-1.973,1.966-2.927,2.984L55.3,41.266a.777.777,0,0,0-.2,1.506H71.983c.043.174-.071.2-.15.3-.4.514-1.066,1.353-1.5,1.8-.146.15-.287.357-.5.4L53.7,45.284c-.9.142-.574,1.5-.107,1.5h15.28l-1.264,2.511-12.811,0a.781.781,0,0,0-.15,1.448l13.879.056a7.37,7.37,0,0,0,2.952-1.106,14.005,14.005,0,0,0,4.411-1.651,9.959,9.959,0,0,1,1.9-.954,29.713,29.713,0,0,0,1.8,5.771c.079.656-.3.823-.875.916l-26.475.027a23.305,23.305,0,0,1-2.477-5.89,27.388,27.388,0,0,0-.708-3,.784.784,0,0,0-.823-.429l-.2-1.7a.755.755,0,0,0,.7-.553C48.371,35.108,51.2,28.594,52.7,21.834c1.065-4.784,1.912-10.845-.954-15.13H63.117c.2,0,.552-.5.55-.7h1.5ZM61.533,9.228a.758.758,0,0,0,.178,1.483H74.439a.753.753,0,1,0,0-1.507Zm-1.6,4.008a.771.771,0,0,0,.278,1.484h18.74a.759.759,0,0,0,.1-1.51Zm-2.2,4.008a.758.758,0,0,0,.178,1.483H78.647a.754.754,0,1,0,0-1.507Zm-.7,4.008a.75.75,0,0,0,.178,1.484h13.73a.755.755,0,0,0,0-1.507Zm.9,4.008a.758.758,0,0,0,.176,1.484h18.74a.753.753,0,0,0,0-1.507l-18.916.024ZM54.82,29.266A.753.753,0,0,0,55,30.75H75.74a.754.754,0,0,0,0-1.507l-20.922.024Zm-1,4.008c-.728.167-.633,1.511.178,1.483H74.739a.754.754,0,1,0,0-1.507Zm-.943,5.259a1.17,1.17,0,0,0,.345.2l15.908.029a.754.754,0,1,0,0-1.507l-15.737,0c-.623,0-.866.846-.517,1.278Z" transform="translate(-28.171 -5.198)" fill="#f4fbfe"/>
      <path id="Trazado_1033699" data-name="Trazado 1033699" d="M98.737,295.311A30.4,30.4,0,0,0,101.791,293c1.361-1.12,2.592-2.407,3.96-3.5a29.223,29.223,0,0,0,3.708,11.121H80.251a4.268,4.268,0,0,1-.751-1.2l26.475-.027c.574-.094.954-.26.875-.916a29.9,29.9,0,0,1-1.8-5.771,10.114,10.114,0,0,0-1.9.954,13.993,13.993,0,0,1-4.411,1.651Z" transform="translate(-55.429 -250.826)" fill="#d1edfb"/>
      <path id="Trazado_1033700" data-name="Trazado 1033700" d="M236.25,203.728,251.079,189c.15.15.457.234.386.526a122.38,122.38,0,0,1-14.418,14.858C236.77,204.478,236.432,203.922,236.25,203.728Z" transform="translate(-191.238 -163.751)" fill="#e08424"/>
      <path id="Trazado_1033701" data-name="Trazado 1033701" d="M247.269,186.427l-14.829,14.728c-.2-.214-.723-.434-.554-.8,2.621-2.882,5.3-5.728,8.116-8.422,1.254-1.2,2.554-2.413,3.858-3.556a28.087,28.087,0,0,1,2.612-2.2c.521-.337.5-.052.8.244Z" transform="translate(-187.429 -161.178)" fill="#e6a560"/>
      <path id="Trazado_1033702" data-name="Trazado 1033702" d="M211.105,304.278c-.728.82-1.528,1.578-2.3,2.354-.047.047-.258.35-.3.151a2.863,2.863,0,0,1,.155-.393,19.012,19.012,0,0,1,1.794-2.52c.088-.063.14-.138.254-.048.168.107.277.338.4.457Z" transform="translate(-167.195 -263.199)" fill="#f6e8a9"/>
      <path id="Trazado_1033703" data-name="Trazado 1033703" d="M207.437,310c.043.2.254-.1.3-.151.776-.776,1.576-1.534,2.3-2.354.144.136.705.476.554.7a20.183,20.183,0,0,1-3.31,2.2c-.06-.13.106-.291.151-.4Z" transform="translate(-166.132 -266.421)" fill="#f6d97c"/>
      <path id="Trazado_1033704" data-name="Trazado 1033704" d="M33.015,14H29.86a1.484,1.484,0,0,0-.353.247c-.4.492.174,1.689.275,2.335a12.528,12.528,0,0,1,0,3.85c-.489,2.831-2.077,2.532-2.708-.039-.573-2.335-.41-6.347,1.233-8.251,1.818-2.107,4.3-.4,4.712,1.856Z" transform="translate(-9.745 -9.688)" fill="#b0e2f8"/>
      <path id="Trazado_1033705" data-name="Trazado 1033705" d="M59.705,43.5a31.3,31.3,0,0,1,.2,4.463,20.126,20.126,0,0,1-.206,2.2.315.315,0,0,1-.15.251H57a13.144,13.144,0,0,0,.3-6.913Z" transform="translate(-35.934 -37.689)" fill="#d0ecfa"/>
      <path id="Trazado_1033706" data-name="Trazado 1033706" d="M117.047,90l20.922-.024a.754.754,0,1,1,0,1.507H117.223A.759.759,0,0,1,117.046,90Z" transform="translate(-87.493 -77.96)" fill="#000101"/>
      <path id="Trazado_1033707" data-name="Trazado 1033707" d="M95.065,180l20.922-.024a.754.754,0,0,1,0,1.507H95.241A.753.753,0,0,1,95.065,180Z" transform="translate(-68.416 -155.936)"/>
      <path id="Trazado_1033708" data-name="Trazado 1033708" d="M88.088,210l20.922-.024a.754.754,0,1,1,0,1.507H88.265c-.81.028-.906-1.317-.178-1.484Z" transform="translate(-62.442 -181.929)"/>
      <path id="Trazado_1033709" data-name="Trazado 1033709" d="M133.96,60l19.121-.025a.759.759,0,0,1-.1,1.51h-18.74A.771.771,0,0,1,133.96,60Z" transform="translate(-102.203 -51.959)" fill="#040404"/>
      <path id="Trazado_1033710" data-name="Trazado 1033710" d="M118.5,150l18.916-.024a.753.753,0,0,1,0,1.507H118.68A.757.757,0,0,1,118.5,150Z" transform="translate(-88.75 -129.944)" fill="#010101"/>
      <path id="Trazado_1033711" data-name="Trazado 1033711" d="M83.192,241.238c-.349-.431-.106-1.281.517-1.278l15.737,0a.754.754,0,1,1,0,1.507l-15.908-.029a1.2,1.2,0,0,1-.345-.2Z" transform="translate(-58.489 -207.904)"/>
      <path id="Trazado_1033712" data-name="Trazado 1033712" d="M111.4,120.013l13.908-.023a.755.755,0,0,1,0,1.507h-13.73A.75.75,0,0,1,111.4,120.013Z" transform="translate(-82.547 -103.961)" fill="#010101"/>
      <path id="Trazado_1033713" data-name="Trazado 1033713" d="M145.556,30l12.906-.024a.753.753,0,1,1,0,1.507H145.733A.759.759,0,0,1,145.556,30Z" transform="translate(-112.194 -25.975)" fill="#010101"/>
    </g>
  </g>
</svg>
