<svg xmlns="http://www.w3.org/2000/svg" xmlns:xlink="http://www.w3.org/1999/xlink" width="83.764" height="83.764" viewBox="0 0 83.764 83.764">
  <defs>
    <filter id="Trazado_896985" x="0" y="0" width="83.764" height="83.764" filterUnits="userSpaceOnUse">
      <feOffset dy="3" input="SourceAlpha"/>
      <feGaussianBlur stdDeviation="3" result="blur"/>
      <feFlood flood-opacity="0.161"/>
      <feComposite operator="in" in2="blur"/>
      <feComposite in="SourceGraphic"/>
    </filter>
  </defs>
  <g id="Grupo_1109994" data-name="Grupo 1109994" transform="translate(-747.781 -3827)">
    <g id="Grupo_1098742" data-name="Grupo 1098742" transform="translate(756.781 3833)">
      <g transform="matrix(1, 0, 0, 1, -9, -6)" filter="url(#Trazado_896985)">
        <g id="Trazado_896985-2" data-name="Trazado 896985" transform="translate(9 6)" fill="#84a065" opacity="0.859">
          <path d="M 32.88185501098633 64.2637939453125 C 28.6446647644043 64.2637939453125 24.53502464294434 63.43427658081055 20.66708564758301 61.79827880859375 C 16.93033409118652 60.21775817871094 13.57407474517822 57.95480728149414 10.69153499603271 55.072265625 C 7.808995246887207 52.18972778320312 5.546044826507568 48.83346557617188 3.965524911880493 45.09671783447266 C 2.329524993896484 41.22877883911133 1.500005006790161 37.11913681030273 1.500005006790161 32.8819465637207 C 1.500005006790161 28.64473724365234 2.329524993896484 24.53507614135742 3.965534925460815 20.66711616516113 C 5.546044826507568 16.93035697937012 7.808995246887207 13.57408714294434 10.69153499603271 10.69153690338135 C 13.57407474517822 7.80899715423584 16.93033409118652 5.546037197113037 20.66708564758301 3.965527057647705 C 24.53502464294434 2.329516887664795 28.6446647644043 1.499997019767761 32.88185501098633 1.499997019767761 C 37.11904525756836 1.499997019767761 41.22868347167969 2.329516887664795 45.09663391113281 3.965527057647705 C 48.8333854675293 5.546037197113037 52.18964385986328 7.808987140655518 55.07218551635742 10.69152736663818 C 57.9547233581543 13.57406711578369 60.21767425537109 16.93032646179199 61.79818344116211 20.66707611083984 C 63.43419647216797 24.53502655029297 64.26371765136719 28.64466667175293 64.26371765136719 32.88185882568359 C 64.26371765136719 37.11906814575195 63.43419647216797 41.22872543334961 61.79818344116211 45.09668731689453 C 60.21767425537109 48.83344650268555 57.9547233581543 52.18971633911133 55.07218551635742 55.07225799560547 C 52.18964385986328 57.95479583740234 48.8333854675293 60.21775817871094 45.09663391113281 61.79826736450195 C 41.22868347167969 63.43427658081055 37.11904525756836 64.2637939453125 32.88185501098633 64.2637939453125 Z" stroke="none"/>
          <path d="M 32.88185501098633 2.999996185302734 C 28.84651184082031 2.999996185302734 24.93346786499023 3.789653778076172 21.25141143798828 5.347030639648438 C 17.69345474243164 6.851921081542969 14.49745559692383 9.006931304931641 11.75220108032227 11.752197265625 C 9.006931304931641 14.49747467041016 6.851921081542969 17.69347381591797 5.347034454345703 21.25144195556641 C 3.789653778076172 24.93350982666016 3 28.84657287597656 3 32.88194274902344 C 3 36.91728591918945 3.789653778076172 40.83032989501953 5.347034454345703 44.51238632202148 C 6.851921081542969 48.07034301757812 9.006919860839844 51.26634216308594 11.75218963623047 54.0116081237793 C 14.49745559692383 56.75687408447266 17.69345474243164 58.91187286376953 21.25141143798828 60.41676330566406 C 24.93346786499023 61.97414016723633 28.84651184082031 62.76379776000977 32.88185501098633 62.76379776000977 C 36.91719818115234 62.76379776000977 40.83024597167969 61.97414016723633 44.51229858398438 60.41676330566406 C 48.07025527954102 58.91187286376953 51.26625442504883 56.75686264038086 54.01151275634766 54.0115966796875 C 56.75677490234375 51.26631927490234 58.91178894042969 48.07032012939453 60.41667556762695 44.51235198974609 C 61.97405624389648 40.83028411865234 62.76371002197266 36.91722106933594 62.76371002197266 32.88185119628906 C 62.76371002197266 28.84650802612305 61.97405624389648 24.93346405029297 60.41667556762695 21.25140762329102 C 58.91178894042969 17.69345092773438 56.75679016113281 14.49745178222656 54.01152038574219 11.7521858215332 C 51.26625442504883 9.006919860839844 48.07025527954102 6.851921081542969 44.51229858398438 5.347030639648438 C 40.83024597167969 3.789653778076172 36.91719818115234 2.999996185302734 32.88185501098633 2.999996185302734 M 32.88185501098633 0 C 51.04199981689453 0 65.76371002197266 14.72170639038086 65.76371002197266 32.88185119628906 L 65.76371002197266 32.88194274902344 C 65.76371002197266 51.04208374023438 51.04199981689453 65.7637939453125 32.88185501098633 65.7637939453125 C 14.72171020507812 65.7637939453125 0 51.04208374023438 0 32.88194274902344 L 0 32.88185119628906 C 0 14.72170639038086 14.72171020507812 0 32.88185501098633 0 Z" stroke="none" fill="#fff"/>
        </g>
      </g>
      <g id="Rectángulo_400907" data-name="Rectángulo 400907" transform="translate(0 0)" fill="none" stroke="#fff" stroke-width="3">
        <rect width="65.764" height="65.764" rx="32.882" stroke="none"/>
        <rect x="1.5" y="1.5" width="62.764" height="62.764" rx="31.382" fill="none"/>
      </g>
    </g>
    <g id="carnicero_1_" data-name="carnicero (1)" transform="translate(770.376 3845.86)">
      <path id="Trazado_897977" data-name="Trazado 897977" d="M29.4,43.578V50H18.763v.626H17.324a1.061,1.061,0,0,1-.751-.313A1.076,1.076,0,0,0,15.816,50h-.807V46.249H26.365a.531.531,0,0,0,.532-.532V39.98a9.453,9.453,0,0,1,1.42.613A9.291,9.291,0,0,0,29.4,43.578Z" transform="translate(-5.622 -14.966)" fill="#636a74"/>
      <path id="Trazado_897978" data-name="Trazado 897978" d="M50.355,35.074a6.606,6.606,0,0,0,.038-5.706,7.219,7.219,0,0,0-1.245-1.921,4.645,4.645,0,0,1-1.1-1.983c-.025-.1-.05-.206-.069-.319a5.867,5.867,0,0,1-.019-1.983,2,2,0,0,0-.451-1.633c-.038-.044-.081-.088-.131-.138-.006,0-.006-.006-.013-.013a2.011,2.011,0,0,0-1.777-.457c-.063.013-.125.025-.194.044a9.714,9.714,0,0,0-4.812,2.653,9.844,9.844,0,0,0-2.69,6.97,7.749,7.749,0,0,0,1.727,5.262,7.179,7.179,0,0,0,1.245,1.2,6.572,6.572,0,0,0,5.781,1.095A6.033,6.033,0,0,0,50.355,35.074Zm-13.1.651a9.29,9.29,0,0,1-1.082-2.985,9.585,9.585,0,0,1-.163-2.171,11.376,11.376,0,0,1,9.2-11.488.9.9,0,0,1,.181-.025A3.144,3.144,0,0,1,46.031,19a3.837,3.837,0,0,1,2.609,1c.113.113.2.2.282.294a3.848,3.848,0,0,1,.888,3.153,4.117,4.117,0,0,0,.013,1.358c.019.075.031.15.05.219a2.837,2.837,0,0,0,.676,1.176,8.791,8.791,0,0,1,1.483,9.723,7.991,7.991,0,0,1-7.17,4.349,8.567,8.567,0,0,1-3.5-.757,8.81,8.81,0,0,1-1.633-.976,9.781,9.781,0,0,1-1.558-1.5,9.04,9.04,0,0,1-.907-1.32Z" transform="translate(-13.482 -7.112)" fill="#f3445a"/>
      <path id="Trazado_897979" data-name="Trazado 897979" d="M44.646,5H34.009V7.5H52.141V5Z" transform="translate(-12.734 -1.872)" fill="#a05454"/>
      <path id="Trazado_897980" data-name="Trazado 897980" d="M26.9,39.976v5.738a.531.531,0,0,1-.532.532H15.009V41.428l3.128,2.315,1.883-1.89,2.5,1.89L26.89,39.97l0,0a.006.006,0,0,1,0,0Z" transform="translate(-5.622 -14.962)" fill="#d8e0eb"/>
      <path id="Trazado_897981" data-name="Trazado 897981" d="M39.107,35l6.157,3.1,2.5,6.025a6.572,6.572,0,0,1-5.781-1.095,7.179,7.179,0,0,1-1.245-1.2,7.749,7.749,0,0,1-1.727-5.262A9.665,9.665,0,0,1,39.107,35Z" transform="translate(-14.604 -13.102)" fill="#ff5666"/>
      <path id="Trazado_897982" data-name="Trazado 897982" d="M31.645,52.156V45.73a9.04,9.04,0,0,0,.907,1.32,9.781,9.781,0,0,0,1.558,1.5,8.809,8.809,0,0,0,1.633.976,9.794,9.794,0,0,1,.282,2.209v3.51a1.3,1.3,0,0,1-1.3,1.3l-13.715-.006V52.156Z" transform="translate(-7.868 -17.118)" fill="#d8e0eb"/>
      <path id="Trazado_897983" data-name="Trazado 897983" d="M55.259,35.57a6.606,6.606,0,0,1-.038,5.706,6.033,6.033,0,0,1-3.71,3.066l-2.5-6.025Z" transform="translate(-18.349 -13.315)" fill="#ff5666"/>
      <path id="Trazado_897984" data-name="Trazado 897984" d="M46.771,22.04a2.011,2.011,0,0,1,1.777.457c.006.006.006.013.013.013.05.05.094.094.131.138a2,2,0,0,1,.451,1.633,5.867,5.867,0,0,0,.019,1.983c.019.113.044.219.069.319a4.645,4.645,0,0,0,1.1,1.983,7.219,7.219,0,0,1,1.245,1.921l-6.251,2.747-6.157-3.1a9.6,9.6,0,0,1,2.6-5.393,9.714,9.714,0,0,1,4.812-2.653C46.645,22.065,46.708,22.053,46.771,22.04Z" transform="translate(-14.666 -8.232)" fill="#ff5666"/>
      <path id="Trazado_897985" data-name="Trazado 897985" d="M24.265,32.9v3.792a3.211,3.211,0,0,1-6.257-.006V32.82a4.738,4.738,0,0,0,3.128,1.364A4.807,4.807,0,0,0,24.259,32.9Z" transform="translate(-6.745 -12.285)" fill="#e5b6a9"/>
      <path id="Trazado_897986" data-name="Trazado 897986" d="M25.774,18.99v.363a12.345,12.345,0,0,1-3.76,8.365,4.807,4.807,0,0,1-3.122,1.289,4.738,4.738,0,0,1-3.128-1.364,12.779,12.779,0,0,1-3.748-8.29c-.006-.144-.006-.269-.006-.363A28.478,28.478,0,0,0,14.48,22.4c.519.626,1.045,1.183,1.545,1.689a1.818,1.818,0,0,0,1.915.432,2.881,2.881,0,0,1,.951-.156,3.034,3.034,0,0,1,.951.156A1.851,1.851,0,0,0,21.794,24c.482-.507.976-1.051,1.477-1.646a36.559,36.559,0,0,0,2.5-3.36Z" transform="translate(-4.499 -7.109)" fill="#a05454"/>
      <path id="Trazado_897987" data-name="Trazado 897987" d="M25.774,15v2.5a36.559,36.559,0,0,1-2.5,3.36c-.5.594-.995,1.139-1.477,1.646a1.851,1.851,0,0,1-1.952.526,3.034,3.034,0,0,0-.951-.156,2.881,2.881,0,0,0-.951.156,1.818,1.818,0,0,1-1.915-.432c-.5-.507-1.026-1.064-1.545-1.689a28.478,28.478,0,0,1-2.471-3.41V15Z" transform="translate(-4.499 -5.615)" fill="#efc5b8"/>
      <path id="Trazado_897988" data-name="Trazado 897988" d="M29.889,39.609l-4.374,3.773-2.5-1.89a3.152,3.152,0,0,0,3.122-2.484,10.717,10.717,0,0,1,3.748.6Z" transform="translate(-8.62 -14.601)" fill="#e6ecf4"/>
      <path id="Trazado_897989" data-name="Trazado 897989" d="M20.02,41.489l-1.883,1.89-3.128-2.315V39.13A10.491,10.491,0,0,1,16.886,39a3.164,3.164,0,0,0,3.135,2.49Z" transform="translate(-5.622 -14.598)" fill="#e6ecf4"/>
      <path id="Trazado_897990" data-name="Trazado 897990" d="M13.886,44.011v3.754H12.009V34h1.877Z" transform="translate(-4.499 -12.727)" fill="#a05454"/>
      <path id="Trazado_897991" data-name="Trazado 897991" d="M4.763,58.581v.006H1.009V53.775a10.171,10.171,0,0,1,.369-2.565c.063.388.131.763.2,1.114H4.763Z" transform="translate(-0.382 -19.169)" fill="#d8e0eb"/>
      <path id="Trazado_897992" data-name="Trazado 897992" d="M8.886,55.518v3.091a.644.644,0,0,0,.644.644H7.009V52.99h3.128v1.883H9.53a.644.644,0,0,0-.644.644Z" transform="translate(-2.628 -19.835)" fill="#636a74"/>
      <path id="Trazado_897993" data-name="Trazado 897993" d="M17.014,1V9.76H12.008V3.3a1.347,1.347,0,0,1,1.014-1.308Z" transform="translate(-4.499 -0.375)" fill="#d8e0eb"/>
      <path id="Trazado_897994" data-name="Trazado 897994" d="M16.891,56.626v3.748l-6.238.006a.644.644,0,0,1-.644-.644V56.644A.644.644,0,0,1,10.653,56h3.291a1.076,1.076,0,0,1,.757.313,1.061,1.061,0,0,0,.751.313Z" transform="translate(-3.751 -20.962)" fill="#efc5b8"/>
      <path id="Trazado_897995" data-name="Trazado 897995" d="M1.377,44.768a31.158,31.158,0,0,1,.206-10.762c2.1,0,4.2-.006,6.307-.006V45.882H1.577C1.508,45.531,1.439,45.156,1.377,44.768Z" transform="translate(-0.381 -12.727)" fill="#e6ecf4"/>
      <path id="Trazado_897996" data-name="Trazado 897996" d="M28.768,6.005V9.76h-8.76V1l7.6,1.089a1.341,1.341,0,0,1,1.158,1.326Z" transform="translate(-7.494 -0.375)" fill="#e6ecf4"/>
      <path id="Trazado_897997" data-name="Trazado 897997" d="M44.492,40.526h0a9.174,9.174,0,0,1-5.517-1.861,10.007,10.007,0,0,1-1.66-1.6,10.33,10.33,0,0,1-2.3-6.9,12,12,0,0,1,9.7-12.072,4.558,4.558,0,0,1,3.98,1.076,4.429,4.429,0,0,1,1.363,4,3.425,3.425,0,0,0,.013,1.15c.011.064.024.126.038.185a2.2,2.2,0,0,0,.535.9,9.422,9.422,0,0,1,1.573,10.422A8.5,8.5,0,0,1,50.2,38.409a8.679,8.679,0,0,1-5.712,2.117Zm1.165-21.274a3.454,3.454,0,0,0-.692.07,10.747,10.747,0,0,0-8.7,10.86,9.087,9.087,0,0,0,2.011,6.091,8.766,8.766,0,0,0,1.452,1.4,7.915,7.915,0,0,0,4.76,1.606,7.428,7.428,0,0,0,4.891-1.809,7.255,7.255,0,0,0,1.718-2.2,8.165,8.165,0,0,0-1.391-9.024A3.409,3.409,0,0,1,48.89,24.8c-.02-.082-.037-.166-.053-.251a4.712,4.712,0,0,1-.018-1.566,3.227,3.227,0,0,0-.739-2.646,3.287,3.287,0,0,0-.241-.247,3.19,3.19,0,0,0-2.183-.835Z" transform="translate(-13.109 -6.738)"/>
      <path id="Trazado_897998" data-name="Trazado 897998" d="M50.365,27.779a4.014,4.014,0,0,1-.959-1.71c-.022-.094-.043-.191-.061-.29A5.319,5.319,0,0,1,49.324,24a2.611,2.611,0,0,0-.6-2.14c-.053-.059-.109-.118-.172-.178l-.015-.014,0,0a2.639,2.639,0,0,0-2.327-.612,10.308,10.308,0,0,0-5.325,2.871A10.432,10.432,0,0,0,38.018,31.3,8.378,8.378,0,0,0,39.885,37a8.113,8.113,0,0,0,1.347,1.295,7.231,7.231,0,0,0,4.375,1.481,6.8,6.8,0,0,0,4.487-1.656A6.641,6.641,0,0,0,51.664,36.1a7.534,7.534,0,0,0-1.3-8.324Zm.183,7.758a5.391,5.391,0,0,1-1.277,1.633,5.79,5.79,0,0,1-7.282.123A6.877,6.877,0,0,1,40.85,36.2a7.149,7.149,0,0,1-1.581-4.881A9.185,9.185,0,0,1,41.781,24.8a9.061,9.061,0,0,1,4.681-2.52,1.572,1.572,0,0,1,.318-.033,1.328,1.328,0,0,1,.908.336l.009.009c.034.032.065.065.093.1a1.363,1.363,0,0,1,.3,1.119A6.583,6.583,0,0,0,48.113,26c.022.122.047.24.075.356a5.243,5.243,0,0,0,1.243,2.254,6.275,6.275,0,0,1,1.117,6.925Z" transform="translate(-14.231 -7.859)"/>
      <path id="Trazado_897999" data-name="Trazado 897999" d="M47.454,44.386A.626.626,0,0,1,46.876,44l-2.414-5.814-5.947-3a.625.625,0,0,1,.563-1.117l6.154,3.1a.625.625,0,0,1,.3.318l2.5,6.028a.625.625,0,0,1-.578.866Z" transform="translate(-14.292 -12.728)"/>
      <path id="Trazado_898000" data-name="Trazado 898000" d="M48.633,38.572a.626.626,0,0,1-.252-1.2l6.257-2.746a.626.626,0,0,1,.5,1.146l-6.257,2.746a.632.632,0,0,1-.251.053Z" transform="translate(-17.974 -12.942)"/>
      <path id="Trazado_898001" data-name="Trazado 898001" d="M.633,58.83A.625.625,0,0,1,.007,58.2V53.392A10.77,10.77,0,0,1,.4,50.665a.626.626,0,0,1,1.234.144v.006a.628.628,0,0,1-.022.165,9.451,9.451,0,0,0-.353,2.413V58.2a.625.625,0,0,1-.626.626Z" transform="translate(-0.007 -18.786)"/>
      <path id="Trazado_898002" data-name="Trazado 898002" d="M14.632,39.382a.626.626,0,0,1-.1-1.243A11.483,11.483,0,0,1,16.524,38a.626.626,0,1,1-.014,1.251H16.5a9.784,9.784,0,0,0-1.765.125A.6.6,0,0,1,14.632,39.382Z" transform="translate(-5.247 -14.223)"/>
      <path id="Trazado_898003" data-name="Trazado 898003" d="M20.75,39.429a3.767,3.767,0,0,1-3.727-2.976.645.645,0,0,1-.016-.141V32.447a.626.626,0,0,1,1.251,0v3.79a2.536,2.536,0,0,0,2.495,1.941h.012a2.539,2.539,0,0,0,2.5-1.934V32.528a.626.626,0,1,1,1.251,0V36.32a.616.616,0,0,1-.016.142,3.771,3.771,0,0,1-3.732,2.968Z" transform="translate(-6.37 -11.912)"/>
      <path id="Trazado_898004" data-name="Trazado 898004" d="M18.519,27.766c-3.918,0-7.308-5.609-7.5-10.254-.007-.154-.009-.288-.009-.392V14.626A.626.626,0,0,1,11.633,14H25.4a.626.626,0,0,1,.626.626V17.12c0,.1,0,.227,0,.379-.084,4.087-3.12,10.266-7.5,10.266Zm-6.26-12.514V17.12c0,.09,0,.206.007.339.168,3.991,3.146,9.055,6.253,9.055,3.519,0,6.179-5.4,6.253-9.041,0-.133,0-.249,0-.342v-1.88Z" transform="translate(-4.124 -5.241)"/>
      <path id="Trazado_898005" data-name="Trazado 898005" d="M25.992,46.5H14.633a.626.626,0,0,1,0-1.251H25.9V39.589a.626.626,0,1,1,1.251,0V45.34A1.156,1.156,0,0,1,25.992,46.5Z" transform="translate(-5.247 -14.585)"/>
      <path id="Trazado_898006" data-name="Trazado 898006" d="M6.633,59.5a.625.625,0,0,1-.626-.626V52.616a.626.626,0,1,1,1.251,0v6.257a.625.625,0,0,1-.626.626Z" transform="translate(-2.253 -19.461)"/>
      <path id="Trazado_898007" data-name="Trazado 898007" d="M37.633,52.4a.625.625,0,0,1-.626-.626V45.337a.626.626,0,1,1,1.251,0v6.438a.625.625,0,0,1-.626.626Z" transform="translate(-13.857 -16.737)"/>
      <path id="Trazado_898008" data-name="Trazado 898008" d="M17.761,43.992a.623.623,0,0,1-.372-.123l-3.128-2.317a.626.626,0,0,1,.744-1.006l2.695,2,1.5-1.507a.624.624,0,0,1,.821-.057l2.093,1.584,4-3.449a.626.626,0,1,1,.818.947L22.55,43.84a.626.626,0,0,1-.786.025L19.7,42.3l-1.5,1.5A.624.624,0,0,1,17.761,43.992Z" transform="translate(-5.247 -14.584)"/>
      <path id="Trazado_898009" data-name="Trazado 898009" d="M16.638,10.012a.626.626,0,0,1-.626-.626V1.428l-3.21.8a.718.718,0,0,0-.544.7V9.386a.626.626,0,1,1-1.251,0V2.928A1.968,1.968,0,0,1,12.5,1.016l3.988-1a.626.626,0,0,1,.777.607v8.76a.626.626,0,0,1-.626.626Z" transform="translate(-4.124 -0.001)"/>
      <path id="Trazado_898010" data-name="Trazado 898010" d="M28.392,10.012a.626.626,0,0,1-.626-.626V3.044a.721.721,0,0,0-.617-.711L19.544,1.246A.626.626,0,1,1,19.721.007l7.605,1.087a1.979,1.979,0,0,1,1.691,1.95V9.386a.626.626,0,0,1-.626.626Z" transform="translate(-7.119 -0.001)"/>
      <path id="Trazado_898011" data-name="Trazado 898011" d="M13.51,48.018a.625.625,0,0,1-.626-.626V34.253h-.626V47.392a.626.626,0,0,1-1.251,0V33.627A.625.625,0,0,1,11.633,33H13.51a.625.625,0,0,1,.626.626V47.392a.625.625,0,0,1-.626.626Z" transform="translate(-4.124 -12.353)"/>
      <path id="Trazado_898012" data-name="Trazado 898012" d="M1.2,46.138a.625.625,0,0,1-.614-.506A31.6,31.6,0,0,1,.6,33.512a.626.626,0,0,1,.613-.505L7.515,33h0a.626.626,0,0,1,0,1.251l-5.785,0a30.349,30.349,0,0,0-.007,10.628l5.789,0h0a.626.626,0,1,1,0,1.251l-6.31,0Z" transform="translate(-0.007 -12.353)"/>
      <path id="Trazado_898013" data-name="Trazado 898013" d="M7.651,38.253A.626.626,0,0,1,7.644,37h.006a.626.626,0,0,1,0,1.251Z" transform="translate(-2.633 -13.851)"/>
      <path id="Trazado_898014" data-name="Trazado 898014" d="M51.769,9.252H33.633a.626.626,0,1,1,0-1.251H51.769a.626.626,0,1,1,0,1.251Z" transform="translate(-12.359 -2.995)"/>
      <path id="Trazado_898015" data-name="Trazado 898015" d="M50.633,19.017a.626.626,0,0,1-.626-.626V4.626a.626.626,0,0,1,1.251,0V18.392a.626.626,0,0,1-.626.626Z" transform="translate(-18.723 -1.498)"/>
      <path id="Trazado_898016" data-name="Trazado 898016" d="M16.943,24.878a2.436,2.436,0,0,1-1.733-.719c-.553-.557-1.086-1.138-1.584-1.729A29.24,29.24,0,0,1,11.1,18.941a.626.626,0,1,1,1.064-.657,28.053,28.053,0,0,0,2.417,3.34c.476.565.986,1.121,1.515,1.653a1.2,1.2,0,0,0,1.268.279,3.564,3.564,0,0,1,2.3,0,1.246,1.246,0,0,0,1.3-.367c.5-.52.982-1.064,1.446-1.616a35.437,35.437,0,0,0,2.459-3.3.626.626,0,1,1,1.046.687,36.643,36.643,0,0,1-2.547,3.422c-.48.572-.984,1.135-1.5,1.675a2.484,2.484,0,0,1-2.611.688,2.294,2.294,0,0,0-1.495,0,2.546,2.546,0,0,1-.828.139Z" transform="translate(-4.124 -6.733)"/>
      <path id="Trazado_898017" data-name="Trazado 898017" d="M34.348,59.057,20.632,59.05a.626.626,0,0,1-.625-.626V54.051a.625.625,0,0,1,.626-.626H31.9a.626.626,0,1,1,0,1.251H21.259V57.8l13.089.006a.674.674,0,0,0,.676-.67v-3.51a9.2,9.2,0,0,0-.265-2.063.626.626,0,1,1,1.217-.291,10.394,10.394,0,0,1,.3,2.354v3.51a1.926,1.926,0,0,1-1.927,1.921Z" transform="translate(-7.493 -19.012)"/>
      <path id="Trazado_898018" data-name="Trazado 898018" d="M32.806,40.481a.627.627,0,0,1-.291-.072,10.189,10.189,0,0,0-4.861-1.15.625.625,0,1,1-.042-1.25A11.272,11.272,0,0,1,33.1,39.3a.626.626,0,0,1-.293,1.179Z" transform="translate(-10.114 -14.227)"/>
      <path id="Trazado_898019" data-name="Trazado 898019" d="M10.276,60.632a1.269,1.269,0,0,1-1.268-1.27V56.271A1.271,1.271,0,0,1,10.277,55H13.57a1.705,1.705,0,0,1,1.2.5.445.445,0,0,0,.313.13h1.435a.626.626,0,1,1,0,1.251H15.081a1.705,1.705,0,0,1-1.2-.5.445.445,0,0,0-.313-.13H10.277l-.018,3.11,6.256.013h0a.626.626,0,0,1,0,1.251l-6.238.005Z" transform="translate(-3.376 -20.588)"/>
      <path id="Trazado_898020" data-name="Trazado 898020" d="M51.77,5.252H33.636a.626.626,0,1,1,0-1.251H51.77a.626.626,0,1,1,0,1.251Z" transform="translate(-12.36 -1.498)"/>
    </g>
  </g>
</svg>
