<svg xmlns="http://www.w3.org/2000/svg" xmlns:xlink="http://www.w3.org/1999/xlink" width="108" height="108" viewBox="0 0 108 108">
  <defs>
    <filter id="Rect치ngulo_402509" x="0" y="0" width="108" height="108" filterUnits="userSpaceOnUse">
      <feOffset dy="3" input="SourceAlpha"/>
      <feGaussianBlur stdDeviation="3" result="blur"/>
      <feFlood flood-opacity="0.161"/>
      <feComposite operator="in" in2="blur"/>
      <feComposite in="SourceGraphic"/>
    </filter>
  </defs>
  <g id="Grupo_1109999" data-name="Grupo 1109999" transform="translate(-1011.73 -3087)">
    <g transform="matrix(1, 0, 0, 1, 1011.73, 3087)" filter="url(#Rect치ngulo_402509)">
      <g id="Rect치ngulo_402509-2" data-name="Rect치ngulo 402509" transform="translate(9 6)" fill="#ced9c1" stroke="#6a8051" stroke-width="3" opacity="0.859">
        <rect width="90" height="90" rx="45" stroke="none"/>
        <rect x="1.5" y="1.5" width="87" height="87" rx="43.5" fill="none"/>
      </g>
    </g>
    <g id="cow_5880287" transform="translate(1033.588 3113)">
      <path id="Trazado_898141" data-name="Trazado 898141" d="M71.843,58.5a14.451,14.451,0,0,0-6.395-6.822h0a11.322,11.322,0,0,0-2.935-10.507,1.849,1.849,0,0,0-3.135.982,11.173,11.173,0,0,1-3.992,6.685,12.271,12.271,0,0,0-8.4-3.255H33.145a12.271,12.271,0,0,0-8.4,3.255,11.173,11.173,0,0,1-3.992-6.685,1.849,1.849,0,0,0-3.135-.982,11.323,11.323,0,0,0-2.935,10.507,14.453,14.453,0,0,0-6.4,6.822,3.165,3.165,0,0,0,1.284,4.013,14.8,14.8,0,0,0,12.491,1.212c.048-.024-.02-.061.3.493,2.415,4.2,5.1,8.129,5.036,13.714a9.125,9.125,0,0,0-2.886,6.746c0,14.726,31.108,14.728,31.108,0a9.12,9.12,0,0,0-2.886-6.744,16.934,16.934,0,0,1,1.159-6.324,64.764,64.764,0,0,1,4.153-7.9l.025.012A14.8,14.8,0,0,0,70.56,62.512,3.165,3.165,0,0,0,71.843,58.5Z" transform="translate(-6.901 -39.513)" fill="#ffebd2"/>
      <path id="Trazado_898142" data-name="Trazado 898142" d="M118.707,76.543c0,.187-.128.495-.318,1.828a1.1,1.1,0,0,1-1.067.939,12.443,12.443,0,0,0-10.374,18.63,55.275,55.275,0,0,1,3.758,7.082,1.107,1.107,0,0,1-.574,1.409,13.3,13.3,0,0,0-3.674,2.459c.061-5.585-2.621-9.516-5.036-13.714a12.438,12.438,0,0,1,10.786-18.634h6.5Z" transform="translate(-85.963 -70.473)" fill="#fff3e4"/>
      <path id="Trazado_898143" data-name="Trazado 898143" d="M15.372,122.716a.692.692,0,0,1-.2.828,14.173,14.173,0,0,0-4.124,5.315,3.111,3.111,0,0,0-.183,2.037.69.69,0,0,1-1.018.755q-.14-.079-.278-.162a3.165,3.165,0,0,1-1.284-4.013,14.453,14.453,0,0,1,6.4-6.822A12.01,12.01,0,0,0,15.372,122.716Z" transform="translate(-6.901 -108.491)" fill="#fff3e4"/>
      <path id="Trazado_898144" data-name="Trazado 898144" d="M251.945,94.673a64.762,64.762,0,0,0-4.153,7.9c-10.4-4.446-16.764-14.366-14.246-25.967v-.058h7.337A12.437,12.437,0,0,1,251.945,94.673Z" transform="translate(-200.802 -70.475)" fill="#6e6f80"/>
      <path id="Trazado_898145" data-name="Trazado 898145" d="M246.078,79.3c-1.979.008-5,.039-10.04.015a1.1,1.1,0,0,1-1.089-1.269c.19-1.217.269-1.328.269-1.5h7.337a12.555,12.555,0,0,1,3.846.593A1.106,1.106,0,0,1,246.078,79.3Z" transform="translate(-202.474 -70.475)" fill="#838599"/>
      <path id="Trazado_898146" data-name="Trazado 898146" d="M155.66,283.837h0c-7.716-7.463-28.222-5.209-28.222,6.746,0,14.727,31.108,14.728,31.108,0A9.12,9.12,0,0,0,155.66,283.837Z" transform="translate(-109.83 -245.418)" fill="#ffbfcb"/>
      <path id="Trazado_898147" data-name="Trazado 898147" d="M134.47,286.061a9.294,9.294,0,0,0-2.235,10.19,1.105,1.105,0,0,1-1.779,1.215,9.145,9.145,0,0,1-3.018-6.87c0-8.158,9.466-11.665,17.666-10.954a1.106,1.106,0,0,1,.01,2.2C140.969,282.188,137.02,283.593,134.47,286.061Z" transform="translate(-109.83 -245.432)" fill="#ffd9e0"/>
      <path id="Trazado_898148" data-name="Trazado 898148" d="M260.008,333.642c0-5.448,6.969-5.447,6.969,0S260.008,339.087,260.008,333.642Z" transform="translate(-224.082 -288.527)" fill="#ffa4b8"/>
      <path id="Trazado_898149" data-name="Trazado 898149" d="M169.568,333.642c0-5.447,6.969-5.448,6.969,0S169.568,339.089,169.568,333.642Z" transform="translate(-146.138 -288.527)" fill="#ffa4b8"/>
      <path id="Trazado_898150" data-name="Trazado 898150" d="M358.025,41.171a11.234,11.234,0,0,1-3.112,18.008H354.9a12.545,12.545,0,0,0-4-10.339,11.173,11.173,0,0,0,3.992-6.685,1.849,1.849,0,0,1,3.135-.982Z" transform="translate(-302.414 -39.513)" fill="#cbe3fa"/>
      <path id="Trazado_898151" data-name="Trazado 898151" d="M358.033,41.18a.817.817,0,0,1-.167,1.27,2.265,2.265,0,0,0-1.087,1.567,13.606,13.606,0,0,1-3.128,6.5.823.823,0,0,1-1.275-.054,12.576,12.576,0,0,0-1.479-1.626,11.174,11.174,0,0,0,3.992-6.685A1.849,1.849,0,0,1,358.033,41.18Z" transform="translate(-302.413 -39.512)" fill="#eef7ff"/>
      <path id="Trazado_898152" data-name="Trazado 898152" d="M60.527,42.154a11.173,11.173,0,0,0,3.992,6.685,12.545,12.545,0,0,0-4,10.339H60.5a11.233,11.233,0,0,1-3.112-18.008A1.849,1.849,0,0,1,60.527,42.154Z" transform="translate(-46.678 -39.513)" fill="#cbe3fa"/>
      <path id="Trazado_898153" data-name="Trazado 898153" d="M60.512,59.178a10.7,10.7,0,0,1-6.059-7.5,11.323,11.323,0,0,1,2.935-10.507,1.849,1.849,0,0,1,3.135.982q.064.352.15.7a1.112,1.112,0,0,1-.182.931,11.343,11.343,0,0,0-.21,13.1C60.62,57.368,60.36,57.571,60.512,59.178Z" transform="translate(-46.675 -39.513)" fill="#eef7ff"/>
      <g id="Grupo_1109882" data-name="Grupo 1109882" transform="translate(0 0)">
        <path id="Trazado_898154" data-name="Trazado 898154" d="M27.613,66.246a1.105,1.105,0,0,0,.5,2.154c8.189-1.894,19.5,1.042,19.5,9.377,0,13.243-28.9,13.256-28.9,0a8.013,8.013,0,0,1,2.549-5.951,1.106,1.106,0,0,0,.337-.782c.064-5.808-2.621-9.823-5.184-14.278a11.3,11.3,0,0,1,1.966-13.821,1.092,1.092,0,0,0,.426-.394,11.227,11.227,0,0,1,7.436-2.762H40.081A11.354,11.354,0,0,1,51.387,52.175a1.114,1.114,0,0,0,1.585,1.1A12.337,12.337,0,0,0,56.4,33.5a2.955,2.955,0,0,0-5.013,1.557,9.916,9.916,0,0,1-.621,2.085A1.105,1.105,0,0,0,52.8,38a12.122,12.122,0,0,0,.76-2.551.743.743,0,0,1,1.258-.406,10.164,10.164,0,0,1-1.2,15.3A13.555,13.555,0,0,0,40.081,37.578H26.244a13.433,13.433,0,0,0-8.394,2.893,9.923,9.923,0,0,1-2.913-5.415A2.955,2.955,0,0,0,9.924,33.5,12.373,12.373,0,0,0,6.545,44.21a15.666,15.666,0,0,0-6.17,6.935A4.266,4.266,0,0,0,2.1,56.562a15.524,15.524,0,0,0,7.237,2.194,1.105,1.105,0,0,0,.111-2.208,13.339,13.339,0,0,1-6.217-1.885,2.057,2.057,0,0,1-.842-2.608,13.23,13.23,0,0,1,4.737-5.6A12.133,12.133,0,0,0,7.913,48.2a1.105,1.105,0,1,0,1.935-1.068A10.283,10.283,0,0,1,11.5,35.045a.743.743,0,0,1,1.258.406,12.283,12.283,0,0,0,3.477,6.531A13.473,13.473,0,0,0,14.5,57.869c2.394,4.161,4.8,7.714,4.889,12.709a10.248,10.248,0,0,0-2.885,7.2c0,16.2,33.318,16.2,33.318,0C49.822,67.864,37.313,64,27.613,66.246Z" transform="translate(0 -32.613)"/>
        <path id="Trazado_898155" data-name="Trazado 898155" d="M166.157,323.764c1.184,0,2.379.921,2.379,2.98a1.105,1.105,0,0,0,2.211,0c0-3.408-2.309-5.191-4.59-5.191s-4.59,1.783-4.59,5.191c0,3.93,3.159,5.887,5.964,4.973a1.105,1.105,0,0,0-.685-2.1c-1.422.464-3.068-.5-3.068-2.871C163.778,324.685,164.973,323.764,166.157,323.764Z" transform="translate(-139.243 -281.629)"/>
        <path id="Trazado_898156" data-name="Trazado 898156" d="M256.6,330.344c-1.184,0-2.38-.921-2.38-2.98a1.105,1.105,0,1,0-2.211,0,5.337,5.337,0,0,0,1.4,3.829c2.647,2.759,7.783,1.25,7.783-3.829a4.9,4.9,0,0,0-3.512-5.058,1.105,1.105,0,0,0-.537,2.144c1.151.288,1.838,1.377,1.838,2.913C258.978,329.423,257.784,330.344,256.6,330.344Z" transform="translate(-217.188 -282.25)"/>
        <path id="Trazado_898157" data-name="Trazado 898157" d="M178.113,166.545a1.105,1.105,0,0,0-1.105,1.105v2.211a1.105,1.105,0,0,0,2.211,0V167.65A1.105,1.105,0,0,0,178.113,166.545Z" transform="translate(-152.55 -148.039)"/>
        <path id="Trazado_898158" data-name="Trazado 898158" d="M287.008,167.65v2.211a1.105,1.105,0,0,0,2.211,0V167.65a1.105,1.105,0,0,0-2.211,0Z" transform="translate(-247.351 -148.039)"/>
        <path id="Trazado_898159" data-name="Trazado 898159" d="M260.255,124.247a15.593,15.593,0,0,0-1.7-2.885,1.105,1.105,0,0,0-1.774,1.319,13.389,13.389,0,0,1,1.455,2.476,2.057,2.057,0,0,1-.842,2.608,13.642,13.642,0,0,1-11.522,1.131,1.1,1.1,0,0,0-1.409.51c-.73,1.409-2.5,4.035-3.76,6.925C233.1,132.7,228.25,126.1,227.665,118.456a1.105,1.105,0,0,0-2.2.169c.676,8.822,6.439,16.377,15.418,20.211a1.1,1.1,0,0,0,1.521-.816,50.478,50.478,0,0,1,3.58-6.78,15.731,15.731,0,0,0,12.551-1.576A4.267,4.267,0,0,0,260.255,124.247Z" transform="translate(-194.305 -105.715)"/>
      </g>
    </g>
  </g>
</svg>
