<svg xmlns="http://www.w3.org/2000/svg" xmlns:xlink="http://www.w3.org/1999/xlink" width="105.301" height="105.301" viewBox="0 0 105.301 105.301">
  <defs>
    <clipPath id="clip-path">
      <rect id="Rect치ngulo_404191" data-name="Rect치ngulo 404191" width="79.403" height="61.815" fill="none"/>
    </clipPath>
  </defs>
  <g id="Grupo_1111726" data-name="Grupo 1111726" transform="translate(-338.051 -5117)">
    <rect id="Rect치ngulo_404114" data-name="Rect치ngulo 404114" width="105.301" height="105.301" rx="12" transform="translate(338.051 5117)" fill="#efd42f"/>
    <g id="Grupo_1110241" data-name="Grupo 1110241" transform="translate(356.479 5140.718)">
      <g id="Grupo_1110237" data-name="Grupo 1110237" clip-path="url(#clip-path)">
        <path id="Trazado_899761" data-name="Trazado 899761" d="M21.9,23.1l2.255,4.636h.013l1.567,4.977.921,2.886-.006.011,5.639,17.918a7.34,7.34,0,1,1-14,4.424L13.131,41.5,7.9,27.52a7.34,7.34,0,1,1,14-4.423" transform="translate(-1.33 -3.16)" fill="#faa61a"/>
        <path id="Trazado_899762" data-name="Trazado 899762" d="M24.881,64.571a9.25,9.25,0,0,1-8.8-6.457L10.933,41.707,5.725,27.78c-.012-.031-.022-.062-.032-.094a9.236,9.236,0,0,1,17.567-5.7L25.37,26.32a1.851,1.851,0,0,1,.2.438l2.486,7.856c.02.062.036.125.05.189L33.7,52.55a9.247,9.247,0,0,1-8.815,12.021M9.294,26.5,14.5,40.427c.012.032.023.064.033.1L19.7,56.976a5.444,5.444,0,1,0,10.381-3.284L24.44,35.77c-.018-.058-.033-.116-.045-.175l-2.37-7.487-2.231-4.587a1.815,1.815,0,0,1-.1-.257A5.445,5.445,0,0,0,9.294,26.5" transform="translate(-0.926 -2.756)" fill="#12263f"/>
        <path id="Trazado_899763" data-name="Trazado 899763" d="M27.96,15.538h-14.1a11.562,11.562,0,0,0,0,23.124h14.1Z" transform="translate(-0.405 -2.733)" fill="#faa61a"/>
        <path id="Trazado_899764" data-name="Trazado 899764" d="M27.555,40.152h-14.1a13.457,13.457,0,0,1,0-26.915h14.1a1.9,1.9,0,0,1,1.9,1.9V38.256a1.9,1.9,0,0,1-1.9,1.9m-14.1-23.124a9.666,9.666,0,0,0,0,19.333H25.66V17.028Z" transform="translate(0 -2.329)" fill="#12263f"/>
        <path id="Trazado_899765" data-name="Trazado 899765" d="M39.114,15.538h14.1c6.384,0,12.549,5.175,12.549,11.561S59.6,38.662,53.214,38.662h-14.1Z" transform="translate(-6.88 -2.733)" fill="#fff"/>
        <path id="Trazado_899766" data-name="Trazado 899766" d="M52.81,40.152h-14.1a1.9,1.9,0,0,1-1.9-1.9V15.132a1.9,1.9,0,0,1,1.9-1.9h14.1c7.694,0,14.443,6.289,14.443,13.458S60.5,40.152,52.81,40.152M40.6,36.361H52.81c5.575,0,10.652-4.608,10.652-9.666s-5.077-9.667-10.652-9.667H40.6Z" transform="translate(-6.475 -2.329)" fill="#12263f"/>
        <path id="Trazado_899767" data-name="Trazado 899767" d="M33.411,13.462V36.506l15.96,9.215a4.859,4.859,0,0,0,7.288-4.208V8.453a4.86,4.86,0,0,0-7.288-4.208Z" transform="translate(-5.877 -0.631)" fill="#ffcb05"/>
        <path id="Trazado_899768" data-name="Trazado 899768" d="M51.4,47.873a6.741,6.741,0,0,1-3.378-.916l-15.96-9.215a1.9,1.9,0,0,1-.948-1.642V13.056a1.893,1.893,0,0,1,.948-1.641L48.019,2.2A6.755,6.755,0,0,1,58.151,8.047V41.108A6.779,6.779,0,0,1,51.4,47.873M34.9,35.006l15.013,8.668a2.963,2.963,0,0,0,4.445-2.566V8.047a2.964,2.964,0,0,0-4.446-2.565L34.9,14.151Z" transform="translate(-5.472 -0.226)" fill="#12263f"/>
        <path id="Trazado_899769" data-name="Trazado 899769" d="M74.56,10.168a1.9,1.9,0,0,1-1.34-3.235L79.6.555a1.9,1.9,0,0,1,2.681,2.681L75.9,9.613a1.889,1.889,0,0,1-1.34.555" transform="translate(-12.781 0)" fill="#fd8c25"/>
        <path id="Trazado_899770" data-name="Trazado 899770" d="M91.721,31.192H82.7a1.9,1.9,0,0,1,0-3.791h9.017a1.9,1.9,0,1,1,0,3.791" transform="translate(-14.214 -4.82)" fill="#fd8c25"/>
        <path id="Trazado_899771" data-name="Trazado 899771" d="M80.936,57.231a1.889,1.889,0,0,1-1.34-.555L73.219,50.3A1.9,1.9,0,1,1,75.9,47.62L82.276,54a1.9,1.9,0,0,1-1.34,3.235" transform="translate(-12.781 -8.279)" fill="#fd8c25"/>
        <path id="Trazado_899772" data-name="Trazado 899772" d="M22.367,26.924H14.725a1.9,1.9,0,1,1,0-3.791h7.642a1.9,1.9,0,0,1,0,3.791" transform="translate(-2.257 -4.069)" fill="#fff"/>
        <path id="Trazado_899773" data-name="Trazado 899773" d="M41.713,21.049a1.9,1.9,0,0,1-1.026-3.49l6.431-4.13a1.9,1.9,0,0,1,2.049,3.189l-6.431,4.13a1.887,1.887,0,0,1-1.023.3" transform="translate(-7.003 -2.309)" fill="#fff"/>
      </g>
    </g>
  </g>
</svg>
