<svg xmlns="http://www.w3.org/2000/svg" xmlns:xlink="http://www.w3.org/1999/xlink" width="108.914" height="108.914" viewBox="0 0 108.914 108.914">
  <defs>
    <filter id="Trazado_874925" x="0" y="0" width="108.914" height="108.914" filterUnits="userSpaceOnUse">
      <feOffset dy="3" input="SourceAlpha"/>
      <feGaussianBlur stdDeviation="3" result="blur"/>
      <feFlood flood-opacity="0.161"/>
      <feComposite operator="in" in2="blur"/>
      <feComposite in="SourceGraphic"/>
    </filter>
  </defs>
  <g id="Grupo_1111711" data-name="Grupo 1111711" transform="translate(-798.427 -2511.157)">
    <g id="Grupo_1109818" data-name="Grupo 1109818" transform="translate(807.427 2517.157)">
      <g transform="matrix(1, 0, 0, 1, -9, -6)" filter="url(#Trazado_874925)">
        <g id="Trazado_874925-2" data-name="Trazado 874925" transform="translate(9 6)" fill="#efdb59" opacity="0.859">
          <path d="M 45.45676803588867 89.41407012939453 C 39.52198028564453 89.41407012939453 33.76551818847656 88.25206756591797 28.34726715087891 85.96034240722656 C 23.11311721801758 83.74648284912109 18.41204261779785 80.57682800292969 14.37464332580566 76.5394287109375 C 10.33724308013916 72.50202941894531 7.167593002319336 67.80095672607422 4.953730583190918 62.56679534912109 C 2.662005424499512 57.14855575561523 1.500005483627319 51.39208221435547 1.500005483627319 45.45729446411133 C 1.500005483627319 39.52198028564453 2.662005424499512 33.76551818847656 4.953730583190918 28.34726905822754 C 7.167593002319336 23.11310577392578 10.33724308013916 18.41203117370605 14.37464332580566 14.37464332580566 C 18.41204261779785 10.33724403381348 23.11311721801758 7.167593955993652 28.34726715087891 4.953731060028076 C 33.76551818847656 2.662006139755249 39.52198028564453 1.500006198883057 45.45676803588867 1.500006198883057 C 51.39155578613281 1.500006198883057 57.14802932739258 2.662006139755249 62.56626892089844 4.953731060028076 C 67.80043029785156 7.167593955993652 72.50150299072266 10.33724403381348 76.53890228271484 14.37464332580566 C 80.57630920410156 18.41203117370605 83.74595642089844 23.11310577392578 85.95981597900391 28.34726905822754 C 88.25154113769531 33.76551818847656 89.41354370117188 39.52198028564453 89.41354370117188 45.45676803588867 C 89.41354370117188 51.39208221435547 88.25154113769531 57.14855575561523 85.95981597900391 62.56679534912109 C 83.74595642089844 67.80095672607422 80.57630920410156 72.50202941894531 76.53890228271484 76.5394287109375 C 72.50150299072266 80.57682800292969 67.80043029785156 83.74648284912109 62.56626892089844 85.96034240722656 C 57.14802932739258 88.25206756591797 51.39155578613281 89.41407012939453 45.45676803588867 89.41407012939453 Z" stroke="none"/>
          <path d="M 45.45676803588867 3 C 39.72381210327148 3 34.1639404296875 4.12213134765625 28.93159484863281 6.335227966308594 C 23.87622833251953 8.473472595214844 19.33542633056641 11.53517150878906 15.43529510498047 15.435302734375 C 11.53517150878906 19.33543395996094 8.473464965820312 23.87622833251953 6.335227966308594 28.93160247802734 C 4.122123718261719 34.16394424438477 3 39.72381591796875 3 45.4572868347168 C 3 51.19024658203125 4.122123718261719 56.75011825561523 6.335227966308594 61.98246002197266 C 8.473464965820312 67.03782653808594 11.53517150878906 71.57862854003906 15.43529510498047 75.478759765625 C 19.33542633056641 79.37889099121094 23.87622833251953 82.44058990478516 28.93159484863281 84.57883453369141 C 34.1639404296875 86.79193115234375 39.72381210327148 87.9140625 45.45676803588867 87.9140625 C 51.18972396850586 87.9140625 56.74959564208984 86.79193115234375 61.98194122314453 84.57883453369141 C 67.03730773925781 82.44058990478516 71.57810974121094 79.37889099121094 75.47824096679688 75.478759765625 C 79.37837219238281 71.57862854003906 82.44007110595703 67.03782653808594 84.57830810546875 61.98246002197266 C 86.79141235351562 56.75011825561523 87.91353607177734 51.19024658203125 87.91353607177734 45.4567756652832 C 87.91353607177734 39.72381591796875 86.79141235351562 34.16394424438477 84.57830810546875 28.93160247802734 C 82.44007110595703 23.87622833251953 79.37837219238281 19.33543395996094 75.47824096679688 15.435302734375 C 71.57810974121094 11.53517150878906 67.03730773925781 8.473472595214844 61.98194122314453 6.335227966308594 C 56.74959564208984 4.12213134765625 51.18972396850586 3 45.45676803588867 3 M 45.45676803588867 0 C 70.56185150146484 0 90.91353607177734 20.35169219970703 90.91353607177734 45.4567756652832 L 90.91353607177734 45.4572868347168 C 90.91353607177734 70.5623779296875 70.56185150146484 90.9140625 45.45676803588867 90.9140625 C 20.3516845703125 90.9140625 0 70.5623779296875 0 45.4572868347168 L 0 45.4567756652832 C 0 20.35169219970703 20.3516845703125 0 45.45676803588867 0 Z" stroke="none" fill="#fff"/>
        </g>
      </g>
      <g id="Trazado_874923" data-name="Trazado 874923" transform="translate(0 0)" fill="none">
        <path d="M45.457,0A45.457,45.457,0,0,1,90.914,45.457h0A45.457,45.457,0,0,1,0,45.457H0A45.457,45.457,0,0,1,45.457,0Z" stroke="none"/>
        <path d="M 45.45676803588867 3 C 39.72381210327148 3 34.1639404296875 4.12213134765625 28.93159484863281 6.335227966308594 C 23.87622833251953 8.473472595214844 19.33542633056641 11.53517150878906 15.43529510498047 15.435302734375 C 11.53517150878906 19.33543395996094 8.473464965820312 23.87622833251953 6.335227966308594 28.93160247802734 C 4.122123718261719 34.16394424438477 3 39.72381591796875 3 45.4572868347168 C 3 51.19024658203125 4.122123718261719 56.75011825561523 6.335227966308594 61.98246002197266 C 8.473464965820312 67.03782653808594 11.53517150878906 71.57862854003906 15.43529510498047 75.478759765625 C 19.33542633056641 79.37889099121094 23.87622833251953 82.44058990478516 28.93159484863281 84.57883453369141 C 34.1639404296875 86.79193115234375 39.72381210327148 87.9140625 45.45676803588867 87.9140625 C 51.18972396850586 87.9140625 56.74959564208984 86.79193115234375 61.98194122314453 84.57883453369141 C 67.03730773925781 82.44058990478516 71.57810974121094 79.37889099121094 75.47824096679688 75.478759765625 C 79.37837219238281 71.57862854003906 82.44007110595703 67.03782653808594 84.57830810546875 61.98246002197266 C 86.79141235351562 56.75011825561523 87.91353607177734 51.19024658203125 87.91353607177734 45.4567756652832 C 87.91353607177734 39.72381591796875 86.79141235351562 34.16394424438477 84.57830810546875 28.93160247802734 C 82.44007110595703 23.87622833251953 79.37837219238281 19.33543395996094 75.47824096679688 15.435302734375 C 71.57810974121094 11.53517150878906 67.03730773925781 8.473472595214844 61.98194122314453 6.335227966308594 C 56.74959564208984 4.12213134765625 51.18972396850586 3 45.45676803588867 3 M 45.45676803588867 0 C 70.56185150146484 0 90.91353607177734 20.35169219970703 90.91353607177734 45.4567756652832 L 90.91353607177734 45.4572868347168 C 90.91353607177734 70.5623779296875 70.56185150146484 90.9140625 45.45676803588867 90.9140625 C 20.3516845703125 90.9140625 0 70.5623779296875 0 45.4572868347168 L 0 45.4567756652832 C 0 20.35169219970703 20.3516845703125 0 45.45676803588867 0 Z" stroke="none" fill="#fff"/>
      </g>
    </g>
    <g id="gorra_copia" data-name="gorra copia" transform="translate(820.973 2488.646)">
      <path id="Trazado_1033927" data-name="Trazado 1033927" d="M-.008,89.757a7.942,7.942,0,0,1,2.162-2.2c3.306-2.655,7.169-4.809,10.538-7.407.79-5.594,2.238-11.5,5.319-16.29,4.2-6.519,11.693-9.377,19.114-10.393.8-5,8.733-4.339,8.629.765C54.686,56.867,61.7,63.3,63.37,72.693c.534,3,.888,10.308-.6,12.932-1.813,3.206-5.833,1.8-8.76,1.606-.826-.056-1.673-.056-2.5-.1C46.005,93.944,37.97,98.392,28.988,97.849c-4.649-.28-6.108-2.234-9.786-4.241C15.26,91.457,8.159,90.191,3.874,91.681c-.411.143-.783.441-1.2.568-1.316.4-2.1-.212-2.682-1.355V89.757ZM43.463,53.489c-.441-1.577-3.04-1.693-3.916-.44-.052.273.123.2.312.187a13.127,13.127,0,0,1,1.518-.123A18.686,18.686,0,0,1,43.463,53.489Zm1.378,30.95A64.119,64.119,0,0,0,47,73.9c.571-5.479.32-15.3-5.345-18.285-.775-.409-1.749,0-2.558.273-8.239,2.773-12.312,12.332-13.9,20.222a20.382,20.382,0,0,0-.57,3.729c.029.147.044.256.214.291,6.674,1.4,13.217,3.415,19.993,4.31ZM33.48,56.4a25.076,25.076,0,0,0-10.295,4.8c-5.124,4.4-7.168,11.87-8.153,18.32l2.593-.133,4.861.386a43.288,43.288,0,0,1,5.2-16.595A28.23,28.23,0,0,1,33.48,56.4Zm12.637.377A20.048,20.048,0,0,1,49.131,65.2C50,71.758,48.637,78.34,47.138,84.69c2.65.357,5.343.329,8.014.519,1.114.079,2.227.352,3.35.377,1.685.04,2.354-.285,2.745-1.993,1.644-7.171-.295-16.258-5.65-21.449-1.744-1.69-6.642-4.955-8.974-5.37a1.582,1.582,0,0,0-.253,0l-.5-.19c.037.1.224.15.249.19Zm.758,30.076a78.569,78.569,0,0,1-8.238-1.3c-8.025-1.688-16.244-4.873-24.534-3.732L3.026,89.506c-.03.241.229.066.356.039.836-.18,1.628-.436,2.49-.544a26.833,26.833,0,0,1,13.712,2.334c1.961,1.013,3.693,2.667,5.724,3.5,3.926,1.612,8.952.8,12.849-.529a24.21,24.21,0,0,0,9.86-6.379c.11-.125.6-.693.627-.763.11-.256-.175-.179-.313-.189-.5-.034-.96-.076-1.456-.126Z" fill="#030202"/>
      <path id="Trazado_1033928" data-name="Trazado 1033928" d="M166.381,111.082c-6.777-.895-13.319-2.913-19.993-4.31-.172-.035-.185-.145-.214-.291a20.235,20.235,0,0,1,.57-3.729c1.586-7.891,5.658-17.449,13.9-20.222.807-.271,1.783-.682,2.558-.273,5.665,2.989,5.914,12.8,5.345,18.285a64.122,64.122,0,0,1-2.158,10.543Z" transform="translate(-121.54 -26.644)" fill="#e71e62"/>
      <path id="Trazado_1033929" data-name="Trazado 1033929" d="M61.838,242.464a16.818,16.818,0,0,1-3.158,3.478,31.966,31.966,0,0,1-5.228,3.624c-.168.1-.4.039-.334.354-3.9,1.331-8.923,2.14-12.849.529-2.03-.834-3.764-2.487-5.724-3.5a26.85,26.85,0,0,0-13.712-2.334c-.863.108-1.653.364-2.49.544-.126.027-.386.2-.356-.039l11.077-7.69c8.29-1.141,16.509,2.044,24.534,3.732a78.2,78.2,0,0,0,8.238,1.3Z" transform="translate(-14.963 -155.614)" fill="#5f7c8a"/>
      <path id="Trazado_1033930" data-name="Trazado 1033930" d="M274,89.97a1.582,1.582,0,0,1,.253,0c-.067.307.157.261.332.356,9.587,5.149,13.154,12.573,12.563,23.469a15.03,15.03,0,0,1-1.016,4.986c-1.122-.027-2.236-.3-3.35-.377-2.669-.19-5.363-.162-8.013-.519,1.5-6.349,2.859-12.932,1.993-19.495a20.1,20.1,0,0,0-3.014-8.421H274Z" transform="translate(-227.633 -33.196)" fill="#e71e62"/>
      <path id="Trazado_1033931" data-name="Trazado 1033931" d="M107.708,87.76a28.231,28.231,0,0,0-5.789,6.784,43.288,43.288,0,0,0-5.2,16.595l-4.861-.386-2.593.133c.986-6.45,3.029-13.923,8.153-18.32a25.055,25.055,0,0,1,10.295-4.8Z" transform="translate(-74.229 -31.363)" fill="#e61e62"/>
      <path id="Trazado_1033932" data-name="Trazado 1033932" d="M288.568,118.821a15.039,15.039,0,0,0,1.016-4.986c.591-10.9-2.976-18.32-12.563-23.469-.177-.094-.4-.049-.332-.356,2.332.414,7.23,3.678,8.974,5.37,5.355,5.191,7.294,14.278,5.65,21.449-.391,1.709-1.06,2.034-2.745,1.993Z" transform="translate(-230.067 -33.234)" fill="#ab1456"/>
      <path id="Trazado_1033933" data-name="Trazado 1033933" d="M235.167,268.5c.5.051.954.093,1.456.126.136.008.421-.067.313.189-.03.071-.519.639-.627.763a24.209,24.209,0,0,1-9.86,6.379c-.069-.315.165-.258.334-.354a32.039,32.039,0,0,0,5.228-3.624,16.734,16.734,0,0,0,3.158-3.478Z" transform="translate(-188.292 -181.65)" fill="#36464e"/>
      <path id="Trazado_1033934" data-name="Trazado 1033934" d="M238.627,64.126a18.242,18.242,0,0,0-2.086-.376,13.511,13.511,0,0,0-1.518.123c-.19.008-.366.086-.312-.187C235.587,62.432,238.185,62.549,238.627,64.126Z" transform="translate(-195.164 -10.637)" fill="#35444c"/>
      <path id="Trazado_1033935" data-name="Trazado 1033935" d="M272.772,89.06h-.253c-.025-.04-.214-.089-.249-.19Z" transform="translate(-226.403 -32.286)" fill="#ab1456"/>
    </g>
  </g>
</svg>
