<svg xmlns="http://www.w3.org/2000/svg" xmlns:xlink="http://www.w3.org/1999/xlink" width="108.914" height="108.914" viewBox="0 0 108.914 108.914">
  <defs>
    <filter id="Trazado_874925" x="0" y="0" width="108.914" height="108.914" filterUnits="userSpaceOnUse">
      <feOffset dy="3" input="SourceAlpha"/>
      <feGaussianBlur stdDeviation="3" result="blur"/>
      <feFlood flood-opacity="0.161"/>
      <feComposite operator="in" in2="blur"/>
      <feComposite in="SourceGraphic"/>
    </filter>
  </defs>
  <g id="Grupo_1111712" data-name="Grupo 1111712" transform="translate(-798.427 -2511.157)">
    <g id="Grupo_1109818" data-name="Grupo 1109818" transform="translate(807.427 2517.157)">
      <g transform="matrix(1, 0, 0, 1, -9, -6)" filter="url(#Trazado_874925)">
        <g id="Trazado_874925-2" data-name="Trazado 874925" transform="translate(9 6)" fill="#efdb59" opacity="0.859">
          <path d="M 45.45676803588867 89.41407012939453 C 39.52198028564453 89.41407012939453 33.76551818847656 88.25206756591797 28.34726715087891 85.96034240722656 C 23.11311721801758 83.74648284912109 18.41204261779785 80.57682800292969 14.37464332580566 76.5394287109375 C 10.33724308013916 72.50202941894531 7.167593002319336 67.80095672607422 4.953730583190918 62.56679534912109 C 2.662005424499512 57.14855575561523 1.500005483627319 51.39208221435547 1.500005483627319 45.45729446411133 C 1.500005483627319 39.52198028564453 2.662005424499512 33.76551818847656 4.953730583190918 28.34726905822754 C 7.167593002319336 23.11310577392578 10.33724308013916 18.41203117370605 14.37464332580566 14.37464332580566 C 18.41204261779785 10.33724403381348 23.11311721801758 7.167593955993652 28.34726715087891 4.953731060028076 C 33.76551818847656 2.662006139755249 39.52198028564453 1.500006198883057 45.45676803588867 1.500006198883057 C 51.39155578613281 1.500006198883057 57.14802932739258 2.662006139755249 62.56626892089844 4.953731060028076 C 67.80043029785156 7.167593955993652 72.50150299072266 10.33724403381348 76.53890228271484 14.37464332580566 C 80.57630920410156 18.41203117370605 83.74595642089844 23.11310577392578 85.95981597900391 28.34726905822754 C 88.25154113769531 33.76551818847656 89.41354370117188 39.52198028564453 89.41354370117188 45.45676803588867 C 89.41354370117188 51.39208221435547 88.25154113769531 57.14855575561523 85.95981597900391 62.56679534912109 C 83.74595642089844 67.80095672607422 80.57630920410156 72.50202941894531 76.53890228271484 76.5394287109375 C 72.50150299072266 80.57682800292969 67.80043029785156 83.74648284912109 62.56626892089844 85.96034240722656 C 57.14802932739258 88.25206756591797 51.39155578613281 89.41407012939453 45.45676803588867 89.41407012939453 Z" stroke="none"/>
          <path d="M 45.45676803588867 3 C 39.72381210327148 3 34.1639404296875 4.12213134765625 28.93159484863281 6.335227966308594 C 23.87622833251953 8.473472595214844 19.33542633056641 11.53517150878906 15.43529510498047 15.435302734375 C 11.53517150878906 19.33543395996094 8.473464965820312 23.87622833251953 6.335227966308594 28.93160247802734 C 4.122123718261719 34.16394424438477 3 39.72381591796875 3 45.4572868347168 C 3 51.19024658203125 4.122123718261719 56.75011825561523 6.335227966308594 61.98246002197266 C 8.473464965820312 67.03782653808594 11.53517150878906 71.57862854003906 15.43529510498047 75.478759765625 C 19.33542633056641 79.37889099121094 23.87622833251953 82.44058990478516 28.93159484863281 84.57883453369141 C 34.1639404296875 86.79193115234375 39.72381210327148 87.9140625 45.45676803588867 87.9140625 C 51.18972396850586 87.9140625 56.74959564208984 86.79193115234375 61.98194122314453 84.57883453369141 C 67.03730773925781 82.44058990478516 71.57810974121094 79.37889099121094 75.47824096679688 75.478759765625 C 79.37837219238281 71.57862854003906 82.44007110595703 67.03782653808594 84.57830810546875 61.98246002197266 C 86.79141235351562 56.75011825561523 87.91353607177734 51.19024658203125 87.91353607177734 45.4567756652832 C 87.91353607177734 39.72381591796875 86.79141235351562 34.16394424438477 84.57830810546875 28.93160247802734 C 82.44007110595703 23.87622833251953 79.37837219238281 19.33543395996094 75.47824096679688 15.435302734375 C 71.57810974121094 11.53517150878906 67.03730773925781 8.473472595214844 61.98194122314453 6.335227966308594 C 56.74959564208984 4.12213134765625 51.18972396850586 3 45.45676803588867 3 M 45.45676803588867 0 C 70.56185150146484 0 90.91353607177734 20.35169219970703 90.91353607177734 45.4567756652832 L 90.91353607177734 45.4572868347168 C 90.91353607177734 70.5623779296875 70.56185150146484 90.9140625 45.45676803588867 90.9140625 C 20.3516845703125 90.9140625 0 70.5623779296875 0 45.4572868347168 L 0 45.4567756652832 C 0 20.35169219970703 20.3516845703125 0 45.45676803588867 0 Z" stroke="none" fill="#fff"/>
        </g>
      </g>
      <g id="Trazado_874923" data-name="Trazado 874923" transform="translate(0 0)" fill="none">
        <path d="M45.457,0A45.457,45.457,0,0,1,90.914,45.457h0A45.457,45.457,0,0,1,0,45.457H0A45.457,45.457,0,0,1,45.457,0Z" stroke="none"/>
        <path d="M 45.45676803588867 3 C 39.72381210327148 3 34.1639404296875 4.12213134765625 28.93159484863281 6.335227966308594 C 23.87622833251953 8.473472595214844 19.33542633056641 11.53517150878906 15.43529510498047 15.435302734375 C 11.53517150878906 19.33543395996094 8.473464965820312 23.87622833251953 6.335227966308594 28.93160247802734 C 4.122123718261719 34.16394424438477 3 39.72381591796875 3 45.4572868347168 C 3 51.19024658203125 4.122123718261719 56.75011825561523 6.335227966308594 61.98246002197266 C 8.473464965820312 67.03782653808594 11.53517150878906 71.57862854003906 15.43529510498047 75.478759765625 C 19.33542633056641 79.37889099121094 23.87622833251953 82.44058990478516 28.93159484863281 84.57883453369141 C 34.1639404296875 86.79193115234375 39.72381210327148 87.9140625 45.45676803588867 87.9140625 C 51.18972396850586 87.9140625 56.74959564208984 86.79193115234375 61.98194122314453 84.57883453369141 C 67.03730773925781 82.44058990478516 71.57810974121094 79.37889099121094 75.47824096679688 75.478759765625 C 79.37837219238281 71.57862854003906 82.44007110595703 67.03782653808594 84.57830810546875 61.98246002197266 C 86.79141235351562 56.75011825561523 87.91353607177734 51.19024658203125 87.91353607177734 45.4567756652832 C 87.91353607177734 39.72381591796875 86.79141235351562 34.16394424438477 84.57830810546875 28.93160247802734 C 82.44007110595703 23.87622833251953 79.37837219238281 19.33543395996094 75.47824096679688 15.435302734375 C 71.57810974121094 11.53517150878906 67.03730773925781 8.473472595214844 61.98194122314453 6.335227966308594 C 56.74959564208984 4.12213134765625 51.18972396850586 3 45.45676803588867 3 M 45.45676803588867 0 C 70.56185150146484 0 90.91353607177734 20.35169219970703 90.91353607177734 45.4567756652832 L 90.91353607177734 45.4572868347168 C 90.91353607177734 70.5623779296875 70.56185150146484 90.9140625 45.45676803588867 90.9140625 C 20.3516845703125 90.9140625 0 70.5623779296875 0 45.4572868347168 L 0 45.4567756652832 C 0 20.35169219970703 20.3516845703125 0 45.45676803588867 0 Z" stroke="none" fill="#fff"/>
      </g>
    </g>
    <g id="mascarilla_copia" data-name="mascarilla copia" transform="translate(820.914 2470.976)">
      <path id="Trazado_1033936" data-name="Trazado 1033936" d="M-.025,81.1c1.5-6.961,10.588-7.221,12.456-.37A25.305,25.305,0,0,0,15.9,80.58c5.4-.685,9.25-4.235,14.766-4.608,5.331-.36,7.661,1.358,12.189,3.182a20.77,20.77,0,0,0,8.563,1.575l.2-.082a6.225,6.225,0,0,1,11.678-1.433l.682,2V93.468c-.443,1.153-.49,5.365-2.672,4.233-1.137-.59-.273-2.372-.118-3.335a64.726,64.726,0,0,0,.293-12.339c-.437-5.035-6.978-4.88-7.491-.482-.46,3.941.23,8.788-.008,12.866a21.307,21.307,0,0,1-5,12.181,12.943,12.943,0,0,0,4.253-1.433c.845-.417,2.232-1.717,3.055-.435s-.722,2.015-1.6,2.517a19.358,19.358,0,0,1-7.4,2.227,7.276,7.276,0,0,0-1.318.057c-.325.1-1.652,1.2-2.128,1.5a22.037,22.037,0,0,1-23.8-.05c-.46-.285-1.737-1.35-2.053-1.447-.518-.16-1.748-.1-2.427-.2A18.163,18.163,0,0,1,.968,97.409C.52,96.114.3,94.791-.03,93.47V81.1Zm15,25.5a21.919,21.919,0,0,1-4.485-8.826c-1.188-5.156-.065-10.8-.512-15.988a3.754,3.754,0,0,0-7.5.132,83.547,83.547,0,0,0,0,10.5C2.92,99.264,8.14,105.476,14.974,106.594Zm36.5-23.372a22.366,22.366,0,0,1-6.1-.583c-5.2-1.225-8.236-4.426-14.089-4.171-4.906.213-8.063,3.05-12.6,4.146a22.336,22.336,0,0,1-6.2.608c.245,5.908-.892,11.884,1.643,17.419,6.893,15.053,29.042,14.969,35.788-.173,2.443-5.485,1.318-11.414,1.567-17.246Z" fill="#020202"/>
      <circle id="Elipse_12003" data-name="Elipse 12003" cx="1.287" cy="1.287" r="1.287" transform="translate(58.061 100.309)" fill="#070707"/>
      <path id="Trazado_1033937" data-name="Trazado 1033937" d="M113.755,96.9c-.248,5.831.877,11.761-1.567,17.246-6.746,15.143-28.9,15.226-35.788.173-2.535-5.535-1.4-11.513-1.643-17.419a22.336,22.336,0,0,0,6.2-.608c4.538-1.1,7.7-3.933,12.6-4.146,5.853-.255,8.89,2.947,14.089,4.171a22.373,22.373,0,0,0,6.1.583ZM92.481,98.189a37.621,37.621,0,0,0-10.933,2.442c-.742.343-1.227.733-.982,1.65.458,1.717,3.1.24,4.191-.065,6.555-1.843,11.4-2.077,18.026-.277a35.32,35.32,0,0,0,3.915,1.222,1.257,1.257,0,0,0,.772-2.285,13.281,13.281,0,0,0-2.65-.975,35.033,35.033,0,0,0-12.339-1.71Zm-11.008,8.741a1.253,1.253,0,0,0,.218,2.473h25.13a1.255,1.255,0,0,0,0-2.507l-25.347.032Zm0,6.248a1.282,1.282,0,0,0-.65,2.092c.51.547,4.465,1.62,5.4,1.845a32.427,32.427,0,0,0,16.254-.048c.913-.225,4.708-1.267,5.2-1.8a1.276,1.276,0,0,0-.988-2.125,35.21,35.21,0,0,0-3.915,1.222c-6.621,1.8-11.471,1.567-18.026-.277-.8-.225-2.587-1.043-3.282-.912Z" transform="translate(-62.282 -13.681)" fill="#b2effd"/>
      <path id="Trazado_1033938" data-name="Trazado 1033938" d="M121.454,128.231a35.032,35.032,0,0,1,12.339,1.71,13.281,13.281,0,0,1,2.65.975,1.257,1.257,0,0,1-.772,2.285,35.1,35.1,0,0,1-3.915-1.222c-6.621-1.8-11.471-1.567-18.026.277-1.087.3-3.733,1.782-4.191.065-.245-.917.24-1.307.982-1.65a37.7,37.7,0,0,1,10.933-2.442Z" transform="translate(-91.255 -43.723)" fill="#020303"/>
      <path id="Trazado_1033939" data-name="Trazado 1033939" d="M110.46,218.241c.695-.132,2.48.685,3.282.912,6.555,1.843,11.4,2.077,18.026.277a35.213,35.213,0,0,1,3.915-1.222,1.276,1.276,0,0,1,.988,2.125c-.495.53-4.29,1.573-5.2,1.8a32.465,32.465,0,0,1-16.254.048c-.94-.225-4.895-1.3-5.4-1.845a1.282,1.282,0,0,1,.65-2.092Z" transform="translate(-91.268 -118.743)" fill="#030304"/>
      <path id="Trazado_1033940" data-name="Trazado 1033940" d="M110.443,180.762l25.347-.032a1.255,1.255,0,0,1,0,2.507H110.661a1.253,1.253,0,0,1-.218-2.473Z" transform="translate(-91.252 -87.512)" fill="#000101"/>
    </g>
  </g>
</svg>
