<svg xmlns="http://www.w3.org/2000/svg" xmlns:xlink="http://www.w3.org/1999/xlink" width="108.914" height="108.914" viewBox="0 0 108.914 108.914">
  <defs>
    <filter id="Trazado_874925" x="0" y="0" width="108.914" height="108.914" filterUnits="userSpaceOnUse">
      <feOffset dy="3" input="SourceAlpha"/>
      <feGaussianBlur stdDeviation="3" result="blur"/>
      <feFlood flood-opacity="0.161"/>
      <feComposite operator="in" in2="blur"/>
      <feComposite in="SourceGraphic"/>
    </filter>
  </defs>
  <g id="Grupo_1110030" data-name="Grupo 1110030" transform="translate(-798.427 -2511.157)">
    <g id="Grupo_1109818" data-name="Grupo 1109818" transform="translate(807.427 2517.157)">
      <g transform="matrix(1, 0, 0, 1, -9, -6)" filter="url(#Trazado_874925)">
        <g id="Trazado_874925-2" data-name="Trazado 874925" transform="translate(9 6)" fill="#efdb59" opacity="0.859">
          <path d="M 45.45676803588867 89.41407012939453 C 39.52198028564453 89.41407012939453 33.76551818847656 88.25206756591797 28.34726715087891 85.96034240722656 C 23.11311721801758 83.74648284912109 18.41204261779785 80.57682800292969 14.37464332580566 76.5394287109375 C 10.33724308013916 72.50202941894531 7.167593002319336 67.80095672607422 4.953730583190918 62.56679534912109 C 2.662005424499512 57.14855575561523 1.500005483627319 51.39208221435547 1.500005483627319 45.45729446411133 C 1.500005483627319 39.52198028564453 2.662005424499512 33.76551818847656 4.953730583190918 28.34726905822754 C 7.167593002319336 23.11310577392578 10.33724308013916 18.41203117370605 14.37464332580566 14.37464332580566 C 18.41204261779785 10.33724403381348 23.11311721801758 7.167593955993652 28.34726715087891 4.953731060028076 C 33.76551818847656 2.662006139755249 39.52198028564453 1.500006198883057 45.45676803588867 1.500006198883057 C 51.39155578613281 1.500006198883057 57.14802932739258 2.662006139755249 62.56626892089844 4.953731060028076 C 67.80043029785156 7.167593955993652 72.50150299072266 10.33724403381348 76.53890228271484 14.37464332580566 C 80.57630920410156 18.41203117370605 83.74595642089844 23.11310577392578 85.95981597900391 28.34726905822754 C 88.25154113769531 33.76551818847656 89.41354370117188 39.52198028564453 89.41354370117188 45.45676803588867 C 89.41354370117188 51.39208221435547 88.25154113769531 57.14855575561523 85.95981597900391 62.56679534912109 C 83.74595642089844 67.80095672607422 80.57630920410156 72.50202941894531 76.53890228271484 76.5394287109375 C 72.50150299072266 80.57682800292969 67.80043029785156 83.74648284912109 62.56626892089844 85.96034240722656 C 57.14802932739258 88.25206756591797 51.39155578613281 89.41407012939453 45.45676803588867 89.41407012939453 Z" stroke="none"/>
          <path d="M 45.45676803588867 3 C 39.72381210327148 3 34.1639404296875 4.12213134765625 28.93159484863281 6.335227966308594 C 23.87622833251953 8.473472595214844 19.33542633056641 11.53517150878906 15.43529510498047 15.435302734375 C 11.53517150878906 19.33543395996094 8.473464965820312 23.87622833251953 6.335227966308594 28.93160247802734 C 4.122123718261719 34.16394424438477 3 39.72381591796875 3 45.4572868347168 C 3 51.19024658203125 4.122123718261719 56.75011825561523 6.335227966308594 61.98246002197266 C 8.473464965820312 67.03782653808594 11.53517150878906 71.57862854003906 15.43529510498047 75.478759765625 C 19.33542633056641 79.37889099121094 23.87622833251953 82.44058990478516 28.93159484863281 84.57883453369141 C 34.1639404296875 86.79193115234375 39.72381210327148 87.9140625 45.45676803588867 87.9140625 C 51.18972396850586 87.9140625 56.74959564208984 86.79193115234375 61.98194122314453 84.57883453369141 C 67.03730773925781 82.44058990478516 71.57810974121094 79.37889099121094 75.47824096679688 75.478759765625 C 79.37837219238281 71.57862854003906 82.44007110595703 67.03782653808594 84.57830810546875 61.98246002197266 C 86.79141235351562 56.75011825561523 87.91353607177734 51.19024658203125 87.91353607177734 45.4567756652832 C 87.91353607177734 39.72381591796875 86.79141235351562 34.16394424438477 84.57830810546875 28.93160247802734 C 82.44007110595703 23.87622833251953 79.37837219238281 19.33543395996094 75.47824096679688 15.435302734375 C 71.57810974121094 11.53517150878906 67.03730773925781 8.473472595214844 61.98194122314453 6.335227966308594 C 56.74959564208984 4.12213134765625 51.18972396850586 3 45.45676803588867 3 M 45.45676803588867 0 C 70.56185150146484 0 90.91353607177734 20.35169219970703 90.91353607177734 45.4567756652832 L 90.91353607177734 45.4572868347168 C 90.91353607177734 70.5623779296875 70.56185150146484 90.9140625 45.45676803588867 90.9140625 C 20.3516845703125 90.9140625 0 70.5623779296875 0 45.4572868347168 L 0 45.4567756652832 C 0 20.35169219970703 20.3516845703125 0 45.45676803588867 0 Z" stroke="none" fill="#fff"/>
        </g>
      </g>
      <g id="Trazado_874923" data-name="Trazado 874923" transform="translate(0 0)" fill="none">
        <path d="M45.457,0A45.457,45.457,0,0,1,90.914,45.457h0A45.457,45.457,0,0,1,0,45.457H0A45.457,45.457,0,0,1,45.457,0Z" stroke="none"/>
        <path d="M 45.45676803588867 3 C 39.72381210327148 3 34.1639404296875 4.12213134765625 28.93159484863281 6.335227966308594 C 23.87622833251953 8.473472595214844 19.33542633056641 11.53517150878906 15.43529510498047 15.435302734375 C 11.53517150878906 19.33543395996094 8.473464965820312 23.87622833251953 6.335227966308594 28.93160247802734 C 4.122123718261719 34.16394424438477 3 39.72381591796875 3 45.4572868347168 C 3 51.19024658203125 4.122123718261719 56.75011825561523 6.335227966308594 61.98246002197266 C 8.473464965820312 67.03782653808594 11.53517150878906 71.57862854003906 15.43529510498047 75.478759765625 C 19.33542633056641 79.37889099121094 23.87622833251953 82.44058990478516 28.93159484863281 84.57883453369141 C 34.1639404296875 86.79193115234375 39.72381210327148 87.9140625 45.45676803588867 87.9140625 C 51.18972396850586 87.9140625 56.74959564208984 86.79193115234375 61.98194122314453 84.57883453369141 C 67.03730773925781 82.44058990478516 71.57810974121094 79.37889099121094 75.47824096679688 75.478759765625 C 79.37837219238281 71.57862854003906 82.44007110595703 67.03782653808594 84.57830810546875 61.98246002197266 C 86.79141235351562 56.75011825561523 87.91353607177734 51.19024658203125 87.91353607177734 45.4567756652832 C 87.91353607177734 39.72381591796875 86.79141235351562 34.16394424438477 84.57830810546875 28.93160247802734 C 82.44007110595703 23.87622833251953 79.37837219238281 19.33543395996094 75.47824096679688 15.435302734375 C 71.57810974121094 11.53517150878906 67.03730773925781 8.473472595214844 61.98194122314453 6.335227966308594 C 56.74959564208984 4.12213134765625 51.18972396850586 3 45.45676803588867 3 M 45.45676803588867 0 C 70.56185150146484 0 90.91353607177734 20.35169219970703 90.91353607177734 45.4567756652832 L 90.91353607177734 45.4572868347168 C 90.91353607177734 70.5623779296875 70.56185150146484 90.9140625 45.45676803588867 90.9140625 C 20.3516845703125 90.9140625 0 70.5623779296875 0 45.4572868347168 L 0 45.4567756652832 C 0 20.35169219970703 20.3516845703125 0 45.45676803588867 0 Z" stroke="none" fill="#fff"/>
      </g>
    </g>
    <g id="apothecary_4559986" transform="translate(828.199 2537.88)">
      <path id="Trazado_1033666" data-name="Trazado 1033666" d="M22.8-.009c.63.206,1.318.216,1.964.358A16.278,16.278,0,0,1,37.443,17.454a3.413,3.413,0,0,1,.406,5.686c-1.2.908-2.39.66-3.807.681A12.937,12.937,0,0,1,26.2,34.8a9.3,9.3,0,0,1,4.35,3.9,12.4,12.4,0,0,1,.591,1.474c.043.106-.055.177.164.142a7.5,7.5,0,0,1,2.74-2.338l0-9.061a1.827,1.827,0,0,1,1.611-1.69,23.123,23.123,0,0,1,3.6-.012,2,2,0,0,1,1.289.671,4.345,4.345,0,0,1,.309.516v2.63a7.812,7.812,0,0,1,1.8-.418,1.761,1.761,0,0,1,1.605,1.395,26.565,26.565,0,0,1-.012,4.119c-.117.8-.7.941-1.228,1.4a6.171,6.171,0,0,1,5.208,3.3h2.217A9.877,9.877,0,0,1,43,49.122c-1.976.47-3.986.2-6,.293a3.979,3.979,0,0,1-3.319,1.736,90.412,90.412,0,0,1-9.6.005c-3.9-.2-7.273-2.254-8.406-6.138a23.459,23.459,0,0,1-.305-6.4,5.507,5.507,0,0,1,1.957-3.405,17.147,17.147,0,0,1-4.744-2.836,12.944,12.944,0,0,1-4.023-8.562c-1.736.022-3.188.238-4.386-1.236a3.489,3.489,0,0,1,.858-5.126,17.253,17.253,0,0,1,4.4-12.308c.2-.217,1.151-1.011,1.187-1.082.095-.186-.6-.344-.747-.386A6.355,6.355,0,0,0,2.163,7.363c-1,2.562-.154,8.6.344,11.42.539,3.052,1.622,5.079.124,8.133a5.486,5.486,0,0,0-.879,1.8,3.213,3.213,0,0,0,1.334,3.005c.017.095-.315.457-.406.553-.143.154-.656.66-.824.574A7.493,7.493,0,0,1,.719,31.608,14.643,14.643,0,0,1,0,30.007v-1.65a10.453,10.453,0,0,0,.462-1.137c.26-.532.63-.95.854-1.518C2.37,23.034.7,20.1.531,17.355L0,12.885V8.553A9.742,9.742,0,0,1,1.859,4.585,8.075,8.075,0,0,1,10.29,2.027c.685.193,1.245.534,1.91.733A19.079,19.079,0,0,1,17.182.514L19.6-.01h3.2Zm13,17.02A15,15,0,0,0,33.135,7.86a14.5,14.5,0,0,0-17.526-5,14.666,14.666,0,0,0-8.8,14.15h1.7a13.2,13.2,0,0,1,.729-1.644c1.21-1.844,3.5-1.84,5.3-2.742A6.754,6.754,0,0,1,12.9,9.594l1.631-.413a6.34,6.34,0,0,0,3.724,3.96,8.28,8.28,0,0,0,1.7.466H32.184c-.44-2.963-3.452-3.154-5.871-3.412l.261-1.649c2.357.169,4.583.334,6.178,2.273a6.75,6.75,0,0,1,1.289,2.734v3.455h1.754Zm-3.4-1.65H20.373a12.222,12.222,0,0,1-4.323-1.337c-1.85.884-5.523.923-5.827,3.463a43.435,43.435,0,0,0-.011,6.074c.673,10.423,13.985,14.368,20.094,5.862,3.027-4.214,1.859-9.2,2.082-14.062Zm-23.828,3.4H6.345a3.109,3.109,0,0,0-.664.367,1.8,1.8,0,0,0-.062,2.525,3.064,3.064,0,0,0,.932.512H8.408l.154-.154V18.766Zm27.7,0c-.6-.124-1.571.091-2.217,0v3.4h2.011a3.019,3.019,0,0,0,.932-.512,1.8,1.8,0,0,0,.083-2.349A3.07,3.07,0,0,0,36.257,18.765ZM39.2,28.977h-3.4v8.562c.649-.022,1.12-.8,1.682-1.155a4.76,4.76,0,0,1,1.722-.6v-3.4H37.444V30.628H39.2Zm3.4,3.4a1.7,1.7,0,1,0,0,3.4ZM17.02,43.109l7.255-1.049c.21-.059.169-.275.18-.446a13.53,13.53,0,0,0-.539-3.7,3.6,3.6,0,0,0-6.32-.47,4.6,4.6,0,0,0-.576,1.487ZM29.5,40.84a6.455,6.455,0,0,0-4.383-4.54c-.15.063-.007.2.03.279a7.324,7.324,0,0,1,.714,1.865c.3,1.612.282,3.438.44,5.079l2.373.1a10.2,10.2,0,0,1-.722-2.785H29.5Zm16.608,0a4.577,4.577,0,0,0-2.864-1.624c-.326-.056-.71.033-.985-.047s-1.026-1.1-1.444-1.341a2.517,2.517,0,0,0-2.481.039c-.371.238-1.11,1.224-1.378,1.3s-.659-.01-.985.047a4.577,4.577,0,0,0-2.864,1.624h13Zm2.063,1.754H30.224l.589,1.239c1.605.274,3.81-.094,5.181.882a3.408,3.408,0,0,1,1.45,2.934c2.015-.062,3.989.237,5.935-.41a7.873,7.873,0,0,0,4.793-4.646ZM24.648,43.731l-7.113,1.029A5.683,5.683,0,0,0,19.71,48c3.328,2.617,10.322.9,14.381,1.4a1.81,1.81,0,0,0,0-3.612c-2.628-.4-5.572-.221-8.227-.644a1.79,1.79,0,0,1-1.216-1.417Z" transform="translate(0)" fill="#030302"/>
      <path id="Trazado_1033667" data-name="Trazado 1033667" d="M0,260.241H8.562v1.65H6.808a11.3,11.3,0,0,0,.022,1.371c.067.235.806,1.091,1,1.479a7.186,7.186,0,0,1,.528,1.586c.072.329.058.708.154,1.033l.059-.65-.006-.383c.01-.968-.116-2.308,1.132-2.634a6.939,6.939,0,0,1,3.2.215c1.254.816.466,2.465.752,3.58.067.26.827,1.147,1.025,1.554a12.017,12.017,0,0,1,.708,5.592,2.721,2.721,0,0,1-2.17,2.627H8.769l-1.084-.618-1.289.618H1.96A3.219,3.219,0,0,1,0,275.3v-8.665a11.059,11.059,0,0,0,.531-1.481c.3-.722.943-1.329,1.169-1.822a2.631,2.631,0,0,0-.043-1.4L0,261.89v-1.65Zm5.054,1.65H3.4v2.115c0,.073-.778.836-.949,1.114a5.614,5.614,0,0,0-.69,1.785l.01,8.116a.99.99,0,0,0,.549.483,25.726,25.726,0,0,0,3.713,0,.783.783,0,0,0,.765-.679c-.32-2.942.8-7.419-.877-9.941-.132-.2-.869-.922-.869-.988V261.89Zm6.911,5.158v-1.6l-.154-.154h-1.6v1.754h1.754Zm-2.093,1.672c-.549.16-1.21,1.88-1.285,2.429a25.993,25.993,0,0,0,.028,3.942.882.882,0,0,0,.611.421,35.086,35.086,0,0,0,3.975-.059,1,1,0,0,0,.408-.623,16.326,16.326,0,0,0-.149-4.07c-.109-.436-.734-1.917-1.157-2.041H9.871Z" transform="translate(0 -224.456)" fill="#030303"/>
      <path id="Trazado_1033668" data-name="Trazado 1033668" d="M298.2,33.419c-.744,1.439-2.023,1.128-3.4,1.135.032,1.4.265,3.233-1.594,3.408a25.6,25.6,0,0,1-3.718,0c-1.806-.2-1.5-2.071-1.5-3.405-1.538,0-3.258.337-3.41-1.7a25.769,25.769,0,0,1,0-3.614c.2-1.745,2.1-1.531,3.4-1.5-.012-1.22-.285-3.057,1.312-3.381a24.681,24.681,0,0,1,3.9-.023c1.872.21,1.617,1.985,1.6,3.405,1.384,0,2.894-.29,3.4,1.341V33.42Zm-5.158-7.324h-3.4v3.4h-3.4v3.249l.154.154h3.249V36.15l.154.154h3.249V32.9h3.4V29.5H293.2l-.154-.154V26.094Z" transform="translate(-245.389 -20.946)" fill="#040302"/>
      <path id="Trazado_1033671" data-name="Trazado 1033671" d="M13.321,53.777c.091-.1.422-.458.406-.553a3.215,3.215,0,0,1-1.334-3.005,5.5,5.5,0,0,1,.879-1.8c1.5-3.052.415-5.081-.124-8.133-.5-2.824-1.348-8.857-.344-11.42a6.353,6.353,0,0,1,7.714-3.686c.147.043.842.2.747.386-.037.072-.989.866-1.187,1.082a17.261,17.261,0,0,0-4.4,12.308,3.488,3.488,0,0,0-.858,5.126c1.2,1.474,2.65,1.257,4.386,1.236a12.935,12.935,0,0,0,4.023,8.562l-9.9-.1Z" transform="translate(-10.639 -21.499)" fill="#b07846"/>
      <path id="Trazado_1033672" data-name="Trazado 1033672" d="M331.9,198v1.754h1.65v1.65H331.9v1.754H330.15V201.4H328.5v-1.65h1.65V198Z" transform="translate(-283.319 -170.776)" fill="#040404"/>
      <path id="Trazado_1033673" data-name="Trazado 1033673" d="M319.154,136.5v1.65h1.754V139.9h-1.754v1.65H317.5V139.9H315.75V138.15H317.5V136.5Z" transform="translate(-272.323 -117.735)" fill="#040404"/>
      <path id="Trazado_1033675" data-name="Trazado 1033675" d="M95.8,103.367c-.224,4.865.945,9.848-2.082,14.062-6.109,8.507-19.422,4.561-20.094-5.862a43.435,43.435,0,0,1,.011-6.074c.3-2.54,3.978-2.579,5.827-3.463a12.222,12.222,0,0,0,4.323,1.337H95.8Zm-13.616,5.054a3.4,3.4,0,0,0-6.808,0h1.65a1.7,1.7,0,0,1,3.4,0Zm11.863,0a3.4,3.4,0,0,0-6.808,0H88.99a1.7,1.7,0,0,1,3.4,0ZM89.2,113.579H80.222c.422,2.448,1.294,4.884,4.173,5.059C87.572,118.831,88.784,116.3,89.2,113.579Z" transform="translate(-63.408 -88.006)" fill="#eeceb2"/>
      <path id="Trazado_1033676" data-name="Trazado 1033676" d="M78.373,27.793H76.62V24.338A6.723,6.723,0,0,0,75.331,21.6c-1.6-1.939-3.822-2.1-6.178-2.273l-.261,1.649c2.419.259,5.431.45,5.871,3.412H62.539a8.28,8.28,0,0,1-1.7-.466,6.337,6.337,0,0,1-3.724-3.96l-1.631.413a6.754,6.754,0,0,0,1.641,3.031c-1.806.9-4.094.9-5.3,2.742A13.2,13.2,0,0,0,51.09,27.8h-1.7a14.668,14.668,0,0,1,8.8-14.15,14.5,14.5,0,0,1,17.525,5A14.99,14.99,0,0,1,78.372,27.8Z" transform="translate(-42.579 -10.782)" fill="#b07845"/>
      <path id="Trazado_1033677" data-name="Trazado 1033677" d="M134.6,318.02a1.8,1.8,0,0,0,1.216,1.417c2.656.422,5.6.239,8.227.644a1.81,1.81,0,0,1,0,3.612c-4.06-.5-11.052,1.216-14.381-1.4a5.683,5.683,0,0,1-2.176-3.24l7.113-1.029Z" transform="translate(-109.955 -274.289)" fill="#eeceb2"/>
      <path id="Trazado_1033678" data-name="Trazado 1033678" d="M237.707,309.75a7.873,7.873,0,0,1-4.793,4.646c-1.948.646-3.92.348-5.935.41a3.408,3.408,0,0,0-1.45-2.934c-1.371-.975-3.576-.609-5.181-.882l-.589-1.239h17.949Z" transform="translate(-189.535 -267.157)" fill="#cacfd7"/>
      <path id="Trazado_1033679" data-name="Trazado 1033679" d="M123.75,267.544v-4.178a4.584,4.584,0,0,1,.576-1.487,3.6,3.6,0,0,1,6.32.47,13.53,13.53,0,0,1,.539,3.7c-.011.169.03.385-.18.446Z" transform="translate(-106.73 -224.435)" fill="#b2da7e"/>
      <path id="Trazado_1033680" data-name="Trazado 1033680" d="M253.747,276.172h-13a4.58,4.58,0,0,1,2.864-1.624c.326-.056.71.033.985-.047s1.007-1.066,1.378-1.3a2.517,2.517,0,0,1,2.481-.039c.417.245,1.166,1.26,1.444,1.341s.659-.01.985.047a4.577,4.577,0,0,1,2.864,1.624Z" transform="translate(-207.638 -235.332)" fill="#cd9c75"/>
      <path id="Trazado_1033681" data-name="Trazado 1033681" d="M263.654,210.75v1.65H261.9v1.754h1.754v3.4a4.777,4.777,0,0,0-1.722.6c-.563.351-1.033,1.133-1.682,1.155V210.75Z" transform="translate(-224.456 -181.773)" fill="#cacfd7"/>
      <path id="Trazado_1033682" data-name="Trazado 1033682" d="M186.605,268.53h-1.547a10.23,10.23,0,0,0,.722,2.785l-2.372-.1c-.158-1.641-.144-3.467-.44-5.079a7.323,7.323,0,0,0-.714-1.865c-.037-.084-.179-.216-.03-.279a6.455,6.455,0,0,1,4.383,4.54Z" transform="translate(-157.104 -227.69)" fill="#b1d97d"/>
      <path id="Trazado_1033683" data-name="Trazado 1033683" d="M40.746,136.491v3.249l-.154.154H38.735a3.035,3.035,0,0,1-.932-.512,1.8,1.8,0,0,1,.062-2.525,3.109,3.109,0,0,1,.664-.367h2.217Z" transform="translate(-32.184 -117.726)" fill="#e9caaf"/>
      <path id="Trazado_1033684" data-name="Trazado 1033684" d="M249.717,136.252a3.071,3.071,0,0,1,.809.543,1.8,1.8,0,0,1-.083,2.349,2.975,2.975,0,0,1-.932.512H247.5v-3.4C248.148,136.343,249.117,136.128,249.717,136.252Z" transform="translate(-213.46 -117.487)" fill="#eacbb0"/>
      <path id="Trazado_1033685" data-name="Trazado 1033685" d="M299.044,235.5v3.4A1.7,1.7,0,1,1,299.044,235.5Z" transform="translate(-256.442 -203.119)" fill="#e9caaf"/>
      <path id="Trazado_1033686" data-name="Trazado 1033686" d="M16.12,272.25v2.011c0,.066.737.788.869.988,1.682,2.522.557,7,.877,9.941a.786.786,0,0,1-.765.679,25.722,25.722,0,0,1-3.713,0,1,1,0,0,1-.549-.483l-.01-8.116a5.706,5.706,0,0,1,.69-1.785c.171-.278.949-1.041.949-1.114v-2.115h1.65Z" transform="translate(-11.065 -234.814)" fill="#fad56f"/>
      <path id="Trazado_1033687" data-name="Trazado 1033687" d="M63.357,321.91H65.79c.422.124,1.048,1.605,1.157,2.041a16.392,16.392,0,0,1,.149,4.07.993.993,0,0,1-.408.623,35.1,35.1,0,0,1-3.975.059.873.873,0,0,1-.611-.421,26.175,26.175,0,0,1-.028-3.942c.074-.549.734-2.269,1.285-2.429Z" transform="translate(-53.484 -277.644)" fill="#e4e7eb"/>
      <path id="Trazado_1033688" data-name="Trazado 1033688" d="M76,298.754H74.25V297h1.6l.154.154Z" transform="translate(-64.038 -256.16)" fill="#c0c5cd"/>
      <path id="Trazado_1033689" data-name="Trazado 1033689" d="M303.808,37.5v3.249l.154.155h3.25v3.4h-3.4v3.4h-3.249l-.155-.155V44.308h-3.25L297,44.154V40.9h3.4V37.5Z" transform="translate(-256.152 -32.351)" fill="#fa806c"/>
      <path id="Trazado_1033690" data-name="Trazado 1033690" d="M131.224,186c-.413,2.725-1.623,5.253-4.8,5.059-2.879-.176-3.751-2.61-4.173-5.059Zm-2.166,1.65h-4.642A2.422,2.422,0,0,0,129.058,187.65Z" transform="translate(-105.436 -160.427)" fill="#020201"/>
      <path id="Trazado_1033691" data-name="Trazado 1033691" d="M180.058,127.348h-1.65a1.7,1.7,0,0,0-3.4,0H173.25A3.4,3.4,0,0,1,180.058,127.348Z" transform="translate(-149.422 -106.933)" fill="#040303"/>
      <path id="Trazado_1033692" data-name="Trazado 1033692" d="M93.808,127.358H92.054a1.7,1.7,0,0,0-3.4,0H87A3.4,3.4,0,0,1,93.808,127.358Z" transform="translate(-75.034 -106.942)" fill="#040303"/>
      <path id="Trazado_1033693" data-name="Trazado 1033693" d="M142.642,198A2.422,2.422,0,0,1,138,198Z" transform="translate(-119.02 -170.776)" fill="#f57d6a"/>
    </g>
  </g>
</svg>
