<svg xmlns="http://www.w3.org/2000/svg" width="87.187" height="87.187" viewBox="0 0 87.187 87.187">
  <g id="food_16214736" transform="translate(0.001 0.001)">
    <path id="Trazado_897072" data-name="Trazado 897072" d="M18.623,53.724H15.9v-14a22.022,22.022,0,0,0-9.713,5.531A15.122,15.122,0,0,0,5,46.559V71.433H29.534V53.724Z" transform="translate(1.812 14.389)" fill="#636a74"/>
    <path id="Trazado_897073" data-name="Trazado 897073" d="M41.01,44.74V69.615h5.449V59.139A24.183,24.183,0,0,0,41.01,44.74Z" transform="translate(14.856 16.208)" fill="#e6ecf4"/>
    <path id="Trazado_897074" data-name="Trazado 897074" d="M33.912,53.724h2.725v-14a22.022,22.022,0,0,1,9.713,5.531,15.122,15.122,0,0,1,1.185,1.308V71.433H23V53.724Z" transform="translate(8.332 14.389)" fill="#636a74"/>
    <path id="Trazado_897075" data-name="Trazado 897075" d="M40.663,16.335V29.372a7.4,7.4,0,0,1-7.4,7.4H30.65a22.963,22.963,0,0,0,4.673-14.3A25.418,25.418,0,0,0,34.219,15h6.389c.041.436.054.885.054,1.335Z" transform="translate(11.103 5.434)" fill="#ffbc1c"/>
    <path id="Trazado_897076" data-name="Trazado 897076" d="M44.521,7.157V20.072H20V1L41.115,3.343A3.835,3.835,0,0,1,44.521,7.157Z" transform="translate(7.245 0.363)" fill="#e6ecf4"/>
    <path id="Trazado_897077" data-name="Trazado 897077" d="M24.347,1V20.072H8V6.967a3.819,3.819,0,0,1,3.2-3.773Z" transform="translate(2.898 0.363)" fill="#d8e0eb"/>
    <path id="Trazado_897078" data-name="Trazado 897078" d="M18.122,36.769H15.4a7.4,7.4,0,0,1-7.4-7.4V16.335c0-.45.014-.9.054-1.335h6.512a24.975,24.975,0,0,0-1.117,7.465,22.962,22.962,0,0,0,4.673,14.3Z" transform="translate(2.898 5.434)" fill="#ffbc1c"/>
    <path id="Trazado_897079" data-name="Trazado 897079" d="M40.976,15a25.418,25.418,0,0,1,1.1,7.465,22.962,22.962,0,0,1-4.673,14.3,15.439,15.439,0,0,1-3.61,3.338,11.885,11.885,0,0,1-13.623-.068,15.229,15.229,0,0,1-3.5-3.269A22.962,22.962,0,0,1,12,22.465,24.975,24.975,0,0,1,13.118,15Z" transform="translate(4.346 5.434)" fill="#efc5b8"/>
    <path id="Trazado_897080" data-name="Trazado 897080" d="M33.014,50a13.706,13.706,0,0,0,3.76,8.787,15.214,15.214,0,0,0,4.591,3.31,18,18,0,0,0,18.677-2.629,5.277,5.277,0,0,1,2.248-1.2,2.108,2.108,0,0,1,.422-.082,7.939,7.939,0,0,1,2.6-.027,7.856,7.856,0,0,0,6.062-1.58,5.819,5.819,0,0,0,.559-.5,6.448,6.448,0,0,0,1.934-4.632v4.209a6.619,6.619,0,0,1-1.921,4.591c-.218.2-.381.354-.572.5A7.825,7.825,0,0,1,65.326,62.3a8.018,8.018,0,0,0-2.616.027c-.136.014-.286.055-.422.068a5.866,5.866,0,0,0-2.248,1.2,18.555,18.555,0,0,1-11.634,4.114A16.769,16.769,0,0,1,41.351,66.2a15.008,15.008,0,0,1-4.577-3.283A14.729,14.729,0,0,1,33,53.61c0-.014.014-.245.014-.531,0-.45-.014-.913-.014-.926V50Z" transform="translate(11.955 18.113)" fill="#f3445a"/>
    <path id="Trazado_897081" data-name="Trazado 897081" d="M65.379,54.256a2.155,2.155,0,0,1,.054.518,2.12,2.12,0,0,1-.627,1.526,2.438,2.438,0,0,1-.2.191,3.186,3.186,0,0,1-2.043.681,4.041,4.041,0,0,1-.572-.041,12.88,12.88,0,0,0-1.921-.136,13.574,13.574,0,0,0-2.22.191,6.931,6.931,0,0,0-.695.136,10.108,10.108,0,0,0-4.264,2.207,13.63,13.63,0,0,1-3.528,2.111c-1.444-3.256-2.915-6.525-4.359-9.781,1.635-3.583,3.3-7.165,4.931-10.748A18.349,18.349,0,0,1,60.421,45.7a16.2,16.2,0,0,1,4.959,8.555Z" transform="translate(16.302 14.893)" fill="#f3445a"/>
    <path id="Trazado_897082" data-name="Trazado 897082" d="M50.944,41.014a17.74,17.74,0,0,1,2.248.136c-1.635,3.583-3.3,7.165-4.931,10.748-3.951,1.2-7.887,2.384-11.838,3.583A9.817,9.817,0,0,1,36,52.661a10.352,10.352,0,0,1,2.384-6.525,13.406,13.406,0,0,1,2.18-2.125A15.322,15.322,0,0,1,49.772,41c.2,0,.695.014.695.014Z" transform="translate(13.041 14.853)" fill="#ff7885"/>
    <path id="Trazado_897083" data-name="Trazado 897083" d="M52.507,58.781A13.862,13.862,0,0,1,47.072,59.9a12.408,12.408,0,0,1-5.245-1.131,10.956,10.956,0,0,1-3.31-2.411,9.819,9.819,0,0,1-2.207-3.773C40.261,51.384,44.2,50.2,48.148,49c1.444,3.256,2.915,6.525,4.359,9.781Z" transform="translate(13.154 17.751)" fill="#e2394d"/>
    <path id="Trazado_897084" data-name="Trazado 897084" d="M31.623,33.448v7.588c-.027.1-.041.191-.068.272a6.99,6.99,0,0,1-13.486,0c-.027-.082-.041-.177-.068-.272V33.38a11.885,11.885,0,0,0,13.623.068Z" transform="translate(6.521 12.092)" fill="#e5b6a9"/>
    <path id="Trazado_897085" data-name="Trazado 897085" d="M36.619,39.913v.014c-2.738,2.874-5.449,5.735-8.174,8.609L23.01,44.422a6.859,6.859,0,0,0,6.73-5.149c.027-.082.041-.177.068-.272A26.237,26.237,0,0,1,36.619,39.913Z" transform="translate(8.336 14.128)" fill="#636a74"/>
    <path id="Trazado_897086" data-name="Trazado 897086" d="M26.618,44.422c-1.825,1.376-3.637,2.738-5.463,4.114-2.711-2.861-5.395-5.708-8.105-8.569A25.539,25.539,0,0,1,19.793,39c.027.1.041.191.068.272a6.883,6.883,0,0,0,6.757,5.149Z" transform="translate(4.728 14.128)" fill="#636a74"/>
    <path id="Trazado_897087" data-name="Trazado 897087" d="M69.781,55.9a2.154,2.154,0,0,0-.054-.518,16.2,16.2,0,0,0-4.959-8.555,18.349,18.349,0,0,0-10.489-4.591,17.743,17.743,0,0,0-2.248-.136h-.477s-.49-.014-.695-.014A15.322,15.322,0,0,0,41.65,45.1a13.406,13.406,0,0,0-2.18,2.125,10.352,10.352,0,0,0-2.384,6.525,9.555,9.555,0,0,0,2.629,6.593,10.956,10.956,0,0,0,3.31,2.411,12.408,12.408,0,0,0,5.245,1.131,13.862,13.862,0,0,0,5.435-1.117,13.63,13.63,0,0,0,3.528-2.111A10.108,10.108,0,0,1,61.5,58.448a6.93,6.93,0,0,1,.695-.136,13.574,13.574,0,0,1,2.22-.191,12.881,12.881,0,0,1,1.921.136,4.042,4.042,0,0,0,.572.041,3.186,3.186,0,0,0,2.043-.681,2.437,2.437,0,0,0,.2-.191,2.12,2.12,0,0,0,.627-1.526ZM33,53.721a14.372,14.372,0,0,1,3.338-9.113,16.5,16.5,0,0,1,2.043-2.1c.259-.232.531-.45.817-.668a19.672,19.672,0,0,1,12.451-3.828,23.335,23.335,0,0,1,15.87,5.735A20.042,20.042,0,0,1,73.7,54.334a6.551,6.551,0,0,1,.163,1.458,6.448,6.448,0,0,1-1.934,4.632,5.82,5.82,0,0,1-.559.5,7.856,7.856,0,0,1-6.062,1.58,7.939,7.939,0,0,0-2.6.027,2.108,2.108,0,0,0-.422.082,5.278,5.278,0,0,0-2.248,1.2,18,18,0,0,1-18.677,2.629,15.214,15.214,0,0,1-4.591-3.31,13.707,13.707,0,0,1-3.76-8.787C33,54.17,33,54.007,33,53.83Z" transform="translate(11.955 13.766)" fill="#ff5666"/>
    <g id="Grupo_1109745" data-name="Grupo 1109745" transform="translate(1.363 54.055)">
      <path id="Trazado_897088" data-name="Trazado 897088" d="M40.245,53.221v.518H13v-14a.123.123,0,0,1,.068-.014c2.711,2.861,5.395,5.708,8.105,8.569,1.825-1.376,3.637-2.738,5.463-4.114l5.435,4.114c2.725-2.874,5.435-5.735,8.174-8.609Z" transform="translate(3.347 -39.68)" fill="#e6ecf4"/>
      <path id="Trazado_897089" data-name="Trazado 897089" d="M6.449,44.74V69.615H1V59.139A24.183,24.183,0,0,1,6.449,44.74Z" transform="translate(-1 -37.847)" fill="#e6ecf4"/>
      <path id="Trazado_897090" data-name="Trazado 897090" d="M9,54H22.623v9.536H9Z" transform="translate(1.898 -34.493)" fill="#e6ecf4"/>
    </g>
    <path id="Trazado_897091" data-name="Trazado 897091" d="M49.23,21.795H8.362A1.361,1.361,0,0,1,7,20.433V7.332a5.18,5.18,0,0,1,4.34-5.124L24.455.023A1.42,1.42,0,0,1,24.833,0a.138.138,0,0,0,.029,0L45.971,2.352a5.19,5.19,0,0,1,4.622,5.163V20.433a1.361,1.361,0,0,1-1.362,1.362ZM26.072,19.07h21.8V7.515a2.467,2.467,0,0,0-2.2-2.454l-19.6-2.178Zm-16.347,0H23.347V2.97L11.788,4.895A2.464,2.464,0,0,0,9.725,7.332Z" transform="translate(2.536 0)"/>
    <path id="Trazado_897092" data-name="Trazado 897092" d="M18.483,38.493H15.759A8.77,8.77,0,0,1,7,29.734V16.7c0-.492.016-.984.061-1.462a1.362,1.362,0,1,1,2.711.255c-.037.4-.048.8-.048,1.207V29.734a6.041,6.041,0,0,0,6.034,6.034h2.725a1.362,1.362,0,1,1,0,2.725Z" transform="translate(2.536 5.072)"/>
    <path id="Trazado_897093" data-name="Trazado 897093" d="M33.627,38.493H31.012a1.362,1.362,0,1,1,0-2.725h2.615a6.042,6.042,0,0,0,6.036-6.034V16.7c0-.408-.013-.814-.049-1.211a1.363,1.363,0,1,1,2.714-.247c.044.476.06.967.06,1.458V29.734A8.77,8.77,0,0,1,33.627,38.493Z" transform="translate(10.741 5.072)"/>
    <path id="Trazado_897094" data-name="Trazado 897094" d="M27.4,43.942a13.342,13.342,0,0,1-7.633-2.416,16.573,16.573,0,0,1-3.8-3.551A24.186,24.186,0,0,1,11,22.827a26.287,26.287,0,0,1,1.179-7.872,1.362,1.362,0,1,1,2.6.814,23.608,23.608,0,0,0-1.054,7.057A21.768,21.768,0,0,0,18.1,36.278a13.883,13.883,0,0,0,3.191,2.987,10.555,10.555,0,0,0,12.11.073,14.058,14.058,0,0,0,3.3-3.054A21.771,21.771,0,0,0,41.08,22.827a23.94,23.94,0,0,0-1.044-7.063,1.363,1.363,0,0,1,2.6-.8A26.73,26.73,0,0,1,43.8,22.827a24.2,24.2,0,0,1-4.973,15.156A16.726,16.726,0,0,1,34.9,41.609a13.46,13.46,0,0,1-7.5,2.333Z" transform="translate(3.984 5.072)"/>
    <path id="Trazado_897095" data-name="Trazado 897095" d="M25.15,48.183a8.244,8.244,0,0,1-8.034-6.155,1.977,1.977,0,0,1-.054-.216A2.723,2.723,0,0,1,17,41.4V33.744a1.362,1.362,0,0,1,2.725,0v7.494a5.579,5.579,0,0,0,5.432,4.221h.025A5.476,5.476,0,0,0,30.6,41.318l.023-.088V33.812a1.362,1.362,0,0,1,2.725,0V41.4a1.372,1.372,0,0,1-.054.382,2.662,2.662,0,0,1-.089.334,8.2,8.2,0,0,1-8.017,6.069Z" transform="translate(6.159 11.731)"/>
    <path id="Trazado_897096" data-name="Trazado 897096" d="M21.522,50.018a1.356,1.356,0,0,1-.988-.426l-8.119-8.582a1.362,1.362,0,1,1,1.977-1.873l7.284,7.7,4.49-3.382a1.365,1.365,0,0,1,1.642,0l4.463,3.378L39.605,39.1a1.362,1.362,0,0,1,1.977,1.873l-8.174,8.624a1.362,1.362,0,0,1-1.811.149L26.982,46.25l-4.64,3.495a1.359,1.359,0,0,1-.819.274Z" transform="translate(4.362 14.009)"/>
    <path id="Trazado_897097" data-name="Trazado 897097" d="M1.363,73.414A1.361,1.361,0,0,1,0,72.052V63.217c0-.976,0-1.469,0-1.65A25.238,25.238,0,0,1,7.039,44.9,25.43,25.43,0,0,1,24.513,38h.008a1.362,1.362,0,1,1,.008,2.725A22.681,22.681,0,0,0,8.957,46.838,22.509,22.509,0,0,0,2.725,61.592c0,.181,0,.665,0,1.623v8.837a1.362,1.362,0,0,1-1.362,1.362Z" transform="translate(0 13.766)"/>
    <path id="Trazado_897098" data-name="Trazado 897098" d="M40.622,55.449H13.363A1.361,1.361,0,0,1,12,54.087v-14a1.362,1.362,0,0,1,2.725,0V52.725H40.608a1.362,1.362,0,1,1,.013,2.725Z" transform="translate(4.348 14.027)"/>
    <path id="Trazado_897099" data-name="Trazado 897099" d="M33.363,55.466A1.361,1.361,0,0,1,32,54.1V40.046a1.362,1.362,0,1,1,2.725-.015V54.1a1.361,1.361,0,0,1-1.362,1.362Z" transform="translate(11.593 14.011)"/>
    <path id="Trazado_897100" data-name="Trazado 897100" d="M48.762,69.691a17.942,17.942,0,0,1-7.617-1.652,16.4,16.4,0,0,1-5-3.609A15.036,15.036,0,0,1,32,54.085h0a15.8,15.8,0,0,1,3.64-9.985,18.7,18.7,0,0,1,3.1-2.981,21.027,21.027,0,0,1,13.319-4.1A24.69,24.69,0,0,1,68.79,43.1,21.411,21.411,0,0,1,75.4,54.408a8.118,8.118,0,0,1,.19,1.745,7.843,7.843,0,0,1-2.331,5.6,8.7,8.7,0,0,1-.664.6,9.162,9.162,0,0,1-7.111,1.86,7.224,7.224,0,0,0-2.188.024c-.12.02-.239.044-.355.069a4.177,4.177,0,0,0-1.676.921,19.79,19.79,0,0,1-12.5,4.466Zm2.594-29.964a18.247,18.247,0,0,0-10.963,3.559,15.839,15.839,0,0,0-2.647,2.544,13.062,13.062,0,0,0-3.02,8.255,12.315,12.315,0,0,0,3.4,8.476A13.655,13.655,0,0,0,42.3,65.571a16.581,16.581,0,0,0,17.233-2.448,6.828,6.828,0,0,1,2.828-1.481c.161-.035.321-.066.484-.094a9.915,9.915,0,0,1,3.028-.033,6.448,6.448,0,0,0,5.009-1.281,6.086,6.086,0,0,0,.46-.416,5.138,5.138,0,0,0,1.523-3.664A5.371,5.371,0,0,0,72.739,55a18.7,18.7,0,0,0-5.774-9.88A22,22,0,0,0,52.032,39.74c-.2-.008-.424-.013-.676-.013Z" transform="translate(11.593 13.404)"/>
    <path id="Trazado_897101" data-name="Trazado 897101" d="M47.543,64.522a13.717,13.717,0,0,1-5.831-1.266,12.216,12.216,0,0,1-3.717-2.706A10.989,10.989,0,0,1,35,53.025a11.77,11.77,0,0,1,2.687-7.4A14.642,14.642,0,0,1,40.1,43.3,16.64,16.64,0,0,1,50.138,40c.215,0,.73.017.73.017l.422-.008a20.332,20.332,0,0,1,13.67,5.083,17.6,17.6,0,0,1,5.372,9.271,3.98,3.98,0,0,1,.086.806,3.5,3.5,0,0,1-1.027,2.494,3.194,3.194,0,0,1-.318.293,4.723,4.723,0,0,1-3.658.925,11.905,11.905,0,0,0-3.72.043c-.2.033-.408.072-.612.12a8.844,8.844,0,0,0-3.7,1.928,15.63,15.63,0,0,1-9.838,3.549Zm2.6-21.8a13.9,13.9,0,0,0-8.38,2.732,11.908,11.908,0,0,0-1.958,1.9,9.032,9.032,0,0,0-2.073,5.671,8.277,8.277,0,0,0,2.258,5.665,9.476,9.476,0,0,0,2.891,2.1A10.97,10.97,0,0,0,47.543,61.8a12.859,12.859,0,0,0,8.1-2.92,11.523,11.523,0,0,1,4.84-2.489c.245-.057.515-.109.766-.15a14.555,14.555,0,0,1,4.566-.051,2.009,2.009,0,0,0,1.546-.345l.109-.1a.756.756,0,0,0,.229-.568,1.209,1.209,0,0,0-.025-.234,14.882,14.882,0,0,0-4.543-7.829,17.6,17.6,0,0,0-11.817-4.373l-.467.007c-.067,0-.515-.016-.7-.016Z" transform="translate(12.68 14.491)"/>
    <path id="Trazado_897102" data-name="Trazado 897102" d="M36.673,57.168a1.362,1.362,0,0,1-.4-2.666L47.528,51.1q1.1-2.409,2.211-4.817,1.235-2.686,2.464-5.371a1.363,1.363,0,0,1,2.48,1.131q-1.227,2.69-2.468,5.379t-2.464,5.369a1.367,1.367,0,0,1-.843.738L37.069,57.109A1.377,1.377,0,0,1,36.673,57.168Z" transform="translate(12.792 14.531)"/>
    <path id="Trazado_897103" data-name="Trazado 897103" d="M49.724,60.507a1.362,1.362,0,0,1-1.246-.81q-1.05-2.367-2.113-4.739-1.127-2.524-2.247-5.043a1.362,1.362,0,1,1,2.49-1.1q1.115,2.514,2.244,5.035,1.062,2.375,2.115,4.747a1.362,1.362,0,0,1-1.244,1.914Z" transform="translate(15.94 17.389)"/>
    <path id="Trazado_897104" data-name="Trazado 897104" d="M48.764,69.566a18.085,18.085,0,0,1-7.619-1.638A15.476,15.476,0,0,1,32,54.094l.008-.535c0-.387-.005-.8-.007-.866V49.987a1.362,1.362,0,1,1,2.725,0V52.64c0,.023.011.495.008.939l-.008.5a13.367,13.367,0,0,0,3.4,8.4,13.51,13.51,0,0,0,4.163,2.975,16.732,16.732,0,0,0,17.244-2.415,6.978,6.978,0,0,1,2.816-1.469l.208-.04c.1-.021.21-.041.317-.057a9.556,9.556,0,0,1,3.011-.023,6.475,6.475,0,0,0,5-1.273c.16-.128.3-.254.472-.414a5.252,5.252,0,0,0,1.506-3.654c0-.088,0-.571,0-1.455l0-2.9a1.362,1.362,0,0,1,2.725,0l0,2.895c0,1.564,0,1.564-.012,1.667a7.879,7.879,0,0,1-2.355,5.43c-.261.238-.444.4-.643.56A9.255,9.255,0,0,1,65.49,64.15a6.9,6.9,0,0,0-2.188.017l-.416.076a4.383,4.383,0,0,0-1.628.91,19.927,19.927,0,0,1-12.493,4.413Z" transform="translate(11.593 17.615)"/>
    <path id="Trazado_897105" data-name="Trazado 897105" d="M40.554,43.873a1.356,1.356,0,0,1-.682-.184,20.759,20.759,0,0,0-3.77-1.7q-.048-.016-.1-.036a25.117,25.117,0,0,0-7.643-1.228,1.362,1.362,0,1,1,0-2.725,27.465,27.465,0,0,1,8.578,1.393c.036.012.071.025.105.04a23.377,23.377,0,0,1,4.193,1.9,1.362,1.362,0,0,1-.685,2.541Z" transform="translate(9.782 13.766)"/>
    <path id="Trazado_897106" data-name="Trazado 897106" d="M5.363,71.34A1.361,1.361,0,0,1,4,69.978V45.1a1.362,1.362,0,1,1,2.725,0V69.978A1.361,1.361,0,0,1,5.363,71.34Z" transform="translate(1.45 15.846)"/>
    <path id="Trazado_897107" data-name="Trazado 897107" d="M22.986,65.261H9.363A1.361,1.361,0,0,1,8,63.9V54.363A1.361,1.361,0,0,1,9.363,53H22.986a1.361,1.361,0,0,1,1.362,1.362V63.9a1.361,1.361,0,0,1-1.362,1.362Zm-12.26-2.725h10.9V55.726h-10.9Z" transform="translate(2.899 19.2)"/>
  </g>
</svg>
