<svg xmlns="http://www.w3.org/2000/svg" xmlns:xlink="http://www.w3.org/1999/xlink" width="108.914" height="108.914" viewBox="0 0 108.914 108.914">
  <defs>
    <filter id="Trazado_874925" x="0" y="0" width="108.914" height="108.914" filterUnits="userSpaceOnUse">
      <feOffset dy="3" input="SourceAlpha"/>
      <feGaussianBlur stdDeviation="3" result="blur"/>
      <feFlood flood-opacity="0.161"/>
      <feComposite operator="in" in2="blur"/>
      <feComposite in="SourceGraphic"/>
    </filter>
  </defs>
  <g id="Grupo_1111713" data-name="Grupo 1111713" transform="translate(-798.427 -2511.157)">
    <g id="Grupo_1109818" data-name="Grupo 1109818" transform="translate(807.427 2517.157)">
      <g transform="matrix(1, 0, 0, 1, -9, -6)" filter="url(#Trazado_874925)">
        <g id="Trazado_874925-2" data-name="Trazado 874925" transform="translate(9 6)" fill="#efdb59" opacity="0.859">
          <path d="M 45.45676803588867 89.41407012939453 C 39.52198028564453 89.41407012939453 33.76551818847656 88.25206756591797 28.34726715087891 85.96034240722656 C 23.11311721801758 83.74648284912109 18.41204261779785 80.57682800292969 14.37464332580566 76.5394287109375 C 10.33724308013916 72.50202941894531 7.167593002319336 67.80095672607422 4.953730583190918 62.56679534912109 C 2.662005424499512 57.14855575561523 1.500005483627319 51.39208221435547 1.500005483627319 45.45729446411133 C 1.500005483627319 39.52198028564453 2.662005424499512 33.76551818847656 4.953730583190918 28.34726905822754 C 7.167593002319336 23.11310577392578 10.33724308013916 18.41203117370605 14.37464332580566 14.37464332580566 C 18.41204261779785 10.33724403381348 23.11311721801758 7.167593955993652 28.34726715087891 4.953731060028076 C 33.76551818847656 2.662006139755249 39.52198028564453 1.500006198883057 45.45676803588867 1.500006198883057 C 51.39155578613281 1.500006198883057 57.14802932739258 2.662006139755249 62.56626892089844 4.953731060028076 C 67.80043029785156 7.167593955993652 72.50150299072266 10.33724403381348 76.53890228271484 14.37464332580566 C 80.57630920410156 18.41203117370605 83.74595642089844 23.11310577392578 85.95981597900391 28.34726905822754 C 88.25154113769531 33.76551818847656 89.41354370117188 39.52198028564453 89.41354370117188 45.45676803588867 C 89.41354370117188 51.39208221435547 88.25154113769531 57.14855575561523 85.95981597900391 62.56679534912109 C 83.74595642089844 67.80095672607422 80.57630920410156 72.50202941894531 76.53890228271484 76.5394287109375 C 72.50150299072266 80.57682800292969 67.80043029785156 83.74648284912109 62.56626892089844 85.96034240722656 C 57.14802932739258 88.25206756591797 51.39155578613281 89.41407012939453 45.45676803588867 89.41407012939453 Z" stroke="none"/>
          <path d="M 45.45676803588867 3 C 39.72381210327148 3 34.1639404296875 4.12213134765625 28.93159484863281 6.335227966308594 C 23.87622833251953 8.473472595214844 19.33542633056641 11.53517150878906 15.43529510498047 15.435302734375 C 11.53517150878906 19.33543395996094 8.473464965820312 23.87622833251953 6.335227966308594 28.93160247802734 C 4.122123718261719 34.16394424438477 3 39.72381591796875 3 45.4572868347168 C 3 51.19024658203125 4.122123718261719 56.75011825561523 6.335227966308594 61.98246002197266 C 8.473464965820312 67.03782653808594 11.53517150878906 71.57862854003906 15.43529510498047 75.478759765625 C 19.33542633056641 79.37889099121094 23.87622833251953 82.44058990478516 28.93159484863281 84.57883453369141 C 34.1639404296875 86.79193115234375 39.72381210327148 87.9140625 45.45676803588867 87.9140625 C 51.18972396850586 87.9140625 56.74959564208984 86.79193115234375 61.98194122314453 84.57883453369141 C 67.03730773925781 82.44058990478516 71.57810974121094 79.37889099121094 75.47824096679688 75.478759765625 C 79.37837219238281 71.57862854003906 82.44007110595703 67.03782653808594 84.57830810546875 61.98246002197266 C 86.79141235351562 56.75011825561523 87.91353607177734 51.19024658203125 87.91353607177734 45.4567756652832 C 87.91353607177734 39.72381591796875 86.79141235351562 34.16394424438477 84.57830810546875 28.93160247802734 C 82.44007110595703 23.87622833251953 79.37837219238281 19.33543395996094 75.47824096679688 15.435302734375 C 71.57810974121094 11.53517150878906 67.03730773925781 8.473472595214844 61.98194122314453 6.335227966308594 C 56.74959564208984 4.12213134765625 51.18972396850586 3 45.45676803588867 3 M 45.45676803588867 0 C 70.56185150146484 0 90.91353607177734 20.35169219970703 90.91353607177734 45.4567756652832 L 90.91353607177734 45.4572868347168 C 90.91353607177734 70.5623779296875 70.56185150146484 90.9140625 45.45676803588867 90.9140625 C 20.3516845703125 90.9140625 0 70.5623779296875 0 45.4572868347168 L 0 45.4567756652832 C 0 20.35169219970703 20.3516845703125 0 45.45676803588867 0 Z" stroke="none" fill="#fff"/>
        </g>
      </g>
      <g id="Trazado_874923" data-name="Trazado 874923" transform="translate(0 0)" fill="none">
        <path d="M45.457,0A45.457,45.457,0,0,1,90.914,45.457h0A45.457,45.457,0,0,1,0,45.457H0A45.457,45.457,0,0,1,45.457,0Z" stroke="none"/>
        <path d="M 45.45676803588867 3 C 39.72381210327148 3 34.1639404296875 4.12213134765625 28.93159484863281 6.335227966308594 C 23.87622833251953 8.473472595214844 19.33542633056641 11.53517150878906 15.43529510498047 15.435302734375 C 11.53517150878906 19.33543395996094 8.473464965820312 23.87622833251953 6.335227966308594 28.93160247802734 C 4.122123718261719 34.16394424438477 3 39.72381591796875 3 45.4572868347168 C 3 51.19024658203125 4.122123718261719 56.75011825561523 6.335227966308594 61.98246002197266 C 8.473464965820312 67.03782653808594 11.53517150878906 71.57862854003906 15.43529510498047 75.478759765625 C 19.33542633056641 79.37889099121094 23.87622833251953 82.44058990478516 28.93159484863281 84.57883453369141 C 34.1639404296875 86.79193115234375 39.72381210327148 87.9140625 45.45676803588867 87.9140625 C 51.18972396850586 87.9140625 56.74959564208984 86.79193115234375 61.98194122314453 84.57883453369141 C 67.03730773925781 82.44058990478516 71.57810974121094 79.37889099121094 75.47824096679688 75.478759765625 C 79.37837219238281 71.57862854003906 82.44007110595703 67.03782653808594 84.57830810546875 61.98246002197266 C 86.79141235351562 56.75011825561523 87.91353607177734 51.19024658203125 87.91353607177734 45.4567756652832 C 87.91353607177734 39.72381591796875 86.79141235351562 34.16394424438477 84.57830810546875 28.93160247802734 C 82.44007110595703 23.87622833251953 79.37837219238281 19.33543395996094 75.47824096679688 15.435302734375 C 71.57810974121094 11.53517150878906 67.03730773925781 8.473472595214844 61.98194122314453 6.335227966308594 C 56.74959564208984 4.12213134765625 51.18972396850586 3 45.45676803588867 3 M 45.45676803588867 0 C 70.56185150146484 0 90.91353607177734 20.35169219970703 90.91353607177734 45.4567756652832 L 90.91353607177734 45.4572868347168 C 90.91353607177734 70.5623779296875 70.56185150146484 90.9140625 45.45676803588867 90.9140625 C 20.3516845703125 90.9140625 0 70.5623779296875 0 45.4572868347168 L 0 45.4567756652832 C 0 20.35169219970703 20.3516845703125 0 45.45676803588867 0 Z" stroke="none" fill="#fff"/>
      </g>
    </g>
    <g id="lentes_copia" data-name="lentes copia" transform="translate(821.297 2445.494)">
      <path id="Trazado_1033941" data-name="Trazado 1033941" d="M0,112.294c.56-1.25,1.372-1.5,2.651-1.728,3.917-4.664,6.684-11.022,13.16-12.5.743-.169,2.778-.548,3.379-.211a.969.969,0,0,1-.154,1.709A11.338,11.338,0,0,0,10,103.97c-1.7,2.023-3.151,4.293-4.815,6.349,1.875-.011,3.746-.343,5.615-.491,5.68-.45,11.338-.665,17.031-.735.765-.01,2.554-.5,2.524.859a1.108,1.108,0,0,1-1.06.976c-1.387.2-3.332-.039-4.805.006-1.339.042-2.73.192-4.068.25-1.974.086-3.948.116-5.92.249-3.81.257-8.354.512-12.083,1.118-.336.054-.512.141-.564.486a8.229,8.229,0,0,0,.017,1.155l.1.148a71.623,71.623,0,0,0,7.473-.686,258.632,258.632,0,0,1,44.291,0,69.333,69.333,0,0,0,6.91.746c.213-.006.458.044.626-.123a4.187,4.187,0,0,0,.054-1.241c-.051-.341-.229-.436-.563-.486a188.441,188.441,0,0,0-21.218-1.483c-1.653-.058-4.16.072-5.659-.139a1.108,1.108,0,0,1-1.06-.976c-.03-1.363,1.759-.869,2.524-.859,5.693.072,11.351.284,17.031.735,1.868.149,3.738.492,5.615.491-1.664-2.057-3.112-4.326-4.815-6.349a11.338,11.338,0,0,0-9.04-4.408.955.955,0,0,1,.215-1.832,12.224,12.224,0,0,1,4.876.936c5.169,2.068,7.845,7.857,11.3,11.9,1.305.232,2.194.5,2.651,1.852v2.344a2.467,2.467,0,0,1-2.216,1.609l-.278,4.6c-.192.5-.413.721-.961.7-.48-.015-.778-.19-.856-.686-.123-.79.415-4.7.238-4.865-2.41-.165-4.812-.539-7.217-.74a247.477,247.477,0,0,0-44.476.369c-1.107.111-2.218.3-3.33.371l.617,9.559c.63,5.45,3.667,6.189,8.142,7.589,2.971.93,5.334,2.232,8.473.886a7.467,7.467,0,0,0,3.477-3.322v-.185c-1.572-1.594-.085-4.472.928-6.031a6.979,6.979,0,0,1,11.6-.222c.709,1.024,1.96,3.619,1.767,4.835a11.149,11.149,0,0,1-.709,1.51,6.269,6.269,0,0,0,.637,1.089,7.136,7.136,0,0,0,6.207,2.918c1.668-.131,8.7-2.36,10.049-3.276a7.821,7.821,0,0,0,3.036-4.613c.212-1.025-.131-2.585,1.291-2.719,1.3.473.618,2.9.308,3.948a9.456,9.456,0,0,1-6.075,6.139c-5.3,1.942-11.448,4.328-15.828-.645-.3-.341-1.253-1.912-1.356-1.975-.21-.13-.941-.162-1.3-.306-1.853-.748-1.843-3.89-3.261-4.264-2.495-.658-2.162,3.336-4.169,4.227-.4.18-1.129.195-1.383.344-.118.07-1.015,1.578-1.3,1.91-2.914,3.41-6.486,3.515-10.521,2.375C9.558,134.434,4.089,133.158,3,127l-.779-10.634A2.469,2.469,0,0,1,0,114.76v-2.468Zm31.461,10.98a5,5,0,0,0-4.382,2.712c-.381.663-2.125,3.815-.263,3.669.849-.067,1.273-1.957,1.662-2.641a15.974,15.974,0,0,1,1.009-1.273,3.534,3.534,0,0,1,4.914.823c.487.675,1.006,2.455,1.416,2.839.769.721,1.668-.062,1.291-1.229-.862-2.67-2.6-4.957-5.647-4.9Z" fill="#030303"/>
      <path id="Trazado_1033942" data-name="Trazado 1033942" d="M45.959,196.991a1.108,1.108,0,0,0,1.06.976c1.5.212,4.006.081,5.659.139A188.444,188.444,0,0,1,73.9,199.59c.334.051.512.146.563.486-2.577-.054-5.144-.514-7.712-.739a252.938,252.938,0,0,0-44.044,0c-2.569.225-5.132.7-7.712.739.051-.345.228-.432.564-.486,3.73-.606,8.274-.861,12.083-1.118,1.972-.132,3.946-.163,5.92-.249,1.337-.058,2.729-.208,4.068-.25,1.473-.046,3.419.19,4.805-.006a1.108,1.108,0,0,0,1.06-.976h2.468Z" transform="translate(-13.141 -87.042)" fill="#465362"/>
      <path id="Trazado_1033943" data-name="Trazado 1033943" d="M60,235.514a247.482,247.482,0,0,1,44.476-.369c2.406.2,4.808.575,7.217.74.176.168-.361,4.075-.238,4.865.078.5.376.671.856.686l-.123,2.468c-1.42.134-1.078,1.694-1.291,2.719a7.831,7.831,0,0,1-3.036,4.613c-1.352.917-8.381,3.145-10.049,3.276a7.136,7.136,0,0,1-6.207-2.918,6.27,6.27,0,0,1-.637-1.089,11.306,11.306,0,0,0,.709-1.51c.192-1.218-1.057-3.811-1.767-4.835a6.98,6.98,0,0,0-11.6.222c-1.013,1.558-2.5,4.435-.927,6.031v.185a7.467,7.467,0,0,1-3.477,3.323c-3.14,1.346-5.5.044-8.473-.886a9.5,9.5,0,0,1-4.81-7.959L60,235.514Z" transform="translate(-52.597 -119.766)" fill="#b8e0f9"/>
      <path id="Trazado_1033944" data-name="Trazado 1033944" d="M74.314,209.933a4.144,4.144,0,0,1-.054,1.241c-.168.168-.411.116-.626.123-2.009.062-4.815-.568-6.91-.746a258.628,258.628,0,0,0-44.291,0,71.627,71.627,0,0,1-7.473.686l-.1-.148a8.426,8.426,0,0,1-.017-1.155c2.58-.038,5.144-.514,7.712-.739a252.941,252.941,0,0,1,44.044,0c2.569.226,5.134.686,7.712.739Z" transform="translate(-12.996 -96.899)" fill="#2f3947"/>
      <path id="Trazado_1033945" data-name="Trazado 1033945" d="M36.34,244l.618,9.56a9.5,9.5,0,0,0,4.81,7.959c-4.475-1.4-7.511-2.139-8.142-7.589l-.617-9.559C34.122,244.3,35.233,244.111,36.34,244Z" transform="translate(-28.937 -128.252)" fill="#98d1f3"/>
      <path id="Trazado_1033946" data-name="Trazado 1033946" d="M240.974,304.993c3.05-.056,4.785,2.231,5.647,4.9.378,1.168-.522,1.949-1.29,1.229-.411-.385-.929-2.165-1.416-2.839a3.534,3.534,0,0,0-4.914-.823c.1-.141.122-.394.243-.558A9.858,9.858,0,0,1,240.974,304.993Z" transform="translate(-209.513 -181.719)" fill="#80b6f7"/>
      <path id="Trazado_1033947" data-name="Trazado 1033947" d="M216,305a9.819,9.819,0,0,0-1.731,1.91c-.121.164-.146.417-.243.558a15.43,15.43,0,0,0-1.009,1.273c-.389.685-.812,2.575-1.662,2.641-1.862.146-.118-3.007.263-3.669A5,5,0,0,1,216,305Z" transform="translate(-184.537 -181.726)" fill="#619df6"/>
    </g>
  </g>
</svg>
