<svg xmlns="http://www.w3.org/2000/svg" xmlns:xlink="http://www.w3.org/1999/xlink" width="108.914" height="108.914" viewBox="0 0 108.914 108.914">
  <defs>
    <filter id="Trazado_874925" x="0" y="0" width="108.914" height="108.914" filterUnits="userSpaceOnUse">
      <feOffset dy="3" input="SourceAlpha"/>
      <feGaussianBlur stdDeviation="3" result="blur"/>
      <feFlood flood-opacity="0.161"/>
      <feComposite operator="in" in2="blur"/>
      <feComposite in="SourceGraphic"/>
    </filter>
  </defs>
  <g id="Grupo_1111714" data-name="Grupo 1111714" transform="translate(-798.427 -2511.157)">
    <g id="Grupo_1109818" data-name="Grupo 1109818" transform="translate(807.427 2517.157)">
      <g transform="matrix(1, 0, 0, 1, -9, -6)" filter="url(#Trazado_874925)">
        <g id="Trazado_874925-2" data-name="Trazado 874925" transform="translate(9 6)" fill="#efdb59" opacity="0.859">
          <path d="M 45.45676803588867 89.41407012939453 C 39.52198028564453 89.41407012939453 33.76551818847656 88.25206756591797 28.34726715087891 85.96034240722656 C 23.11311721801758 83.74648284912109 18.41204261779785 80.57682800292969 14.37464332580566 76.5394287109375 C 10.33724308013916 72.50202941894531 7.167593002319336 67.80095672607422 4.953730583190918 62.56679534912109 C 2.662005424499512 57.14855575561523 1.500005483627319 51.39208221435547 1.500005483627319 45.45729446411133 C 1.500005483627319 39.52198028564453 2.662005424499512 33.76551818847656 4.953730583190918 28.34726905822754 C 7.167593002319336 23.11310577392578 10.33724308013916 18.41203117370605 14.37464332580566 14.37464332580566 C 18.41204261779785 10.33724403381348 23.11311721801758 7.167593955993652 28.34726715087891 4.953731060028076 C 33.76551818847656 2.662006139755249 39.52198028564453 1.500006198883057 45.45676803588867 1.500006198883057 C 51.39155578613281 1.500006198883057 57.14802932739258 2.662006139755249 62.56626892089844 4.953731060028076 C 67.80043029785156 7.167593955993652 72.50150299072266 10.33724403381348 76.53890228271484 14.37464332580566 C 80.57630920410156 18.41203117370605 83.74595642089844 23.11310577392578 85.95981597900391 28.34726905822754 C 88.25154113769531 33.76551818847656 89.41354370117188 39.52198028564453 89.41354370117188 45.45676803588867 C 89.41354370117188 51.39208221435547 88.25154113769531 57.14855575561523 85.95981597900391 62.56679534912109 C 83.74595642089844 67.80095672607422 80.57630920410156 72.50202941894531 76.53890228271484 76.5394287109375 C 72.50150299072266 80.57682800292969 67.80043029785156 83.74648284912109 62.56626892089844 85.96034240722656 C 57.14802932739258 88.25206756591797 51.39155578613281 89.41407012939453 45.45676803588867 89.41407012939453 Z" stroke="none"/>
          <path d="M 45.45676803588867 3 C 39.72381210327148 3 34.1639404296875 4.12213134765625 28.93159484863281 6.335227966308594 C 23.87622833251953 8.473472595214844 19.33542633056641 11.53517150878906 15.43529510498047 15.435302734375 C 11.53517150878906 19.33543395996094 8.473464965820312 23.87622833251953 6.335227966308594 28.93160247802734 C 4.122123718261719 34.16394424438477 3 39.72381591796875 3 45.4572868347168 C 3 51.19024658203125 4.122123718261719 56.75011825561523 6.335227966308594 61.98246002197266 C 8.473464965820312 67.03782653808594 11.53517150878906 71.57862854003906 15.43529510498047 75.478759765625 C 19.33542633056641 79.37889099121094 23.87622833251953 82.44058990478516 28.93159484863281 84.57883453369141 C 34.1639404296875 86.79193115234375 39.72381210327148 87.9140625 45.45676803588867 87.9140625 C 51.18972396850586 87.9140625 56.74959564208984 86.79193115234375 61.98194122314453 84.57883453369141 C 67.03730773925781 82.44058990478516 71.57810974121094 79.37889099121094 75.47824096679688 75.478759765625 C 79.37837219238281 71.57862854003906 82.44007110595703 67.03782653808594 84.57830810546875 61.98246002197266 C 86.79141235351562 56.75011825561523 87.91353607177734 51.19024658203125 87.91353607177734 45.4567756652832 C 87.91353607177734 39.72381591796875 86.79141235351562 34.16394424438477 84.57830810546875 28.93160247802734 C 82.44007110595703 23.87622833251953 79.37837219238281 19.33543395996094 75.47824096679688 15.435302734375 C 71.57810974121094 11.53517150878906 67.03730773925781 8.473472595214844 61.98194122314453 6.335227966308594 C 56.74959564208984 4.12213134765625 51.18972396850586 3 45.45676803588867 3 M 45.45676803588867 0 C 70.56185150146484 0 90.91353607177734 20.35169219970703 90.91353607177734 45.4567756652832 L 90.91353607177734 45.4572868347168 C 90.91353607177734 70.5623779296875 70.56185150146484 90.9140625 45.45676803588867 90.9140625 C 20.3516845703125 90.9140625 0 70.5623779296875 0 45.4572868347168 L 0 45.4567756652832 C 0 20.35169219970703 20.3516845703125 0 45.45676803588867 0 Z" stroke="none" fill="#fff"/>
        </g>
      </g>
      <g id="Trazado_874923" data-name="Trazado 874923" transform="translate(0 0)" fill="none">
        <path d="M45.457,0A45.457,45.457,0,0,1,90.914,45.457h0A45.457,45.457,0,0,1,0,45.457H0A45.457,45.457,0,0,1,45.457,0Z" stroke="none"/>
        <path d="M 45.45676803588867 3 C 39.72381210327148 3 34.1639404296875 4.12213134765625 28.93159484863281 6.335227966308594 C 23.87622833251953 8.473472595214844 19.33542633056641 11.53517150878906 15.43529510498047 15.435302734375 C 11.53517150878906 19.33543395996094 8.473464965820312 23.87622833251953 6.335227966308594 28.93160247802734 C 4.122123718261719 34.16394424438477 3 39.72381591796875 3 45.4572868347168 C 3 51.19024658203125 4.122123718261719 56.75011825561523 6.335227966308594 61.98246002197266 C 8.473464965820312 67.03782653808594 11.53517150878906 71.57862854003906 15.43529510498047 75.478759765625 C 19.33542633056641 79.37889099121094 23.87622833251953 82.44058990478516 28.93159484863281 84.57883453369141 C 34.1639404296875 86.79193115234375 39.72381210327148 87.9140625 45.45676803588867 87.9140625 C 51.18972396850586 87.9140625 56.74959564208984 86.79193115234375 61.98194122314453 84.57883453369141 C 67.03730773925781 82.44058990478516 71.57810974121094 79.37889099121094 75.47824096679688 75.478759765625 C 79.37837219238281 71.57862854003906 82.44007110595703 67.03782653808594 84.57830810546875 61.98246002197266 C 86.79141235351562 56.75011825561523 87.91353607177734 51.19024658203125 87.91353607177734 45.4567756652832 C 87.91353607177734 39.72381591796875 86.79141235351562 34.16394424438477 84.57830810546875 28.93160247802734 C 82.44007110595703 23.87622833251953 79.37837219238281 19.33543395996094 75.47824096679688 15.435302734375 C 71.57810974121094 11.53517150878906 67.03730773925781 8.473472595214844 61.98194122314453 6.335227966308594 C 56.74959564208984 4.12213134765625 51.18972396850586 3 45.45676803588867 3 M 45.45676803588867 0 C 70.56185150146484 0 90.91353607177734 20.35169219970703 90.91353607177734 45.4567756652832 L 90.91353607177734 45.4572868347168 C 90.91353607177734 70.5623779296875 70.56185150146484 90.9140625 45.45676803588867 90.9140625 C 20.3516845703125 90.9140625 0 70.5623779296875 0 45.4572868347168 L 0 45.4567756652832 C 0 20.35169219970703 20.3516845703125 0 45.45676803588867 0 Z" stroke="none" fill="#fff"/>
      </g>
    </g>
    <g id="delantal_copia" data-name="delantal copia" transform="translate(767.31 2527.083)">
      <path id="Trazado_1033948" data-name="Trazado 1033948" d="M74.063,22.321c-1.19.211-2.142,2.722-3,3.625-1.533,1.608-3.519,1.274-5.5.917l.049-.522c1.152-.376,2.5-.137,3.517-.9.934-.7,1.362-2.753,2.038-3.81,1.585-2.474,4.4-2.079,6.988-2.174.149-.144.483-3.438.813-4.06a.981.981,0,0,1,1.014-.482c-.664-3.393-1.268-6.222.8-9.266C85.029-.6,91.755,4.486,91.546,10.568c-.049,1.423-.563,2.918-.653,4.344a.992.992,0,0,1,1.01.483c.3.577.61,3.781.825,3.919,2.559.248,5.167-.341,6.924,1.977.608.8.792,1.913,1.376,2.653,1.6,2.029,4.619-.237,6.579-.321.492-.021.574.308.248.65a15.977,15.977,0,0,1-1.5.842c-2.272,1.26-4.663,2.547-6.951.449-.66-.6-1.85-3.115-2.6-3.115H93.358a9.907,9.907,0,0,0,4.462,5.61c.927.534,2.866,1.055,3.514,1.554a1.177,1.177,0,0,1,.367.542c1.63,7.286,3.25,14.58,4.742,21.9.319,1.565,1.433,5.655,1.329,6.96-.135,1.684-2.932,3.32-4.288,4.165-11.5,7.159-27.007,6.792-37.975-1.248-3.124-2.291-2.563-2.656-1.868-6.238,1.656-8.554,3.7-17.046,5.482-25.576a.946.946,0,0,1,.492-.548c.924-.589,2.445-.92,3.51-1.558A9.822,9.822,0,0,0,77.5,22.321c-1.033.128-2.467-.173-3.445,0Zm15.788-7.407c-.412-2.611-.424-5.465-2.273-7.539-1.565-1.755-2.746-1.729-4.292,0-1.975,2.211-1.724,4.825-2.4,7.537h8.967ZM71.008,39.6c.019-.005.064-.178.135-.192,1.849-.347,4.307.116,6.232-.068V36.811a3.154,3.154,0,0,1,1.861-2.3c1.449-.544,3.569-.128,5.087-.1a60.03,60.03,0,0,1,6.621.137c2.058.282,2.2,2.173,2.161,3.827-.052,2.069-.281,4.683-.525,6.752a13.4,13.4,0,0,1-.321,2.149c-.5,1.584-3.609,2.852-5.118,3.263l-.007,8.481a1.516,1.516,0,0,0,.248.662c1.048,1.578,6.463,1.128,6.109,4.223a29.556,29.556,0,0,0,11.06-5.259l.087-.234L99.6,31.225a12.152,12.152,0,0,1-7.442-7.243c-.889-2.526-.87-5.387-1.265-8.026l-4.748-.125a2.9,2.9,0,0,0-1.549,0l-4.612.132C79.49,18.84,79.6,21.9,78.44,24.62a12.67,12.67,0,0,1-7.232,6.673c-.629,2.745-.993,5.546-1.5,8.313q-1.7,9.346-3.484,18.687a.375.375,0,0,0,.092.357,21.352,21.352,0,0,0,3.434,2.291A32.593,32.593,0,0,0,89.51,64.8a17.857,17.857,0,0,0,3.335-.719,1.742,1.742,0,0,0-.53-1.533c-.924-.743-3.479-1.107-4.635-1.733-.3-.165-1.208-1.1-1.208-1.391V50.653a10.624,10.624,0,0,1-6.154-.8c-1.274-.567-2.27-1.164-2.542-2.656a35.808,35.808,0,0,1-.275-4.273c-.035-.974.036-1.958.005-2.93l-6.179.01-.321-.4Zm9.616-2.079v1.819h4.744a4.6,4.6,0,0,1,1.173.776,4.329,4.329,0,0,1,.58,1.109v7.863a7.527,7.527,0,0,0,2.817-.625c1.053-.449,1.377-.684,1.341-1.906-.031-1.055-.308-2.3-.388-3.382-.144-1.927-.215-3.86-.39-5.782l-9.876.13ZM81.664,40H80.626l-.13,1.038c.151.159,1.073-.858,1.17-1.038Zm2.989,0H82.64l-2.145,2.145v2.013Zm-4.287,7.277.39-.194,5.463-5.451c.388-.466-.184-1.429-.716-1.379l-5.016,4.872a4.958,4.958,0,0,0-.121,2.15Zm6.106-4.938-5.328,5.39c.033.139,1.178.768,1.426.525.366-.574,3.9-3.625,3.9-3.9V42.335Zm0,3.119c-.227-.057-.26.094-.392.194a25.954,25.954,0,0,0-2.668,2.66c-.177.234-.378.4-.009.539a4.22,4.22,0,0,0,1.414.225,12.932,12.932,0,0,0,1.653-1.6V45.454Z" transform="translate(0 0)" fill="#040303"/>
      <path id="Trazado_1033949" data-name="Trazado 1033949" d="M101.242,101.312c.5-2.769.868-5.569,1.5-8.313a12.676,12.676,0,0,0,7.232-6.673c1.156-2.719,1.05-5.782,1.544-8.656l4.612-.132a2.9,2.9,0,0,1,1.549,0l4.748.125c.4,2.641.376,5.5,1.265,8.026a12.143,12.143,0,0,0,7.442,7.243l5.039,27.189-.087.234a29.556,29.556,0,0,1-11.06,5.259c.355-3.095-5.061-2.646-6.109-4.223a1.524,1.524,0,0,1-.248-.662l.007-8.481c1.509-.411,4.619-1.679,5.118-3.263a13.425,13.425,0,0,0,.321-2.149c.244-2.067.475-4.682.525-6.752.042-1.655-.1-3.545-2.161-3.827a60.462,60.462,0,0,0-6.621-.137c-1.518-.028-3.639-.444-5.087.1a3.154,3.154,0,0,0-1.861,2.3v2.533c-1.927.185-4.384-.279-6.232.068-.071.014-.114.185-.135.192-.3.09-.943-.062-1.3,0Zm15.722-22.74a21.745,21.745,0,0,0-4.676-.26l-.26,3.377c.369.068.213-.088.293-.284a22.8,22.8,0,0,0,.634-2.426c1.048-.028,2.123-.029,3.166-.147.189-.021.778-.059.846-.258Zm15.2,29.627c-.22-.005-.281-.073-.25.184a43.08,43.08,0,0,0,1.518,8.5c.075.21-.068.348.293.284a42.936,42.936,0,0,0-1.561-8.965Zm1.805,9.634c-.839-.525-.373,1.92.156,1.206C134.355,118.822,134.119,117.923,133.974,117.833Z" transform="translate(-31.533 -61.708)" fill="#ec6f66"/>
      <path id="Trazado_1033950" data-name="Trazado 1033950" d="M85.861,215.176l.321.4,6.179-.01c.029.972-.04,1.956-.005,2.93a35.806,35.806,0,0,0,.275,4.273c.272,1.492,1.268,2.09,2.542,2.656a10.638,10.638,0,0,0,6.154.8v8.771c0,.291.906,1.227,1.208,1.391,1.156.626,3.711.989,4.635,1.733a1.742,1.742,0,0,1,.53,1.533,17.888,17.888,0,0,1-3.335.719,32.566,32.566,0,0,1-19.758-3.86,21.392,21.392,0,0,1-3.434-2.291.371.371,0,0,1-.092-.357q1.767-9.338,3.484-18.687c.357-.062,1,.09,1.3,0Z" transform="translate(-14.853 -175.572)" fill="#cb5151"/>
      <path id="Trazado_1033951" data-name="Trazado 1033951" d="M164.242,202.63l9.876-.13c.175,1.922.246,3.857.39,5.782.081,1.079.357,2.327.388,3.382.036,1.222-.288,1.457-1.341,1.906a7.493,7.493,0,0,1-2.817.625v-7.863a4.358,4.358,0,0,0-.58-1.109,4.6,4.6,0,0,0-1.173-.776H164.24v-1.819Z" transform="translate(-83.617 -165.105)" fill="#e2e6e8"/>
      <path id="Trazado_1033952" data-name="Trazado 1033952" d="M162.378,225.983a4.956,4.956,0,0,1,.121-2.15l5.016-4.872c.53-.052,1.1.913.716,1.379l-5.463,5.451-.39.194Z" transform="translate(-82.012 -178.712)" fill="#c1c7cd"/>
      <path id="Trazado_1033953" data-name="Trazado 1033953" d="M172.578,230.992v2.013c0,.275-3.536,3.327-3.9,3.9-.248.243-1.393-.386-1.426-.525l5.328-5.39Z" transform="translate(-86.105 -188.659)" fill="#c6ccd3"/>
      <path id="Trazado_1033954" data-name="Trazado 1033954" d="M167.658,217.5l-4.158,4.158v-2.013l2.145-2.145Z" transform="translate(-83.005 -177.506)" fill="#c8ced4"/>
      <path id="Trazado_1033955" data-name="Trazado 1033955" d="M182.371,248.932v2.013a13.048,13.048,0,0,1-1.653,1.6,4.265,4.265,0,0,1-1.414-.225c-.371-.139-.17-.3.009-.539a26.671,26.671,0,0,1,2.668-2.66c.132-.1.165-.251.392-.194Z" transform="translate(-95.899 -203.48)" fill="#bec3ca"/>
      <path id="Trazado_1033956" data-name="Trazado 1033956" d="M164.67,217.51c-.1.18-1.019,1.2-1.17,1.038l.13-1.038h1.038Z" transform="translate(-83.005 -177.514)" fill="#c0c6cd"/>
      <path id="Trazado_1033957" data-name="Trazado 1033957" d="M278.51,254.943a42.96,42.96,0,0,1,1.561,8.965c-.36.062-.218-.075-.293-.284a43.356,43.356,0,0,1-1.518-8.5c-.033-.256.028-.189.25-.184Z" transform="translate(-177.874 -208.452)" fill="#ec6f66"/>
      <path id="Trazado_1033958" data-name="Trazado 1033958" d="M168.428,82.728c-.066.2-.655.236-.846.258-1.043.118-2.117.12-3.166.147a22.691,22.691,0,0,1-.634,2.426c-.08.2.076.352-.293.284l.26-3.377a21.863,21.863,0,0,1,4.676.26Z" transform="translate(-82.997 -65.863)" fill="#ec6f66"/>
      <path id="Trazado_1033959" data-name="Trazado 1033959" d="M287.967,310.242c.146.092.381.989.156,1.206C287.594,312.16,287.128,309.715,287.967,310.242Z" transform="translate(-185.526 -254.117)" fill="#ec6f66"/>
    </g>
  </g>
</svg>
