<svg xmlns="http://www.w3.org/2000/svg" xmlns:xlink="http://www.w3.org/1999/xlink" width="108" height="108" viewBox="0 0 108 108">
  <defs>
    <filter id="Trazado_896985" x="0" y="0" width="108" height="108" filterUnits="userSpaceOnUse">
      <feOffset dy="3" input="SourceAlpha"/>
      <feGaussianBlur stdDeviation="3" result="blur"/>
      <feFlood flood-opacity="0.161"/>
      <feComposite operator="in" in2="blur"/>
      <feComposite in="SourceGraphic"/>
    </filter>
  </defs>
  <g id="Grupo_1109826" data-name="Grupo 1109826" transform="translate(-747.781 -3827)">
    <g id="Grupo_1098742" data-name="Grupo 1098742" transform="translate(-446.539 3444.258)">
      <g transform="matrix(1, 0, 0, 1, 1194.32, 382.74)" filter="url(#Trazado_896985)">
        <g id="Trazado_896985-2" data-name="Trazado 896985" transform="translate(9 6)" fill="#efdb59" opacity="0.859">
          <path d="M 44.99993896484375 88.5 C 39.12682723999023 88.5 33.4301872253418 87.35007476806641 28.06826400756836 85.08217620849609 C 22.88850212097168 82.89132690429688 18.23627662658691 79.75461578369141 14.2408390045166 75.75916290283203 C 10.24540138244629 71.76372528076172 7.108676433563232 67.11151123046875 4.917826652526855 61.9317512512207 C 2.649926424026489 56.56982421875 1.500001430511475 50.87317657470703 1.500001430511475 45.00006103515625 C 1.500001430511475 39.12682342529297 2.649926424026489 33.4301872253418 4.917826652526855 28.06826210021973 C 7.108676433563232 22.88850021362305 10.24540138244629 18.23628807067871 14.2408390045166 14.24083709716797 C 18.23628807067871 10.24540042877197 22.88850212097168 7.108675003051758 28.06826400756836 4.917825222015381 C 33.4301872253418 2.649924993515015 39.12682723999023 1.5 44.99993896484375 1.5 C 50.87305068969727 1.5 56.5697021484375 2.649924993515015 61.93162536621094 4.917825222015381 C 67.11138916015625 7.108675003051758 71.76360321044922 10.24540042877197 75.75904083251953 14.24083709716797 C 79.75448608398438 18.23627471923828 82.89120483398438 22.88850021362305 85.08205413818359 28.06826210021973 C 87.34995269775391 33.4301872253418 88.4998779296875 39.12682342529297 88.4998779296875 44.99993896484375 C 88.4998779296875 50.87317657470703 87.34995269775391 56.56982421875 85.08205413818359 61.9317512512207 C 82.89120483398438 67.11151123046875 79.75448608398438 71.76372528076172 75.75904083251953 75.75916290283203 C 71.76360321044922 79.75461578369141 67.11138916015625 82.89132690429688 61.93162536621094 85.08217620849609 C 56.5697021484375 87.35007476806641 50.87305068969727 88.5 44.99993896484375 88.5 Z" stroke="none"/>
          <path d="M 44.99993896484375 3 C 39.32865142822266 3 33.82860946655273 4.110054016113281 28.65258026123047 6.299331665039062 C 23.65162658691406 8.414558410644531 19.15966796875 11.44332885742188 15.30149841308594 15.30149841308594 C 11.44332122802734 19.15966796875 8.41455078125 23.65162658691406 6.299324035644531 28.65258407592773 C 4.110054016113281 33.82861328125 2.999992370605469 39.32865524291992 2.999992370605469 45.00005722045898 C 2.999992370605469 50.67134475708008 4.110054016113281 56.17138671875 6.299324035644531 61.347412109375 C 8.41455078125 66.34837341308594 11.44332122802734 70.84033203125 15.30149841308594 74.69850158691406 C 19.15966796875 78.55667114257812 23.65162658691406 81.58544158935547 28.65258026123047 83.70066833496094 C 33.82860946655273 85.88994598388672 39.32865142822266 87 44.99993896484375 87 C 50.67122650146484 87 56.17126846313477 85.88994598388672 61.34729766845703 83.70066833496094 C 66.34825134277344 81.58544158935547 70.8402099609375 78.55667114257812 74.69837951660156 74.69850158691406 C 78.55654907226562 70.84033203125 81.5853271484375 66.34837341308594 83.70055389404297 61.347412109375 C 85.88982391357422 56.17138671875 86.9998779296875 50.67134475708008 86.9998779296875 44.99994277954102 C 86.9998779296875 39.32865524291992 85.88982391357422 33.82861328125 83.70055389404297 28.65258407592773 C 81.5853271484375 23.65162658691406 78.55654907226562 19.15966796875 74.69837951660156 15.30149841308594 C 70.8402099609375 11.44332885742188 66.34825134277344 8.414558410644531 61.34729766845703 6.299331665039062 C 56.17126846313477 4.110054016113281 50.67122650146484 3 44.99993896484375 3 M 44.99993896484375 0 C 69.85272216796875 0 89.99988555908203 20.14715576171875 89.99988555908203 44.99994277954102 L 89.99988555908203 45.00005722045898 C 89.99988555908203 69.85284423828125 69.85272216796875 90 44.99993896484375 90 C 20.14715576171875 90 -7.62939453125e-06 69.85284423828125 -7.62939453125e-06 45.00005722045898 L -7.62939453125e-06 44.99994277954102 C -7.62939453125e-06 20.14715576171875 20.14715576171875 0 44.99993896484375 0 Z" stroke="none" fill="#fff"/>
        </g>
      </g>
      <g id="Rectángulo_400907" data-name="Rectángulo 400907" transform="translate(1203.32 388.742)" fill="none" stroke="#fff" stroke-width="3">
        <rect width="90" height="90" rx="45" stroke="none"/>
        <rect x="1.5" y="1.5" width="87" height="87" rx="43.5" fill="none"/>
      </g>
    </g>
    <g id="fresh-food_12503419_copia" data-name="fresh-food_12503419 copia" transform="translate(765.452 3841.699)">
      <path id="Trazado_1033714" data-name="Trazado 1033714" d="M75.448,90.846c-1.67,1.084-3.284,2.247-4.953,3.336a1.532,1.532,0,0,1-1.985-1.508c.708-2.061,2.1-3.854,2.94-5.879-.68-1.805-2.021-3.48-2.714-5.254a1.439,1.439,0,0,1,.475-1.981c1.114-.8,1.763.324,2.747.69V66.974l3.108-5.119L75.085,55c-.5-.525-.849-.68-.974-1.524-.186-1.26.065-2.686,1.536-2.885a31.827,31.827,0,0,1,5.418.045,1.554,1.554,0,0,1,1.243,1.25,4.554,4.554,0,0,1-.319,2.555c-.146.18-.427.268-.494.379-.362.59.123,6.146-.033,7.262l3.086,4.891V71.4a8.1,8.1,0,0,1,3.116-.125c.125-3.186,1.31-7.391,4.857-8.171a7.249,7.249,0,0,1,2.5-.06,10.7,10.7,0,0,1-3.869-6.913c-.18-2.24.033-2.619,2.315-2.44a9.635,9.635,0,0,1,7.913,5.988l.256-.078c.327-.761,2.194-3.211,2.932-3.288a1.044,1.044,0,0,1,1.092,1.35c-.138.445-1.328,1.494-1.715,2.028a9.368,9.368,0,0,0-1.818,5.1c3.748-1.263,8.181-3.568,10.82.836,3.3,5.5,1.255,15.007-3.959,18.811.447.8,1.71,1.659,1.431,2.671-.284,1.034-3.13,3.706-4.065,4.411C98.208,97.649,84.9,97,76.943,90.844c-.165-.128-.376-.633-.665-.607-.342.068-.6.459-.831.607Zm4.862-38.269H76.257l-.186.189v.184h4.237v-.374Zm-.873,2.368H77.068v7.666l-3.116,4.862v3.677a6.377,6.377,0,0,1,3.07-1.105c1.659-.145,2.89.485,4.539-.322a1.582,1.582,0,0,0,.936-2.192c-.394-1.315-2.511-3.49-3.06-4.918ZM99.13,59.682a7.251,7.251,0,0,0-5.982-3.987,7.858,7.858,0,0,0,5.134,6.77c.085.025.743.241.6-.1a13.326,13.326,0,0,0-1.368-1.5c-.457-.429-2.453-1.76-2.606-2.006a1.008,1.008,0,0,1,1.323-1.448l2.9,2.27ZM91.9,75.389a13.853,13.853,0,0,1,.321,2.495l.678-.066c-.1-.786-.728-1.642-.75-2.43s.56-1.363,1.34-1.027c.856.367,1.06,2.9,1.9,3.583A20.911,20.911,0,0,1,107.238,82.8c.176.118.312.06.49,0a11.333,11.333,0,0,0,1.873-1.745c2.737-3.322,3.786-9.472,2.1-13.443-2.036-4.81-6.231-1.566-9.69-.563l.354,4.395a1.043,1.043,0,0,1-1.682.829c-.718-.59-.485-4.343-.693-5.352-3.527-.949-7.586-4.217-9.608.776-.354.873-1.019,3.781-.662,4.571.115.251,1.009.969,1.285,1.333a5.237,5.237,0,0,1,.894,1.787ZM81.182,80.5a6.126,6.126,0,0,1,.683-7.479c.47-.552.9-.429.686-1.493-1.9,1.147-4.045.211-6.01.658a4.926,4.926,0,0,0-2.525,1.589v7.975c.45.264,2.2,1.709,2.588,1.6.18-.048,1.707-1.285,2.094-1.531A14.694,14.694,0,0,1,81.182,80.5Zm7.808-6.186a4.02,4.02,0,0,0-6.778,2.8c-.01.5.384,2.51,1,2.5.319-.007,1.5-.539,1.956-.662a25.174,25.174,0,0,1,4.986-.934,4.519,4.519,0,0,0-1.167-3.7ZM72.705,83.367c-.306-.2-.65-.681-1.119-.686.452.839.9,1.679,1.345,2.525.08.155.259.251.274.281a3.458,3.458,0,0,1,.449,1.5l-2.069,3.861c.224.048.346-.07.519-.166,1.15-.643,2.533-2.049,3.678-2.556a1.206,1.206,0,0,1,.666-.145c.738.027.937.6,1.438.994A23.706,23.706,0,0,0,94.834,93.71a20,20,0,0,0,4.089-.773c.088-.042.173-.066.206-.171s-.1-.219-.118-.3a9.847,9.847,0,0,1-.376-1.371c-.08-.075-1.411.45-1.692.489-2.616.352-4.5-1.647-4.67-4.16-.269-4.067,2.4-6.554,6.362-4.93-.045-.52.785-1.566.291-1.848a16.76,16.76,0,0,0-3.11-.63A25.4,25.4,0,0,0,79.7,83.563a36.242,36.242,0,0,1-2.952,2.167,1.037,1.037,0,0,1-.64-.095c-1.1-.813-2.265-1.517-3.4-2.27Zm28.305,8.721a14.466,14.466,0,0,0,7.18-5.292,12.294,12.294,0,0,0-2.839-2.978c-.736-.577-3.329-2.33-4.165-2.329-.224,0-.15.028-.219.165a12.073,12.073,0,0,0-.655,2.334,14.85,14.85,0,0,0,.7,8.1Zm-6.366-3.61A1.814,1.814,0,0,0,96.8,89.57a9.992,9.992,0,0,0,1.215-.406c.181-.15.115-.367.123-.562.017-.417-.125-.766-.131-1.178-.015-.969.156-1.891.113-2.855-2.9-1.981-4.843,1.373-3.474,3.909Z" transform="translate(-52.755 -37.73)" fill="#030303"/>
      <path id="Trazado_1033715" data-name="Trazado 1033715" d="M53.605,10.484c.037-1.356,1.562-1.8,2.014-.329.241.789.8,3.08.05,3.575a11.4,11.4,0,0,1-3.492.366,1.035,1.035,0,0,1-.55-1.542c.156-.273.484-.307.61-.573a31.144,31.144,0,0,0-10.444-4.2A29.029,29.029,0,1,0,62.978,24.86c-.334-.818-1.981-3.206-.557-3.63,1.2-.357,1.649,1.144,2.053,2.009C75.192,46.2,55.038,71.54,30.291,66.771,7.414,62.362-2.581,34.808,12.224,16.656A31.148,31.148,0,0,1,53.605,10.484Z" transform="translate(0)" fill="#040404"/>
      <path id="Trazado_1033716" data-name="Trazado 1033716" d="M111.746,290.2h-1.5c.226-.146.489-.537.831-.607C111.37,289.566,111.58,290.073,111.746,290.2Z" transform="translate(-87.558 -237.085)" fill="#e9d27a"/>
      <path id="Trazado_1033717" data-name="Trazado 1033717" d="M197.8,148.1a5.236,5.236,0,0,0-.894-1.787c-.276-.364-1.172-1.082-1.285-1.333-.359-.789.307-3.7.662-4.571,2.023-4.993,6.083-1.725,9.608-.776.209,1.009,0,4.782.693,5.352a1.052,1.052,0,0,0,1.682-.829l-.354-4.395c3.459-1,7.654-4.247,9.69.563,1.682,3.971.633,10.12-2.1,13.443a11.4,11.4,0,0,1-1.873,1.745c-.176.063-.314.121-.49,0a20.916,20.916,0,0,0-11.846-4.862c-.839-.688-1.045-3.216-1.9-3.583-.778-.334-1.361.239-1.34,1.027H197.8Z" transform="translate(-158.655 -110.444)" fill="#fc636e"/>
      <path id="Trazado_1033718" data-name="Trazado 1033718" d="M88.122,230.646c1.135.753,2.3,1.458,3.4,2.27a1.025,1.025,0,0,0,.64.095c.329-.043,2.4-1.81,2.952-2.167a25.4,25.4,0,0,1,16.117-3.549,16.758,16.758,0,0,1,3.11.63c.494.283-.336,1.328-.291,1.848-3.959-1.624-6.632.863-6.362,4.93.166,2.511,2.054,4.513,4.67,4.16.281-.038,1.612-.563,1.692-.489a9.621,9.621,0,0,0,.376,1.371c-7.1,1.606-15.165.268-20.876-4.366-.623-.507-1-1.348-1.687-.121a1.213,1.213,0,0,0-.666.145c-1.145.505-2.526,1.913-3.678,2.556-.171.1-.294.214-.519.166l2.069-3.861a3.5,3.5,0,0,0-.449-1.5c.575-.276-.184-1.248-.394-1.664-.05-.1-.324-.419-.1-.455Z" transform="translate(-68.172 -185.009)" fill="#89c7fc"/>
      <path id="Trazado_1033719" data-name="Trazado 1033719" d="M108.8,185.974a14.755,14.755,0,0,0-2.483,1.321c-.387.246-1.915,1.483-2.094,1.531-.392.1-2.137-1.34-2.59-1.6v-7.975a4.944,4.944,0,0,1,2.526-1.589c1.965-.447,4.114.489,6.01-.658.208,1.065-.216.941-.686,1.493a6.126,6.126,0,0,0-.683,7.479Z" transform="translate(-80.371 -143.206)" fill="#fcdf76"/>
      <path id="Trazado_1033720" data-name="Trazado 1033720" d="M106.735,77.25v7.665c.548,1.428,2.666,3.6,3.06,4.918a1.582,1.582,0,0,1-.936,2.192c-1.649.809-2.88.178-4.539.322a6.394,6.394,0,0,0-3.07,1.105V89.777l3.116-4.862V77.25Z" transform="translate(-80.054 -60.035)" fill="#d4e8fa"/>
      <path id="Trazado_1033721" data-name="Trazado 1033721" d="M259.187,247.541a14.85,14.85,0,0,1-.7-8.1,12.071,12.071,0,0,1,.655-2.334c.07-.136-.007-.165.219-.165.836,0,3.429,1.752,4.165,2.329a12.326,12.326,0,0,1,2.839,2.978,14.464,14.464,0,0,1-7.18,5.292Zm2.9-6.6a1.283,1.283,0,1,0-1.283,1.283A1.284,1.284,0,0,0,262.082,240.939Z" transform="translate(-210.932 -193.183)" fill="#5eb4fb"/>
      <path id="Trazado_1033722" data-name="Trazado 1033722" d="M157.735,188.187a4.516,4.516,0,0,1,1.167,3.7,25.271,25.271,0,0,0-4.986.934c-.455.123-1.639.655-1.956.661-.617.012-1.011-1.993-1-2.5a4.02,4.02,0,0,1,6.778-2.8Z" transform="translate(-121.501 -151.605)" fill="#e9b776"/>
      <path id="Trazado_1033723" data-name="Trazado 1033723" d="M138.813,277.3c.02.08.14.181.118.3s-.118.13-.206.171a19.994,19.994,0,0,1-4.089.773,23.721,23.721,0,0,1-16.948-4.739c-.5-.392-.7-.967-1.438-.994.683-1.227,1.062-.386,1.687.121C123.65,277.572,131.711,278.91,138.813,277.3Z" transform="translate(-92.561 -222.569)" fill="#5eb2f8"/>
      <path id="Trazado_1033724" data-name="Trazado 1033724" d="M226.989,256.507a3.327,3.327,0,0,1-3.49-.125c-1.37-2.536.568-5.89,3.474-3.909.043.964-.128,1.886-.113,2.855.007.412.146.761.131,1.178Z" transform="translate(-181.61 -205.635)" fill="#d5e9fa"/>
      <path id="Trazado_1033725" data-name="Trazado 1033725" d="M222.732,85.747l-2.9-2.27a1.008,1.008,0,0,0-1.323,1.448c.153.246,2.149,1.577,2.606,2.006a13.313,13.313,0,0,1,1.368,1.5c.143.341-.514.125-.6.1a7.86,7.86,0,0,1-5.134-6.77A7.251,7.251,0,0,1,222.732,85.747Z" transform="translate(-176.357 -63.795)" fill="#68ebba"/>
      <path id="Trazado_1033726" data-name="Trazado 1033726" d="M225.75,279a3.327,3.327,0,0,0,3.49.125c-.007.194.058.412-.123.562a10.2,10.2,0,0,1-1.215.406A1.814,1.814,0,0,1,225.75,279Z" transform="translate(-183.861 -228.253)" fill="#bcd8f3"/>
      <path id="Trazado_1033727" data-name="Trazado 1033727" d="M118.238,63v.374H114l0-.184.185-.189Z" transform="translate(-90.685 -48.154)" fill="#6e636e"/>
      <path id="Trazado_1033728" data-name="Trazado 1033728" d="M88.13,244.806c-.219.037.055.356.1.455.208.416.969,1.388.394,1.664-.015-.03-.193-.126-.274-.281-.44-.846-.893-1.685-1.345-2.525.469,0,.813.484,1.119.686Z" transform="translate(-68.181 -199.17)" fill="#5daef1"/>
      <path id="Trazado_1033729" data-name="Trazado 1033729" d="M209.5,200.25c.022.788.645,1.644.75,2.43l-.678.066a13.834,13.834,0,0,0-.321-2.495h.249Z" transform="translate(-170.103 -162.592)" fill="#e05862"/>
      <circle id="Elipse_11989" data-name="Elipse 11989" cx="1.283" cy="1.283" r="1.283" transform="translate(48.584 46.472)" fill="#020405"/>
    </g>
  </g>
</svg>
