<svg xmlns="http://www.w3.org/2000/svg" xmlns:xlink="http://www.w3.org/1999/xlink" width="108.914" height="108.914" viewBox="0 0 108.914 108.914">
  <defs>
    <filter id="Trazado_874925" x="0" y="0" width="108.914" height="108.914" filterUnits="userSpaceOnUse">
      <feOffset dy="3" input="SourceAlpha"/>
      <feGaussianBlur stdDeviation="3" result="blur"/>
      <feFlood flood-opacity="0.161"/>
      <feComposite operator="in" in2="blur"/>
      <feComposite in="SourceGraphic"/>
    </filter>
  </defs>
  <g id="Grupo_1111715" data-name="Grupo 1111715" transform="translate(-798.427 -2511.157)">
    <g id="Grupo_1109818" data-name="Grupo 1109818" transform="translate(807.427 2517.157)">
      <g transform="matrix(1, 0, 0, 1, -9, -6)" filter="url(#Trazado_874925)">
        <g id="Trazado_874925-2" data-name="Trazado 874925" transform="translate(9 6)" fill="#efdb59" opacity="0.859">
          <path d="M 45.45676803588867 89.41407012939453 C 39.52198028564453 89.41407012939453 33.76551818847656 88.25206756591797 28.34726715087891 85.96034240722656 C 23.11311721801758 83.74648284912109 18.41204261779785 80.57682800292969 14.37464332580566 76.5394287109375 C 10.33724308013916 72.50202941894531 7.167593002319336 67.80095672607422 4.953730583190918 62.56679534912109 C 2.662005424499512 57.14855575561523 1.500005483627319 51.39208221435547 1.500005483627319 45.45729446411133 C 1.500005483627319 39.52198028564453 2.662005424499512 33.76551818847656 4.953730583190918 28.34726905822754 C 7.167593002319336 23.11310577392578 10.33724308013916 18.41203117370605 14.37464332580566 14.37464332580566 C 18.41204261779785 10.33724403381348 23.11311721801758 7.167593955993652 28.34726715087891 4.953731060028076 C 33.76551818847656 2.662006139755249 39.52198028564453 1.500006198883057 45.45676803588867 1.500006198883057 C 51.39155578613281 1.500006198883057 57.14802932739258 2.662006139755249 62.56626892089844 4.953731060028076 C 67.80043029785156 7.167593955993652 72.50150299072266 10.33724403381348 76.53890228271484 14.37464332580566 C 80.57630920410156 18.41203117370605 83.74595642089844 23.11310577392578 85.95981597900391 28.34726905822754 C 88.25154113769531 33.76551818847656 89.41354370117188 39.52198028564453 89.41354370117188 45.45676803588867 C 89.41354370117188 51.39208221435547 88.25154113769531 57.14855575561523 85.95981597900391 62.56679534912109 C 83.74595642089844 67.80095672607422 80.57630920410156 72.50202941894531 76.53890228271484 76.5394287109375 C 72.50150299072266 80.57682800292969 67.80043029785156 83.74648284912109 62.56626892089844 85.96034240722656 C 57.14802932739258 88.25206756591797 51.39155578613281 89.41407012939453 45.45676803588867 89.41407012939453 Z" stroke="none"/>
          <path d="M 45.45676803588867 3 C 39.72381210327148 3 34.1639404296875 4.12213134765625 28.93159484863281 6.335227966308594 C 23.87622833251953 8.473472595214844 19.33542633056641 11.53517150878906 15.43529510498047 15.435302734375 C 11.53517150878906 19.33543395996094 8.473464965820312 23.87622833251953 6.335227966308594 28.93160247802734 C 4.122123718261719 34.16394424438477 3 39.72381591796875 3 45.4572868347168 C 3 51.19024658203125 4.122123718261719 56.75011825561523 6.335227966308594 61.98246002197266 C 8.473464965820312 67.03782653808594 11.53517150878906 71.57862854003906 15.43529510498047 75.478759765625 C 19.33542633056641 79.37889099121094 23.87622833251953 82.44058990478516 28.93159484863281 84.57883453369141 C 34.1639404296875 86.79193115234375 39.72381210327148 87.9140625 45.45676803588867 87.9140625 C 51.18972396850586 87.9140625 56.74959564208984 86.79193115234375 61.98194122314453 84.57883453369141 C 67.03730773925781 82.44058990478516 71.57810974121094 79.37889099121094 75.47824096679688 75.478759765625 C 79.37837219238281 71.57862854003906 82.44007110595703 67.03782653808594 84.57830810546875 61.98246002197266 C 86.79141235351562 56.75011825561523 87.91353607177734 51.19024658203125 87.91353607177734 45.4567756652832 C 87.91353607177734 39.72381591796875 86.79141235351562 34.16394424438477 84.57830810546875 28.93160247802734 C 82.44007110595703 23.87622833251953 79.37837219238281 19.33543395996094 75.47824096679688 15.435302734375 C 71.57810974121094 11.53517150878906 67.03730773925781 8.473472595214844 61.98194122314453 6.335227966308594 C 56.74959564208984 4.12213134765625 51.18972396850586 3 45.45676803588867 3 M 45.45676803588867 0 C 70.56185150146484 0 90.91353607177734 20.35169219970703 90.91353607177734 45.4567756652832 L 90.91353607177734 45.4572868347168 C 90.91353607177734 70.5623779296875 70.56185150146484 90.9140625 45.45676803588867 90.9140625 C 20.3516845703125 90.9140625 0 70.5623779296875 0 45.4572868347168 L 0 45.4567756652832 C 0 20.35169219970703 20.3516845703125 0 45.45676803588867 0 Z" stroke="none" fill="#fff"/>
        </g>
      </g>
      <g id="Trazado_874923" data-name="Trazado 874923" transform="translate(0 0)" fill="none">
        <path d="M45.457,0A45.457,45.457,0,0,1,90.914,45.457h0A45.457,45.457,0,0,1,0,45.457H0A45.457,45.457,0,0,1,45.457,0Z" stroke="none"/>
        <path d="M 45.45676803588867 3 C 39.72381210327148 3 34.1639404296875 4.12213134765625 28.93159484863281 6.335227966308594 C 23.87622833251953 8.473472595214844 19.33542633056641 11.53517150878906 15.43529510498047 15.435302734375 C 11.53517150878906 19.33543395996094 8.473464965820312 23.87622833251953 6.335227966308594 28.93160247802734 C 4.122123718261719 34.16394424438477 3 39.72381591796875 3 45.4572868347168 C 3 51.19024658203125 4.122123718261719 56.75011825561523 6.335227966308594 61.98246002197266 C 8.473464965820312 67.03782653808594 11.53517150878906 71.57862854003906 15.43529510498047 75.478759765625 C 19.33542633056641 79.37889099121094 23.87622833251953 82.44058990478516 28.93159484863281 84.57883453369141 C 34.1639404296875 86.79193115234375 39.72381210327148 87.9140625 45.45676803588867 87.9140625 C 51.18972396850586 87.9140625 56.74959564208984 86.79193115234375 61.98194122314453 84.57883453369141 C 67.03730773925781 82.44058990478516 71.57810974121094 79.37889099121094 75.47824096679688 75.478759765625 C 79.37837219238281 71.57862854003906 82.44007110595703 67.03782653808594 84.57830810546875 61.98246002197266 C 86.79141235351562 56.75011825561523 87.91353607177734 51.19024658203125 87.91353607177734 45.4567756652832 C 87.91353607177734 39.72381591796875 86.79141235351562 34.16394424438477 84.57830810546875 28.93160247802734 C 82.44007110595703 23.87622833251953 79.37837219238281 19.33543395996094 75.47824096679688 15.435302734375 C 71.57810974121094 11.53517150878906 67.03730773925781 8.473472595214844 61.98194122314453 6.335227966308594 C 56.74959564208984 4.12213134765625 51.18972396850586 3 45.45676803588867 3 M 45.45676803588867 0 C 70.56185150146484 0 90.91353607177734 20.35169219970703 90.91353607177734 45.4567756652832 L 90.91353607177734 45.4572868347168 C 90.91353607177734 70.5623779296875 70.56185150146484 90.9140625 45.45676803588867 90.9140625 C 20.3516845703125 90.9140625 0 70.5623779296875 0 45.4572868347168 L 0 45.4567756652832 C 0 20.35169219970703 20.3516845703125 0 45.45676803588867 0 Z" stroke="none" fill="#fff"/>
      </g>
    </g>
    <g id="pantalones_copia" data-name="pantalones copia" transform="translate(735.784 2530.089)">
      <path id="Trazado_1033960" data-name="Trazado 1033960" d="M131.02,30.669a1.048,1.048,0,0,1-1-1.179c-.025-2.546.372-5.486.5-8.075.092-1.882.086-3.772.247-5.648a7.7,7.7,0,0,1-7.711-7.315L121.7,8.438v8.631c0,.149-.425.552-.58.663-.572.406-2.594,1.106-2.9,1.446a13.278,13.278,0,0,0-.121,3.1c.031.776.157,1.7.246,2.487l2.361,37.565h7.7c.25-2.535.244-5.1.373-7.637.341-6.679.54-13.454.994-20.119a10.47,10.47,0,0,1,.218-1.77.886.886,0,0,1,1.023-.529c1.191.1.9,1.745.874,2.675-.124,5.268-.61,10.617-.879,15.885-.2,3.906-.165,7.9-.493,11.8-.059.709-.118,1.409-.868,1.678H119.344c-.715-.505-.666-1.457-.743-2.3-.641-6.946-.754-14.017-1.244-20.985-.03-.418-.163-.879-.187-1.306l-.308,1.306L115.487,63.38c-.092.541-.313.677-.737.939H104.442a1.892,1.892,0,0,1-.743-1.678c-.644-8-.711-16.3-1.115-24.344-.516-10.29-1.335-20.619-1.625-30.913-.068-2.453-.585-6.235,2.671-6.654h26.959c3.608.523,2.625,4.9,2.535,7.512-.143,4.192-.408,8.362-.621,12.542-.146,2.859-.058,6.008-.367,8.822-.079.728-.364,1.081-1.117,1.056ZM105.935,2.727a12.587,12.587,0,0,0-2.146.026,1.738,1.738,0,0,0-.709.532V6.328c.908,0,1.823.006,2.733,0,.743,0,1.492,0,2.235,0v-3.6c-.7,0-1.409,0-2.111,0Zm4.1,0v3.6H115v-3.6Zm14.157,0h-7.2v3.6h7.2Zm6.954,3.6V3.287a2.676,2.676,0,0,0-.683-.558h-4.285v3.6Zm-.185,1.986h-5.775c0,3.3,2.566,5.175,5.649,5.466l.292-5.26Zm-25.149.124c-.91,0-1.823,0-2.733,0l.25,5.34a9.814,9.814,0,0,0,2.731-.745,5.209,5.209,0,0,0,3.1-4.595c-1.117,0-2.238,0-3.353,0Zm.373,6.831c-.876.3-1.857.3-2.739.569l.261,3.958c.549,13.367,1.293,26.737,1.988,40.113.02.381-.1,2.353.2,2.434.885-.008,1.773-.014,2.655-.008,1.653.012,3.313-.008,4.966,0l2.615-40.292,0-13.6H111.34l-.166.207a7.467,7.467,0,0,1-4.988,6.624ZM119.72,8.689h-1.614v8.2l1.614-.807V8.689Z" transform="translate(0)" fill="#020303"/>
      <path id="Trazado_1033961" data-name="Trazado 1033961" d="M224.356,74.152a.888.888,0,0,0-1.023.529,10.609,10.609,0,0,0-.218,1.77c-.453,6.665-.653,13.44-.994,20.119-.129,2.54-.124,5.1-.373,7.637h-7.7l-2.361-37.565c-.089-.784-.215-1.709-.246-2.487a13.269,13.269,0,0,1,.121-3.1c.306-.342,2.327-1.041,2.9-1.446.154-.11.58-.512.58-.663V50.31l1.353.014a7.694,7.694,0,0,0,7.711,7.315c-.163,1.876-.157,3.766-.247,5.648-.126,2.59-.521,5.529-.5,8.075a1.049,1.049,0,0,0,1,1.179v1.614Z" transform="translate(-93.335 -41.869)" fill="#48b9eb"/>
      <path id="Trazado_1033962" data-name="Trazado 1033962" d="M134.94,57.131a7.466,7.466,0,0,0,4.988-6.624l.166-.207h4.781l0,13.6-2.615,40.292c-1.653-.006-3.313.012-4.966,0L134.94,57.128Z" transform="translate(-28.756 -41.86)" fill="#48b9eb"/>
      <path id="Trazado_1033963" data-name="Trazado 1033963" d="M120.061,94.22l2.359,47.067c-.883-.006-1.772,0-2.655.008-.3-.081-.176-2.053-.2-2.434-.7-13.376-1.439-26.746-1.988-40.113l-.261-3.958c.882-.268,1.865-.266,2.739-.569Z" transform="translate(-13.876 -78.949)" fill="#2ca2cc"/>
      <path id="Trazado_1033964" data-name="Trazado 1033964" d="M262.875,49.5l.166.205-.292,5.26c-3.081-.291-5.654-2.17-5.649-5.466Z" transform="translate(-131.916 -41.185)" fill="#0d86ac"/>
      <path id="Trazado_1033965" data-name="Trazado 1033965" d="M211.6,13.57v3.6h-7.2v-3.6ZM207.316,15.4a1,1,0,1,0-1,1A1,1,0,0,0,207.316,15.4Z" transform="translate(-87.412 -10.843)" fill="#b2d9f0"/>
      <rect id="Rectángulo_404867" data-name="Rectángulo 404867" width="4.968" height="3.601" transform="translate(110.034 2.727)" fill="#99c8da"/>
      <path id="Trazado_1033966" data-name="Trazado 1033966" d="M268.448,17.172H263.48v-3.6h4.285a2.65,2.65,0,0,1,.683.558v3.042Z" transform="translate(-137.303 -10.843)" fill="#b4dbf3"/>
      <path id="Trazado_1033967" data-name="Trazado 1033967" d="M117.7,50.3l.249,4.595a9.814,9.814,0,0,1-2.731.745l-.25-5.34C115.88,50.3,116.793,50.3,117.7,50.3Z" transform="translate(-11.892 -41.859)" fill="#09768f"/>
      <path id="Trazado_1033968" data-name="Trazado 1033968" d="M213.2,51.9v7.39l-1.614.807V51.9Z" transform="translate(-93.484 -43.211)" fill="#5ec9ee"/>
      <path id="Trazado_1033969" data-name="Trazado 1033969" d="M132.54,50.292c1.117,0,2.237,0,3.353,0a5.209,5.209,0,0,1-3.1,4.595Z" transform="translate(-26.729 -41.852)" fill="#0d88ae"/>
      <path id="Trazado_1033970" data-name="Trazado 1033970" d="M117.827,13.38a23.357,23.357,0,0,0-.124,3.6c-.908.006-1.823,0-2.733,0V13.938c0-.1.537-.493.709-.532a12.587,12.587,0,0,1,2.146-.026Z" transform="translate(-11.892 -10.653)" fill="#84b2c0"/>
      <path id="Trazado_1033971" data-name="Trazado 1033971" d="M132.625,13.568c.7,0,1.409,0,2.111,0v3.6c-.743,0-1.492,0-2.235,0a23.359,23.359,0,0,1,.124-3.6Z" transform="translate(-26.69 -10.84)" fill="#9acadc"/>
      <circle id="Elipse_12004" data-name="Elipse 12004" cx="1" cy="1" r="1" transform="translate(117.904 3.561)" fill="#060708"/>
    </g>
  </g>
</svg>
